<svg width="287" height="226" viewBox="0 0 287 226" fill="none" xmlns="http://www.w3.org/2000/svg">
<path d="M6.148 199.366C16.9028 199.847 27.6577 200.088 38.4125 200.066C38.8279 200.066 38.8279 199.41 38.4125 199.41C27.6577 199.432 16.9028 199.191 6.148 198.71C5.73267 198.689 5.73267 199.344 6.148 199.366Z" fill="#E8E8E8"/>
<path d="M39.0682 183.103C40.7514 189.42 42.3253 195.781 43.768 202.164C43.8554 202.58 44.4894 202.405 44.4019 201.989C42.9374 195.606 41.3853 189.245 39.7022 182.928C39.5929 182.534 38.9589 182.709 39.0682 183.103Z" fill="#E8E8E8"/>
<path d="M68.3599 183.584C67.7478 189.595 67.1358 195.628 66.5455 201.64C66.5018 202.055 67.1576 202.055 67.2013 201.64C67.8134 195.628 68.4255 189.595 69.0157 183.584C69.0375 183.168 68.3817 183.168 68.3599 183.584Z" fill="#E8E8E8"/>
<path d="M43.943 202.754C47.7684 203.432 51.6375 203.738 55.5285 203.629C59.2446 203.52 63.3104 203.235 66.8517 202.055C67.2451 201.924 67.0702 201.29 66.6768 201.421C63.1574 202.58 59.2009 202.864 55.5285 202.973C51.7031 203.082 47.8777 202.776 44.1178 202.121C43.7025 202.033 43.5276 202.667 43.943 202.754Z" fill="#E8E8E8"/>
<path d="M39.3306 183.321C43.8555 184.589 48.7739 184.611 53.4518 184.633C58.4795 184.677 63.5072 184.393 68.4911 183.824C68.9064 183.78 68.9064 183.125 68.4911 183.168C63.6383 183.737 58.7637 183.999 53.889 183.977C49.1455 183.955 44.1178 183.955 39.5055 182.687C39.0902 182.578 38.9153 183.212 39.3306 183.321Z" fill="#E8E8E8"/>
<path d="M37.4507 181.07C37.4944 181.485 37.5381 181.922 37.5818 182.338C37.6037 182.6 37.6037 182.928 37.713 183.168C37.9753 183.737 38.8497 183.54 39.3524 183.54C39.7678 183.54 39.7678 182.884 39.3524 182.884C39.112 182.884 38.8715 182.884 38.6092 182.884C38.2813 182.884 38.2813 182.819 38.2595 182.491C38.2158 182.01 38.172 181.551 38.1283 181.07C38.0627 180.655 37.407 180.633 37.4507 181.07Z" fill="#E8E8E8"/>
<path d="M37.8879 181.42C43.3527 182.054 48.8395 182.36 54.348 182.403C57.0586 182.425 59.7692 182.381 62.5016 182.294C63.8569 182.25 65.2122 182.185 66.5675 182.119C67.2014 182.097 68.0758 181.879 68.7097 182.01C69.4748 182.141 69.431 182.797 69.5185 183.474C69.5841 183.343 69.6715 183.212 69.7371 183.081C69.4529 183.081 69.1687 183.081 68.8846 183.081C68.4692 182.993 68.2944 183.627 68.7097 183.715C69.1469 183.802 69.4748 183.802 69.8901 183.715C70.0868 183.671 70.1524 183.474 70.1087 183.321C69.9994 182.556 70.0868 181.594 69.1687 181.398C68.6222 181.267 67.9446 181.42 67.3763 181.441C66.6549 181.485 65.9554 181.507 65.234 181.551C62.1737 181.682 59.0915 181.769 56.0093 181.769C49.9324 181.769 43.8774 181.485 37.8442 180.764C37.4725 180.72 37.4725 181.376 37.8879 181.42Z" fill="#E8E8E8"/>
<path d="M42.6314 197.311C44.3801 199.607 46.4349 201.596 48.752 203.301C49.1018 203.541 49.4296 202.973 49.0799 202.733C46.8502 201.093 44.861 199.169 43.1779 196.962C42.9374 196.634 42.3691 196.962 42.6314 197.311Z" fill="#E8E8E8"/>
<path d="M41.1668 190.644C44.5769 195.563 48.7739 199.869 53.6267 203.388C53.9764 203.629 54.3043 203.061 53.9546 202.82C49.2111 199.366 45.0796 195.126 41.7351 190.316C41.4947 189.967 40.9263 190.295 41.1668 190.644Z" fill="#E8E8E8"/>
<path d="M39.8333 184.786C45.7354 191.781 52.2932 198.317 60.1189 203.17C60.4686 203.388 60.8184 202.82 60.4468 202.601C52.6648 197.792 46.1507 191.3 40.2924 184.327C40.0301 183.999 39.571 184.48 39.8333 184.786Z" fill="#E8E8E8"/>
<path d="M46.107 184.414C51.7249 190.95 57.9548 197.158 64.9061 202.274C65.2559 202.514 65.5838 201.946 65.234 201.705C58.3264 196.634 52.1402 190.426 46.5661 183.955C46.2819 183.627 45.8228 184.086 46.107 184.414Z" fill="#E8E8E8"/>
<path d="M53.2769 184.873C57.0805 189.53 61.4523 193.683 66.3051 197.246C66.6549 197.486 66.9828 196.918 66.633 196.678C61.824 193.158 57.4958 189.027 53.736 184.414C53.4737 184.087 53.0146 184.546 53.2769 184.873Z" fill="#E8E8E8"/>
<path d="M59.1353 184.633C61.5835 187.387 64.3815 189.748 67.4856 191.737C67.8353 191.956 68.1632 191.388 67.8134 191.169C64.7531 189.223 61.9988 186.863 59.5943 184.174C59.3101 183.846 58.8511 184.305 59.1353 184.633Z" fill="#E8E8E8"/>
<path d="M28.8818 148.609C30.3027 151.603 31.2645 154.751 31.811 158.03C31.8328 158.183 31.9859 158.271 32.117 158.271C32.2482 158.271 32.9477 158.249 32.9914 158.467C33.0132 158.555 32.5761 159.057 32.5323 159.167C32.4012 159.517 32.4012 159.932 32.5323 160.282C32.7072 160.697 33.0351 160.981 33.4286 161.134C33.5597 161.2 33.7127 161.222 33.8658 161.243C33.9969 161.265 34.1281 161.265 34.2592 161.243C34.4341 161.222 34.4122 161.243 34.2155 161.331C33.9969 161.659 33.6909 161.702 33.6034 162.183C33.5379 162.642 33.7565 163.08 33.9313 163.473C34.6527 165.003 35.068 166.621 35.6582 168.217C37.6912 173.638 41.5821 178.119 45.9759 181.813C46.3038 182.075 46.7628 181.616 46.4349 181.354C41.91 177.551 37.8879 172.894 35.9861 167.189C35.7457 166.446 35.5271 165.703 35.2648 164.981C35.0462 164.347 34.6308 163.692 34.4341 163.058C34.2155 162.708 34.2374 162.315 34.5215 161.921C34.609 161.855 34.6964 161.79 34.7839 161.724C34.8494 161.615 34.9806 161.549 35.0462 161.418C35.1336 161.178 35.068 160.959 34.8932 160.784C34.609 160.5 34.1718 160.653 33.8002 160.544C32.3793 160.129 33.5379 159.167 33.6472 158.467C33.8002 157.549 32.6635 157.658 32.0514 157.615C32.1607 157.702 32.27 157.768 32.3575 157.855C31.811 154.533 30.8054 151.319 29.3627 148.281C29.2753 147.887 28.7069 148.215 28.8818 148.609Z" fill="#E8E8E8"/>
<path d="M29.1222 148.456C36.2265 150.357 42.4565 155.188 46.9814 160.915C51.7905 166.992 54.7852 174.293 56.4028 181.835C56.4902 182.25 57.1242 182.075 57.0367 181.66C55.3973 174.009 52.3369 166.621 47.4623 160.456C42.8718 154.664 36.5326 149.767 29.319 147.844C28.8818 147.712 28.7069 148.346 29.1222 148.456Z" fill="#E8E8E8"/>
<path d="M31.7017 151.166C40.4017 159.626 47.1126 170.009 51.244 181.441C51.397 181.835 52.031 181.66 51.8779 181.267C47.7028 169.747 40.9482 159.254 32.1607 150.707C31.8766 150.401 31.3957 150.86 31.7017 151.166Z" fill="#E8E8E8"/>
<path d="M35.5708 164.916C37.407 165.113 39.1994 165.528 40.9045 166.206C42.5658 166.861 44.3801 167.692 45.4294 169.2C45.6698 169.55 46.2382 169.222 45.9977 168.872C44.9485 167.364 43.309 166.512 41.6477 165.812C39.7022 164.981 37.6693 164.479 35.5489 164.26C35.1554 164.216 35.1554 164.872 35.5708 164.916Z" fill="#E8E8E8"/>
<path d="M38.8278 152.937C38.8059 155.451 39.2213 157.921 40.0301 160.303C40.1612 160.697 40.7951 160.522 40.664 160.128C39.877 157.811 39.4836 155.407 39.4836 152.937C39.4836 152.521 38.8278 152.521 38.8278 152.937Z" fill="#E8E8E8"/>
<path d="M50.8287 164.828C51.8998 160.828 55.4629 158.445 58.5013 155.997C61.7365 153.396 64.8624 150.62 67.8353 147.734C67.6604 147.625 67.4637 147.516 67.2888 147.406C66.3051 150.051 66.1084 152.827 66.1521 155.625C66.1958 158.423 66.8298 161.637 65.9335 164.347C66.0428 164.26 66.1521 164.194 66.2396 164.107C65.5401 164.151 64.8405 164.216 64.141 164.26C63.9225 164.282 63.7039 164.544 63.8569 164.763C64.3596 165.44 64.9498 165.659 64.928 166.664C64.928 167.364 64.7531 168.173 64.5127 168.829C64.2722 169.506 63.6383 169.965 63.4197 170.599C63.2448 171.168 63.682 171.648 63.682 172.217C63.7039 173.157 63.0262 173.944 62.5453 174.687C62.0863 175.386 61.6709 176.108 61.2993 176.851C60.5561 178.316 59.9659 179.824 59.5287 181.398C59.4194 181.813 60.0533 181.988 60.1626 181.573C60.7091 179.627 61.4961 177.747 62.5234 175.998C63.223 174.818 64.5345 173.441 64.3815 171.954C64.3159 171.364 64.0099 171.189 64.2722 170.512C64.2941 170.49 64.6875 169.965 64.7094 169.922C65.1247 169.244 65.3215 168.479 65.4526 167.714C65.5401 167.145 65.7149 166.446 65.6275 165.878C65.4963 165.069 64.8843 165.003 64.4252 164.391C64.3378 164.566 64.2285 164.719 64.141 164.894C64.8405 164.85 65.5401 164.785 66.2396 164.741C66.3926 164.719 66.5019 164.653 66.5456 164.5C67.3762 161.965 66.8735 159.014 66.786 156.391C66.6986 153.396 66.8079 150.379 67.879 147.537C68.0102 147.21 67.5511 147.013 67.3325 147.21C64.1629 150.292 60.8403 153.243 57.3646 155.997C54.3917 158.358 51.1784 160.762 50.151 164.61C50.0854 165.069 50.7194 165.244 50.8287 164.828Z" fill="#E8E8E8"/>
<path d="M65.4089 150.576C63.2667 154.314 61.0807 158.008 59.0259 161.79C57.1023 165.287 55.3973 168.916 54.5885 172.829C54.501 173.244 55.1349 173.419 55.2224 173.004C56.053 169.003 57.8237 165.331 59.791 161.768C61.8021 158.117 63.9224 154.532 65.9772 150.904C66.174 150.554 65.6056 150.204 65.4089 150.576Z" fill="#E8E8E8"/>
<path d="M58.9604 156.653C59.2446 157.899 59.3757 159.145 59.332 160.413C59.3101 160.828 59.9659 160.828 59.9878 160.413C60.0315 159.079 59.9004 157.79 59.5943 156.478C59.485 156.063 58.873 156.238 58.9604 156.653Z" fill="#E8E8E8"/>
<path d="M62.5234 152.478C62.7639 153.418 62.8076 154.336 62.6983 155.276C62.6546 155.691 63.3104 155.691 63.3541 155.276C63.4853 154.27 63.4197 153.287 63.1574 152.303C63.0481 151.909 62.4141 152.084 62.5234 152.478Z" fill="#E8E8E8"/>
<path d="M62.6765 156.828C63.9662 156.063 65.2996 155.385 66.6768 154.817C67.0702 154.664 66.8953 154.03 66.5019 154.183C65.0592 154.773 63.682 155.472 62.3267 156.259C61.977 156.478 62.3049 157.046 62.6765 156.828Z" fill="#E8E8E8"/>
<path d="M57.0367 167.801C57.8674 167.102 58.6981 166.424 59.5506 165.768C60.4468 165.069 61.4305 164.129 62.5235 163.692C62.9169 163.539 62.7421 162.905 62.3486 163.058C61.3649 163.429 60.5561 164.151 59.7255 164.806C58.6543 165.637 57.6051 166.468 56.5777 167.342C56.2498 167.604 56.7089 168.064 57.0367 167.801Z" fill="#E8E8E8"/>
<path d="M31.7235 155.538C33.2537 155.691 34.7838 155.844 36.314 155.975C36.7293 156.019 36.7293 155.363 36.314 155.319C34.7838 155.166 33.2537 155.013 31.7235 154.882C31.3082 154.838 31.3082 155.494 31.7235 155.538Z" fill="#E8E8E8"/>
<path d="M71.8356 199.148C99.2255 199.148 126.593 199.148 153.983 199.148C161.7 199.148 169.416 199.148 177.133 199.148C177.548 199.148 177.548 198.492 177.133 198.492C149.743 198.492 122.375 198.492 94.9847 198.492C87.2684 198.492 79.552 198.492 71.8356 198.492C71.3984 198.492 71.3984 199.148 71.8356 199.148Z" fill="#E8E8E8"/>
<path d="M164.476 145.592C164.476 148.783 164.476 151.975 164.476 155.166C164.476 155.582 165.132 155.582 165.132 155.166C165.132 151.975 165.132 148.783 165.132 145.592C165.132 145.177 164.476 145.177 164.476 145.592Z" fill="#E8E8E8"/>
<path d="M149.393 156.631C159.995 156.631 170.597 156.631 181.198 156.631C181.614 156.631 181.614 155.975 181.198 155.975C170.597 155.975 159.995 155.975 149.393 155.975C148.978 155.975 148.956 156.631 149.393 156.631Z" fill="#E8E8E8"/>
<path d="M156.519 156.806C156.519 159.56 156.519 162.314 156.519 165.091C156.519 165.506 157.175 165.506 157.175 165.091C157.175 162.336 157.175 159.582 157.175 156.806C157.175 156.369 156.519 156.369 156.519 156.806Z" fill="#E8E8E8"/>
<path d="M172.914 156.631C172.914 159.057 172.914 161.506 172.914 163.932C172.914 164.347 173.569 164.347 173.569 163.932C173.569 161.506 173.569 159.057 173.569 156.631C173.569 156.216 172.914 156.216 172.914 156.631Z" fill="#E8E8E8"/>
<path d="M162.53 165.725C170.64 165.725 178.75 165.725 186.86 165.725C187.275 165.725 187.275 165.069 186.86 165.069C178.75 165.069 170.64 165.069 162.53 165.069C162.115 165.069 162.115 165.725 162.53 165.725Z" fill="#E8E8E8"/>
<path d="M144.19 205.487C162.093 205.487 179.996 205.487 197.899 205.487C198.314 205.487 198.314 204.831 197.899 204.831C179.996 204.831 162.093 204.831 144.19 204.831C143.775 204.831 143.775 205.487 144.19 205.487Z" fill="#E8E8E8"/>
<path d="M218.228 199.825C235.803 199.825 253.4 199.825 270.975 199.825C275.915 199.825 280.855 199.825 285.796 199.825C286.211 199.825 286.211 199.169 285.796 199.169C268.221 199.169 250.624 199.169 233.049 199.169C228.109 199.169 223.168 199.169 218.228 199.169C217.813 199.169 217.813 199.825 218.228 199.825Z" fill="#E8E8E8"/>
<path d="M0.311497 211.017C18.3237 211.017 36.3577 211.017 54.3699 211.017C54.7852 211.017 54.7852 210.362 54.3699 210.362C36.3577 210.362 18.3237 210.362 0.311497 210.362C-0.103832 210.362 -0.103832 211.017 0.311497 211.017Z" fill="#E8E8E8"/>
<path d="M36.6419 217.575C51.3533 217.575 66.0647 217.575 80.7761 217.575C81.1914 217.575 81.1914 216.919 80.7761 216.919C66.0647 216.919 51.3533 216.919 36.6419 216.919C36.2047 216.919 36.2047 217.575 36.6419 217.575Z" fill="#E8E8E8"/>
<path d="M260.286 30.6769C260.286 24.5781 260.286 18.5012 260.286 12.4024C260.286 11.9871 259.63 11.9871 259.63 12.4024C259.63 18.5012 259.63 24.5781 259.63 30.6769C259.63 31.0923 260.286 31.0923 260.286 30.6769Z" fill="#E8E8E8"/>
<path d="M260.176 12.2713C268.068 12.2713 275.959 12.2713 283.85 12.2713C284.266 12.2713 284.266 11.6155 283.85 11.6155C275.959 11.6155 268.068 11.6155 260.176 11.6155C259.761 11.6155 259.761 12.2713 260.176 12.2713Z" fill="#E8E8E8"/>
<path d="M283.522 11.9871C283.479 18.1733 283.435 24.3595 283.369 30.5458C283.369 30.9611 284.025 30.9611 284.025 30.5458C284.069 24.3595 284.113 18.1733 284.178 11.9871C284.178 11.5718 283.522 11.5718 283.522 11.9871Z" fill="#E8E8E8"/>
<path d="M260.286 31.0048C268.068 31.0048 275.85 31.0048 283.632 31.0048C284.047 31.0048 284.047 30.3491 283.632 30.3491C275.85 30.3491 268.068 30.3491 260.286 30.3491C259.87 30.3491 259.87 31.0048 260.286 31.0048Z" fill="#E8E8E8"/>
<path d="M260.92 13.6703C260.92 18.8072 260.92 23.9223 260.92 29.0593C260.92 29.4746 261.575 29.4746 261.575 29.0593C261.575 23.9223 261.575 18.8072 261.575 13.6703C261.575 13.2549 260.92 13.2549 260.92 13.6703Z" fill="#E8E8E8"/>
<path d="M261.401 13.9982C268.308 13.9982 275.194 13.9982 282.101 13.9982C282.517 13.9982 282.517 13.3424 282.101 13.3424C275.194 13.3424 268.308 13.3424 261.401 13.3424C260.963 13.3424 260.963 13.9982 261.401 13.9982Z" fill="#E8E8E8"/>
<path d="M281.752 13.8233C281.73 18.851 281.708 23.8787 281.686 28.9282C281.686 29.3435 282.342 29.3435 282.342 28.9282C282.364 23.9005 282.386 18.8729 282.408 13.8233C282.408 13.408 281.752 13.408 281.752 13.8233Z" fill="#E8E8E8"/>
<path d="M261.532 29.4747C268.33 29.4747 275.128 29.4747 281.927 29.4747C282.342 29.4747 282.342 28.8189 281.927 28.8189C275.128 28.8189 268.33 28.8189 261.532 28.8189C261.116 28.8189 261.116 29.4747 261.532 29.4747Z" fill="#E8E8E8"/>
<path d="M261.401 24.9498C263.914 24.0754 266.559 24.8624 269.008 25.5837C271.5 26.3051 273.948 27.1795 276.331 28.185C276.724 28.338 276.899 27.7041 276.505 27.5511C273.86 26.4363 271.15 25.4963 268.396 24.7312C266.057 24.0973 263.587 23.4852 261.226 24.3159C260.832 24.4471 261.007 25.081 261.401 24.9498Z" fill="#E8E8E8"/>
<path d="M269.707 25.693C273.839 25.4526 277.708 23.7912 281.795 23.3322C282.211 23.2885 282.211 22.6327 281.795 22.6764C277.708 23.1355 273.839 24.7749 269.707 25.0372C269.27 25.0809 269.27 25.7367 269.707 25.693Z" fill="#E8E8E8"/>
<path d="M277.533 17.6924C276.615 17.1678 277.445 15.4409 278.429 15.8562C278.954 16.0748 279.063 16.7087 278.779 17.1678C278.473 17.6706 277.839 17.758 277.314 17.605C276.899 17.4957 276.724 18.1296 277.139 18.2389C278.014 18.4794 278.997 18.217 279.435 17.3645C279.828 16.5994 279.522 15.5939 278.691 15.2442C276.986 14.5228 275.587 17.3645 277.205 18.2608C277.555 18.4575 277.904 17.8891 277.533 17.6924Z" fill="#E8E8E8"/>
<path d="M270.844 11.8341C270.866 11.4625 270.888 11.0909 270.997 10.7411C271.084 10.457 271.303 9.77932 271.631 9.64816C272.221 9.42956 272.44 11.5062 272.483 11.8997C272.527 12.315 273.183 12.315 273.139 11.8997C273.074 11.1346 272.899 8.73006 271.675 8.90494C271.15 8.97052 270.778 9.56072 270.582 9.99791C270.319 10.5663 270.232 11.2002 270.21 11.8122C270.188 12.2494 270.844 12.2494 270.844 11.8341Z" fill="#E8E8E8"/>
<path d="M274.516 113.808C274.516 116.432 274.516 119.077 274.516 121.7C274.516 122.115 275.172 122.115 275.172 121.7C275.172 119.077 275.172 116.432 275.172 113.808C275.172 113.393 274.516 113.393 274.516 113.808Z" fill="#E8E8E8"/>
<path d="M266.581 122.662C272.527 122.662 278.495 122.662 284.44 122.662C284.856 122.662 284.856 122.006 284.44 122.006C278.495 122.006 272.527 122.006 266.581 122.006C266.166 122.006 266.166 122.662 266.581 122.662Z" fill="#E8E8E8"/>
<path d="M269.095 122.858C269.095 124.104 269.095 125.328 269.095 126.574C269.095 126.99 269.751 126.99 269.751 126.574C269.751 125.328 269.751 124.104 269.751 122.858C269.751 122.443 269.095 122.443 269.095 122.858Z" fill="#E8E8E8"/>
<path d="M278.648 123.055C278.648 124.52 278.648 126.006 278.648 127.471C278.648 127.886 279.303 127.886 279.303 127.471C279.303 126.006 279.303 124.52 279.303 123.055C279.303 122.618 278.648 122.618 278.648 123.055Z" fill="#E8E8E8"/>
<path d="M274.013 128.323C278.145 128.323 282.276 128.323 286.408 128.323C286.823 128.323 286.823 127.667 286.408 127.667C282.276 127.667 278.145 127.667 274.013 127.667C273.598 127.667 273.598 128.323 274.013 128.323Z" fill="#E8E8E8"/>
<path d="M122.768 192.24C129.654 187.584 133.108 185.245 134.004 184.961C136.19 184.261 143.272 182.01 149.458 185.792C153.896 188.502 157.984 194.382 156.279 198.317C155.054 201.115 151.316 201.989 147.928 202.798C142.922 203.979 138.638 203.323 136.233 202.754C135.293 203.673 133.785 204.897 131.665 205.706C128.145 207.061 124.08 206.82 123.883 206.012C123.795 205.596 124.67 204.787 128.911 203.126C128.408 202.58 127.665 201.924 126.615 201.465C123.511 200.044 120.407 201.421 119.817 201.705C122.855 203.476 123.511 204.394 123.358 204.897C122.965 206.165 116.779 206.58 115.117 203.673C114.942 203.388 114.461 202.405 114.855 200.547C115.642 197.137 118.484 195.147 122.768 192.24Z" fill="#161616"/>
<path d="M152.759 197.093C153.459 195.65 156.606 196 157.831 196.131C159.404 196.306 160.803 196.459 162.071 197.574C163.033 198.404 164.432 200.219 163.929 201.683C163.47 203.082 161.743 202.973 158.399 204.613C157.831 204.897 152.366 207.585 152.737 209.356C152.89 210.077 153.874 210.056 157 211.389C159.71 212.526 161.306 213.225 162.64 214.755C163.295 215.52 164.607 217.029 164.257 218.559C163.601 221.379 157.743 221.86 157.59 221.422C157.459 221.051 161.569 220.023 161.612 218.1C161.656 216.635 159.361 215.455 157.918 214.69C153.677 212.482 150.814 213.269 149.699 211.148C149.065 209.946 149.415 208.657 149.48 208.416C149.808 207.236 150.726 206.23 155.207 203.979C159.295 201.924 161.109 201.443 161.088 200.525C161.066 199.672 159.492 198.973 158.53 198.732C155.819 198.011 153.83 199.716 152.912 198.754C152.519 198.317 152.541 197.574 152.759 197.093Z" fill="#161616"/>
<path d="M115.423 186.513C116.8 187.54 118.178 188.568 119.555 189.595C121.522 189.398 123.468 189.224 125.435 189.027C126.659 187.846 127.883 186.644 129.107 185.464C129.195 186.207 129.37 187.89 129.435 188.699C130.2 195.978 130.266 196.612 129.807 197.443C128.298 200.131 123.205 201.224 120.276 199.344C118.855 198.426 118.309 197.049 117.281 194.404C116.035 191.213 115.598 188.415 115.423 186.513Z" fill="#161616"/>
<path d="M120.976 194.076C120.648 194.754 119.926 195.169 119.183 195.038C118.986 194.994 118.899 195.322 119.096 195.344C119.992 195.497 120.888 195.06 121.26 194.229C121.347 194.054 121.085 193.88 120.976 194.076Z" fill="white"/>
<path d="M124.014 193.858C124.735 194.557 125.697 194.863 126.681 194.71C126.899 194.688 126.79 194.36 126.593 194.404C125.719 194.535 124.867 194.251 124.233 193.639C124.08 193.486 123.861 193.705 124.014 193.858Z" fill="white"/>
<path d="M122.855 195.934C122.79 195.934 122.746 195.913 122.681 195.913C122.702 195.891 122.702 195.847 122.724 195.825C122.768 195.869 122.834 195.913 122.877 195.956C122.877 195.913 122.855 195.891 122.855 195.847C122.79 195.65 122.484 195.738 122.549 195.934C122.659 196.415 122.834 197.158 122.243 197.399C122.047 197.486 122.134 197.792 122.331 197.705C123.118 197.377 123.03 196.525 122.877 195.825C122.768 195.847 122.659 195.891 122.571 195.913C122.571 195.956 122.593 195.978 122.593 196.022C122.615 196.087 122.681 196.153 122.746 196.153C123.315 196.109 122.855 195.322 122.593 195.781C122.484 195.934 122.746 196.109 122.855 195.934Z" fill="white"/>
<path d="M122.637 196.087C122.746 196.459 122.768 196.874 123.008 197.202C123.205 197.465 123.511 197.596 123.839 197.53C124.036 197.486 123.948 197.18 123.752 197.224C123.14 197.355 123.052 196.393 122.943 196C122.899 195.803 122.593 195.891 122.637 196.087Z" fill="white"/>
<path d="M121.588 196.393C120.954 196.109 120.298 195.978 119.598 196.022C119.38 196.044 119.38 196.372 119.598 196.35C120.232 196.306 120.844 196.415 121.413 196.678C121.61 196.765 121.784 196.481 121.588 196.393Z" fill="white"/>
<path d="M121.019 196.831C120.473 196.874 119.992 197.093 119.62 197.464C119.467 197.618 119.708 197.836 119.861 197.705C120.189 197.399 120.582 197.202 121.041 197.158C121.216 197.137 121.216 196.809 121.019 196.831Z" fill="white"/>
<path d="M124.145 196.24C124.779 196 125.413 195.913 126.091 195.978C126.309 196 126.309 195.672 126.091 195.65C125.391 195.585 124.714 195.694 124.058 195.934C123.861 196 123.927 196.328 124.145 196.24Z" fill="white"/>
<path d="M124.582 196.831C125.063 196.765 125.522 196.809 125.981 196.984C126.178 197.049 126.266 196.743 126.069 196.678C125.588 196.503 125.085 196.459 124.582 196.525C124.364 196.525 124.364 196.874 124.582 196.831Z" fill="white"/>
<path d="M119.424 193.114C119.751 192.918 120.145 192.918 120.473 193.114C120.648 193.224 120.823 192.94 120.648 192.83C120.21 192.59 119.708 192.59 119.271 192.83C119.074 192.94 119.249 193.224 119.424 193.114Z" fill="white"/>
<path d="M124.014 192.677C124.342 192.502 124.714 192.459 125.107 192.502C125.304 192.524 125.413 192.218 125.194 192.196C124.735 192.131 124.276 192.196 123.861 192.415C123.642 192.481 123.817 192.765 124.014 192.677Z" fill="white"/>
<path d="M118.79 185.813C119.467 185.529 120.145 185.245 120.801 184.939C120.67 184.852 120.56 184.764 120.429 184.655C120.167 185.486 119.773 186.229 119.249 186.928C119.117 187.103 119.336 187.365 119.533 187.3C120.276 187.016 121.019 186.753 121.762 186.469C122.047 186.36 121.937 185.879 121.631 185.988C120.888 186.272 120.145 186.535 119.402 186.819C119.489 186.95 119.577 187.059 119.686 187.191C120.254 186.469 120.648 185.682 120.932 184.808C120.997 184.589 120.757 184.458 120.56 184.524C119.883 184.808 119.205 185.092 118.549 185.398C118.243 185.529 118.505 185.945 118.79 185.813Z" fill="#161616"/>
<path d="M119.883 181.835C120.342 181.573 120.801 181.398 121.303 181.288C121.216 181.157 121.129 181.048 121.019 180.917C120.823 181.354 120.582 181.791 120.298 182.185C120.189 182.36 120.342 182.534 120.517 182.556C121.107 182.6 121.653 182.447 122.112 182.097C122.353 181.901 122.112 181.485 121.872 181.682C121.478 181.988 121.041 182.119 120.538 182.075C120.604 182.207 120.67 182.316 120.757 182.447C121.041 182.032 121.282 181.616 121.478 181.179C121.566 180.982 121.413 180.764 121.194 180.808C120.648 180.917 120.123 181.114 119.642 181.398C119.358 181.573 119.598 181.988 119.883 181.835Z" fill="#161616"/>
<path d="M123.489 187.125C122.768 186.404 124.014 185.988 124.145 185.354C124.276 184.611 123.402 183.912 124.386 183.343C124.67 183.19 124.407 182.753 124.145 182.928C123.795 183.125 123.511 183.431 123.424 183.846C123.293 184.546 123.905 184.961 123.38 185.595C123.14 185.901 122.855 185.988 122.768 186.404C122.681 186.819 122.855 187.169 123.14 187.475C123.38 187.693 123.73 187.344 123.489 187.125Z" fill="#161616"/>
<path d="M183.843 124.716C129.042 128.673 74.2401 132.608 19.4603 136.564C17.9739 96.8237 16.4875 57.0832 15.0229 17.3428C70.0649 16.5995 125.107 15.8563 180.149 15.1131C181.373 51.6402 182.597 88.1673 183.843 124.716Z" fill="white" stroke="#161616" stroke-width="3.5"/>
<path d="M61.5835 36.6883C72.2072 36.6883 82.8527 36.6883 93.4764 36.6883C93.8917 36.6883 93.8917 36.0325 93.4764 36.0325C82.8527 36.0325 72.2072 36.0325 61.5835 36.0325C61.1681 36.0325 61.1681 36.6883 61.5835 36.6883Z" fill="#161616"/>
<path d="M73.5187 39.377C84.4703 39.377 95.4219 39.377 106.373 39.377C106.789 39.377 106.789 38.7212 106.373 38.7212C95.4219 38.7212 84.4703 38.7212 73.5187 38.7212C73.0815 38.7212 73.0815 39.377 73.5187 39.377Z" fill="#161616"/>
<path d="M21.6682 103.513C22.0616 112.65 22.4551 121.809 22.8486 130.946C22.8704 131.362 23.5262 131.362 23.5044 130.946C23.1109 121.809 22.7174 112.65 22.3239 103.513C22.3021 103.097 21.6463 103.097 21.6682 103.513Z" fill="#161616"/>
<path d="M69.8245 98.1789C70.7644 98.1789 71.7044 98.1789 72.6662 98.1789C73.0815 98.1789 73.0815 97.5231 72.6662 97.5231C71.7262 97.5231 70.7863 97.5231 69.8245 97.5231C69.4091 97.5231 69.4091 98.1789 69.8245 98.1789Z" fill="#161616"/>
<path d="M75.1364 98.1789C77.5628 98.1789 79.9673 98.1789 82.3937 98.1789C82.809 98.1789 82.809 97.5231 82.3937 97.5231C79.9673 97.5231 77.5628 97.5231 75.1364 97.5231C74.721 97.5231 74.721 98.1789 75.1364 98.1789Z" fill="#161616"/>
<path d="M87.8804 97.8291C90.7658 97.8291 93.6513 97.8291 96.5586 97.8291C96.9739 97.8291 96.9739 97.1733 96.5586 97.1733C93.6731 97.1733 90.7877 97.1733 87.8804 97.1733C87.4651 97.1733 87.4651 97.8291 87.8804 97.8291Z" fill="#161616"/>
<path d="M73.7373 102.769C77.2786 102.769 80.8198 102.769 84.361 102.769C84.7763 102.769 84.7763 102.114 84.361 102.114C80.8198 102.114 77.2786 102.114 73.7373 102.114C73.3001 102.114 73.3001 102.769 73.7373 102.769Z" fill="#161616"/>
<path d="M78.8524 100.299C82.9839 100.299 87.1153 100.299 91.2467 100.299C91.6621 100.299 91.6621 99.6435 91.2467 99.6435C87.1153 99.6435 82.9839 99.6435 78.8524 99.6435C78.4371 99.6435 78.4371 100.299 78.8524 100.299Z" fill="#161616"/>
<path d="M100.799 123.667C107.751 123.667 114.724 123.667 121.675 123.667C122.09 123.667 122.09 123.011 121.675 123.011C114.724 123.011 107.751 123.011 100.799 123.011C100.384 123.011 100.384 123.667 100.799 123.667Z" fill="#161616"/>
<path d="M117.959 125.438C121.609 125.438 125.282 125.438 128.932 125.438C129.348 125.438 129.348 124.782 128.932 124.782C125.282 124.782 121.609 124.782 117.959 124.782C117.544 124.782 117.544 125.438 117.959 125.438Z" fill="#161616"/>
<path d="M127.512 122.771C131.118 122.771 134.703 122.771 138.31 122.771C138.725 122.771 138.725 122.115 138.31 122.115C134.703 122.115 131.118 122.115 127.512 122.115C127.096 122.115 127.096 122.771 127.512 122.771Z" fill="#161616"/>
<path d="M145.917 63.5098C152.584 63.5098 159.251 63.5098 165.919 63.5098C166.334 63.5098 166.334 62.854 165.919 62.854C159.251 62.854 152.584 62.854 145.917 62.854C145.502 62.854 145.502 63.5098 145.917 63.5098Z" fill="#161616"/>
<path d="M139.731 64.5591C141.851 64.5591 143.972 64.5591 146.092 64.5591C146.507 64.5591 146.507 63.9033 146.092 63.9033C143.972 63.9033 141.851 63.9033 139.731 63.9033C139.294 63.9033 139.294 64.5591 139.731 64.5591Z" fill="#161616"/>
<path d="M140.955 66.3297C148.081 66.3297 155.229 66.3297 162.355 66.3297C162.771 66.3297 162.771 65.6739 162.355 65.6739C155.229 65.6739 148.081 65.6739 140.955 65.6739C140.54 65.6739 140.54 66.3297 140.955 66.3297Z" fill="#161616"/>
<path d="M167.339 64.734C168.695 64.734 170.05 64.734 171.405 64.734C171.821 64.734 171.821 64.0782 171.405 64.0782C170.05 64.0782 168.695 64.0782 167.339 64.0782C166.902 64.0782 166.902 64.734 167.339 64.734Z" fill="#161616"/>
<path d="M162.028 91.4462C164.039 91.4462 166.028 91.4462 168.039 91.4462C168.454 91.4462 168.454 90.7904 168.039 90.7904C166.028 90.7904 164.039 90.7904 162.028 90.7904C161.59 90.7904 161.59 91.4462 162.028 91.4462Z" fill="#161616"/>
<path d="M158.137 93.2168C160.323 93.2168 162.509 93.2168 164.673 93.2168C165.088 93.2168 165.088 92.561 164.673 92.561C162.487 92.561 160.301 92.561 158.137 92.561C157.699 92.561 157.699 93.2168 158.137 93.2168Z" fill="#161616"/>
<path d="M161.306 94.9874C165.613 94.9874 169.919 94.9874 174.225 94.9874C174.64 94.9874 174.64 94.3316 174.225 94.3316C169.919 94.3316 165.613 94.3316 161.306 94.3316C160.891 94.3316 160.891 94.9874 161.306 94.9874Z" fill="#161616"/>
<path d="M169.46 92.867C170.749 92.867 172.061 92.867 173.351 92.867C173.766 92.867 173.766 92.2112 173.351 92.2112C172.061 92.2112 170.749 92.2112 169.46 92.2112C169.023 92.2112 169.023 92.867 169.46 92.867Z" fill="#161616"/>
<path d="M79.4208 65.6084C82.4811 65.6084 85.5196 65.6084 88.5799 65.6084C88.9952 65.6084 88.9952 64.9526 88.5799 64.9526C85.5196 64.9526 82.4811 64.9526 79.4208 64.9526C79.0055 64.9526 79.0055 65.6084 79.4208 65.6084Z" fill="#161616"/>
<path d="M86.0879 67.4882C90.591 67.4882 95.1159 67.4882 99.6189 67.4882C100.034 67.4882 100.034 66.8325 99.6189 66.8325C95.1159 66.8325 90.591 66.8325 86.0879 66.8325C85.6726 66.8325 85.6507 67.4882 86.0879 67.4882Z" fill="#161616"/>
<path d="M97.9576 64.9744C100.515 64.9744 103.095 64.9744 105.652 64.9744C106.067 64.9744 106.067 64.3186 105.652 64.3186C103.095 64.3186 100.515 64.3186 97.9576 64.3186C97.5423 64.3186 97.5423 64.9744 97.9576 64.9744Z" fill="#161616"/>
<path d="M19.7227 30.0868C20.2036 46.6781 20.6845 63.2913 21.1654 79.8826C21.2965 84.6042 21.4277 89.304 21.5807 94.0256C21.6026 94.4409 22.2584 94.4409 22.2365 94.0256C21.7556 77.4343 21.2747 60.8211 20.7938 44.2298C20.6626 39.5082 20.5315 34.8084 20.3784 30.0868C20.3784 29.6714 19.7227 29.6714 19.7227 30.0868Z" fill="#161616"/>
<path d="M178.619 84.32C178.947 95.2934 179.275 106.245 179.603 117.218C179.624 117.634 180.28 117.634 180.258 117.218C179.93 106.245 179.603 95.2934 179.275 84.32C179.275 83.9047 178.619 83.9047 178.619 84.32Z" fill="#161616"/>
<path d="M133.348 79.2923C133.479 80.6257 133.61 81.981 133.72 83.3144C134.987 82.9865 136.233 82.6368 137.501 82.3089C137.326 80.9755 137.173 79.6202 136.999 78.2867C135.774 78.6146 134.572 78.9644 133.348 79.2923Z" fill="#EC615B"/>
<path d="M132.583 89.5007C133.894 89.3258 135.184 89.1728 136.496 88.9979C136.671 90.5937 136.824 92.1894 136.999 93.7851C135.818 93.8289 134.638 93.8726 133.479 93.9163C133.173 92.4299 132.889 90.9653 132.583 89.5007Z" fill="#EC615B"/>
<path d="M137.37 99.1844C137.786 100.562 138.201 101.961 138.638 103.338C139.818 102.791 140.999 102.245 142.157 101.698C141.786 100.474 141.392 99.2719 141.021 98.0477C139.818 98.4412 138.594 98.8128 137.37 99.1844Z" fill="#EC615B"/>
<path d="M50.9598 112.213C51.244 116.453 51.5282 120.694 51.8123 124.913C59.2445 124.432 66.6767 123.973 74.109 123.492C74.2401 119.689 74.3931 115.863 74.5243 112.06C66.6767 112.125 58.8073 112.169 50.9598 112.213Z" fill="#5222D0"/>
<ellipse cx="143.36" cy="24.6438" rx="1.55202" ry="1.28971" fill="#5222D0"/>
<ellipse cx="37.8879" cy="34.7428" rx="1.28971" ry="0.852518" fill="#EC615B"/>
<ellipse cx="58.4139" cy="59.138" rx="1.00553" ry="1.18041" fill="#EC615B"/>
<path opacity="0.21" d="M49.1892 30.8737C49.5827 30.8082 50.3478 34.4587 52.2277 41.0821C54.6978 49.804 57.1461 56.8427 58.9167 61.6518C56.228 63.3131 50.2166 66.4828 42.0193 66.5921C36.2266 66.6576 31.658 65.1712 28.9474 64.0345C34.2592 64.6247 38.5437 64.4717 41.5384 64.1875C46.2819 63.7503 45.4513 63.2476 49.0362 63.0727C50.5226 63.0071 52.4681 63.0071 54.4573 61.8048C55.1787 61.3676 55.7033 60.8867 56.0531 60.537C54.6541 57.6515 52.8616 53.4108 51.4189 48.099C49.1236 39.4645 48.6209 30.983 49.1892 30.8737Z" fill="#6D6C6C"/>
<path opacity="0.25" d="M69.6715 54.5912C70.0212 57.3673 70.6552 60.4714 71.7044 63.794C74.6992 73.2373 79.7487 79.97 83.5522 84.1233C81.2789 85.8065 78.459 87.5552 75.0708 89.0198C64.7968 93.4573 55.2005 92.8015 50.0636 92.0145C49.8668 90.856 49.6701 89.6974 49.4734 88.5389C51.6593 88.6045 53.9764 88.5608 56.4028 88.4296C65.0592 87.8831 72.4914 85.9376 78.4153 83.7735C76.5354 80.5821 75.1801 77.8278 74.2401 75.7511C71.9667 70.789 70.2836 67.0511 69.6934 62.0015C69.3217 58.9194 69.4748 56.3181 69.6715 54.5912Z" fill="#6D6C6C"/>
<path opacity="0.14" d="M139.163 69.0621C139.381 74.046 139.906 78.1775 140.365 81.1503C141.436 87.9705 142.223 92.6921 145.021 98.004C146.77 101.305 148.737 103.731 150.158 105.305C147.688 107.425 144.365 109.83 140.103 111.754C129.392 116.628 119.336 115.645 114.636 114.858C114.396 113.786 114.155 112.715 113.915 111.622C114.505 111.666 115.423 111.71 116.538 111.732C120.254 111.819 127.993 111.95 136.867 108.977C139.359 108.147 142.857 106.748 146.792 104.431C145.24 102.354 143.709 99.8839 142.376 97.0203C137.108 85.719 138.157 74.7455 139.163 69.0621Z" fill="#6D6C6C"/>
<path opacity="0.18" d="M155.907 20.0314C156.344 22.0643 156.978 25.1683 157.612 29.0375C158.792 36.5134 158.705 39.224 160.082 43.6396C160.803 45.9348 162.093 49.1919 164.52 52.908C162.487 54.5693 159.951 56.2962 156.825 57.7389C146.595 62.4824 136.802 61.149 132.299 60.209C132.342 59.3346 132.386 58.4603 132.43 57.6077C132.998 57.7608 133.851 57.9575 134.9 58.1324C136.277 58.351 141.37 59.0942 150.945 56.6896C153.59 56.0339 157.153 54.9846 161.241 53.3014C160.454 51.9024 159.295 49.7165 158.246 46.9185C155.186 38.8086 155.207 31.7699 155.251 28.1412C155.273 26.152 155.404 23.3759 155.907 20.0314Z" fill="#6D6C6C"/>
<path d="M25.2313 29.6277C23.0672 41.0821 25.2531 52.6676 27.4391 63.947C27.5265 64.3624 28.1604 64.1875 28.073 63.7722C25.9089 52.6238 23.7448 41.1476 25.8652 29.8026C25.9308 29.4091 25.2969 29.2124 25.2313 29.6277Z" fill="#161616"/>
<path d="M25.8433 29.5402C28.9692 31.6387 32.7509 32.0103 36.4452 31.748C40.664 31.442 44.8392 30.5458 49.0143 29.8463C49.4297 29.7807 49.2548 29.1468 48.8395 29.2123C44.8392 29.8681 40.8389 30.7206 36.7949 31.0485C33.1007 31.3546 29.319 31.0704 26.1712 28.95C25.8215 28.7314 25.4936 29.2998 25.8433 29.5402Z" fill="#161616"/>
<path d="M48.5772 30.3053C49.1892 40.7541 50.7631 51.4215 56.0531 60.6025C56.2717 60.9741 56.84 60.6462 56.6214 60.2746C51.397 51.1811 49.845 40.623 49.2329 30.3053C49.2111 29.89 48.5553 29.89 48.5772 30.3053Z" fill="#161616"/>
<path d="M27.9856 64.1219C32.9477 65.5646 38.2814 64.6902 43.3309 64.2749C47.8121 63.9033 52.6212 63.7284 56.4684 61.1053C56.8182 60.8648 56.4903 60.2965 56.1405 60.5369C52.2714 63.1819 47.4186 63.2693 42.9156 63.641C38.0628 64.0344 32.9477 64.8432 28.1605 63.4661C27.7451 63.3786 27.5703 64.0126 27.9856 64.1219Z" fill="#161616"/>
<path d="M36.3796 34.874C35.9424 34.6772 36.4233 34.2619 36.6856 34.1963C37.0135 34.1089 37.6475 34.0652 37.8005 34.4368C37.9098 34.7209 37.7349 35.0926 37.4726 35.2019C37.0573 35.3986 36.5982 35.1581 36.314 34.874C36.008 34.5679 35.549 35.027 35.855 35.333C36.4015 35.8795 37.2977 36.1637 37.9754 35.6609C38.5218 35.2674 38.7186 34.3931 38.2595 33.8684C37.7349 33.2782 36.6201 33.3438 36.0299 33.781C35.5052 34.1745 35.3959 35.1144 36.0736 35.4204C36.4452 35.6172 36.7731 35.0488 36.3796 34.874Z" fill="#161616"/>
<path d="M45.1452 64.2093C43.5713 72.188 45.2545 80.2541 46.9595 88.0798C47.047 88.4951 47.6809 88.3202 47.5935 87.9049C45.9103 80.2104 44.249 72.2536 45.7791 64.3842C45.8666 63.9688 45.2326 63.794 45.1452 64.2093Z" fill="#161616"/>
<path d="M54.1732 55.8371C59.2227 54.8753 64.3378 54.5255 69.4529 54.7222C69.3436 54.613 69.2343 54.5037 69.125 54.3944C68.0976 64.9306 72.6007 74.9641 78.0655 83.686C78.2841 84.0358 78.8525 83.7079 78.6339 83.3581C73.2346 74.7236 68.7534 64.8213 69.7808 54.3944C69.8027 54.2195 69.6059 54.0665 69.4529 54.0665C64.2722 53.8697 59.0915 54.2413 53.9983 55.2032C53.583 55.2906 53.7578 55.9245 54.1732 55.8371Z" fill="#161616"/>
<path d="M47.3093 88.5389C57.933 89.7849 68.7097 88.1892 78.5464 83.9922C78.9399 83.8173 78.5901 83.2708 78.2185 83.4238C68.5129 87.5771 57.8018 89.1073 47.3093 87.8831C46.894 87.8394 46.894 88.4952 47.3093 88.5389Z" fill="#161616"/>
<path d="M58.2827 58.5258C58.2827 58.504 58.3483 58.3947 58.3483 58.351C58.3702 58.2635 58.4357 58.1761 58.5013 58.1105C58.6325 58.0012 58.7855 57.9138 58.9604 57.8919C59.2883 57.8482 59.5943 58.0231 59.6817 58.351C59.7473 58.6133 59.638 58.963 59.332 59.0068C59.0478 59.0505 58.7855 58.8537 58.7418 58.5696C58.6762 58.1542 58.0423 58.3291 58.1078 58.7444C58.2171 59.5095 59.2008 59.8811 59.8347 59.5095C60.5342 59.0942 60.4905 58.0231 59.9003 57.5203C59.2445 56.9738 58.1516 57.258 57.78 58.0012C57.6051 58.3728 57.6051 58.8756 58.0204 59.0942C58.3483 59.2691 58.8292 59.1161 58.9166 58.7007C58.9822 58.2854 58.3483 58.1105 58.2827 58.5258Z" fill="#161616"/>
<path d="M27.3954 41.5192C33.21 42.328 38.9809 41.1258 44.555 39.53C44.9703 39.4207 44.7955 38.7868 44.3801 38.8961C38.9153 40.4481 33.2537 41.6722 27.5702 40.8853C27.1549 40.8197 26.98 41.4537 27.3954 41.5192Z" fill="#161616"/>
<path d="M28.4883 45.8037C31.5049 46.1316 34.5216 45.8255 37.4289 44.9074C37.8223 44.7763 37.6693 44.1423 37.254 44.2735C34.4123 45.1697 31.4612 45.4539 28.4883 45.1479C28.073 45.1042 28.073 45.7599 28.4883 45.8037Z" fill="#161616"/>
<path d="M28.4883 51.0936C34.2592 51.7713 40.0738 51.3559 45.6699 49.8913C46.0852 49.7821 45.9103 49.1481 45.495 49.2574C39.9427 50.722 34.1937 51.1155 28.4883 50.4378C28.073 50.3723 28.073 51.028 28.4883 51.0936Z" fill="#161616"/>
<path d="M50.0855 84.6479C55.8782 84.9102 61.671 84.2107 67.2233 82.5494C67.6167 82.4401 67.4637 81.8061 67.0484 81.9154C61.5398 83.5549 55.8345 84.2544 50.0855 83.9921C49.6483 83.9702 49.6483 84.626 50.0855 84.6479Z" fill="#161616"/>
<path d="M51.2003 79.6421C53.7797 79.5546 56.3591 79.3579 58.9385 79.0737C59.3539 79.03 59.3539 78.3742 58.9385 78.4179C56.3591 78.7021 53.8016 78.8988 51.2003 78.9863C50.785 79.0081 50.785 79.6639 51.2003 79.6421Z" fill="#161616"/>
<path d="M53.2988 70.636C55.0039 70.8546 56.7745 70.4174 58.4577 70.177C60.3157 69.8928 62.1519 69.6305 64.0099 69.3463C64.4253 69.2807 64.2504 68.6468 63.8351 68.7124C62.13 68.9747 60.4031 69.237 58.6981 69.4775C56.9275 69.7398 55.0913 70.2207 53.2988 69.9802C52.8835 69.9147 52.8835 70.5704 53.2988 70.636Z" fill="#161616"/>
<path d="M130.55 21.6271C128.167 33.3219 127.927 45.3446 129.829 57.1269C129.894 57.5422 130.528 57.3673 130.463 56.952C128.583 45.3009 128.845 33.3656 131.184 21.802C131.271 21.3867 130.637 21.2118 130.55 21.6271Z" fill="#161616"/>
<path d="M131.293 21.7801C139.228 19.9658 147.425 19.5942 155.513 20.6872C155.929 20.7527 156.104 20.1188 155.688 20.0532C147.491 18.9384 139.184 19.31 131.118 21.1462C130.725 21.2555 130.9 21.8894 131.293 21.7801Z" fill="#161616"/>
<path d="M155.317 20.097C155.076 31.3546 155.229 43.2461 160.935 53.3233C161.153 53.6949 161.7 53.367 161.503 52.9954C155.863 43.0275 155.732 31.2453 155.973 20.097C155.994 19.6816 155.339 19.6816 155.317 20.097Z" fill="#161616"/>
<path d="M130.331 57.4766C132.78 58.2198 135.403 58.2636 137.939 58.2854C140.671 58.3073 143.403 58.1324 146.136 57.7608C151.36 57.0613 156.453 55.6404 161.328 53.5856C161.722 53.4326 161.372 52.8643 161 53.0173C156.126 55.0721 150.989 56.4711 145.742 57.1487C143.294 57.4548 140.824 57.6296 138.354 57.6078C135.753 57.6078 133.02 57.5859 130.528 56.8208C130.091 56.7334 129.938 57.3673 130.331 57.4766Z" fill="#161616"/>
<path d="M143.709 22.4796C142.966 22.7419 142.638 23.5945 142.901 24.3158C143.207 25.1246 144.147 25.3213 144.846 24.8404C145.524 24.3595 145.742 23.3977 145.087 22.7857C144.518 22.261 143.535 22.2392 143.01 22.8075C142.726 23.1135 143.185 23.5726 143.469 23.2666C144.125 22.5671 145.414 23.5507 144.518 24.2502C144.168 24.5125 143.666 24.5125 143.513 24.0535C143.403 23.7037 143.513 23.2228 143.884 23.0917C144.278 22.9605 144.103 22.3266 143.709 22.4796Z" fill="#161616"/>
<path d="M130.878 31.7918C136.846 31.9448 142.791 31.8355 148.737 31.442C149.152 31.4202 149.152 30.7644 148.737 30.7862C142.791 31.1797 136.824 31.3109 130.878 31.136C130.441 31.136 130.441 31.7918 130.878 31.7918Z" fill="#161616"/>
<path d="M131.468 35.1144C133.698 35.2019 135.927 35.2893 138.135 35.3768C138.551 35.3986 138.551 34.7428 138.135 34.721C135.906 34.6335 133.676 34.5461 131.468 34.4587C131.031 34.4368 131.031 35.0926 131.468 35.1144Z" fill="#161616"/>
<path d="M130.856 39.7486C136.474 40.0546 142.157 40.3169 147.688 39.0928C148.103 39.0054 147.928 38.3714 147.513 38.4589C142.026 39.6611 136.408 39.3988 130.856 39.0928C130.441 39.0709 130.441 39.7267 130.856 39.7486Z" fill="#161616"/>
<path d="M49.3641 110.814C48.8613 115.186 48.6864 119.579 48.8394 123.973C48.8613 124.388 49.5171 124.388 49.4952 123.973C49.3422 119.579 49.5171 115.186 50.0198 110.814C50.0636 110.398 49.4078 110.398 49.3641 110.814Z" fill="#161616"/>
<path d="M49.5827 111.076C57.3647 111.076 65.1685 110.967 72.9504 110.726C73.3658 110.704 73.3658 110.049 72.9504 110.07C65.1685 110.311 57.3647 110.42 49.5827 110.42C49.1674 110.42 49.1674 111.076 49.5827 111.076Z" fill="#161616"/>
<path d="M72.8849 110.42C72.9504 114.224 73.016 118.005 73.0816 121.809C73.0816 122.224 73.7374 122.224 73.7374 121.809C73.6718 118.005 73.6062 114.224 73.5406 110.42C73.5406 110.005 72.863 110.005 72.8849 110.42Z" fill="#161616"/>
<path d="M48.7739 123.492C48.8176 124.913 51.2877 124.279 52.0965 124.235C54.4136 124.082 56.7307 123.929 59.026 123.754C63.7258 123.427 68.4255 123.121 73.1253 122.793C73.5406 122.771 73.5406 122.115 73.1253 122.137C69.125 122.399 65.1466 122.683 61.1463 122.946C59.2446 123.077 57.3428 123.208 55.441 123.339C54.8727 123.383 49.4297 123.907 49.4078 123.492C49.4297 123.077 48.7739 123.077 48.7739 123.492Z" fill="#161616"/>
<path d="M51.3533 114.027C56.5995 113.787 61.8458 113.983 67.0484 114.639C67.4637 114.683 67.4637 114.027 67.0484 113.983C61.8458 113.327 56.5995 113.131 51.3533 113.371C50.9161 113.393 50.9161 114.049 51.3533 114.027Z" fill="#161616"/>
<path d="M51.5501 117.35C54.4792 117.131 57.4303 116.891 60.3594 116.672C60.7748 116.65 60.7748 115.994 60.3594 116.016C57.4303 116.235 54.4792 116.475 51.5501 116.694C51.1347 116.716 51.1347 117.372 51.5501 117.35Z" fill="#161616"/>
<path d="M52.5337 120.694C56.7526 120.148 61.3431 119.033 65.5838 119.798C65.9991 119.863 66.174 119.251 65.7587 119.164C61.4305 118.377 56.84 119.47 52.5337 120.038C52.1402 120.104 52.1184 120.76 52.5337 120.694Z" fill="#161616"/>
<path d="M109.39 73.6089C105.914 85.9813 106.352 99.2281 110.614 111.36C110.745 111.754 111.379 111.579 111.248 111.185C107.029 99.1626 106.592 86.0469 110.024 73.7838C110.133 73.3684 109.499 73.1936 109.39 73.6089Z" fill="#161616"/>
<path d="M109.827 73.8275C119.555 73.7838 129.238 72.5159 138.66 70.0458C139.075 69.9365 138.9 69.3026 138.485 69.4119C129.129 71.8602 119.511 73.128 109.827 73.1717C109.39 73.1717 109.39 73.8275 109.827 73.8275Z" fill="#161616"/>
<path d="M138.485 69.6523C138.092 75.7292 138.354 81.8499 139.447 87.8612C139.993 90.8997 140.649 93.9382 141.851 96.7799C143.054 99.5997 144.715 102.157 146.66 104.496C146.923 104.824 147.404 104.365 147.12 104.037C145.13 101.655 143.447 99.0095 142.267 96.1241C141.152 93.3698 140.54 90.4188 140.037 87.5115C138.988 81.6313 138.747 75.6199 139.119 69.6523C139.163 69.237 138.507 69.237 138.485 69.6523Z" fill="#161616"/>
<path d="M110.702 111.71C123.074 112.584 135.993 111.185 146.835 104.802C147.207 104.584 146.879 104.015 146.507 104.234C135.731 110.573 122.943 111.907 110.702 111.054C110.286 111.01 110.286 111.666 110.702 111.71Z" fill="#161616"/>
<path d="M123.861 75.7948C123.489 75.1609 124.233 74.3739 124.867 74.8767C125.544 75.4232 124.823 76.2975 124.101 76.0134C123.708 75.8604 123.533 76.4943 123.927 76.6473C124.517 76.8877 125.238 76.6254 125.588 76.1008C125.981 75.5106 125.807 74.7674 125.26 74.3521C124.08 73.4121 122.593 74.8767 123.293 76.1227C123.511 76.4943 124.08 76.1664 123.861 75.7948Z" fill="#161616"/>
<path d="M110.046 83.3363C116.582 83.227 123.118 82.768 129.632 81.9811C130.047 81.9373 130.047 81.2816 129.632 81.3253C123.14 82.1341 116.604 82.5713 110.046 82.6806C109.631 82.7024 109.631 83.3582 110.046 83.3363Z" fill="#161616"/>
<path d="M131.971 78.9426C132.168 79.9481 132.364 80.9755 132.561 81.981C132.649 82.3964 133.282 82.2215 133.195 81.8062C132.998 80.8006 132.802 79.7732 132.605 78.7677C132.539 78.3524 131.905 78.5272 131.971 78.9426Z" fill="#161616"/>
<path d="M132.408 78.8551C133.61 78.6803 134.813 78.5054 136.037 78.3087C136.452 78.2431 136.277 77.6092 135.862 77.6747C134.66 77.8496 133.457 78.0245 132.233 78.2212C131.818 78.2868 131.993 78.9207 132.408 78.8551Z" fill="#161616"/>
<path d="M135.84 78.1119C136.015 79.0519 136.168 79.9918 136.343 80.9099C136.408 81.3253 137.042 81.1504 136.977 80.7351C136.802 79.7951 136.649 78.8552 136.474 77.9371C136.408 77.5436 135.774 77.7185 135.84 78.1119Z" fill="#161616"/>
<path d="M133.108 82.4838C134.397 82.2215 135.621 81.8718 136.846 81.3908C137.239 81.2378 137.064 80.6039 136.671 80.7569C135.447 81.216 134.201 81.5876 132.933 81.8499C132.517 81.9373 132.692 82.5713 133.108 82.4838Z" fill="#161616"/>
<path d="M133.217 79.5983C133.457 80.1448 133.785 80.582 134.266 80.9536C134.441 81.0848 134.769 81.0848 134.813 80.8006C134.987 79.6202 135.403 78.571 136.102 77.5873C136.343 77.2375 135.774 76.9096 135.534 77.2594C134.813 78.2649 134.354 79.4016 134.179 80.6257C134.354 80.582 134.55 80.5383 134.725 80.4727C134.31 80.1448 134.004 79.7514 133.785 79.2486C133.61 78.877 133.042 79.2049 133.217 79.5983Z" fill="#161616"/>
<path d="M133.457 88.9761C133.108 90.5499 133.261 92.0801 133.895 93.5447C134.069 93.9382 134.616 93.5884 134.463 93.2168C133.895 91.9271 133.785 90.5281 134.091 89.1509C134.179 88.7356 133.545 88.5607 133.457 88.9761Z" fill="#161616"/>
<path d="M133.895 89.1946C135.206 88.976 136.518 88.7793 137.829 88.5607C137.698 88.4296 137.567 88.2984 137.436 88.1672C137.217 89.5662 137.37 90.8997 137.917 92.2112C138.07 92.6047 138.704 92.4298 138.551 92.0364C138.048 90.856 137.873 89.61 138.07 88.3421C138.113 88.0798 137.939 87.9049 137.676 87.9487C136.365 88.1454 135.053 88.364 133.742 88.5826C133.304 88.6263 133.479 89.2602 133.895 89.1946Z" fill="#161616"/>
<path d="M134.179 93.5666C135.621 93.5229 136.999 93.2387 138.354 92.7578C138.747 92.6048 138.572 91.9708 138.179 92.1239C136.889 92.6048 135.556 92.8671 134.179 92.9108C133.763 92.9108 133.763 93.5666 134.179 93.5666Z" fill="#161616"/>
<path d="M134.375 90.5281C134.572 91.0964 134.9 91.4899 135.425 91.7959C135.665 91.9271 135.884 91.7522 135.927 91.5117C136.059 90.3532 136.365 89.2384 136.846 88.1672C137.02 87.7956 136.452 87.4459 136.277 87.8394C135.753 89.0198 135.425 90.2439 135.272 91.5117C135.447 91.4243 135.6 91.315 135.774 91.2276C135.403 91.009 135.184 90.7467 135.031 90.3313C134.878 89.9597 134.244 90.1346 134.375 90.5281Z" fill="#161616"/>
<path d="M134.813 99.1188C134.966 100.583 135.359 101.961 136.015 103.272C136.19 103.644 136.758 103.316 136.583 102.944C135.993 101.742 135.621 100.452 135.49 99.1188C135.425 98.7035 134.769 98.7035 134.813 99.1188Z" fill="#161616"/>
<path d="M135.119 99.0533C136.802 99.2063 138.376 98.9003 139.884 98.1571C139.731 98.0915 139.556 98.0259 139.403 97.9603C139.687 99.2938 140.277 100.452 141.196 101.48C141.48 101.786 141.939 101.327 141.655 101.021C140.824 100.081 140.299 99.0315 140.037 97.8073C139.993 97.5887 139.731 97.5232 139.556 97.6106C138.157 98.2882 136.671 98.5505 135.119 98.4194C134.703 98.3757 134.703 99.0315 135.119 99.0533Z" fill="#161616"/>
<path d="M136.605 103.513C138.31 102.879 139.993 102.201 141.633 101.458C142.026 101.283 141.677 100.715 141.305 100.889C139.709 101.611 138.07 102.267 136.43 102.879C136.037 103.032 136.212 103.666 136.605 103.513Z" fill="#161616"/>
<path d="M136.255 100.212C136.78 100.671 137.982 102.245 138.594 101.086C138.878 100.562 138.813 99.8402 138.988 99.25C139.25 98.4193 139.687 97.6543 140.256 96.9985C140.518 96.6706 140.059 96.2115 139.797 96.5394C139.185 97.2608 138.704 98.0477 138.419 98.9658C138.288 99.3812 138.179 99.8184 138.113 100.256C138.026 100.802 137.873 100.671 137.458 100.409C137.195 100.234 136.955 99.9714 136.714 99.7528C136.408 99.4686 135.949 99.9277 136.255 100.212Z" fill="#161616"/>
<path d="M110.636 94.0255C116.757 93.9599 122.855 93.4572 128.889 92.4954C129.304 92.4298 129.129 91.7959 128.714 91.8614C122.724 92.8014 116.691 93.3042 110.636 93.3479C110.221 93.3697 110.221 94.0255 110.636 94.0255Z" fill="#161616"/>
<path d="M109.937 85.1507C113.893 85.26 117.828 85.1288 121.763 84.8009C122.178 84.7572 122.178 84.1014 121.763 84.1452C117.828 84.473 113.871 84.5823 109.937 84.4949C109.521 84.473 109.521 85.1288 109.937 85.1507Z" fill="#161616"/>
<path d="M110.877 95.3154C115.03 95.5121 119.183 95.3591 123.293 94.8344C123.708 94.7907 123.708 94.1349 123.293 94.1787C119.161 94.6814 115.008 94.8563 110.877 94.6596C110.461 94.6377 110.461 95.2935 110.877 95.3154Z" fill="#161616"/>
<path d="M124.692 94.5284C125.872 94.5502 127.031 94.3972 128.167 94.0256C128.561 93.8944 128.386 93.2605 127.992 93.3917C126.921 93.7414 125.828 93.8944 124.692 93.8726C124.276 93.8726 124.276 94.5284 124.692 94.5284Z" fill="#161616"/>
<path d="M113.106 103.534C118.09 103.228 123.052 102.769 127.992 102.092C128.408 102.026 128.408 101.37 127.992 101.436C123.052 102.092 118.09 102.573 113.106 102.879C112.669 102.901 112.669 103.556 113.106 103.534Z" fill="#161616"/>
<path d="M113.675 105.065C115.314 105.065 116.953 105.065 118.593 105.065C119.008 105.065 119.008 104.409 118.593 104.409C116.953 104.409 115.314 104.409 113.675 104.409C113.259 104.409 113.259 105.065 113.675 105.065Z" fill="#161616"/>
<path d="M115.095 106.529C117.653 106.376 120.21 106.136 122.768 105.83C124.823 105.567 127.031 105.458 128.801 104.256C129.151 104.015 128.823 103.447 128.473 103.687C126.615 104.955 124.123 105.021 121.959 105.261C119.686 105.524 117.391 105.72 115.117 105.873C114.68 105.895 114.658 106.551 115.095 106.529Z" fill="#161616"/>
<path d="M140.059 88.8667C144.037 88.67 147.994 88.1454 151.907 87.3147C151.776 87.2491 151.644 87.1617 151.513 87.0961C153.349 92.561 156.06 97.6542 159.536 102.267C159.776 102.594 160.366 102.267 160.104 101.939C156.672 97.3919 153.983 92.3424 152.147 86.9431C152.082 86.7682 151.929 86.6808 151.754 86.7245C147.906 87.5552 144.015 88.0579 140.081 88.2547C139.622 88.2328 139.622 88.8886 140.059 88.8667Z" fill="#161616"/>
<path d="M140.737 107.316C141.327 108.147 141.808 109.021 142.223 109.961C142.267 110.092 142.463 110.158 142.595 110.114C145.808 109.043 148.978 107.863 152.082 106.529C153.655 105.852 155.208 105.152 156.76 104.409C157.503 104.059 158.246 103.687 158.967 103.316C159.405 103.097 159.907 102.966 160.06 102.485C160.104 102.354 160.038 102.179 159.907 102.114C159.711 102.004 159.601 102.004 159.405 102.114C159.273 102.179 159.208 102.354 159.252 102.485C159.252 102.507 159.273 102.529 159.273 102.551C159.383 102.966 160.017 102.791 159.907 102.376C159.907 102.354 159.885 102.332 159.885 102.31C159.842 102.441 159.776 102.551 159.732 102.682C159.689 102.682 159.623 102.682 159.579 102.682C159.536 102.551 159.47 102.441 159.426 102.31C159.295 102.704 157.918 103.119 157.546 103.316C156.934 103.622 156.322 103.906 155.688 104.212C154.224 104.912 152.737 105.567 151.229 106.201C148.344 107.425 145.393 108.518 142.42 109.502C142.551 109.546 142.66 109.611 142.791 109.655C142.398 108.715 141.895 107.841 141.305 107.01C141.064 106.638 140.496 106.966 140.737 107.316Z" fill="#161616"/>
<path d="M144.54 90.5718C144.496 90.2876 145.021 90.0253 145.218 90.2221C145.48 90.4844 145.043 90.9653 144.737 90.856C144.343 90.703 144.169 91.3369 144.562 91.4899C145.502 91.8397 146.42 90.4844 145.699 89.763C145.371 89.4351 144.868 89.457 144.475 89.6537C144.059 89.8723 143.841 90.2876 143.928 90.7467C143.972 91.162 144.606 90.9653 144.54 90.5718Z" fill="#161616"/>
<path d="M47.6809 73.0842C50.1073 73.128 52.5556 73.0187 54.9601 72.6908C57.4739 72.341 59.9659 71.6197 62.5235 71.729C62.9388 71.7508 62.9388 71.095 62.5235 71.0732C60.1845 70.9857 57.9111 71.5759 55.6159 71.9257C52.9927 72.341 50.3259 72.494 47.659 72.4285C47.2656 72.4285 47.2656 73.0842 47.6809 73.0842Z" fill="#161616"/>
<path d="M48.0307 65.8488C51.7468 66.133 55.4629 65.8051 59.0697 64.8651C59.485 64.7558 59.3101 64.1219 58.8948 64.2312C55.3317 65.1493 51.7031 65.4772 48.0307 65.193C47.6153 65.1711 47.6153 65.8269 48.0307 65.8488Z" fill="#161616"/>
<path d="M132.146 47.4431C131.774 49.8476 131.468 52.4489 132.976 54.5474C133.217 54.8972 133.785 54.5693 133.545 54.2195C132.146 52.274 132.452 49.8476 132.78 47.618C132.845 47.2027 132.211 47.0278 132.146 47.4431Z" fill="#161616"/>
<path d="M132.342 47.4213C137.545 47.618 142.748 47.1153 147.819 45.913C147.688 45.8474 147.557 45.76 147.425 45.6944C147.885 47.9459 148.759 50.0444 149.983 51.9681C150.202 52.3178 150.77 51.9899 150.551 51.6402C149.349 49.7603 148.518 47.7055 148.059 45.5195C148.016 45.3447 147.819 45.2572 147.666 45.3009C142.66 46.4813 137.523 46.9841 132.364 46.7874C131.927 46.7437 131.927 47.3994 132.342 47.4213Z" fill="#161616"/>
<path d="M133.523 54.5255C139.163 54.3507 144.737 53.52 150.158 52.0336C150.573 51.9243 150.398 51.2903 149.983 51.3996C144.606 52.8861 139.097 53.7167 133.523 53.8698C133.086 53.8916 133.086 54.5474 133.523 54.5255Z" fill="#161616"/>
<path d="M210.599 207.214C210.599 209.684 210.599 212.132 210.599 214.602C193.112 221.532 189.549 224.002 189.811 224.898C189.877 225.117 190.336 225.772 199.517 224.701C208.61 223.63 215.977 222.078 221.092 220.81C220.196 215.761 219.277 210.711 218.381 205.662C215.78 206.186 213.179 206.711 210.599 207.214Z" fill="#161616"/>
<path d="M218.447 102.66C217.944 103.6 217.769 104.365 217.725 104.54C214.6 117.83 210.512 125.678 207.845 141.089C202.752 170.774 207.145 204.503 207.561 207.673C208.96 208.285 211.649 209.203 215.08 209.072C218.097 208.941 220.436 208.044 221.769 207.41C221.267 197.727 221.769 185.77 225.114 172.588C229.202 156.434 234.382 151.079 239.038 132.192C242.492 118.202 246.492 101.917 239.585 97.0859C234.295 93.326 221.901 96.0803 218.447 102.66Z" fill="#EC615B"/>
<path opacity="0.2" d="M230.535 109.633C227.038 125.591 223.781 142.597 221.026 160.588C218.425 177.507 216.479 193.705 215.037 209.094C217.245 208.635 219.43 208.176 221.638 207.717C221.354 200.918 221.66 195.125 222.097 190.688C222.622 185.179 223.955 172.348 229.311 159.538C230.01 157.899 230.907 155.91 232.371 152.172C234.841 145.985 236.634 140.695 237.443 138.204C241.246 126.312 243.148 112.519 243.738 107.972C239.323 108.497 234.929 109.065 230.535 109.633Z" fill="#6D6C6C"/>
<path opacity="0.19" d="M237.749 137.417C229.18 148.587 225.18 158.708 223.168 165.506C221.332 171.692 220.523 177.157 219.474 184.239C217.988 194.295 217.419 202.776 217.179 208.809C218.622 208.46 220.043 208.088 221.485 207.738C221.245 199.279 221.835 192.043 222.556 186.404C223.431 179.715 224.436 171.954 227.934 162.62C229.202 159.232 229.814 158.27 232.699 150.948C234.929 145.22 236.634 140.521 237.749 137.417Z" fill="#6D6C6C"/>
<path d="M257.816 204.7C259.04 207.738 260.286 210.777 261.51 213.837C251.236 220.373 246.383 224.177 246.93 225.292C247.607 226.669 256.482 223.936 273.554 217.138C271.74 211.236 269.926 205.356 268.111 199.454C264.68 201.202 261.248 202.951 257.816 204.7Z" fill="#161616"/>
<path d="M249.378 102.922C254.733 107.819 254.559 114.683 255.236 126.05C255.236 126.05 256.898 154.008 262.472 176.479C263.871 182.097 266.406 190.819 271.106 201.268C270.319 202.274 268.177 204.722 264.417 206.012C260.57 207.323 257.291 206.624 256.067 206.296C249.378 194.885 244.634 185.158 241.574 178.425C227.387 147.341 226.251 130.968 226.251 122.421C226.251 113.634 226.404 103.097 232.94 99.5779C237.858 96.9329 245.072 98.9877 249.378 102.922Z" fill="#EC615B"/>
<path opacity="0.15" d="M234.207 106.267C236.634 115.601 239.257 125.088 242.055 134.706C249.356 159.669 257.291 183.256 265.62 205.378C266.428 204.962 267.412 204.394 268.418 203.629C269.445 202.842 270.254 202.055 270.866 201.355C269.729 198.71 268.155 194.885 266.494 190.185C263.98 182.993 259.892 169.769 257.772 152.15C255.739 135.231 254.712 126.771 254.799 121.437C254.865 117.044 255.258 108.103 249.575 103.294C248.394 102.31 247.236 101.72 246.427 101.37C242.339 103.01 238.273 104.649 234.207 106.267Z" fill="#6D6C6C"/>
<path opacity="0.22" d="M255.061 127.121C254.056 137.285 253.728 150.904 256.176 166.643C258.646 182.469 263.128 195.388 267.172 204.787C268.418 203.76 269.664 202.733 270.909 201.683C269.423 198.164 267.478 193.267 265.532 187.278C261.794 175.758 260.177 166.774 258.778 158.708C257.357 150.445 255.87 139.756 255.061 127.121Z" fill="#6D6C6C"/>
<path d="M152.715 23.0698C151.841 23.507 150.639 24.2721 149.699 25.5837C149.196 26.2613 148.584 27.1575 148.497 28.4254C148.475 28.9282 148.409 30.0211 149.109 30.7425C149.305 30.9611 149.83 31.3764 152.409 31.289C154.705 31.2015 155.863 31.1578 156.453 30.5458C157.59 29.3653 157.175 27.1357 156.453 25.8023C155.317 23.6819 153.087 23.1573 152.715 23.0698Z" fill="white" stroke="#161616" stroke-width="2"/>
<path d="M165.919 28.5566C169.001 32.076 173.941 34.1745 183.013 37.9125C194.445 42.6341 200.172 44.9949 206.949 45.8256C214.272 46.7218 218.184 45.7819 219.54 48.1646C221.31 51.2467 217.157 57.0176 212.873 61.8486C209.681 61.1491 206.38 60.2747 202.97 59.138C184.28 52.9518 170.771 42.0658 161.896 33.016C160.782 33.2564 158.88 33.4969 156.716 32.8411C154.858 32.2946 152.235 30.8956 152.388 29.7808C152.584 28.4255 157.328 28.185 157.612 28.1632C156.169 27.573 154.093 26.5674 151.841 24.928C151.185 24.4471 147.425 21.6709 147.885 20.7965C148.278 20.0315 151.688 21.0807 154.901 22.0644C157.831 22.9606 159.863 23.5945 162.093 25.1247C164.235 26.5674 165.481 28.0539 165.919 28.5566Z" fill="white" stroke="#161616" stroke-width="2"/>
<path d="M150.792 23.3104C151.316 23.9006 151.426 24.6875 151.885 25.2996C152.278 25.8461 152.847 26.2395 153.437 26.5674C155.207 27.5511 157.087 28.3599 158.902 29.2561C159.208 29.4091 159.601 28.9938 159.295 28.7315C158.355 27.9227 157.35 27.2013 156.3 26.5456C155.951 26.327 155.601 26.8953 155.972 27.1139C156.978 27.7478 157.94 28.4255 158.836 29.1906C158.967 29.0157 159.098 28.8408 159.23 28.6659C157.503 27.8353 155.776 27.0265 154.071 26.1302C153.262 25.7149 152.541 25.234 152.125 24.4033C151.841 23.835 151.688 23.2885 151.251 22.8076C150.967 22.5453 150.508 23.0043 150.792 23.3104Z" fill="white"/>
<path d="M152.497 25.6056C153.502 26.0428 154.464 26.6111 155.339 27.2888C155.666 27.5511 156.125 27.092 155.798 26.8297C154.88 26.1083 153.896 25.5181 152.825 25.0372C152.431 24.8624 152.103 25.4307 152.497 25.6056Z" fill="white"/>
<path d="M149.917 22.9168C150.748 24.2503 151.841 25.3432 153.131 26.2176C153.48 26.4581 153.808 25.8897 153.459 25.6493C152.256 24.8405 151.251 23.8131 150.486 22.5671C150.267 22.2392 149.699 22.5671 149.917 22.9168Z" fill="white"/>
<path d="M150.901 24.7093C151.338 25.2996 151.819 25.846 152.366 26.3269C152.759 26.6767 154.486 27.9227 153.59 28.5566C153.415 28.6659 153.59 28.9501 153.765 28.8408C154.377 28.4255 154.136 27.6822 153.765 27.1795C153.481 26.8079 153.087 26.5237 152.715 26.1958C152.147 25.693 151.644 25.1465 151.185 24.5563C151.054 24.3596 150.77 24.5345 150.901 24.7093Z" fill="#161616"/>
<path d="M150.442 26.9827C151.098 27.8789 152.344 29.1468 153.568 28.7752C153.765 28.7096 153.677 28.4035 153.481 28.4691C152.431 28.797 151.273 27.5947 150.726 26.8297C150.595 26.6548 150.311 26.8078 150.442 26.9827Z" fill="#161616"/>
<path d="M149.48 28.5129C150.202 29.4965 151.251 30.0649 152.475 30.1305C152.694 30.1523 152.694 29.8244 152.475 29.8026C151.382 29.737 150.42 29.2124 149.764 28.338C149.633 28.1631 149.349 28.338 149.48 28.5129Z" fill="#161616"/>
<path d="M148.781 30.4802C149.808 31.5513 151.513 31.5732 152.541 30.4802C152.694 30.3272 152.453 30.0867 152.3 30.2397C151.404 31.2016 149.917 31.1797 149.021 30.2397C148.868 30.0867 148.628 30.3272 148.781 30.4802Z" fill="#161616"/>
<path d="M148.999 22.8731C151.426 24.4688 153.174 27.1575 156.213 27.6822C156.41 27.7259 156.519 27.398 156.3 27.3761C153.306 26.8734 151.557 24.1847 149.174 22.6108C148.977 22.4578 148.824 22.7419 148.999 22.8731Z" fill="#161616"/>
<path opacity="0.2" d="M148.737 30.0212C147.95 28.95 148.606 26.6548 150.508 24.4907C152.65 25.7367 154.77 27.0046 156.912 28.2505C156.519 28.2505 153.065 28.2943 152.825 29.3654C152.781 29.5403 152.825 29.8026 153.153 30.1742C154.246 30.6988 156.082 31.3983 158.443 31.4639C159.667 31.4857 160.738 31.3327 161.568 31.136C166.028 35.639 173.875 42.4373 185.417 47.3776C195.56 51.7057 204.653 52.9517 210.665 53.3015C210.468 55.8809 210.271 58.4384 210.075 61.0178C200.172 58.3947 186.751 53.4108 173.416 43.3991C168.87 39.9891 164.979 36.4697 161.656 33.0815C158.596 33.5842 156.694 33.0596 155.492 32.4476C154.464 31.9229 153.808 31.2671 152.453 31.1579C151.557 31.0923 150.792 31.3109 149.808 30.83C149.699 30.7862 149.065 30.4583 148.737 30.0212Z" fill="#6D6C6C"/>
<path opacity="0.14" d="M176.892 45.4539C179.952 47.0934 183.493 48.7547 187.537 50.1756C196.347 53.3015 204.326 54.2851 210.424 54.5037C210.337 56.7334 210.271 58.9849 210.184 61.2146C203.845 59.7281 195.888 57.1269 187.45 52.4052C183.406 50.1537 179.909 47.771 176.892 45.4539Z" fill="#6D6C6C"/>
<path d="M211.452 51.6839C210.206 54.5038 210.14 56.8428 210.031 61.0398C209.944 64.2094 210.162 67.6195 211.867 76.5818C213.944 87.4241 214.927 89.1729 215.255 94.9219C215.518 99.4249 215.168 103.119 214.84 105.567C217.594 107.076 222.207 109.131 228.24 109.59C238.907 110.398 246.799 105.699 249.509 103.906C249.837 97.0423 250.165 90.1565 250.515 83.2927C249.312 77.4343 247.891 72.8439 246.864 69.8273C243.629 60.3184 240.612 55.8154 242.536 51.05C243.607 48.405 245.727 46.7874 247.192 45.8912C246.165 45.1042 235.388 37.1255 223.628 41.257C222.403 41.6723 214.665 44.4047 211.452 51.6839Z" fill="white" stroke="#161616" stroke-width="2"/>
<path opacity="0.19" d="M223.584 41.2351C226.863 46.4813 228.699 51.1155 229.748 54.3507C229.748 54.3507 234.885 69.9584 231.125 90.8997C230.317 95.359 228.874 101.698 226.032 108.956C227.125 109.196 228.437 109.393 229.923 109.458C229.923 109.458 232.218 109.568 234.798 109.24C237.945 108.824 243.345 107.141 249.706 103.906C249.815 96.5832 249.924 89.2821 250.034 81.9592C248.416 75.773 246.777 70.8109 245.553 67.3352C242.602 59.0505 240.525 55.1595 242.23 51.05C243.345 48.3612 245.618 46.6999 247.389 45.7381C245.072 44.208 240.787 41.8253 234.929 40.9072C230.098 40.164 226.119 40.6886 223.584 41.2351Z" fill="#6D6C6C"/>
<path opacity="0.11" d="M226.579 40.7323C230.098 45.0605 234.207 51.3778 236.743 59.7063C243.935 83.4894 232.109 104.343 229.377 108.912C231.672 108.89 234.361 108.693 237.29 108.125C242.514 107.119 246.689 105.327 249.684 103.731C249.793 96.9111 249.903 90.0909 250.012 83.2926C248.154 76.9752 246.405 70.9858 244.022 62.854C242.405 57.2799 241.137 52.7113 243.52 49.0607C244.678 47.2901 246.296 46.3065 247.52 45.7381C240.547 44.0549 233.552 42.3936 226.579 40.7323Z" fill="#6D6C6C"/>
<path d="M224.961 85.3911C224.895 80.7132 224.852 76.0571 224.786 71.3792C236 70.8109 247.214 70.2425 258.45 69.6742C258.843 74.0024 259.237 78.3305 259.652 82.6587C248.088 83.5768 236.525 84.473 224.961 85.3911Z" fill="white" stroke="#161616" stroke-width="2"/>
<path d="M221.551 83.8609C221.551 82.1559 221.551 80.4509 221.551 78.7458C235.956 77.6747 250.362 76.5817 264.767 75.5106C264.876 77.6091 264.986 79.7295 265.117 81.828C250.602 82.4838 236.066 83.1833 221.551 83.8609Z" fill="white" stroke="#161616" stroke-width="2"/>
<path d="M222.753 76.1665C222.928 78.6803 223.103 81.1723 223.256 83.6861C236.59 82.615 249.903 81.5221 263.237 80.451C263.346 78.1776 263.455 75.9042 263.587 73.6089C249.968 74.4615 236.35 75.314 222.753 76.1665Z" fill="white" stroke="#161616" stroke-width="2"/>
<path d="M219.496 81.8062C219.89 91.7741 220.283 101.742 220.698 111.71C235.563 110.049 250.427 108.409 265.292 106.748C265.751 96.9548 266.21 87.1617 266.669 77.3687C250.93 78.8552 235.213 80.3197 219.496 81.8062Z" fill="white" stroke="#161616" stroke-width="2"/>
<path d="M222.032 85.6971C228.786 84.8009 235.541 84.167 242.339 83.7735C242.645 83.7517 242.645 83.2708 242.339 83.2708C235.541 83.6642 228.764 84.2981 222.032 85.1944C221.726 85.2381 221.726 85.7409 222.032 85.6971Z" fill="#161616"/>
<path d="M229.573 87.0306C234.754 86.3748 239.935 85.6972 245.137 85.0414C245.443 84.9977 245.443 84.5168 245.137 84.5386C239.957 85.1944 234.776 85.8721 229.573 86.5278C229.267 86.5934 229.267 87.0743 229.573 87.0306Z" fill="#161616"/>
<path d="M254.471 101.021C254.384 102.398 254.384 103.797 254.515 105.174C254.537 105.48 255.04 105.48 255.018 105.174C254.887 103.797 254.865 102.398 254.974 101.021C254.996 100.715 254.493 100.715 254.471 101.021Z" fill="#161616"/>
<path d="M254.69 101.064C257.4 101.13 260.089 100.977 262.778 100.627C262.69 100.54 262.603 100.452 262.537 100.387C262.494 101.655 262.537 102.901 262.625 104.147C262.647 104.453 263.149 104.453 263.128 104.147C263.018 102.901 262.996 101.633 263.04 100.387C263.04 100.256 262.931 100.124 262.8 100.146C260.111 100.496 257.422 100.627 254.712 100.583C254.362 100.562 254.362 101.042 254.69 101.064Z" fill="#161616"/>
<path d="M254.887 105.567C257.575 105.611 260.22 105.327 262.843 104.737C263.149 104.671 263.018 104.19 262.712 104.256C260.133 104.824 257.532 105.108 254.887 105.065C254.581 105.065 254.581 105.546 254.887 105.567Z" fill="#161616"/>
<path d="M255.914 102.595C257.575 102.704 259.215 102.616 260.876 102.354C261.182 102.31 261.051 101.829 260.745 101.873C259.149 102.135 257.532 102.201 255.914 102.092C255.608 102.07 255.608 102.573 255.914 102.595Z" fill="#161616"/>
<path d="M256.963 103.972C258.69 103.928 260.351 103.6 261.991 103.01C262.275 102.901 262.166 102.42 261.86 102.529C260.286 103.119 258.646 103.425 256.963 103.491C256.657 103.469 256.635 103.972 256.963 103.972Z" fill="#161616"/>
<path opacity="0.2" d="M226.557 110.573C226.95 101.349 227.344 92.1239 227.715 82.8773C240.481 81.8499 253.269 80.8444 266.035 79.817C265.751 88.5608 265.445 97.3046 265.16 106.048C252.285 107.557 239.432 109.065 226.557 110.573Z" fill="#6D6C6C"/>
<path opacity="0.2" d="M261.226 73.8494C261.291 76.3851 261.16 79.4017 260.504 82.7462C258.887 90.9653 254.996 96.8892 252.351 100.234C254.143 102.616 255.936 104.999 257.75 107.382C252.263 108.016 246.777 108.65 241.29 109.284C242.164 99.2719 243.039 89.2603 243.913 79.2705C243.629 77.9589 243.323 76.6474 243.039 75.3358C249.094 74.8112 255.171 74.3303 261.226 73.8494Z" fill="#6D6C6C"/>
<path d="M246.012 45.3009C250.58 44.6889 256.023 55.1814 258.187 62.7229C260.679 71.4011 259.586 78.8989 258.69 82.8554C256.941 90.6156 253.313 96.0804 251.039 99.0314C251.389 100.19 252.198 103.338 250.864 106.792C248.897 111.841 243.563 114.267 243.148 113.808C243.017 113.655 243.279 113.021 245.356 110.639C244.919 111.098 241.771 114.224 238.23 113.481C237.618 113.349 236.852 113.196 236.415 112.584C235.388 111.098 237.093 107.731 240.722 103.994C236.765 104.977 235.716 104.715 235.519 104.278C235.016 103.228 239.06 100.256 240.525 99.1626C242.689 97.5669 244.634 96.4739 245.968 95.7962C249.706 88.0361 249.509 81.9811 249.181 79.1393C248.7 74.9423 247.126 70.3737 246.82 69.4993C245.946 66.9855 245.531 66.4172 243.782 61.8922C240.962 54.6349 240.962 53.3889 241.071 52.4271C241.465 49.5417 243.41 45.6507 246.012 45.3009Z" fill="white" stroke="#161616" stroke-width="2"/>
<path d="M236.503 111.972C238.929 110.595 241.049 108.824 242.82 106.682C243.082 106.354 242.623 105.895 242.361 106.223C240.634 108.322 238.557 110.07 236.175 111.426C235.803 111.601 236.131 112.169 236.503 111.972Z" fill="#161616"/>
<path d="M238.645 113.437C241.049 112.191 243.104 110.464 244.766 108.322C245.028 107.994 244.459 107.666 244.197 107.994C242.623 110.049 240.612 111.688 238.317 112.868C237.945 113.065 238.273 113.634 238.645 113.437Z" fill="#161616"/>
<path opacity="0.17" d="M244.175 46.3502C239.825 50.1319 257.575 66.7232 254.537 85.566C252.46 98.485 243.847 106.923 243.847 106.923C241.443 109.327 236.918 112.278 237.464 113.306C237.858 114.049 240.59 113.371 241.574 113.065C243.432 112.497 244.722 111.535 245.443 110.901C244.35 112.125 243.104 113.634 243.367 113.94C243.738 114.333 246.842 112.715 248.788 110.442C252.154 106.507 251.673 101.043 251.345 98.8129C252.132 97.7855 253.16 96.3427 254.209 94.5066C255.171 92.8671 257.947 87.752 259.149 80.8007C261.269 68.4938 256.919 58.7882 255.171 54.9847C253.597 51.5965 250.93 45.9786 246.886 45.7382C246.361 45.6726 245.028 45.607 244.175 46.3502Z" fill="#6D6C6C"/>
<path opacity="0.22" d="M258.909 80.4509C257.728 83.8828 256.329 87.4896 254.668 91.2713C253.487 93.96 252.285 96.4738 251.061 98.8565C250.449 100.824 249.29 103.775 246.995 106.813C244.591 110.005 241.946 111.95 240.175 113.065C240.678 113.087 241.29 113.043 241.968 112.868C243.673 112.475 244.809 111.535 245.378 110.967C244.722 111.797 244.044 112.606 243.388 113.437C243.913 113.349 244.744 113.196 245.662 112.781C250.471 110.617 251.476 104.737 251.542 104.343C251.717 103.272 251.826 101.436 251.17 99.1625C252.744 97.3045 254.733 94.5283 256.329 90.7904C258.1 86.6808 258.69 82.9866 258.909 80.4509Z" fill="#6D6C6C"/>
<path d="M206.424 30.9174C202.905 34.9396 205.331 40.5575 205.659 41.3225C206.883 44.1643 210.053 48.2083 214.075 47.8804C217.004 47.6181 218.862 45.1479 219.321 44.4922C222.556 39.8361 221.485 30.9393 216.02 28.6441C213.004 27.3762 208.851 28.1194 206.424 30.9174Z" fill="#5222D0"/>
<path d="M215.299 34.5023C215.452 36.2292 217.266 36.6009 218.49 39.4426C219.365 41.4974 219.365 43.5084 219.212 44.9512C220.633 45.0823 223.256 45.1479 226.229 44.0112C228.568 43.115 230.207 41.8253 231.191 40.929C230.732 39.9016 230.054 38.3933 229.245 36.6009C225.748 28.9719 225.179 28.3161 224.327 27.9882C220.917 26.6985 215.015 31.289 215.299 34.5023Z" fill="white" stroke="#161616" stroke-width="2"/>
<path d="M202.708 11.9215C201.965 12.9708 201.506 14.2605 201.44 19.7909C201.396 24.5125 201.659 28.8189 202.096 32.6443C203.08 32.0759 204.063 31.5076 205.047 30.9392C205.484 32.0103 206.227 33.4749 207.495 34.8958C210.009 37.7156 213.069 38.6775 214.425 39.0272C215.845 38.6775 219.387 37.5845 222.075 34.24C223.846 32.0103 224.414 29.8025 224.546 29.2998C225.354 25.999 224.567 23.2666 224.152 22.1299C224.677 21.8894 225.485 21.4304 226.098 20.5997C227.387 18.851 227.737 15.7251 226.141 14.6758C224.961 13.8889 222.862 14.3479 221.288 15.9655C220.939 15.1567 220.392 14.0419 219.518 12.8833C219.299 12.5992 217.66 10.4569 215.649 9.3421C211.78 7.11243 205.375 8.16169 202.708 11.9215Z" fill="white" stroke="#161616" stroke-width="2"/>
<path d="M201.112 18.7855C200.238 18.6324 198.62 18.1734 197.855 16.84C196.544 14.5884 198.467 11.1565 198.948 10.304C199.342 9.58263 200.391 7.85573 204.85 4.72983C208.238 2.34716 209.944 1.16675 211.78 0.5984C218.294 -1.34709 224.261 2.01926 225.376 2.65319C227.715 3.98661 229.202 5.42934 230.382 6.56603C232.196 8.31478 234.229 10.3258 236.503 12.643C242.339 20.2063 244.394 27.1139 245.225 31.2453C246.165 35.9232 247.126 40.6886 244.328 43.4866C241.53 46.2846 236.415 45.7163 233.289 44.3829C228.939 42.5248 227.081 38.5901 225.639 35.5516C223.19 30.3491 223.037 25.3651 223.278 22.1299C225.464 21.496 226.579 19.4412 226.076 17.8892C225.682 16.6651 224.218 15.441 222.709 15.8781C221.551 16.206 220.72 17.4083 220.786 18.8073C219.737 18.7855 216.939 18.545 214.272 16.5339C212.326 15.0693 211.343 13.3206 210.883 12.3588C209.681 12.5118 207.277 12.949 204.85 14.6977C202.817 16.0967 201.681 17.7799 201.112 18.7855Z" fill="#5222D0"/>
<path opacity="0.24" d="M215.583 22.9606C218.206 26.1302 219.037 29.4747 219.037 29.4747C219.89 33.2345 218.665 36.426 218.119 37.7157C219.496 36.6664 220.895 35.6172 222.272 34.5679C223.234 37.7594 224.174 40.929 225.136 44.1205C225.857 44.0549 227.344 43.7926 228.83 42.7434C229.967 41.9346 230.644 40.9946 231.016 40.4044C229.245 38.7649 225.857 35.1363 224.305 29.431C223.562 26.6767 223.453 24.2284 223.54 22.3922C225.529 21.5834 226.557 19.6379 226.141 18.0203C225.835 16.8399 224.633 15.4191 223.081 15.6377C221.791 15.8344 220.72 17.1022 220.742 18.6543C219.758 18.6543 217.441 18.545 215.015 17.0804C212.501 15.5721 211.299 13.4736 210.84 12.5773C210.949 16.7743 212.239 19.2007 213.397 20.6435C214.162 21.6271 214.512 21.6709 215.583 22.9606Z" fill="#6D6C6C"/>
<path d="M205.419 22.0424C205.178 22.9168 205.2 23.8131 205.528 24.6656C205.637 24.9716 206.053 24.9935 206.162 24.6656C206.424 23.8786 206.424 23.048 206.184 22.261C206.053 21.8676 205.419 22.0206 205.55 22.4359C205.768 23.1354 205.746 23.8131 205.528 24.5126C205.746 24.5126 205.943 24.5126 206.162 24.5126C205.878 23.7693 205.834 23.0043 206.053 22.2392C206.162 21.802 205.55 21.6271 205.419 22.0424Z" fill="#161616"/>
<path d="M204.632 20.6872C205.2 20.3374 205.899 20.403 206.38 20.862C206.686 21.1462 207.145 20.6872 206.839 20.403C206.162 19.7472 205.113 19.616 204.304 20.1188C203.954 20.3374 204.282 20.9058 204.632 20.6872Z" fill="#161616"/>
<path d="M206.992 26.2395C207.408 26.2395 207.408 25.5837 206.992 25.5837C206.555 25.5837 206.555 26.2395 206.992 26.2395Z" fill="#161616"/>
<path d="M208.435 24.3377C208.435 24.3596 208.435 24.3814 208.435 24.4033C208.435 24.5782 208.588 24.7312 208.763 24.7312C208.938 24.7312 209.091 24.5782 209.091 24.4033C209.091 24.3814 209.091 24.3596 209.091 24.3377C209.091 24.1628 208.938 24.0098 208.763 24.0098C208.588 24.0098 208.435 24.141 208.435 24.3377Z" fill="#161616"/>
<path d="M208.501 25.9771C208.916 25.9771 208.916 25.3214 208.501 25.3214C208.085 25.3214 208.085 25.9771 208.501 25.9771Z" fill="#161616"/>
<path d="M199.495 23.048C199.232 23.9223 199.254 24.8186 199.56 25.6711C199.67 25.9771 200.085 25.9771 200.194 25.6711C200.456 24.8842 200.478 24.0535 200.26 23.2666C200.15 22.8512 199.517 23.0261 199.626 23.4414C199.823 24.1409 199.801 24.8186 199.56 25.4962C199.779 25.4962 199.976 25.4962 200.194 25.4962C199.932 24.753 199.888 23.9879 200.129 23.2228C200.238 22.8075 199.604 22.6326 199.495 23.048Z" fill="#161616"/>
<path d="M199.123 21.4086C199.582 21.1681 200.216 21.2774 200.522 21.7146C200.762 22.0425 201.331 21.7146 201.09 21.3867C200.544 20.6654 199.604 20.4249 198.795 20.8402C198.424 21.037 198.751 21.6053 199.123 21.4086Z" fill="#161616"/>
<path d="M206.49 33.3001C208.173 32.9941 209.637 32.0979 210.73 30.7644C210.927 30.524 210.577 30.1742 210.381 30.4147C209.353 31.6825 207.976 32.5132 206.359 32.8192C206.053 32.8848 206.184 33.3657 206.49 33.3001Z" fill="#161616"/>
<path d="M209.9 30.4583C210.293 30.5895 210.621 30.7862 210.905 31.0704C211.124 31.289 211.474 30.9392 211.255 30.7207C210.905 30.3709 210.49 30.1305 210.031 29.9774C209.725 29.89 209.594 30.3709 209.9 30.4583Z" fill="#161616"/>
<path opacity="0.45" d="M223.518 1.86621C226.294 5.71347 229.857 11.1565 233.246 18.1078C236.831 25.4525 239.454 30.983 237.421 33.1689C234.732 36.0762 225.442 31.4639 223.955 30.6988C224.261 32.688 225.027 35.8576 227.278 39.0273C228.415 40.623 230.404 43.4429 234.076 44.7544C236.284 45.5414 238.251 45.4976 239.017 45.4321C240.044 45.3665 241.224 45.279 242.514 44.5795C242.514 44.5795 244.197 43.6833 245.334 41.8471C247.061 39.0491 246.143 35.2674 244.919 30.5239C243.454 24.8405 241.487 21.0588 239.563 17.3208C239.082 16.4027 238.514 15.3316 237.596 14.0856C236.678 12.8178 236 12.1401 233.158 9.40772C228.939 5.32 228.284 4.7298 227.016 3.87728C225.617 2.91546 224.371 2.28154 223.518 1.86621Z" fill="#371B9B"/>
<path opacity="0.43" d="M218.25 39.0491C218.425 39.5518 218.818 40.9727 218.25 42.5466C217.398 44.8855 215.037 45.6725 214.665 45.7818C211.976 46.6562 208.588 45.279 206.315 42.2843C206.621 43.0712 207.298 44.4702 208.697 45.6943C209.397 46.3064 211.299 47.9459 213.987 47.7491C214.447 47.7054 217.398 47.4868 218.753 44.9293C219.737 43.1149 219.518 40.8415 218.25 39.0491Z" fill="#371B9B"/>
</svg>
