<svg width="286" height="221" viewBox="0 0 286 221" fill="none" xmlns="http://www.w3.org/2000/svg">
<path d="M16.8859 187.102C17.4437 192.604 18.4072 198.03 19.7509 203.405C19.8777 203.887 20.613 203.684 20.4862 203.202C19.1678 197.903 18.2043 192.528 17.6465 187.102C17.5958 186.621 16.8352 186.621 16.8859 187.102Z" fill="#E8E8E8"/>
<path d="M19.9031 203.659C24.8978 204.952 30.0955 204.952 35.0902 203.659C35.572 203.532 35.3691 202.797 34.8874 202.923C30.0194 204.191 24.9739 204.191 20.1059 202.923C19.6495 202.797 19.4467 203.532 19.9031 203.659Z" fill="#E8E8E8"/>
<path d="M35.6734 202.898C36.003 197.498 36.434 192.097 36.9411 186.697C36.9918 186.215 36.2311 186.215 36.1804 186.697C35.6734 192.097 35.2423 197.498 34.9127 202.898C34.8874 203.38 35.648 203.38 35.6734 202.898Z" fill="#E8E8E8"/>
<path d="M17.317 187.508C23.6301 188.801 30.1208 188.75 36.434 187.331C36.9158 187.229 36.7129 186.494 36.2312 186.595C30.0701 187.965 23.7062 188.041 17.5198 186.773C17.0381 186.671 16.8352 187.407 17.317 187.508Z" fill="#E8E8E8"/>
<path d="M17.2409 189.334C17.4437 190.373 18.7621 190.322 19.5734 190.399C21.6271 190.576 23.7062 190.627 25.7599 190.576C27.7375 190.525 29.7151 190.373 31.6928 190.145C33.2647 189.942 34.786 189.739 36.1804 188.953C36.6115 188.725 36.2312 188.066 35.8001 188.294C33.2901 189.689 29.8165 189.638 27.0022 189.765C25.6077 189.815 24.1879 189.841 22.7934 189.815C22.0582 189.79 18.1283 189.968 17.9761 189.131C17.8747 188.649 17.1648 188.852 17.2409 189.334Z" fill="#E8E8E8"/>
<path d="M18.686 198.132C19.903 200.287 21.4497 202.188 23.3005 203.836C23.6555 204.166 24.2133 203.633 23.8329 203.304C22.0074 201.707 20.5115 199.856 19.3453 197.751C19.1171 197.32 18.4579 197.701 18.686 198.132Z" fill="#E8E8E8"/>
<path d="M17.6972 192.275C20.2834 196.636 23.4273 200.642 27.0276 204.242C27.3825 204.597 27.915 204.039 27.56 203.709C24.0104 200.16 20.9172 196.205 18.3564 191.894C18.1029 191.489 17.4437 191.869 17.6972 192.275Z" fill="#E8E8E8"/>
<path d="M21.9314 190.449C24.619 195.241 27.7375 199.78 31.2618 204.014C31.566 204.394 32.0984 203.862 31.7942 203.481C28.3207 199.298 25.2275 194.81 22.5906 190.069C22.3624 189.638 21.7032 190.018 21.9314 190.449Z" fill="#E8E8E8"/>
<path d="M26.774 190.627C29.3855 194.531 32.0224 198.41 34.6846 202.29C34.9635 202.695 35.6227 202.315 35.3438 201.909C32.6816 198.03 30.0447 194.151 27.4333 190.246C27.1544 189.841 26.4952 190.221 26.774 190.627Z" fill="#E8E8E8"/>
<path d="M30.8307 190.398C32.1491 192.528 33.569 194.607 35.0395 196.636C35.3184 197.016 35.9776 196.636 35.6987 196.255C34.2282 194.227 32.8083 192.148 31.4899 190.018C31.2364 189.612 30.5772 189.993 30.8307 190.398Z" fill="#E8E8E8"/>
<path d="M8.89936 164.791C9.20361 166.54 9.50786 168.315 9.83747 170.064C9.93888 170.546 10.0149 171.053 10.4206 171.358C10.6995 171.586 11.6123 171.56 11.7897 171.814C11.8151 171.662 11.8404 171.51 11.8404 171.358C11.4601 171.738 11.0798 172.118 10.6742 172.473C10.5727 172.575 10.5474 172.727 10.5727 172.853C10.8009 173.538 10.9531 174.552 11.4094 175.135C11.6376 175.44 12.0433 175.389 12.2208 175.566C12.3729 175.718 12.3222 175.617 12.2461 176.073C12.1954 176.454 12.1954 176.859 12.2461 177.265C12.3222 177.874 12.4997 178.457 12.7278 179.014C14.0463 182.209 16.607 184.795 19.0664 187.179C19.4214 187.508 19.9538 186.976 19.5988 186.646C18.0269 185.125 16.4549 183.553 15.1618 181.778C13.8941 180.029 12.3982 177.671 13.1842 175.44C13.2349 175.313 13.1842 175.135 13.0828 175.059C12.6011 174.679 12.1193 174.831 11.7897 174.223C11.1559 173.082 11.5108 172.701 12.3222 171.915C12.4489 171.814 12.4743 171.586 12.3729 171.459C12.1701 171.155 12.0179 171.053 11.6883 170.952C11.4855 170.876 11.1812 170.952 10.9784 170.85C10.5474 170.622 10.5474 170.064 10.4713 169.659C10.1671 167.985 9.86282 166.287 9.58392 164.613C9.53322 164.106 8.79794 164.309 8.89936 164.791Z" fill="#E8E8E8"/>
<path d="M9.45714 164.689C19.3453 167.985 26.1148 177.214 26.3177 187.66C26.3177 188.142 27.0783 188.142 27.0783 187.66C26.8755 176.885 19.8777 167.377 9.65997 163.954C9.2036 163.802 9.00076 164.537 9.45714 164.689Z" fill="#E8E8E8"/>
<path d="M24.6443 177.265C27.1037 170.445 30.7293 163.853 36.5354 159.365C36.9157 159.061 36.5354 158.401 36.1551 158.706C30.1715 163.345 26.4444 170.039 23.909 177.062C23.7569 177.518 24.4922 177.721 24.6443 177.265Z" fill="#E8E8E8"/>
<path d="M35.8762 159.213C36.0536 161.545 36.2565 163.878 36.434 166.236C36.4847 166.718 37.2453 166.718 37.1946 166.236C37.0171 163.903 36.8143 161.571 36.6368 159.213C36.6114 158.731 35.8508 158.731 35.8762 159.213Z" fill="#E8E8E8"/>
<path d="M36.7636 165.982C36.434 166.058 36.1044 166.135 35.8001 166.236C35.3184 166.363 35.5212 167.098 36.0029 166.971C36.3325 166.895 36.6622 166.819 36.9664 166.718C37.4481 166.591 37.2453 165.881 36.7636 165.982Z" fill="#E8E8E8"/>
<path d="M35.4198 166.921C35.5213 167.402 35.9269 167.707 36.3833 167.757C36.5861 167.783 36.7636 167.58 36.7636 167.377C36.7636 167.149 36.5861 167.022 36.3833 166.997C36.4594 166.997 36.3833 166.997 36.3579 166.997C36.3326 166.997 36.2819 166.971 36.3326 166.997C36.3072 166.971 36.2819 166.971 36.2565 166.946C36.2058 166.921 36.3072 166.997 36.2312 166.921C36.2058 166.895 36.2058 166.895 36.1805 166.87C36.2312 166.921 36.1805 166.87 36.1805 166.845C36.1551 166.819 36.1551 166.768 36.1551 166.819C36.1551 166.794 36.1298 166.743 36.1298 166.718C36.0791 166.515 35.8509 166.388 35.6734 166.464C35.4706 166.515 35.3691 166.718 35.4198 166.921Z" fill="#E8E8E8"/>
<path d="M36.0029 167.478C36.0283 168.923 35.9776 170.343 35.8255 171.763C35.7748 172.22 35.8508 173.284 35.5466 173.639C35.5212 173.665 35.0648 173.741 34.9634 173.817C34.5831 174.121 35.1155 174.654 35.4959 174.349C35.6226 174.248 35.9269 174.349 36.1297 174.121C36.434 173.817 36.3833 173.107 36.434 172.752C36.6621 171.003 36.7636 169.228 36.7382 167.453C36.7636 166.997 36.0029 166.997 36.0029 167.478Z" fill="#E8E8E8"/>
<path d="M34.6592 174.476C35.4705 175.44 35.2423 177.037 35.1662 178.203C35.0648 179.547 34.8366 180.789 34.1774 181.956C33.2393 183.68 31.9209 185.125 31.2363 187.001C31.0589 187.458 31.7941 187.66 31.9716 187.204C32.8844 184.745 34.9888 182.919 35.6226 180.333C36.079 178.482 36.51 175.516 35.1916 173.944C34.8874 173.589 34.3549 174.121 34.6592 174.476Z" fill="#E8E8E8"/>
<path d="M28.6756 187.356C29.3855 180.155 31.2871 173.132 34.3296 166.591C34.5324 166.16 33.8732 165.754 33.6704 166.211C30.5772 172.904 28.6249 180.029 27.915 187.381C27.8643 187.863 28.6249 187.838 28.6756 187.356Z" fill="#E8E8E8"/>
<path d="M13.7166 168.924C18.1536 174.501 21.399 180.916 23.3005 187.762C23.4273 188.243 24.1626 188.041 24.0358 187.559C22.0835 180.561 18.7621 174.07 14.2491 168.391C13.9448 168.011 13.4124 168.543 13.7166 168.924Z" fill="#E8E8E8"/>
<path d="M14.1984 178.279C16.3281 178.152 18.3057 178.66 20.1059 179.775C20.5116 180.029 20.9172 179.37 20.4862 179.116C18.5846 177.95 16.4295 177.392 14.1984 177.519C13.6913 177.544 13.6913 178.305 14.1984 178.279Z" fill="#E8E8E8"/>
<path d="M18.8382 174.882C18.6861 173.487 18.8635 172.143 19.396 170.825C19.5735 170.369 18.8382 170.166 18.6607 170.622C18.1029 171.991 17.9254 173.411 18.0776 174.882C18.1283 175.363 18.8889 175.363 18.8382 174.882Z" fill="#E8E8E8"/>
<path d="M27.0529 170.673C27.8896 172.727 29.1066 174.907 29.4109 177.088C29.4869 177.569 30.2222 177.366 30.1461 176.885C29.8165 174.679 28.5995 172.498 27.7882 170.47C27.6107 170.014 26.8755 170.217 27.0529 170.673Z" fill="#E8E8E8"/>
<path d="M31.7181 173.081C32.4534 172.245 33.1633 171.256 34.1014 170.622C34.8874 170.09 35.7494 169.735 36.3579 168.999C36.6622 168.619 36.1298 168.087 35.8255 168.467C35.1663 169.253 34.2028 169.583 33.4169 170.191C32.5548 170.85 31.8956 171.738 31.1857 172.549C30.8561 172.929 31.3885 173.462 31.7181 173.081Z" fill="#E8E8E8"/>
<path d="M31.9717 187.102C33.1887 186.773 34.431 186.646 35.6987 186.722C36.1805 186.748 36.1805 185.987 35.6987 185.962C34.355 185.885 33.0619 186.012 31.7688 186.367C31.3125 186.494 31.4899 187.229 31.9717 187.102Z" fill="#E8E8E8"/>
<path d="M31.8702 187.407C33.29 187.533 34.6592 187.356 36.0283 186.925C36.4847 186.773 36.2818 186.038 35.8255 186.19C34.5324 186.595 33.214 186.747 31.8702 186.646C31.3885 186.621 31.3885 187.381 31.8702 187.407Z" fill="#E8E8E8"/>
<path d="M17.6465 187.28C17.9761 187.28 18.2804 187.28 18.61 187.28C19.0917 187.28 19.0917 186.519 18.61 186.519C18.2804 186.519 17.9761 186.519 17.6465 186.519C17.1648 186.519 17.1648 187.28 17.6465 187.28Z" fill="#E8E8E8"/>
<path d="M36.2312 193.416C44.2685 193.416 52.3311 193.416 60.3684 193.416C60.8501 193.416 60.8501 192.655 60.3684 192.655C52.3311 192.655 44.2685 192.655 36.2312 192.655C35.7494 192.655 35.7494 193.416 36.2312 193.416Z" fill="#E8E8E8"/>
<path d="M172.282 188.396C177.074 188.396 181.84 188.396 186.632 188.396C187.114 188.396 187.114 187.635 186.632 187.635C181.84 187.635 177.074 187.635 172.282 187.635C171.8 187.635 171.8 188.396 172.282 188.396Z" fill="#E8E8E8"/>
<path d="M215.79 188.852C236.453 188.852 257.117 188.852 277.781 188.852C283.663 188.852 289.545 188.852 295.427 188.852C295.909 188.852 295.909 188.091 295.427 188.091C274.764 188.091 254.1 188.091 233.436 188.091C227.554 188.091 221.672 188.091 215.79 188.091C215.308 188.091 215.308 188.852 215.79 188.852Z" fill="#E8E8E8"/>
<path d="M185.187 105.614C183.26 109.595 181.181 113.499 178.975 117.328C178.874 117.531 178.95 117.86 179.203 117.885C190.08 119.533 199.816 124.934 209.197 130.385C209.629 130.639 210.009 129.979 209.578 129.726C200.121 124.249 190.334 118.824 179.381 117.15C179.457 117.328 179.533 117.531 179.609 117.708C181.84 113.88 183.894 109.975 185.821 105.994C186.049 105.563 185.415 105.158 185.187 105.614Z" fill="#E8E8E8"/>
<path d="M186.86 119.432C187.621 117.252 188.382 115.046 189.142 112.865C189.472 111.953 189.7 110.938 190.131 110.051C190.233 109.519 190.562 109.113 191.069 108.809C191.374 108.885 191.678 108.961 191.982 109.037C192.438 109.164 192.895 109.265 193.326 109.392C194.365 109.645 196.039 109.645 195.861 111.04C195.734 112.029 195.151 113.094 194.822 114.057C194.061 116.212 193.326 118.367 192.565 120.522C192.413 120.979 193.148 121.182 193.3 120.725C194.289 117.885 195.278 115.02 196.267 112.181C196.495 111.522 197.129 110.406 196.622 109.696C196.064 108.935 194.391 108.885 193.529 108.657C192.692 108.454 191.221 107.693 190.359 108.099C189.624 108.428 189.472 109.696 189.244 110.33C188.204 113.296 187.165 116.288 186.125 119.255C185.973 119.686 186.708 119.888 186.86 119.432Z" fill="#E8E8E8"/>
<path d="M196.647 122.145C198.27 118.722 199.918 115.274 201.541 111.851C202.352 110.127 203.163 108.428 204 106.704C204.38 105.918 204.684 104.98 205.166 104.245C205.572 103.611 205.673 103.459 206.383 103.738C206.764 103.89 207.22 104.27 207.549 104.498C207.981 104.803 208.665 105.132 208.969 105.538C209.35 106.02 209.198 106.527 208.969 107.135C208.665 107.947 208.209 108.733 207.828 109.519C206.992 111.243 206.155 112.967 205.268 114.691C203.594 117.962 201.845 121.207 200.045 124.427C199.791 124.858 200.45 125.238 200.704 124.807C202.91 120.903 205.014 116.947 206.992 112.941C207.981 110.964 209.071 108.935 209.907 106.882C210.491 105.386 209.223 104.777 208.107 103.991C207.22 103.383 205.825 101.988 204.862 103.129C204.253 103.839 203.924 105.031 203.518 105.893C203.011 106.932 202.529 107.972 202.022 109.037C199.994 113.296 197.966 117.556 195.963 121.815C195.785 122.196 196.444 122.601 196.647 122.145Z" fill="#E8E8E8"/>
<path d="M205.065 127.419C207.245 123.996 209.705 120.751 212.417 117.759C212.265 117.784 212.113 117.809 211.961 117.809C212.925 118.469 213.863 119.102 214.826 119.762C214.775 119.584 214.725 119.407 214.699 119.229C212.544 122.601 210.389 125.948 208.234 129.32C207.98 129.726 208.614 130.106 208.893 129.701C211.048 126.328 213.203 122.982 215.359 119.61C215.485 119.432 215.384 119.204 215.232 119.077C214.268 118.418 213.33 117.784 212.367 117.125C212.24 117.023 212.012 117.074 211.91 117.176C209.147 120.243 206.637 123.514 204.431 126.988C204.152 127.469 204.811 127.85 205.065 127.419Z" fill="#E8E8E8"/>
<path d="M235.312 103.307C232.777 102.343 231.18 99.808 231.636 97.0951C232.092 94.3315 234.805 91.8721 237.594 93.5201C239.521 94.6611 240.51 97.2472 239.775 99.3516C239.014 101.608 236.529 102.952 234.222 102.597C233.74 102.521 233.538 103.256 234.019 103.332C236.732 103.738 239.597 102.242 240.51 99.5544C241.423 96.8669 239.952 93.6215 237.315 92.5313C234.222 91.2636 231.408 93.9258 230.875 96.8922C230.318 100.036 232.168 102.927 235.084 104.042C235.566 104.22 235.769 103.484 235.312 103.307Z" fill="#E8E8E8"/>
<path d="M240.51 102.825C235.464 102.673 237.366 94.5849 241.828 94.8892C246.291 95.2188 244.465 104.321 239.572 102.648C239.115 102.495 238.913 103.231 239.369 103.383C245.023 105.31 247.558 95.0159 242.158 94.1539C239.521 93.7229 237.138 96.2076 236.732 98.667C236.327 101.101 237.975 103.484 240.51 103.56C240.992 103.611 240.992 102.85 240.51 102.825Z" fill="#E8E8E8"/>
<path d="M236.732 79.8796C236.301 79.4232 236.098 78.6879 236.428 78.1301C236.758 77.5977 237.569 77.3441 238.076 77.7498C238.532 78.1048 238.634 78.8654 238.203 79.2457C237.696 79.7021 236.884 79.4739 236.403 79.0936C236.022 78.7893 235.49 79.3218 235.87 79.626C236.656 80.2345 237.873 80.5388 238.71 79.8035C239.47 79.1189 239.394 77.8512 238.634 77.192C237.848 76.5075 236.605 76.7103 235.946 77.4709C235.211 78.333 235.414 79.626 236.174 80.412C236.529 80.767 237.062 80.2345 236.732 79.8796Z" fill="#E8E8E8"/>
<path d="M163.154 98.9713C162.444 94.6611 164.954 89.4635 169.822 89.5142C172.307 89.5395 174.716 90.5537 177.226 90.1987C179.001 89.9452 180.522 88.931 181.587 87.5366C182.652 86.1421 183.26 84.3926 183.362 82.6432C183.488 80.0571 182.5 77.4202 183.209 74.8595C183.564 73.5664 184.325 72.3747 185.618 71.893C186.86 71.462 188.204 71.7155 189.497 71.6648C191.373 71.5888 192.844 70.7774 193.782 69.1294C195.101 66.8222 194.796 64.0586 195.709 61.6246C196.799 58.6835 199.867 56.1734 203.112 57.6186C203.543 57.8214 203.949 57.1622 203.493 56.9594C199.081 54.9818 195.405 58.9624 194.543 62.9683C193.985 65.5798 194.086 69.6365 190.968 70.676C188.787 71.4113 186.328 70.2703 184.325 71.7662C182.677 72.9832 182.195 75.2144 182.221 77.1667C182.297 80.0317 183.184 82.8207 181.916 85.5589C180.75 88.1451 178.443 89.6917 175.578 89.5142C173.042 89.3621 170.532 88.3225 167.972 88.9817C163.636 90.072 161.785 95.1935 162.47 99.1995C162.52 99.6305 163.256 99.4277 163.154 98.9713Z" fill="#E8E8E8"/>
<path d="M195.202 80.8937C194.264 78.7639 195.557 76.7356 197.611 76.051C199.107 75.5439 200.755 75.5186 202.048 74.5044C203.062 73.7184 203.391 72.7296 203.265 71.4619C203.138 70.2703 203.138 69.3322 204.076 68.5208C204.862 67.8363 205.901 67.5827 206.916 67.532C209.705 67.4306 213.533 68.8504 215.561 66.1375C216.5 64.8698 216.221 63.2979 216.652 61.878C217.235 59.9004 219.136 58.6834 221.165 58.7848C221.646 58.8102 221.646 58.0495 221.165 58.0242C219.618 57.9481 218.122 58.5313 217.057 59.6469C215.739 61.0413 215.916 62.6133 215.511 64.3627C214.42 69.1547 207.752 65.7826 204.608 67.2785C203.442 67.8363 202.504 68.8251 202.403 70.1435C202.276 71.6901 202.986 72.9578 201.414 74.0227C200.577 74.5805 199.614 74.758 198.65 74.9861C197.053 75.3665 195.481 75.8482 194.67 77.3948C194.01 78.6118 194.01 80.0063 194.568 81.2486C194.746 81.7304 195.379 81.3247 195.202 80.8937Z" fill="#E8E8E8"/>
<path d="M240.383 47.1218C240.282 46.8936 240.18 46.6401 240.104 46.3866C240.434 46.0062 240.738 45.6259 241.068 45.2456C241.169 45.2203 241.626 45.5245 241.778 45.5245C242.158 45.5752 242.488 45.4738 242.792 45.2456C243.73 44.5103 243.4 43.344 243.679 42.3552C244.136 40.6565 246.139 41.8228 247.051 40.5551C247.964 39.3127 247.634 36.6759 250.068 37.3858C250.55 37.5126 250.753 36.7773 250.271 36.6505C248.877 36.2449 247.609 36.9041 247.102 38.2479C246.95 38.6282 246.899 39.0592 246.747 39.4395C246.417 40.3269 246.063 40.4537 245.099 40.5044C244.389 40.5551 243.831 40.5044 243.35 41.1129C242.944 41.6453 242.944 42.3299 242.868 42.9637C242.792 43.9018 242.868 44.6878 241.473 44.5864C241.195 44.561 240.966 44.3075 240.662 44.3075C238.989 44.2822 239.268 46.3358 239.673 47.3247C239.825 47.781 240.586 47.5782 240.383 47.1218Z" fill="#E8E8E8"/>
<path d="M245.15 49.2263C244.744 48.6939 244.059 47.1473 245.251 46.7416C245.682 46.5895 246.24 46.7669 246.696 46.7669C247.102 46.7669 247.457 46.7669 247.787 46.488C248.801 45.6767 248.065 44.2315 248.598 43.2174C249.46 41.5693 251.184 42.8624 252.401 42.0004C253.263 41.3918 253.491 40.2256 253.643 39.2621C253.719 38.7804 252.984 38.5775 252.908 39.0593C252.731 40.2002 252.528 41.4679 251.108 41.5947C250.373 41.6707 249.815 41.4172 249.13 41.7468C248.015 42.2792 247.66 43.2681 247.634 44.409C247.609 45.3725 247.837 45.8542 246.215 45.9303C246.012 45.9303 245.809 45.8795 245.606 45.8795C245.023 45.9303 244.516 46.2345 244.186 46.7162C243.476 47.7304 243.882 48.8967 244.592 49.7841C244.922 50.1644 245.454 49.6066 245.15 49.2263Z" fill="#E8E8E8"/>
<path d="M29.5883 62.9683C31.6927 60.4329 34.6845 58.3538 38.1327 58.7088C41.8851 59.0891 43.736 62.0809 44.0909 65.5798C44.6994 71.3859 43.2796 78.3329 47.2095 83.277C48.7561 85.2293 51.0633 86.2688 53.5481 85.6603C56.5398 84.9504 58.8724 82.5925 61.5346 81.198C64.6785 79.5499 69.0141 78.6626 71.8538 81.4262C73.9328 83.4545 74.3892 86.5477 75.0738 89.2353C75.7076 91.6693 76.7979 94.3568 78.9783 95.802C80.2967 96.664 81.7419 96.7401 83.2632 96.6387C84.9619 96.5119 88.4354 96.4105 88.0805 99.0727C88.0298 99.5544 88.7904 99.5544 88.8411 99.0727C88.9679 98.0332 88.4861 97.1965 87.6495 96.588C86.331 95.6245 84.8098 95.7766 83.2632 95.8781C81.5137 96.0048 80.0178 95.8527 78.6741 94.6103C77.4571 93.4948 76.7218 91.9228 76.1894 90.3762C75.302 87.714 75.0484 84.7983 73.5272 82.3643C72.0313 79.9556 69.4451 78.7893 66.6562 78.8907C63.1319 79.0175 60.1655 81.0458 57.3512 82.9221C56.0074 83.8095 54.5622 84.7476 52.9142 85.0265C50.9366 85.3561 49.1871 84.494 47.9194 83.0235C45.5361 80.2345 45.1558 76.2539 45.029 72.755C44.9023 69.4843 45.3333 65.9347 44.2431 62.7655C43.2542 59.8751 40.7442 58.0749 37.727 57.9228C34.2282 57.7453 31.1603 59.8497 29.0052 62.4359C28.7263 62.8162 29.2587 63.3486 29.5883 62.9683Z" fill="#E8E8E8"/>
<path d="M16.7844 102.09C20.7397 108.682 24.2639 115.502 27.3825 122.525C27.5853 122.982 28.2445 122.576 28.0417 122.145C24.9231 115.122 21.3736 108.302 17.4437 101.71C17.1901 101.278 16.5309 101.659 16.7844 102.09Z" fill="#E8E8E8"/>
<path d="M17.2662 101.786C23.4273 97.9571 29.7658 94.3822 36.2819 91.1368C36.7129 90.9086 36.3326 90.2494 35.9015 90.4776C29.4109 93.7229 23.0723 97.2979 16.8859 101.126C16.4549 101.405 16.8352 102.064 17.2662 101.786Z" fill="#E8E8E8"/>
<path d="M35.8255 90.8073C39.0455 97.5768 42.4429 104.245 46.0432 110.812C46.2714 111.243 46.9306 110.862 46.7024 110.431C43.1021 103.865 39.6793 97.1965 36.4847 90.427C36.2565 89.9706 35.6226 90.3509 35.8255 90.8073Z" fill="#E8E8E8"/>
<path d="M28.2446 122.677C34.3043 119.026 40.2878 115.274 46.2207 111.42C46.6264 111.167 46.2461 110.507 45.8404 110.761C39.9075 114.615 33.9239 118.367 27.8643 122.018C27.4586 122.272 27.8389 122.931 28.2446 122.677Z" fill="#E8E8E8"/>
<path d="M27.7629 99.5543C27.6107 104.422 27.8896 109.265 28.5996 114.082C28.6756 114.564 29.4109 114.361 29.3348 113.879C28.6249 109.138 28.3714 104.346 28.5235 99.5543C28.5488 99.0726 27.7882 99.0726 27.7629 99.5543Z" fill="#E8E8E8"/>
<path d="M27.7882 99.3008C31.3124 102.064 34.8367 104.777 38.4116 107.465C38.7919 107.769 39.1722 107.11 38.7919 106.806C35.2677 104.169 31.7688 101.481 28.3206 98.7683C27.9403 98.4641 27.4079 98.9965 27.7882 99.3008Z" fill="#E8E8E8"/>
<path d="M29.3855 114.234C32.3013 111.623 36.1044 110.228 38.868 107.414C39.223 107.059 38.6652 106.527 38.3356 106.882C35.572 109.671 31.7942 111.091 28.8531 113.702C28.4728 114.006 29.0306 114.539 29.3855 114.234Z" fill="#E8E8E8"/>
<path d="M17.7987 106.07C18.61 105.665 19.4213 105.284 20.2327 104.879C20.6637 104.676 20.2834 104.017 19.8524 104.22C19.041 104.625 18.2297 105.006 17.4184 105.411C16.9873 105.639 17.3677 106.273 17.7987 106.07Z" fill="#E8E8E8"/>
<path d="M20.4101 110.381C21.0947 109.924 21.8299 109.544 22.5906 109.214C23.0469 109.037 22.8441 108.302 22.3877 108.479C21.551 108.834 20.7651 109.24 20.0044 109.721C19.6241 110 20.0044 110.66 20.4101 110.381Z" fill="#E8E8E8"/>
<path d="M23.2752 115.35C23.9851 114.995 24.695 114.64 25.4049 114.31C25.836 114.082 25.4556 113.448 25.0246 113.651C24.3147 114.006 23.6048 114.361 22.8949 114.691C22.4638 114.894 22.8442 115.553 23.2752 115.35Z" fill="#E8E8E8"/>
<path d="M24.7457 120.319C25.5317 119.635 26.343 119.052 27.2558 118.545C27.6868 118.291 27.3065 117.657 26.8755 117.885C25.9374 118.418 25.05 119.052 24.2133 119.787C23.833 120.117 24.3654 120.649 24.7457 120.319Z" fill="#E8E8E8"/>
<path d="M37.2707 95.802C37.8538 95.3964 38.4623 95.1175 39.1469 94.94C39.6286 94.8132 39.4258 94.1033 38.9441 94.2047C38.2088 94.3822 37.4989 94.6864 36.865 95.1428C36.4847 95.4217 36.865 96.0809 37.2707 95.802Z" fill="#E8E8E8"/>
<path d="M39.5272 100.137C40.3385 99.6304 41.1499 99.1233 41.9358 98.5909C42.3415 98.3373 41.9612 97.6781 41.5555 97.9317C40.7442 98.4387 39.9329 98.9458 39.1469 99.4783C38.7159 99.7572 39.0962 100.416 39.5272 100.137Z" fill="#E8E8E8"/>
<path d="M42.1133 105.335C42.9754 104.955 43.8628 104.575 44.7248 104.194C45.1812 103.991 44.7755 103.332 44.3445 103.535C43.4824 103.915 42.595 104.296 41.733 104.676C41.2766 104.879 41.6823 105.538 42.1133 105.335Z" fill="#E8E8E8"/>
<path d="M43.9642 108.733C44.6488 108.073 45.4094 107.516 46.2461 107.034C46.6771 106.806 46.2968 106.147 45.8658 106.375C44.9784 106.882 44.167 107.465 43.4318 108.175C43.0768 108.53 43.6092 109.062 43.9642 108.733Z" fill="#E8E8E8"/>
<path d="M30.3997 119.331C31.0335 120.269 31.566 121.258 31.9716 122.297C32.1491 122.753 32.8844 122.551 32.7069 122.094C32.2759 120.979 31.7434 119.914 31.0589 118.925C30.78 118.545 30.1208 118.925 30.3997 119.331Z" fill="#E8E8E8"/>
<path d="M34.2789 117.226C34.7606 118.088 35.217 118.925 35.6987 119.787C35.9269 120.218 36.5861 119.838 36.3579 119.407C35.8762 118.545 35.4198 117.708 34.9381 116.846C34.7099 116.415 34.0507 116.795 34.2789 117.226Z" fill="#E8E8E8"/>
<path d="M38.7665 114.006C39.2736 114.919 39.7807 115.832 40.2878 116.745C40.516 117.176 41.1752 116.795 40.947 116.364C40.4399 115.452 39.9328 114.539 39.4258 113.626C39.1976 113.195 38.5384 113.575 38.7665 114.006Z" fill="#E8E8E8"/>
<path d="M42.7979 111.598C43.2035 112.561 43.6092 113.525 44.0402 114.463C44.2431 114.919 44.8769 114.513 44.6994 114.082C44.2938 113.119 43.8881 112.155 43.4571 111.217C43.2543 110.786 42.595 111.167 42.7979 111.598Z" fill="#E8E8E8"/>
<path d="M19.8017 97.881C20.2834 98.667 20.7398 99.453 21.2215 100.214C21.475 100.645 22.1342 100.239 21.8807 99.8333C21.399 99.0473 20.9426 98.2613 20.4609 97.5007C20.2073 97.095 19.5481 97.4753 19.8017 97.881Z" fill="#E8E8E8"/>
<path d="M24.1626 95.3456C24.6189 96.3598 25.0753 97.3739 25.5317 98.3881C25.7345 98.8445 26.3937 98.4388 26.1909 98.0078C25.7345 96.9936 25.2782 95.9795 24.8218 94.9653C24.5936 94.5089 23.9597 94.8892 24.1626 95.3456Z" fill="#E8E8E8"/>
<path d="M28.0925 92.9116C28.777 93.8243 29.3095 94.8131 29.6644 95.878C29.8166 96.3344 30.5518 96.1316 30.3997 95.6752C30.0194 94.5342 29.487 93.4694 28.7517 92.5313C28.4728 92.1509 27.8136 92.5059 28.0925 92.9116Z" fill="#E8E8E8"/>
<path d="M32.3266 90.9593C32.859 91.7706 33.3661 92.5566 33.8986 93.3679C34.1521 93.7736 34.8113 93.3933 34.5578 92.9876C34.0253 92.1763 33.5182 91.3903 32.9858 90.5789C32.7069 90.1733 32.0477 90.5536 32.3266 90.9593Z" fill="#E8E8E8"/>
<path d="M71.7524 40.682C69.293 39.9213 69.1663 37.3098 70.3325 35.3576C71.4735 33.456 73.6793 32.9489 75.4034 34.5209C76.8232 35.8393 76.95 38.0958 75.6316 39.541C74.3132 41.0116 72.158 40.9862 70.6368 39.8706C70.2565 39.5664 69.8762 40.2256 70.2565 40.5298C72.1834 41.9497 74.9977 41.7215 76.4429 39.7185C77.9388 37.6902 77.4064 34.8505 75.302 33.4814C70.2311 30.2107 65.8702 39.6424 71.5495 41.4172C72.0313 41.5693 72.2341 40.8341 71.7524 40.682Z" fill="#E8E8E8"/>
<path d="M75.8344 41.3412C73.9328 41.9243 73.4764 39.6424 74.3131 38.4254C74.9977 37.4366 76.3415 36.8535 77.5585 37.1831C78.7248 37.4873 79.5614 38.679 79.2572 39.8706C78.8769 41.3665 77.3049 41.8989 75.9104 41.6708C75.4287 41.5947 75.2259 42.33 75.7076 42.406C77.5838 42.7356 79.6122 41.9243 80.0178 39.896C80.3728 38.1465 79.0037 36.5492 77.3049 36.3464C75.4287 36.1182 73.375 37.4873 73.1215 39.4142C72.8933 41.0876 74.4145 42.5835 76.0879 42.0511C76.5189 41.9243 76.3161 41.189 75.8344 41.3412Z" fill="#E8E8E8"/>
<path d="M59.6585 57.8467C59.05 59.0891 59.912 60.3314 61.1797 60.661C62.1432 60.9146 63.1573 60.6864 64.1461 60.7371C65.211 60.7878 66.2759 61.0413 67.2394 61.4724C69.3691 62.4358 70.7382 64.1853 70.8143 66.5432C70.8904 68.5208 70.3072 70.5745 71.1693 72.4507C72.9948 76.406 78.0149 73.3888 80.601 75.9496C82.7561 78.1047 81.8687 82.0346 84.7591 83.6826C85.1901 83.9362 85.5704 83.277 85.1394 83.0234C82.5533 81.5529 83.1618 77.7244 81.3363 75.5946C80.3728 74.4791 78.9784 74.1748 77.5585 74.0734C75.8344 73.972 73.6033 74.3269 72.3356 72.8564C70.865 71.1323 71.651 68.5462 71.5749 66.5178C71.5242 64.9205 70.9918 63.4753 69.8762 62.3344C68.8874 61.3456 67.5943 60.661 66.2505 60.3061C65.566 60.1286 64.8561 60.0018 64.1461 59.9765C63.2334 59.9258 59.2781 60.3821 60.343 58.227C60.5458 57.796 59.8866 57.4157 59.6585 57.8467Z" fill="#E8E8E8"/>
<path d="M0.380313 194.709C4.96942 194.709 9.53318 194.709 14.1223 194.709C14.604 194.709 14.604 193.948 14.1223 193.948C9.53318 193.948 4.96942 193.948 0.380313 193.948C-0.126771 193.948 -0.126771 194.709 0.380313 194.709Z" fill="#E8E8E8"/>
<path d="M7.78376 211.899C16.607 211.899 25.4049 211.899 34.2282 211.899C34.7099 211.899 34.7099 211.138 34.2282 211.138C25.4049 211.138 16.607 211.138 7.78376 211.138C7.27667 211.138 7.27667 211.899 7.78376 211.899Z" fill="#E8E8E8"/>
<path d="M33.1633 207.132C41.3527 207.132 49.5674 207.132 57.7568 207.132C58.2386 207.132 58.2386 206.372 57.7568 206.372C49.5674 206.372 41.3527 206.372 33.1633 206.372C32.6562 206.372 32.6562 207.132 33.1633 207.132Z" fill="#E8E8E8"/>
<path d="M169.544 205.814C173.676 204.8 177.834 204.698 182.043 205.358C183.818 205.636 185.618 205.915 187.418 205.763C189.168 205.611 190.866 205.079 192.565 204.622C194.492 204.09 196.419 203.684 198.447 203.836C200.526 203.988 202.529 204.572 204.558 205.028C206.307 205.434 208.082 205.712 209.882 205.687C211.784 205.636 213.66 205.307 215.511 205.028C220.582 204.217 225.348 204.724 230.368 205.56C230.85 205.636 231.053 204.901 230.571 204.825C226.514 204.166 222.432 203.481 218.3 203.887C213.989 204.318 209.984 205.383 205.623 204.495C201.972 203.76 198.498 202.619 194.746 203.329C192.743 203.71 190.841 204.419 188.838 204.8C186.607 205.231 184.452 204.977 182.221 204.622C177.885 203.963 173.6 204.014 169.315 205.079C168.884 205.205 169.087 205.941 169.544 205.814Z" fill="#E8E8E8"/>
<path d="M208.488 198.106C216.449 197.675 224.41 197.244 232.371 196.839C236.301 196.636 240.104 196.712 244.009 197.244C245.758 197.472 247.432 197.523 249.181 197.32C251.133 197.092 253.162 196.788 254.987 197.726C255.418 197.954 255.799 197.295 255.367 197.067C252.274 195.495 248.699 196.965 245.378 196.661C243.4 196.484 241.473 196.103 239.496 196.002C237.442 195.9 235.388 195.951 233.335 196.053C225.044 196.433 216.753 196.94 208.462 197.371C208.006 197.371 208.006 198.132 208.488 198.106Z" fill="#E8E8E8"/>
<path d="M52.5846 219.885C56.337 220.24 60.1148 220.595 63.8672 220.164C65.6167 219.961 67.29 219.581 68.9888 219.074C71.1946 218.415 73.1722 218.237 75.4541 218.643C77.2035 218.947 78.9276 219.378 80.6771 219.53C82.5279 219.683 84.3788 219.581 86.2296 219.404C90.1088 219.023 93.988 218.364 97.8419 219.226C98.3236 219.328 98.5264 218.592 98.0447 218.491C94.343 217.68 90.6413 218.212 86.9142 218.592C85.0633 218.77 83.2125 218.947 81.3616 218.846C79.2572 218.744 77.2289 218.187 75.1752 217.857C73.4511 217.578 71.8031 217.578 70.1044 217.984C68.2789 218.44 66.5548 219.049 64.6786 219.328C60.6726 219.911 56.5906 219.505 52.5846 219.15C52.0775 219.074 52.1029 219.835 52.5846 219.885Z" fill="#E8E8E8"/>
<path d="M92.695 15.3023C91.7062 14.6177 90.3624 13.5275 90.768 12.1584C91.1991 10.7386 92.2639 11.4231 93.2528 11.0935C94.5712 10.6625 94.4951 9.06518 94.1148 8.02565C93.7345 7.01149 92.9232 4.55213 95.0276 5.38882C95.5093 5.59165 95.8642 5.92126 96.422 5.74378C96.9291 5.59165 97.1827 5.13527 97.3094 4.65354C97.4108 4.22252 97.3348 3.76615 97.3094 3.30977C97.2587 3.00552 97.2334 2.67592 97.2334 2.37167C97.132 1.63639 97.5883 1.33214 98.5518 1.45891C98.5771 1.94064 99.3378 1.94064 99.3124 1.45891C99.2617 0.748997 98.7293 0.241913 97.9686 0.267267C97.0812 0.292622 96.5995 1.15466 96.4981 1.966C96.422 2.52379 96.8784 3.81686 96.6249 4.27323C96.3206 4.47607 96.0164 4.70425 95.6868 4.90709C95.56 4.83102 95.4332 4.75496 95.3064 4.6789C95.0783 4.60284 94.9008 4.45071 94.6726 4.4C93.8866 4.22252 93.2528 4.70425 92.9739 5.41417C92.4921 6.63117 93.3542 7.64534 93.6077 8.78628C93.9373 10.3582 92.7457 10.1808 91.7062 10.3582C91.2498 10.4343 90.8695 10.6625 90.5652 10.9921C88.9679 12.843 90.8188 14.8966 92.34 15.9615C92.7203 16.2404 93.1006 15.5812 92.695 15.3023Z" fill="#E8E8E8"/>
<path d="M97.6897 14.5925C96.8531 13.629 96.2192 12.3106 97.8419 11.8035C98.2475 11.6768 98.7039 11.7275 99.0842 11.4739C99.9209 10.8908 99.566 10.1048 99.4138 9.29347C99.3378 8.8371 99.1603 8.2286 99.4392 7.77222C99.642 7.44262 100.377 7.31585 100.758 7.23978C101.29 7.11301 101.848 7.03695 102.304 6.7327C102.989 6.25097 103.242 5.38893 102.786 4.65366C102.532 4.24799 101.873 4.6283 102.127 5.03397C102.887 6.25097 99.3378 6.58058 98.7293 7.46797C98.0193 8.50749 99.5152 10.333 98.2729 10.9922C97.7912 11.2457 97.1827 11.0683 96.7263 11.3979C96.3967 11.6261 96.1685 11.981 96.0671 12.3613C95.7882 13.4516 96.5235 14.3897 97.1827 15.1503C97.4869 15.5053 98.0193 14.9728 97.6897 14.5925Z" fill="#E8E8E8"/>
<path d="M67.7464 8.58349C67.0872 8.12711 67.0112 7.31578 67.214 6.60586C67.3408 6.12413 67.9493 4.80571 68.5324 4.75501C69.4959 4.65359 69.9776 5.87059 70.2311 6.58051C70.4593 7.26507 70.5354 7.94964 70.5607 8.65955C70.5607 9.14128 71.3214 9.14128 71.3214 8.65955C71.296 7.23972 70.3579 2.87879 68.0253 4.1465C67.1379 4.62823 66.4787 6.02272 66.3773 6.98618C66.2759 7.89893 66.6308 8.71026 67.3661 9.2427C67.7464 9.5216 68.1267 8.86239 67.7464 8.58349Z" fill="#E8E8E8"/>
<path d="M67.4422 8.9892C66.5294 9.21739 65.6167 9.44557 64.6786 9.67376C64.1461 9.80053 63.2334 9.85124 62.8023 10.2569C62.0671 10.9415 62.2699 13.0459 62.2699 13.9333C62.2699 14.1868 62.5234 14.3643 62.7516 14.2882C62.8784 14.2629 63.0052 14.2122 63.1573 14.1868C63.8165 13.8319 64.1461 14.06 64.1715 14.8207C64.6786 15.3277 64.6786 15.632 64.1715 15.6827C63.8672 15.8095 63.563 15.8602 63.2334 15.8602C63.0305 15.8855 62.8531 16.0123 62.8531 16.2405C62.9038 17.8632 63.0305 19.4605 63.208 21.0832C63.2587 21.5649 64.0193 21.5649 63.9686 21.0832C63.7912 19.4605 63.6644 17.8632 63.6137 16.2405C63.4869 16.3673 63.3601 16.494 63.2334 16.6208C64.2982 16.494 65.997 16.063 65.7688 14.6178C65.5152 13.0712 63.639 13.2487 62.5742 13.553C62.7263 13.6797 62.9038 13.8065 63.0559 13.9079C63.0559 13.3248 63.0559 12.767 63.1066 12.1838C63.1827 11.2711 63.1319 10.9415 63.9686 10.6119C65.1096 10.1555 66.4533 10.0034 67.645 9.69912C68.1267 9.62305 67.9239 8.88778 67.4422 8.9892Z" fill="#E8E8E8"/>
<path d="M71.0932 9.21733C72.158 9.16662 73.2483 9.16662 74.3132 9.29339C75.3273 9.42016 75.2766 9.57228 75.4287 10.4597C75.5302 11.0175 75.5555 11.6006 75.6062 12.1584C75.8091 14.3389 75.9612 16.5193 76.0879 18.6998C76.1133 19.1815 76.8739 19.1815 76.8486 18.6998C76.6964 15.7334 76.595 12.6909 76.1133 9.74976C75.9865 9.01449 75.8598 8.7863 75.0991 8.65953C73.7807 8.40599 72.4116 8.40599 71.0932 8.48205C70.6114 8.48205 70.6114 9.24268 71.0932 9.21733Z" fill="#E8E8E8"/>
<path d="M63.7658 21.6156C65.2617 21.3621 66.7576 21.1085 68.2282 20.855C69.9269 20.5761 71.5496 20.7029 73.2483 20.5761C74.0343 20.5 77.7613 20.1197 76.3922 18.5731C76.0626 18.2182 75.5302 18.7506 75.8598 19.1056C76.0626 19.3337 72.6144 19.8408 72.5384 19.8408C71.4735 19.8662 70.4086 19.8155 69.3437 19.9422C67.4168 20.1704 65.4899 20.5761 63.563 20.9057C63.0813 20.9564 63.2841 21.6917 63.7658 21.6156Z" fill="#E8E8E8"/>
</svg>
