<svg width="286" height="278" viewBox="0 0 286 278" fill="none" xmlns="http://www.w3.org/2000/svg">
<path d="M178.189 22.5969C171.978 26.2733 170.203 32.6119 169.467 35.2233C169.29 35.8572 167.211 43.6409 170.811 51.7543C171.876 54.1629 173.017 56.6476 175.603 57.8393C177.099 58.5492 178.443 58.4985 183.717 58.0421C186.176 57.8393 188.838 57.5857 191.678 57.2815C193.681 54.7207 197.129 49.5992 198.143 42.3986C198.321 41.0548 200.4 25.0309 191.678 20.7714C185.973 17.9571 179.102 22.0392 178.189 22.5969Z" fill="#EC615B"/>
<ellipse cx="63.4869" cy="54.0615" rx="5.73005" ry="6.33855" fill="#EC615B"/>
<ellipse cx="193.427" cy="157.862" rx="4.25951" ry="4.10738" fill="#EC615B"/>
<circle cx="63.5376" cy="134.003" r="3.16928" fill="#EC615B"/>
<ellipse cx="57.6301" cy="52.9967" rx="5.04549" ry="5.29903" fill="#5222D0"/>
<ellipse cx="192.261" cy="152.233" rx="3.11857" ry="3.24534" fill="#5222D0"/>
<ellipse cx="233.943" cy="62.3269" rx="3.42282" ry="3.65101" fill="#5222D0"/>
<path d="M159.605 88.5433C159.047 87.6559 158.134 88.4926 157.754 89.1011C156.968 90.3688 156.461 91.9407 157.044 93.3859C157.475 94.4762 158.54 95.3889 159.782 95.2114C160.923 95.0593 161.785 94.1212 161.76 92.9803C161.76 92.676 161.329 92.4478 161.101 92.7014C159.757 94.4001 158.109 96.8087 159.453 98.9892C160.391 100.485 162.698 100.688 163.611 99.0653C163.382 99.0399 163.154 99.0146 162.926 98.9638C163.053 99.6738 163.18 100.384 163.281 101.094C163.357 101.575 164.092 101.372 164.016 100.891C163.89 100.181 163.763 99.4709 163.661 98.761C163.611 98.4314 163.104 98.4061 162.977 98.6596C162.571 99.3695 161.658 99.6231 160.923 99.2681C160.112 98.8624 159.757 97.9497 159.757 97.0623C159.757 95.5917 160.796 94.2987 161.658 93.2084C161.43 93.107 161.227 93.031 160.999 92.9295C161.024 93.893 160.086 94.6029 159.148 94.4001C158.438 94.248 157.982 93.6395 157.728 92.9803C157.475 92.2957 157.5 91.6111 157.703 90.9266C157.728 90.8759 158.768 88.6193 158.92 88.8729C159.199 89.3293 159.858 88.9489 159.605 88.5433Z" fill="#EC615B"/>
<path d="M56.0835 90.8251C56.6412 89.3039 58.4921 89.9631 59.0752 91.0279C59.2781 91.3829 59.3795 91.7886 59.4302 92.1942C59.5316 92.9549 59.4556 93.2591 58.7964 93.7155C58.0864 94.4254 57.909 94.1465 58.2893 92.8788C58.4667 92.8027 58.6696 92.7267 58.8471 92.6506C59.3288 92.5238 59.8866 92.5492 60.3683 92.7013C61.5853 93.107 62.1938 94.4001 62.0163 95.5917C61.9656 95.8959 62.2699 96.2002 62.5741 96.0227C64.2222 95.0846 66.4026 96.1241 66.7829 97.975C66.8843 98.4567 67.6196 98.2539 67.5182 97.7722C67.0365 95.4396 64.2729 94.2226 62.1938 95.3889C62.3713 95.541 62.5741 95.6678 62.7516 95.8199C63.0812 93.5887 61.3825 91.5097 59.0245 91.8646C58.2132 91.9914 56.9962 92.4985 56.8948 93.4619C56.8187 94.2479 57.554 94.8311 58.2893 94.9071C60.4697 95.11 60.419 91.9407 59.7091 90.673C58.7456 88.9489 56.0835 88.5179 55.3228 90.6476C55.1707 91.0787 55.906 91.2815 56.0835 90.8251Z" fill="#EC615B"/>
<path d="M189.573 186.258C191.526 187.551 193.174 189.199 194.492 191.126C194.771 191.532 195.43 191.152 195.151 190.746C193.757 188.718 192.033 186.994 189.979 185.624C189.548 185.32 189.168 185.979 189.573 186.258Z" fill="#5222D0"/>
<path d="M194.517 187.653C194.923 188.134 195.303 188.642 195.709 189.123C196.013 189.504 196.546 188.971 196.241 188.591C195.836 188.109 195.455 187.602 195.05 187.12C194.746 186.74 194.213 187.298 194.517 187.653Z" fill="#5222D0"/>
<path d="M192.185 180.554C193.934 182.176 195.379 184.027 196.495 186.132C196.723 186.563 197.382 186.182 197.154 185.751C196.013 183.596 194.517 181.669 192.717 180.021C192.362 179.666 191.83 180.224 192.185 180.554Z" fill="#5222D0"/>
<path d="M16.8859 209.102C17.4437 214.604 18.4072 220.03 19.7509 225.405C19.8777 225.887 20.613 225.684 20.4862 225.202C19.1678 219.903 18.2043 214.528 17.6465 209.102C17.5958 208.621 16.8352 208.621 16.8859 209.102Z" fill="#E8E8E8"/>
<path d="M19.9031 225.659C24.8978 226.952 30.0955 226.952 35.0902 225.659C35.572 225.532 35.3691 224.797 34.8874 224.923C30.0194 226.191 24.9739 226.191 20.1059 224.923C19.6495 224.797 19.4467 225.532 19.9031 225.659Z" fill="#E8E8E8"/>
<path d="M35.6734 224.898C36.003 219.498 36.434 214.097 36.9411 208.697C36.9918 208.215 36.2311 208.215 36.1804 208.697C35.6734 214.097 35.2423 219.498 34.9127 224.898C34.8874 225.38 35.648 225.38 35.6734 224.898Z" fill="#E8E8E8"/>
<path d="M17.317 209.508C23.6301 210.801 30.1208 210.75 36.434 209.331C36.9158 209.229 36.7129 208.494 36.2312 208.595C30.0701 209.965 23.7062 210.041 17.5198 208.773C17.0381 208.671 16.8352 209.407 17.317 209.508Z" fill="#E8E8E8"/>
<path d="M17.2409 211.334C17.4437 212.373 18.7621 212.322 19.5734 212.399C21.6271 212.576 23.7062 212.627 25.7599 212.576C27.7375 212.525 29.7151 212.373 31.6928 212.145C33.2647 211.942 34.786 211.739 36.1804 210.953C36.6115 210.725 36.2312 210.066 35.8001 210.294C33.2901 211.689 29.8165 211.638 27.0022 211.765C25.6077 211.815 24.1879 211.841 22.7934 211.815C22.0582 211.79 18.1283 211.968 17.9761 211.131C17.8747 210.649 17.1648 210.852 17.2409 211.334Z" fill="#E8E8E8"/>
<path d="M18.686 220.132C19.903 222.287 21.4497 224.188 23.3005 225.836C23.6555 226.166 24.2133 225.633 23.8329 225.304C22.0074 223.707 20.5115 221.856 19.3453 219.751C19.1171 219.32 18.4579 219.701 18.686 220.132Z" fill="#E8E8E8"/>
<path d="M17.6972 214.275C20.2834 218.636 23.4273 222.642 27.0276 226.242C27.3825 226.597 27.915 226.039 27.56 225.709C24.0104 222.16 20.9172 218.205 18.3564 213.894C18.1029 213.489 17.4437 213.869 17.6972 214.275Z" fill="#E8E8E8"/>
<path d="M21.9314 212.449C24.619 217.241 27.7375 221.78 31.2618 226.014C31.566 226.394 32.0984 225.862 31.7942 225.481C28.3207 221.298 25.2275 216.81 22.5906 212.069C22.3624 211.638 21.7032 212.018 21.9314 212.449Z" fill="#E8E8E8"/>
<path d="M26.774 212.627C29.3855 216.531 32.0224 220.41 34.6846 224.29C34.9635 224.695 35.6227 224.315 35.3438 223.909C32.6816 220.03 30.0447 216.151 27.4333 212.246C27.1544 211.841 26.4952 212.221 26.774 212.627Z" fill="#E8E8E8"/>
<path d="M30.8307 212.398C32.1491 214.528 33.569 216.607 35.0395 218.636C35.3184 219.016 35.9776 218.636 35.6987 218.255C34.2282 216.227 32.8083 214.148 31.4899 212.018C31.2364 211.612 30.5772 211.993 30.8307 212.398Z" fill="#E8E8E8"/>
<path d="M8.89936 186.791C9.20361 188.54 9.50786 190.315 9.83747 192.064C9.93888 192.546 10.0149 193.053 10.4206 193.358C10.6995 193.586 11.6123 193.56 11.7897 193.814C11.8151 193.662 11.8404 193.51 11.8404 193.358C11.4601 193.738 11.0798 194.118 10.6742 194.473C10.5727 194.575 10.5474 194.727 10.5727 194.853C10.8009 195.538 10.9531 196.552 11.4094 197.135C11.6376 197.44 12.0433 197.389 12.2208 197.566C12.3729 197.718 12.3222 197.617 12.2461 198.073C12.1954 198.454 12.1954 198.859 12.2461 199.265C12.3222 199.874 12.4997 200.457 12.7278 201.014C14.0463 204.209 16.607 206.795 19.0664 209.179C19.4214 209.508 19.9538 208.976 19.5988 208.646C18.0269 207.125 16.4549 205.553 15.1618 203.778C13.8941 202.029 12.3982 199.671 13.1842 197.44C13.2349 197.313 13.1842 197.135 13.0828 197.059C12.6011 196.679 12.1193 196.831 11.7897 196.223C11.1559 195.082 11.5108 194.701 12.3222 193.915C12.4489 193.814 12.4743 193.586 12.3729 193.459C12.1701 193.155 12.0179 193.053 11.6883 192.952C11.4855 192.876 11.1812 192.952 10.9784 192.85C10.5474 192.622 10.5474 192.064 10.4713 191.659C10.1671 189.985 9.86282 188.287 9.58392 186.613C9.53322 186.106 8.79794 186.309 8.89936 186.791Z" fill="#E8E8E8"/>
<path d="M9.45714 186.689C19.3453 189.985 26.1148 199.214 26.3177 209.66C26.3177 210.142 27.0783 210.142 27.0783 209.66C26.8755 198.885 19.8777 189.377 9.65997 185.954C9.2036 185.802 9.00076 186.537 9.45714 186.689Z" fill="#E8E8E8"/>
<path d="M24.6443 199.265C27.1037 192.445 30.7293 185.853 36.5354 181.365C36.9157 181.061 36.5354 180.401 36.1551 180.706C30.1715 185.345 26.4444 192.039 23.909 199.062C23.7569 199.518 24.4922 199.721 24.6443 199.265Z" fill="#E8E8E8"/>
<path d="M35.8762 181.213C36.0536 183.545 36.2565 185.878 36.434 188.236C36.4847 188.718 37.2453 188.718 37.1946 188.236C37.0171 185.903 36.8143 183.571 36.6368 181.213C36.6114 180.731 35.8508 180.731 35.8762 181.213Z" fill="#E8E8E8"/>
<path d="M36.7636 187.982C36.434 188.058 36.1044 188.135 35.8001 188.236C35.3184 188.363 35.5212 189.098 36.0029 188.971C36.3325 188.895 36.6622 188.819 36.9664 188.718C37.4481 188.591 37.2453 187.881 36.7636 187.982Z" fill="#E8E8E8"/>
<path d="M35.4198 188.921C35.5213 189.402 35.9269 189.707 36.3833 189.757C36.5861 189.783 36.7636 189.58 36.7636 189.377C36.7636 189.149 36.5861 189.022 36.3833 188.997C36.4594 188.997 36.3833 188.997 36.3579 188.997C36.3326 188.997 36.2819 188.971 36.3326 188.997C36.3072 188.971 36.2819 188.971 36.2565 188.946C36.2058 188.921 36.3072 188.997 36.2312 188.921C36.2058 188.895 36.2058 188.895 36.1805 188.87C36.2312 188.921 36.1805 188.87 36.1805 188.845C36.1551 188.819 36.1551 188.768 36.1551 188.819C36.1551 188.794 36.1298 188.743 36.1298 188.718C36.0791 188.515 35.8509 188.388 35.6734 188.464C35.4706 188.515 35.3691 188.718 35.4198 188.921Z" fill="#E8E8E8"/>
<path d="M36.0029 189.478C36.0283 190.923 35.9776 192.343 35.8255 193.763C35.7748 194.22 35.8508 195.284 35.5466 195.639C35.5212 195.665 35.0648 195.741 34.9634 195.817C34.5831 196.121 35.1155 196.654 35.4959 196.349C35.6226 196.248 35.9269 196.349 36.1297 196.121C36.434 195.817 36.3833 195.107 36.434 194.752C36.6621 193.003 36.7636 191.228 36.7382 189.453C36.7636 188.997 36.0029 188.997 36.0029 189.478Z" fill="#E8E8E8"/>
<path d="M34.6592 196.476C35.4705 197.44 35.2423 199.037 35.1662 200.203C35.0648 201.547 34.8366 202.789 34.1774 203.956C33.2393 205.68 31.9209 207.125 31.2363 209.001C31.0589 209.458 31.7941 209.66 31.9716 209.204C32.8844 206.745 34.9888 204.919 35.6226 202.333C36.079 200.482 36.51 197.516 35.1916 195.944C34.8874 195.589 34.3549 196.121 34.6592 196.476Z" fill="#E8E8E8"/>
<path d="M28.6756 209.356C29.3855 202.155 31.2871 195.132 34.3296 188.591C34.5324 188.16 33.8732 187.754 33.6704 188.211C30.5772 194.904 28.6249 202.029 27.915 209.381C27.8643 209.863 28.6249 209.838 28.6756 209.356Z" fill="#E8E8E8"/>
<path d="M13.7166 190.924C18.1536 196.501 21.399 202.916 23.3005 209.762C23.4273 210.243 24.1626 210.041 24.0358 209.559C22.0835 202.561 18.7621 196.07 14.2491 190.391C13.9448 190.011 13.4124 190.543 13.7166 190.924Z" fill="#E8E8E8"/>
<path d="M14.1984 200.279C16.3281 200.152 18.3057 200.66 20.1059 201.775C20.5116 202.029 20.9172 201.37 20.4862 201.116C18.5846 199.95 16.4295 199.392 14.1984 199.519C13.6913 199.544 13.6913 200.305 14.1984 200.279Z" fill="#E8E8E8"/>
<path d="M18.8382 196.882C18.6861 195.487 18.8635 194.143 19.396 192.825C19.5735 192.369 18.8382 192.166 18.6607 192.622C18.1029 193.991 17.9254 195.411 18.0776 196.882C18.1283 197.363 18.8889 197.363 18.8382 196.882Z" fill="#E8E8E8"/>
<path d="M27.0529 192.673C27.8896 194.727 29.1066 196.907 29.4109 199.088C29.4869 199.569 30.2222 199.366 30.1461 198.885C29.8165 196.679 28.5995 194.498 27.7882 192.47C27.6107 192.014 26.8755 192.217 27.0529 192.673Z" fill="#E8E8E8"/>
<path d="M31.7181 195.081C32.4534 194.245 33.1633 193.256 34.1014 192.622C34.8874 192.09 35.7494 191.735 36.3579 190.999C36.6622 190.619 36.1298 190.087 35.8255 190.467C35.1663 191.253 34.2028 191.583 33.4169 192.191C32.5548 192.85 31.8956 193.738 31.1857 194.549C30.8561 194.929 31.3885 195.462 31.7181 195.081Z" fill="#E8E8E8"/>
<path d="M31.9717 209.102C33.1887 208.773 34.431 208.646 35.6987 208.722C36.1805 208.748 36.1805 207.987 35.6987 207.962C34.355 207.885 33.0619 208.012 31.7688 208.367C31.3125 208.494 31.4899 209.229 31.9717 209.102Z" fill="#E8E8E8"/>
<path d="M31.8702 209.407C33.29 209.533 34.6592 209.356 36.0283 208.925C36.4847 208.773 36.2818 208.038 35.8255 208.19C34.5324 208.595 33.214 208.747 31.8702 208.646C31.3885 208.621 31.3885 209.381 31.8702 209.407Z" fill="#E8E8E8"/>
<path d="M17.6465 209.28C17.9761 209.28 18.2804 209.28 18.61 209.28C19.0917 209.28 19.0917 208.519 18.61 208.519C18.2804 208.519 17.9761 208.519 17.6465 208.519C17.1648 208.519 17.1648 209.28 17.6465 209.28Z" fill="#E8E8E8"/>
<path d="M36.2312 215.416C44.2685 215.416 52.3311 215.416 60.3684 215.416C60.8501 215.416 60.8501 214.655 60.3684 214.655C52.3311 214.655 44.2685 214.655 36.2312 214.655C35.7494 214.655 35.7494 215.416 36.2312 215.416Z" fill="#E8E8E8"/>
<path d="M172.282 210.396C177.074 210.396 181.84 210.396 186.632 210.396C187.114 210.396 187.114 209.635 186.632 209.635C181.84 209.635 177.074 209.635 172.282 209.635C171.8 209.635 171.8 210.396 172.282 210.396Z" fill="#E8E8E8"/>
<path d="M215.79 210.852C236.453 210.852 257.117 210.852 277.781 210.852C283.663 210.852 289.545 210.852 295.427 210.852C295.909 210.852 295.909 210.091 295.427 210.091C274.764 210.091 254.1 210.091 233.436 210.091C227.554 210.091 221.672 210.091 215.79 210.091C215.308 210.091 215.308 210.852 215.79 210.852Z" fill="#E8E8E8"/>
<path d="M185.187 127.614C183.26 131.595 181.181 135.499 178.975 139.328C178.874 139.531 178.95 139.86 179.203 139.885C190.08 141.533 199.816 146.934 209.197 152.385C209.629 152.639 210.009 151.979 209.578 151.726C200.121 146.249 190.334 140.824 179.381 139.15C179.457 139.328 179.533 139.531 179.609 139.708C181.84 135.88 183.894 131.975 185.821 127.994C186.049 127.563 185.415 127.158 185.187 127.614Z" fill="#E8E8E8"/>
<path d="M186.86 141.432C187.621 139.252 188.382 137.046 189.142 134.865C189.472 133.953 189.7 132.938 190.131 132.051C190.233 131.519 190.562 131.113 191.069 130.809C191.374 130.885 191.678 130.961 191.982 131.037C192.438 131.164 192.895 131.265 193.326 131.392C194.365 131.645 196.039 131.645 195.861 133.04C195.734 134.029 195.151 135.094 194.822 136.057C194.061 138.212 193.326 140.367 192.565 142.522C192.413 142.979 193.148 143.182 193.3 142.725C194.289 139.885 195.278 137.02 196.267 134.181C196.495 133.522 197.129 132.406 196.622 131.696C196.064 130.935 194.391 130.885 193.529 130.657C192.692 130.454 191.221 129.693 190.359 130.099C189.624 130.428 189.472 131.696 189.244 132.33C188.204 135.296 187.165 138.288 186.125 141.255C185.973 141.686 186.708 141.888 186.86 141.432Z" fill="#E8E8E8"/>
<path d="M196.647 144.145C198.27 140.722 199.918 137.274 201.541 133.851C202.352 132.127 203.163 130.428 204 128.704C204.38 127.918 204.684 126.98 205.166 126.245C205.572 125.611 205.673 125.459 206.383 125.738C206.764 125.89 207.22 126.27 207.549 126.498C207.981 126.803 208.665 127.132 208.969 127.538C209.35 128.02 209.198 128.527 208.969 129.135C208.665 129.947 208.209 130.733 207.828 131.519C206.992 133.243 206.155 134.967 205.268 136.691C203.594 139.962 201.845 143.207 200.045 146.427C199.791 146.858 200.45 147.238 200.704 146.807C202.91 142.903 205.014 138.947 206.992 134.941C207.981 132.964 209.071 130.935 209.907 128.882C210.491 127.386 209.223 126.777 208.107 125.991C207.22 125.383 205.825 123.988 204.862 125.129C204.253 125.839 203.924 127.031 203.518 127.893C203.011 128.932 202.529 129.972 202.022 131.037C199.994 135.296 197.966 139.556 195.963 143.815C195.785 144.196 196.444 144.601 196.647 144.145Z" fill="#E8E8E8"/>
<path d="M205.065 149.419C207.245 145.996 209.705 142.751 212.417 139.759C212.265 139.784 212.113 139.809 211.961 139.809C212.925 140.469 213.863 141.102 214.826 141.762C214.775 141.584 214.725 141.407 214.699 141.229C212.544 144.601 210.389 147.948 208.234 151.32C207.98 151.726 208.614 152.106 208.893 151.701C211.048 148.328 213.203 144.982 215.359 141.61C215.485 141.432 215.384 141.204 215.232 141.077C214.268 140.418 213.33 139.784 212.367 139.125C212.24 139.023 212.012 139.074 211.91 139.176C209.147 142.243 206.637 145.514 204.431 148.988C204.152 149.469 204.811 149.85 205.065 149.419Z" fill="#E8E8E8"/>
<path d="M235.312 125.307C232.777 124.343 231.18 121.808 231.636 119.095C232.092 116.331 234.805 113.872 237.594 115.52C239.521 116.661 240.51 119.247 239.775 121.352C239.014 123.608 236.529 124.952 234.222 124.597C233.74 124.521 233.538 125.256 234.019 125.332C236.732 125.738 239.597 124.242 240.51 121.554C241.423 118.867 239.952 115.622 237.315 114.531C234.222 113.264 231.408 115.926 230.875 118.892C230.318 122.036 232.168 124.927 235.084 126.042C235.566 126.22 235.769 125.484 235.312 125.307Z" fill="#E8E8E8"/>
<path d="M240.51 124.825C235.464 124.673 237.366 116.585 241.828 116.889C246.291 117.219 244.465 126.321 239.572 124.648C239.115 124.495 238.913 125.231 239.369 125.383C245.023 127.31 247.558 117.016 242.158 116.154C239.521 115.723 237.138 118.208 236.732 120.667C236.327 123.101 237.975 125.484 240.51 125.56C240.992 125.611 240.992 124.85 240.51 124.825Z" fill="#E8E8E8"/>
<path d="M236.732 101.88C236.301 101.423 236.098 100.688 236.428 100.13C236.758 99.5977 237.569 99.3441 238.076 99.7498C238.532 100.105 238.634 100.865 238.203 101.246C237.696 101.702 236.884 101.474 236.403 101.094C236.022 100.789 235.49 101.322 235.87 101.626C236.656 102.235 237.873 102.539 238.71 101.804C239.47 101.119 239.394 99.8512 238.634 99.192C237.848 98.5075 236.605 98.7103 235.946 99.4709C235.211 100.333 235.414 101.626 236.174 102.412C236.529 102.767 237.062 102.235 236.732 101.88Z" fill="#E8E8E8"/>
<path d="M163.154 120.971C162.444 116.661 164.954 111.463 169.822 111.514C172.307 111.54 174.716 112.554 177.226 112.199C179.001 111.945 180.522 110.931 181.587 109.537C182.652 108.142 183.26 106.393 183.362 104.643C183.488 102.057 182.5 99.4202 183.209 96.8595C183.564 95.5664 184.325 94.3747 185.618 93.893C186.86 93.462 188.204 93.7155 189.497 93.6648C191.373 93.5888 192.844 92.7774 193.782 91.1294C195.101 88.8222 194.796 86.0586 195.709 83.6246C196.799 80.6835 199.867 78.1734 203.112 79.6186C203.543 79.8214 203.949 79.1622 203.493 78.9594C199.081 76.9818 195.405 80.9624 194.543 84.9683C193.985 87.5798 194.086 91.6365 190.968 92.676C188.787 93.4113 186.328 92.2703 184.325 93.7662C182.677 94.9832 182.195 97.2144 182.221 99.1667C182.297 102.032 183.184 104.821 181.916 107.559C180.75 110.145 178.443 111.692 175.578 111.514C173.042 111.362 170.532 110.323 167.972 110.982C163.636 112.072 161.785 117.194 162.47 121.199C162.52 121.631 163.256 121.428 163.154 120.971Z" fill="#E8E8E8"/>
<path d="M195.202 102.894C194.264 100.764 195.557 98.7356 197.611 98.051C199.107 97.5439 200.755 97.5186 202.048 96.5044C203.062 95.7184 203.391 94.7296 203.265 93.4619C203.138 92.2703 203.138 91.3322 204.076 90.5208C204.862 89.8363 205.901 89.5827 206.916 89.532C209.705 89.4306 213.533 90.8504 215.561 88.1375C216.5 86.8698 216.221 85.2979 216.652 83.878C217.235 81.9004 219.136 80.6834 221.165 80.7848C221.646 80.8102 221.646 80.0495 221.165 80.0242C219.618 79.9481 218.122 80.5313 217.057 81.6469C215.739 83.0413 215.916 84.6133 215.511 86.3627C214.42 91.1547 207.752 87.7826 204.608 89.2785C203.442 89.8363 202.504 90.8251 202.403 92.1435C202.276 93.6901 202.986 94.9578 201.414 96.0227C200.577 96.5805 199.614 96.758 198.65 96.9861C197.053 97.3665 195.481 97.8482 194.67 99.3948C194.01 100.612 194.01 102.006 194.568 103.249C194.746 103.73 195.379 103.325 195.202 102.894Z" fill="#E8E8E8"/>
<path d="M240.383 69.1218C240.282 68.8936 240.18 68.6401 240.104 68.3866C240.434 68.0062 240.738 67.6259 241.068 67.2456C241.169 67.2203 241.626 67.5245 241.778 67.5245C242.158 67.5752 242.488 67.4738 242.792 67.2456C243.73 66.5103 243.4 65.344 243.679 64.3552C244.136 62.6565 246.139 63.8228 247.051 62.5551C247.964 61.3127 247.634 58.6759 250.068 59.3858C250.55 59.5126 250.753 58.7773 250.271 58.6505C248.877 58.2449 247.609 58.9041 247.102 60.2479C246.95 60.6282 246.899 61.0592 246.747 61.4395C246.417 62.3269 246.063 62.4537 245.099 62.5044C244.389 62.5551 243.831 62.5044 243.35 63.1129C242.944 63.6453 242.944 64.3299 242.868 64.9637C242.792 65.9018 242.868 66.6878 241.473 66.5864C241.195 66.561 240.966 66.3075 240.662 66.3075C238.989 66.2822 239.268 68.3358 239.673 69.3247C239.825 69.781 240.586 69.5782 240.383 69.1218Z" fill="#E8E8E8"/>
<path d="M245.15 71.2263C244.744 70.6939 244.059 69.1473 245.251 68.7416C245.682 68.5895 246.24 68.7669 246.696 68.7669C247.102 68.7669 247.457 68.7669 247.787 68.488C248.801 67.6767 248.065 66.2315 248.598 65.2174C249.46 63.5693 251.184 64.8624 252.401 64.0004C253.263 63.3918 253.491 62.2256 253.643 61.2621C253.719 60.7804 252.984 60.5775 252.908 61.0593C252.731 62.2002 252.528 63.4679 251.108 63.5947C250.373 63.6707 249.815 63.4172 249.13 63.7468C248.015 64.2792 247.66 65.2681 247.634 66.409C247.609 67.3725 247.837 67.8542 246.215 67.9303C246.012 67.9303 245.809 67.8795 245.606 67.8795C245.023 67.9303 244.516 68.2345 244.186 68.7162C243.476 69.7304 243.882 70.8967 244.592 71.7841C244.922 72.1644 245.454 71.6066 245.15 71.2263Z" fill="#E8E8E8"/>
<path d="M29.5883 84.9683C31.6927 82.4329 34.6845 80.3538 38.1327 80.7088C41.8851 81.0891 43.736 84.0809 44.0909 87.5798C44.6994 93.3859 43.2796 100.333 47.2095 105.277C48.7561 107.229 51.0633 108.269 53.5481 107.66C56.5398 106.95 58.8724 104.592 61.5346 103.198C64.6785 101.55 69.0141 100.663 71.8538 103.426C73.9328 105.454 74.3892 108.548 75.0738 111.235C75.7076 113.669 76.7979 116.357 78.9783 117.802C80.2967 118.664 81.7419 118.74 83.2632 118.639C84.9619 118.512 88.4354 118.41 88.0805 121.073C88.0298 121.554 88.7904 121.554 88.8411 121.073C88.9679 120.033 88.4861 119.196 87.6495 118.588C86.331 117.625 84.8098 117.777 83.2632 117.878C81.5137 118.005 80.0178 117.853 78.6741 116.61C77.4571 115.495 76.7218 113.923 76.1894 112.376C75.302 109.714 75.0484 106.798 73.5272 104.364C72.0313 101.956 69.4451 100.789 66.6562 100.891C63.1319 101.018 60.1655 103.046 57.3512 104.922C56.0074 105.809 54.5622 106.748 52.9142 107.026C50.9366 107.356 49.1871 106.494 47.9194 105.023C45.5361 102.235 45.1558 98.2539 45.029 94.755C44.9023 91.4843 45.3333 87.9347 44.2431 84.7655C43.2542 81.8751 40.7442 80.0749 37.727 79.9228C34.2282 79.7453 31.1603 81.8497 29.0052 84.4359C28.7263 84.8162 29.2587 85.3486 29.5883 84.9683Z" fill="#E8E8E8"/>
<path d="M16.7844 124.09C20.7397 130.682 24.2639 137.502 27.3825 144.525C27.5853 144.982 28.2445 144.576 28.0417 144.145C24.9231 137.122 21.3736 130.302 17.4437 123.71C17.1901 123.278 16.5309 123.659 16.7844 124.09Z" fill="#E8E8E8"/>
<path d="M17.2662 123.786C23.4273 119.957 29.7658 116.382 36.2819 113.137C36.7129 112.909 36.3326 112.249 35.9015 112.478C29.4109 115.723 23.0723 119.298 16.8859 123.126C16.4549 123.405 16.8352 124.064 17.2662 123.786Z" fill="#E8E8E8"/>
<path d="M35.8255 112.807C39.0455 119.577 42.4429 126.245 46.0432 132.812C46.2714 133.243 46.9306 132.862 46.7024 132.431C43.1021 125.865 39.6793 119.197 36.4847 112.427C36.2565 111.971 35.6226 112.351 35.8255 112.807Z" fill="#E8E8E8"/>
<path d="M28.2446 144.677C34.3043 141.026 40.2878 137.274 46.2207 133.42C46.6264 133.167 46.2461 132.507 45.8404 132.761C39.9075 136.615 33.9239 140.367 27.8643 144.018C27.4586 144.272 27.8389 144.931 28.2446 144.677Z" fill="#E8E8E8"/>
<path d="M27.7629 121.554C27.6107 126.422 27.8896 131.265 28.5996 136.082C28.6756 136.564 29.4109 136.361 29.3348 135.879C28.6249 131.138 28.3714 126.346 28.5235 121.554C28.5488 121.073 27.7882 121.073 27.7629 121.554Z" fill="#E8E8E8"/>
<path d="M27.7882 121.301C31.3124 124.064 34.8367 126.777 38.4116 129.465C38.7919 129.769 39.1722 129.11 38.7919 128.806C35.2677 126.169 31.7688 123.481 28.3206 120.768C27.9403 120.464 27.4079 120.997 27.7882 121.301Z" fill="#E8E8E8"/>
<path d="M29.3855 136.234C32.3013 133.623 36.1044 132.228 38.868 129.414C39.223 129.059 38.6652 128.527 38.3356 128.882C35.572 131.671 31.7942 133.091 28.8531 135.702C28.4728 136.006 29.0306 136.539 29.3855 136.234Z" fill="#E8E8E8"/>
<path d="M17.7987 128.07C18.61 127.665 19.4213 127.284 20.2327 126.879C20.6637 126.676 20.2834 126.017 19.8524 126.22C19.041 126.625 18.2297 127.006 17.4184 127.411C16.9873 127.639 17.3677 128.273 17.7987 128.07Z" fill="#E8E8E8"/>
<path d="M20.4101 132.381C21.0947 131.924 21.8299 131.544 22.5906 131.214C23.0469 131.037 22.8441 130.302 22.3877 130.479C21.551 130.834 20.7651 131.24 20.0044 131.721C19.6241 132 20.0044 132.66 20.4101 132.381Z" fill="#E8E8E8"/>
<path d="M23.2752 137.35C23.9851 136.995 24.695 136.64 25.4049 136.31C25.836 136.082 25.4556 135.448 25.0246 135.651C24.3147 136.006 23.6048 136.361 22.8949 136.691C22.4638 136.894 22.8442 137.553 23.2752 137.35Z" fill="#E8E8E8"/>
<path d="M24.7457 142.319C25.5317 141.635 26.343 141.052 27.2558 140.545C27.6868 140.291 27.3065 139.657 26.8755 139.885C25.9374 140.418 25.05 141.052 24.2133 141.787C23.833 142.117 24.3654 142.649 24.7457 142.319Z" fill="#E8E8E8"/>
<path d="M37.2707 117.802C37.8538 117.396 38.4623 117.117 39.1469 116.94C39.6286 116.813 39.4258 116.103 38.9441 116.205C38.2088 116.382 37.4989 116.686 36.865 117.143C36.4847 117.422 36.865 118.081 37.2707 117.802Z" fill="#E8E8E8"/>
<path d="M39.5272 122.137C40.3385 121.63 41.1499 121.123 41.9358 120.591C42.3415 120.337 41.9612 119.678 41.5555 119.932C40.7442 120.439 39.9329 120.946 39.1469 121.478C38.7159 121.757 39.0962 122.416 39.5272 122.137Z" fill="#E8E8E8"/>
<path d="M42.1133 127.335C42.9754 126.955 43.8628 126.575 44.7248 126.194C45.1812 125.991 44.7755 125.332 44.3445 125.535C43.4824 125.915 42.595 126.296 41.733 126.676C41.2766 126.879 41.6823 127.538 42.1133 127.335Z" fill="#E8E8E8"/>
<path d="M43.9642 130.733C44.6488 130.073 45.4094 129.516 46.2461 129.034C46.6771 128.806 46.2968 128.147 45.8658 128.375C44.9784 128.882 44.167 129.465 43.4318 130.175C43.0768 130.53 43.6092 131.062 43.9642 130.733Z" fill="#E8E8E8"/>
<path d="M30.3997 141.331C31.0335 142.269 31.566 143.258 31.9716 144.297C32.1491 144.753 32.8844 144.551 32.7069 144.094C32.2759 142.979 31.7434 141.914 31.0589 140.925C30.78 140.545 30.1208 140.925 30.3997 141.331Z" fill="#E8E8E8"/>
<path d="M34.2789 139.226C34.7606 140.088 35.217 140.925 35.6987 141.787C35.9269 142.218 36.5861 141.838 36.3579 141.407C35.8762 140.545 35.4198 139.708 34.9381 138.846C34.7099 138.415 34.0507 138.795 34.2789 139.226Z" fill="#E8E8E8"/>
<path d="M38.7665 136.006C39.2736 136.919 39.7807 137.832 40.2878 138.745C40.516 139.176 41.1752 138.795 40.947 138.364C40.4399 137.452 39.9328 136.539 39.4258 135.626C39.1976 135.195 38.5384 135.575 38.7665 136.006Z" fill="#E8E8E8"/>
<path d="M42.7979 133.598C43.2035 134.561 43.6092 135.525 44.0402 136.463C44.2431 136.919 44.8769 136.513 44.6994 136.082C44.2938 135.119 43.8881 134.155 43.4571 133.217C43.2543 132.786 42.595 133.167 42.7979 133.598Z" fill="#E8E8E8"/>
<path d="M19.8017 119.881C20.2834 120.667 20.7398 121.453 21.2215 122.214C21.475 122.645 22.1342 122.239 21.8807 121.833C21.399 121.047 20.9426 120.261 20.4609 119.501C20.2073 119.095 19.5481 119.475 19.8017 119.881Z" fill="#E8E8E8"/>
<path d="M24.1626 117.346C24.6189 118.36 25.0753 119.374 25.5317 120.388C25.7345 120.844 26.3937 120.439 26.1909 120.008C25.7345 118.994 25.2782 117.979 24.8218 116.965C24.5936 116.509 23.9597 116.889 24.1626 117.346Z" fill="#E8E8E8"/>
<path d="M28.0925 114.912C28.777 115.824 29.3095 116.813 29.6644 117.878C29.8166 118.334 30.5518 118.132 30.3997 117.675C30.0194 116.534 29.487 115.469 28.7517 114.531C28.4728 114.151 27.8136 114.506 28.0925 114.912Z" fill="#E8E8E8"/>
<path d="M32.3266 112.959C32.859 113.771 33.3661 114.557 33.8986 115.368C34.1521 115.774 34.8113 115.393 34.5578 114.988C34.0253 114.176 33.5182 113.39 32.9858 112.579C32.7069 112.173 32.0477 112.554 32.3266 112.959Z" fill="#E8E8E8"/>
<path d="M71.7524 62.682C69.293 61.9213 69.1663 59.3098 70.3325 57.3576C71.4735 55.456 73.6793 54.9489 75.4034 56.5209C76.8232 57.8393 76.95 60.0958 75.6316 61.541C74.3132 63.0116 72.158 62.9862 70.6368 61.8706C70.2565 61.5664 69.8762 62.2256 70.2565 62.5298C72.1834 63.9497 74.9977 63.7215 76.4429 61.7185C77.9388 59.6902 77.4064 56.8505 75.302 55.4814C70.2311 52.2107 65.8702 61.6424 71.5495 63.4172C72.0313 63.5693 72.2341 62.8341 71.7524 62.682Z" fill="#E8E8E8"/>
<path d="M75.8344 63.3412C73.9328 63.9243 73.4764 61.6424 74.3131 60.4254C74.9977 59.4366 76.3415 58.8535 77.5585 59.1831C78.7248 59.4873 79.5614 60.679 79.2572 61.8706C78.8769 63.3665 77.3049 63.8989 75.9104 63.6708C75.4287 63.5947 75.2259 64.33 75.7076 64.406C77.5838 64.7356 79.6122 63.9243 80.0178 61.896C80.3728 60.1465 79.0037 58.5492 77.3049 58.3464C75.4287 58.1182 73.375 59.4873 73.1215 61.4142C72.8933 63.0876 74.4145 64.5835 76.0879 64.0511C76.5189 63.9243 76.3161 63.189 75.8344 63.3412Z" fill="#E8E8E8"/>
<path d="M59.6585 79.8467C59.05 81.0891 59.912 82.3314 61.1797 82.661C62.1432 82.9146 63.1573 82.6864 64.1461 82.7371C65.211 82.7878 66.2759 83.0413 67.2394 83.4724C69.3691 84.4358 70.7382 86.1853 70.8143 88.5432C70.8904 90.5208 70.3072 92.5745 71.1693 94.4507C72.9948 98.406 78.0149 95.3888 80.601 97.9496C82.7561 100.105 81.8687 104.035 84.7591 105.683C85.1901 105.936 85.5704 105.277 85.1394 105.023C82.5533 103.553 83.1618 99.7244 81.3363 97.5946C80.3728 96.4791 78.9784 96.1748 77.5585 96.0734C75.8344 95.972 73.6033 96.3269 72.3356 94.8564C70.865 93.1323 71.651 90.5462 71.5749 88.5178C71.5242 86.9205 70.9918 85.4753 69.8762 84.3344C68.8874 83.3456 67.5943 82.661 66.2505 82.3061C65.566 82.1286 64.8561 82.0018 64.1461 81.9765C63.2334 81.9258 59.2781 82.3821 60.343 80.227C60.5458 79.796 59.8866 79.4157 59.6585 79.8467Z" fill="#E8E8E8"/>
<path d="M0.380313 216.709C4.96942 216.709 9.53318 216.709 14.1223 216.709C14.604 216.709 14.604 215.948 14.1223 215.948C9.53318 215.948 4.96942 215.948 0.380313 215.948C-0.126771 215.948 -0.126771 216.709 0.380313 216.709Z" fill="#E8E8E8"/>
<path d="M7.78376 233.899C16.607 233.899 25.4049 233.899 34.2282 233.899C34.7099 233.899 34.7099 233.138 34.2282 233.138C25.4049 233.138 16.607 233.138 7.78376 233.138C7.27667 233.138 7.27667 233.899 7.78376 233.899Z" fill="#E8E8E8"/>
<path d="M33.1633 229.132C41.3527 229.132 49.5674 229.132 57.7568 229.132C58.2386 229.132 58.2386 228.372 57.7568 228.372C49.5674 228.372 41.3527 228.372 33.1633 228.372C32.6562 228.372 32.6562 229.132 33.1633 229.132Z" fill="#E8E8E8"/>
<path d="M169.544 227.814C173.676 226.8 177.834 226.698 182.043 227.358C183.818 227.636 185.618 227.915 187.418 227.763C189.168 227.611 190.866 227.079 192.565 226.622C194.492 226.09 196.419 225.684 198.447 225.836C200.526 225.988 202.529 226.572 204.558 227.028C206.307 227.434 208.082 227.712 209.882 227.687C211.784 227.636 213.66 227.307 215.511 227.028C220.582 226.217 225.348 226.724 230.368 227.56C230.85 227.636 231.053 226.901 230.571 226.825C226.514 226.166 222.432 225.481 218.3 225.887C213.989 226.318 209.984 227.383 205.623 226.495C201.972 225.76 198.498 224.619 194.746 225.329C192.743 225.71 190.841 226.419 188.838 226.8C186.607 227.231 184.452 226.977 182.221 226.622C177.885 225.963 173.6 226.014 169.315 227.079C168.884 227.205 169.087 227.941 169.544 227.814Z" fill="#E8E8E8"/>
<path d="M208.488 220.106C216.449 219.675 224.41 219.244 232.371 218.839C236.301 218.636 240.104 218.712 244.009 219.244C245.758 219.472 247.432 219.523 249.181 219.32C251.133 219.092 253.162 218.788 254.987 219.726C255.418 219.954 255.799 219.295 255.367 219.067C252.274 217.495 248.699 218.965 245.378 218.661C243.4 218.484 241.473 218.103 239.496 218.002C237.442 217.9 235.388 217.951 233.335 218.053C225.044 218.433 216.753 218.94 208.462 219.371C208.006 219.371 208.006 220.132 208.488 220.106Z" fill="#E8E8E8"/>
<path d="M52.5846 241.885C56.337 242.24 60.1148 242.595 63.8672 242.164C65.6167 241.961 67.29 241.581 68.9888 241.074C71.1946 240.415 73.1722 240.237 75.4541 240.643C77.2035 240.947 78.9276 241.378 80.6771 241.53C82.5279 241.683 84.3788 241.581 86.2296 241.404C90.1088 241.023 93.988 240.364 97.8419 241.226C98.3236 241.328 98.5264 240.592 98.0447 240.491C94.343 239.68 90.6413 240.212 86.9142 240.592C85.0633 240.77 83.2125 240.947 81.3616 240.846C79.2572 240.744 77.2289 240.187 75.1752 239.857C73.4511 239.578 71.8031 239.578 70.1044 239.984C68.2789 240.44 66.5548 241.049 64.6786 241.328C60.6726 241.911 56.5906 241.505 52.5846 241.15C52.0775 241.074 52.1029 241.835 52.5846 241.885Z" fill="#E8E8E8"/>
<path d="M92.695 37.3023C91.7062 36.6177 90.3624 35.5275 90.768 34.1584C91.1991 32.7386 92.2639 33.4231 93.2528 33.0935C94.5712 32.6625 94.4951 31.0652 94.1148 30.0257C93.7345 29.0115 92.9232 26.5521 95.0276 27.3888C95.5093 27.5917 95.8642 27.9213 96.422 27.7438C96.9291 27.5917 97.1827 27.1353 97.3094 26.6535C97.4108 26.2225 97.3348 25.7661 97.3094 25.3098C97.2587 25.0055 97.2334 24.6759 97.2334 24.3717C97.132 23.6364 97.5883 23.3321 98.5518 23.4589C98.5771 23.9406 99.3378 23.9406 99.3124 23.4589C99.2617 22.749 98.7293 22.2419 97.9686 22.2673C97.0812 22.2926 96.5995 23.1547 96.4981 23.966C96.422 24.5238 96.8784 25.8169 96.6249 26.2732C96.3206 26.4761 96.0164 26.7043 95.6868 26.9071C95.56 26.831 95.4332 26.755 95.3064 26.6789C95.0783 26.6028 94.9008 26.4507 94.6726 26.4C93.8866 26.2225 93.2528 26.7043 92.9739 27.4142C92.4921 28.6312 93.3542 29.6453 93.6077 30.7863C93.9373 32.3582 92.7457 32.1808 91.7062 32.3582C91.2498 32.4343 90.8695 32.6625 90.5652 32.9921C88.9679 34.843 90.8188 36.8966 92.34 37.9615C92.7203 38.2404 93.1006 37.5812 92.695 37.3023Z" fill="#E8E8E8"/>
<path d="M97.6897 36.5925C96.8531 35.629 96.2192 34.3106 97.8419 33.8035C98.2475 33.6768 98.7039 33.7275 99.0842 33.4739C99.9209 32.8908 99.566 32.1048 99.4138 31.2935C99.3378 30.8371 99.1603 30.2286 99.4392 29.7722C99.642 29.4426 100.377 29.3158 100.758 29.2398C101.29 29.113 101.848 29.037 102.304 28.7327C102.989 28.251 103.242 27.3889 102.786 26.6537C102.532 26.248 101.873 26.6283 102.127 27.034C102.887 28.251 99.3378 28.5806 98.7293 29.468C98.0193 30.5075 99.5152 32.333 98.2729 32.9922C97.7912 33.2457 97.1827 33.0683 96.7263 33.3979C96.3967 33.6261 96.1685 33.981 96.0671 34.3613C95.7882 35.4516 96.5235 36.3897 97.1827 37.1503C97.4869 37.5053 98.0193 36.9728 97.6897 36.5925Z" fill="#E8E8E8"/>
<path d="M67.7464 30.5835C67.0872 30.1271 67.0112 29.3158 67.214 28.6059C67.3408 28.1241 67.9493 26.8057 68.5324 26.755C69.4959 26.6536 69.9776 27.8706 70.2311 28.5805C70.4593 29.2651 70.5354 29.9496 70.5607 30.6596C70.5607 31.1413 71.3214 31.1413 71.3214 30.6596C71.296 29.2397 70.3579 24.8788 68.0253 26.1465C67.1379 26.6282 66.4787 28.0227 66.3773 28.9862C66.2759 29.8989 66.6308 30.7103 67.3661 31.2427C67.7464 31.5216 68.1267 30.8624 67.7464 30.5835Z" fill="#E8E8E8"/>
<path d="M67.4422 30.9892C66.5294 31.2174 65.6167 31.4456 64.6786 31.6738C64.1461 31.8005 63.2334 31.8512 62.8023 32.2569C62.0671 32.9415 62.2699 35.0459 62.2699 35.9333C62.2699 36.1868 62.5234 36.3643 62.7516 36.2882C62.8784 36.2629 63.0052 36.2122 63.1573 36.1868C63.8165 35.8319 64.1461 36.06 64.1715 36.8207C64.6786 37.3277 64.6786 37.632 64.1715 37.6827C63.8672 37.8095 63.563 37.8602 63.2334 37.8602C63.0305 37.8855 62.8531 38.0123 62.8531 38.2405C62.9038 39.8632 63.0305 41.4605 63.208 43.0832C63.2587 43.5649 64.0193 43.5649 63.9686 43.0832C63.7912 41.4605 63.6644 39.8632 63.6137 38.2405C63.4869 38.3673 63.3601 38.494 63.2334 38.6208C64.2982 38.494 65.997 38.063 65.7688 36.6178C65.5152 35.0712 63.639 35.2487 62.5742 35.553C62.7263 35.6797 62.9038 35.8065 63.0559 35.9079C63.0559 35.3248 63.0559 34.767 63.1066 34.1838C63.1827 33.2711 63.1319 32.9415 63.9686 32.6119C65.1096 32.1555 66.4533 32.0034 67.645 31.6991C68.1267 31.6231 67.9239 30.8878 67.4422 30.9892Z" fill="#E8E8E8"/>
<path d="M71.0932 31.2173C72.158 31.1666 73.2483 31.1666 74.3132 31.2934C75.3273 31.4202 75.2766 31.5723 75.4287 32.4597C75.5302 33.0175 75.5555 33.6006 75.6062 34.1584C75.8091 36.3389 75.9612 38.5193 76.0879 40.6998C76.1133 41.1815 76.8739 41.1815 76.8486 40.6998C76.6964 37.7334 76.595 34.6909 76.1133 31.7498C75.9865 31.0145 75.8598 30.7863 75.0991 30.6595C73.7807 30.406 72.4116 30.406 71.0932 30.4821C70.6114 30.4821 70.6114 31.2427 71.0932 31.2173Z" fill="#E8E8E8"/>
<path d="M63.7658 43.6156C65.2617 43.3621 66.7576 43.1085 68.2282 42.855C69.9269 42.5761 71.5496 42.7029 73.2483 42.5761C74.0343 42.5 77.7613 42.1197 76.3922 40.5731C76.0626 40.2182 75.5302 40.7506 75.8598 41.1056C76.0626 41.3337 72.6144 41.8408 72.5384 41.8408C71.4735 41.8662 70.4086 41.8155 69.3437 41.9422C67.4168 42.1704 65.4899 42.5761 63.563 42.9057C63.0813 42.9564 63.2841 43.6917 63.7658 43.6156Z" fill="#E8E8E8"/>
<path d="M198.447 189.63C198.371 192.293 198.295 194.955 198.219 197.642C201.591 197.871 204.938 198.073 208.31 198.302C208.31 195.563 208.31 192.825 208.31 190.087C205.014 189.935 201.743 189.783 198.447 189.63Z" fill="white" stroke="#161616" stroke-width="2"/>
<path d="M202.834 219.219C203.29 222.16 203.493 224.594 203.594 226.343C203.924 232.149 203.67 233.493 203.163 234.558C201.921 237.17 199.664 238.26 199.867 238.615C200.019 238.843 201.135 238.589 206.104 235.978C205.8 230.197 205.521 224.442 205.217 218.661C204.431 218.864 203.645 219.041 202.834 219.219Z" fill="white" stroke="#161616" stroke-width="2"/>
<path d="M196.267 200.583C200.577 200.609 204.887 200.66 209.198 200.685C208.716 206.466 208.259 212.221 207.778 218.002C204.025 217.698 200.248 217.419 196.495 217.114C196.394 211.613 196.318 206.111 196.267 200.583Z" fill="white" stroke="#161616" stroke-width="2"/>
<path d="M198.016 219.016C199.385 222.337 199.842 225.202 199.994 227.129C200.222 229.969 200.374 232.15 199.005 233.595C198.498 234.153 197.661 234.685 196.039 235.775C194.594 236.739 193.909 237.094 193.96 237.195C194.036 237.347 195.43 237.043 201.515 234.888C201.921 232.834 202.25 230.197 202.174 227.104C202.073 223.808 201.541 220.994 200.957 218.889C199.994 218.94 199.005 218.965 198.016 219.016Z" fill="white" stroke="#161616" stroke-width="2"/>
<path d="M200.222 238.843C200.983 238.209 201.693 237.524 202.377 236.789C203.163 235.927 204.33 234.609 205.547 235.75C205.572 235.547 205.597 235.344 205.623 235.141C203.822 236.029 202.048 236.916 200.247 237.778C199.893 237.956 200.07 238.488 200.45 238.488C202.149 238.513 203.214 235.547 204.963 236.105C205.42 236.257 205.623 235.522 205.166 235.369C204.406 235.141 203.822 235.344 203.189 235.8C202.453 236.333 201.414 237.727 200.476 237.727C200.552 237.956 200.602 238.209 200.679 238.437C202.479 237.55 204.253 236.662 206.054 235.8C206.282 235.699 206.307 235.369 206.13 235.192C205.445 234.558 204.228 234.33 203.366 234.736C202.732 235.014 202.327 235.75 201.87 236.231C201.186 236.967 200.476 237.626 199.715 238.285C199.309 238.615 199.842 239.173 200.222 238.843Z" fill="#161616"/>
<path d="M203.341 234.888C204.101 234.913 204.837 235.065 205.547 235.369C205.978 235.572 206.383 234.913 205.927 234.71C205.09 234.33 204.253 234.127 203.341 234.102C202.859 234.127 202.859 234.888 203.341 234.888Z" fill="#161616"/>
<path d="M199.183 234C199.766 234.152 200.273 234.457 200.678 234.913C201.008 235.268 201.541 234.736 201.211 234.381C200.704 233.848 200.07 233.468 199.36 233.29C198.929 233.138 198.726 233.874 199.183 234Z" fill="#161616"/>
<path d="M195.075 237.068C195.861 236.485 196.673 235.953 197.509 235.446C197.89 235.217 198.295 234.913 198.701 234.786C199.335 234.558 199.715 234.71 200.298 234.964C200.298 234.736 200.298 234.533 200.298 234.305C199.487 234.66 198.574 234.634 197.737 234.989C196.926 235.319 196.165 236.13 195.329 236.282C195.43 236.51 195.532 236.739 195.633 236.967C197.129 236.232 198.802 236.105 200.298 235.369C200.729 235.141 200.349 234.507 199.918 234.71C198.422 235.446 196.749 235.572 195.253 236.308C194.847 236.51 195.151 237.068 195.557 236.992C196.47 236.84 197.205 236.003 198.067 235.674C198.929 235.344 199.867 235.319 200.704 234.964C200.957 234.862 200.957 234.406 200.704 234.305C199.74 233.874 199.309 233.62 198.346 234.127C197.078 234.786 195.887 235.572 194.746 236.409C194.289 236.688 194.67 237.347 195.075 237.068Z" fill="#161616"/>
<path d="M199.411 222.895C200.045 222.667 200.679 222.692 201.262 222.997C201.693 223.225 202.073 222.566 201.642 222.337C200.881 221.932 200.019 221.856 199.208 222.16C198.752 222.337 198.954 223.073 199.411 222.895Z" fill="#161616"/>
<path d="M200.045 225.431C200.577 225.38 201.084 225.507 201.49 225.862C201.87 226.166 202.403 225.633 202.022 225.329C201.464 224.873 200.78 224.619 200.045 224.67C199.563 224.695 199.563 225.456 200.045 225.431Z" fill="#161616"/>
<path d="M200.324 228.6C200.805 228.549 201.262 228.727 201.541 229.132C201.794 229.538 202.453 229.158 202.2 228.752C201.819 228.118 201.084 227.738 200.349 227.839C200.146 227.865 199.969 227.991 199.969 228.22C199.943 228.397 200.121 228.625 200.324 228.6Z" fill="#161616"/>
<path d="M203.594 222.718C204.051 222.464 204.634 222.489 205.065 222.844C205.445 223.149 205.978 222.616 205.597 222.312C204.913 221.754 204 221.627 203.214 222.058C202.783 222.312 203.163 222.971 203.594 222.718Z" fill="#161616"/>
<path d="M204.025 227.51C204.431 227.332 204.887 227.408 205.217 227.712C205.572 228.042 206.13 227.51 205.749 227.18C205.166 226.648 204.355 226.521 203.62 226.876C203.189 227.053 203.594 227.712 204.025 227.51Z" fill="#161616"/>
<path d="M204.127 231.566C204.532 231.313 205.039 231.313 205.42 231.617C205.8 231.921 206.332 231.389 205.952 231.085C205.318 230.552 204.431 230.476 203.746 230.932C203.341 231.186 203.721 231.845 204.127 231.566Z" fill="#161616"/>
<path d="M209.806 200.66C209.299 206.491 208.792 212.322 208.285 218.154" stroke="#161616" stroke-width="6"/>
<path d="M196.419 217.343C200.653 217.647 204.887 217.926 209.121 218.23" stroke="#161616" stroke-width="6"/>
<path d="M209.147 189.859C209.045 192.749 208.919 195.614 208.817 198.505" stroke="#161616" stroke-width="6"/>
<path d="M209.679 204.082C212.037 203.651 214.547 205.502 214.725 207.936C214.978 210.979 211.505 211.511 209.223 211.182C208.741 211.106 208.538 211.841 209.02 211.917C211.809 212.323 215.739 211.537 215.485 207.936C215.283 204.97 212.316 202.815 209.476 203.347C208.995 203.423 209.198 204.158 209.679 204.082Z" fill="#161616"/>
<path d="M209.121 212.525C210.11 212.728 210.896 213.438 211.175 214.401C211.302 214.883 212.037 214.68 211.91 214.199C211.581 212.982 210.592 212.018 209.35 211.79C208.843 211.714 208.64 212.424 209.121 212.525Z" fill="#161616"/>
<path d="M208.741 212.272C209.35 213.159 209.629 214.148 209.527 215.238C209.502 215.72 210.262 215.72 210.288 215.238C210.364 214.047 210.06 212.88 209.375 211.891C209.121 211.486 208.462 211.866 208.741 212.272Z" fill="#161616"/>
<path d="M196.242 203.727C194.568 202.663 191.5 205.73 191.12 207.226C190.359 210.269 194.264 209.914 195.887 210.928C196.292 211.182 196.673 210.522 196.267 210.269C195.101 209.534 193.377 209.812 192.362 208.9C191.12 207.784 192.261 206.44 193.123 205.654C193.579 205.249 195.126 203.905 195.861 204.361C196.267 204.666 196.673 204.006 196.242 203.727Z" fill="#161616"/>
<path d="M195.836 210.573C195.177 210.827 194.568 211.207 194.061 211.739C193.681 212.145 193.199 212.779 193.579 213.337C193.858 213.742 194.517 213.362 194.239 212.956C194.061 212.703 194.72 212.145 194.898 211.993C195.227 211.689 195.608 211.46 196.039 211.308C196.495 211.131 196.318 210.396 195.836 210.573Z" fill="#161616"/>
<path d="M195.532 211.106C195.05 211.866 194.898 212.728 195.075 213.59C195.177 214.072 195.912 213.869 195.81 213.387C195.658 212.703 195.81 212.069 196.191 211.486C196.47 211.08 195.81 210.7 195.532 211.106Z" fill="#161616"/>
<path d="M197.94 203.246C197.814 205.097 197.839 206.973 197.966 208.824C198.016 209.305 198.777 209.305 198.726 208.824C198.574 206.973 198.574 205.097 198.701 203.246C198.752 202.764 197.991 202.764 197.94 203.246Z" fill="#161616"/>
<path d="M198.498 203.449C201.186 203.601 203.848 203.702 206.535 203.753C206.409 203.626 206.282 203.499 206.155 203.372C206.079 205.274 206.003 207.201 205.901 209.102C205.876 209.584 206.637 209.584 206.662 209.102C206.738 207.201 206.814 205.274 206.916 203.372C206.916 203.17 206.738 202.992 206.535 202.992C203.848 202.941 201.186 202.84 198.498 202.688C198.016 202.663 198.016 203.423 198.498 203.449Z" fill="#161616"/>
<path d="M198.194 209.153C199.309 209.457 200.552 209.381 201.667 209.457C203.036 209.534 204.431 209.635 205.8 209.711C206.282 209.736 206.282 208.976 205.8 208.95C204.583 208.874 203.366 208.798 202.149 208.722C200.932 208.646 199.563 208.722 198.371 208.418C197.94 208.291 197.737 209.026 198.194 209.153Z" fill="#161616"/>
<path d="M199.056 213.083C199.512 214.072 200.501 213.21 201.262 213.565C201.617 213.717 201.541 213.945 202.022 213.971C202.58 213.996 203.949 212.88 204.228 213.92C204.304 214.199 204.659 214.275 204.862 214.097C205.116 214.021 205.394 213.945 205.648 213.894C205.952 214.275 206.51 213.717 206.18 213.362C205.597 212.677 204.862 213.058 204.304 213.565C204.507 213.616 204.735 213.666 204.938 213.742C204.71 212.855 203.772 212.272 202.884 212.677C202.453 212.88 202.403 213.261 201.743 213.007C201.617 212.956 201.566 212.754 201.439 212.703C201.16 212.601 199.69 212.754 199.69 212.728C199.512 212.246 198.853 212.627 199.056 213.083Z" fill="#161616"/>
<path d="M200.4 193.129C200.45 192.85 200.78 192.774 201.008 192.876C201.338 193.003 201.515 193.383 201.667 193.662C201.87 194.093 202.529 193.712 202.327 193.281C202.048 192.724 201.617 192.141 200.932 192.064C200.374 192.014 199.791 192.343 199.69 192.901C199.563 193.408 200.298 193.611 200.4 193.129Z" fill="#161616"/>
<path d="M205.065 193.484C205.116 193.231 205.344 193.079 205.597 193.18C205.902 193.282 206.028 193.662 206.079 193.941C206.155 194.422 206.89 194.22 206.814 193.738C206.713 193.129 206.307 192.496 205.648 192.394C205.065 192.318 204.431 192.673 204.33 193.282C204.253 193.763 204.989 193.966 205.065 193.484Z" fill="#161616"/>
<path d="M200.78 194.727C201.642 196.248 203.696 196.476 204.811 195.107C205.115 194.727 204.583 194.194 204.279 194.575C203.467 195.563 202.073 195.487 201.439 194.346C201.211 193.915 200.552 194.296 200.78 194.727Z" fill="#161616"/>
<path d="M174.183 56.9518C170.989 55.6587 169.062 52.5655 167.895 49.4723C166.653 46.2523 166.121 42.7534 166.298 39.3053C166.602 32.9414 169.315 26.5014 174.335 22.4447C179.077 18.5909 186.1 17.5007 191.373 20.9995C196.875 24.6505 197.864 32.1807 197.915 38.2404C197.966 44.9846 196.394 52.0584 191.399 56.9011C191.044 57.2307 191.576 57.7885 191.931 57.4335C196.672 52.8191 198.473 46.227 198.65 39.787C198.828 33.4738 198.067 25.4872 192.869 21.1517C188.001 17.095 180.775 17.2978 175.578 20.5939C169.822 24.2449 166.425 30.8623 165.69 37.5305C165.233 41.6632 165.74 45.9481 167.262 49.8526C168.555 53.1487 170.608 56.2926 174.006 57.6617C174.437 57.8645 174.614 57.1293 174.183 56.9518Z" fill="#161616"/>
<path d="M173.828 57.4337C172.966 58.6507 173.144 60.4508 174.412 61.3636C175.375 62.0482 176.795 62.1496 177.936 62.3017C179.305 62.5045 180.699 62.5806 182.094 62.5806C184.579 62.5552 187.418 62.3778 189.725 61.4143C191.399 60.7044 192.667 59.031 191.779 57.2309C191.576 56.7998 190.917 57.1802 191.12 57.6112C193.021 61.4904 184.021 61.82 182.068 61.82C180.268 61.82 178.468 61.6678 176.719 61.3382C175.882 61.1861 174.944 61.034 174.412 60.2987C173.879 59.5381 173.98 58.5493 174.488 57.8394C174.766 57.4083 174.107 57.028 173.828 57.4337Z" fill="#161616"/>
<path d="M174.64 61.541C174.64 62.8087 174.665 64.1018 174.817 65.3695C174.893 65.9526 175.02 66.4597 175.502 66.8147C176.186 67.3218 177.327 67.2964 178.139 67.3725C179.508 67.4739 180.902 67.4739 182.271 67.4232C183.564 67.3725 184.857 67.2711 186.151 67.1443C186.911 67.0682 187.773 67.0936 188.356 66.5104C189.649 65.2427 189.675 62.8341 189.345 61.2368C189.244 60.755 188.508 60.9579 188.61 61.4396C188.787 62.3016 188.838 63.1637 188.661 64.0511C188.407 65.2934 188.052 66.1048 186.658 66.3583C185.035 66.6626 183.209 66.6626 181.561 66.6879C179.939 66.7133 178.113 66.7893 176.516 66.409C175.045 66.0541 175.426 62.758 175.426 61.541C175.4 61.0593 174.64 61.0593 174.64 61.541Z" fill="#161616"/>
<path d="M174.893 34.2345C177.936 36.1361 180.243 38.9251 181.536 42.2718C181.714 42.7282 182.449 42.5254 182.271 42.069C180.902 38.5194 178.494 35.5783 175.299 33.5753C174.868 33.2964 174.488 33.9556 174.893 34.2345Z" fill="#161616"/>
<path d="M182.145 42.2717C183.64 39.1278 185.821 36.4402 188.61 34.3612C188.99 34.0823 188.61 33.3977 188.23 33.702C185.339 35.8571 183.057 38.646 181.485 41.8914C181.282 42.3224 181.942 42.7027 182.145 42.2717Z" fill="#161616"/>
<path d="M181.536 41.3845C181.916 46.6074 182.094 51.8304 182.018 57.0534C182.018 57.5351 182.778 57.5351 182.778 57.0534C182.854 51.8304 182.677 46.5821 182.297 41.3845C182.246 40.8774 181.485 40.8774 181.536 41.3845Z" fill="#161616"/>
<path d="M151.846 54.1629C155.218 53.022 158.565 51.8811 161.937 50.7401C162.394 50.588 162.191 49.8527 161.734 50.0049C158.362 51.1458 155.016 52.2867 151.643 53.4277C151.162 53.5798 151.365 54.3151 151.846 54.1629Z" fill="#161616"/>
<path d="M155.7 49.0921C156.866 48.7625 158.033 48.4075 159.199 48.0779C159.655 47.9511 159.478 47.2159 158.996 47.3426C157.83 47.6722 156.664 48.0272 155.497 48.3568C155.041 48.5089 155.218 49.2442 155.7 49.0921Z" fill="#161616"/>
<path d="M147.257 40.6491C151.72 40.5984 156.156 40.7252 160.593 41.0041C161.075 41.0295 161.075 40.2688 160.593 40.2435C156.156 39.9646 151.694 39.8632 147.257 39.8885C146.775 39.8885 146.775 40.6491 147.257 40.6491Z" fill="#161616"/>
<path d="M156.689 37.2011C157.754 37.48 158.844 37.6067 159.934 37.6321C160.416 37.6321 160.416 36.8715 159.934 36.8715C158.895 36.8461 157.881 36.7193 156.892 36.4658C156.41 36.339 156.207 37.0743 156.689 37.2011Z" fill="#161616"/>
<path d="M155.041 13.5962C159.022 17.0191 162.647 20.7715 165.918 24.8789C166.222 25.2592 166.755 24.7267 166.45 24.3464C163.18 20.239 159.554 16.4613 155.573 13.0638C155.218 12.7342 154.661 13.2666 155.041 13.5962Z" fill="#161616"/>
<path d="M166.171 20.7967C166.856 21.5066 167.515 22.2165 168.2 22.9518C168.529 23.3068 169.062 22.7743 168.732 22.4194C168.048 21.7095 167.388 20.9995 166.704 20.2643C166.374 19.9093 165.842 20.4418 166.171 20.7967Z" fill="#161616"/>
<path d="M150.731 22.2166C151.973 22.9519 153.241 23.6364 154.534 24.2703C154.965 24.4985 155.345 23.8393 154.914 23.6111C153.621 22.9519 152.353 22.2673 151.111 21.5574C150.68 21.3038 150.3 21.9631 150.731 22.2166Z" fill="#161616"/>
<path d="M194.847 16.4358C198.599 12.6834 202.352 8.93097 206.104 5.17855C206.459 4.82359 205.901 4.29115 205.572 4.64611C201.819 8.39853 198.067 12.151 194.315 15.9034C193.96 16.2583 194.492 16.7908 194.847 16.4358Z" fill="#161616"/>
<path d="M198.625 18.1854C199.588 17.4754 200.552 16.7909 201.515 16.081C201.895 15.8021 201.541 15.1429 201.135 15.4218C200.171 16.1317 199.208 16.8162 198.244 17.5262C197.839 17.805 198.219 18.4643 198.625 18.1854Z" fill="#161616"/>
<path d="M183.133 11.4664C183.894 7.79008 184.477 4.08836 184.832 0.361297C184.883 -0.120432 184.122 -0.120432 184.071 0.361297C183.716 4.0123 183.159 7.66331 182.398 11.2636C182.297 11.7453 183.032 11.9482 183.133 11.4664Z" fill="#161616"/>
<path d="M204.456 34.7923C211.353 34.1584 218.224 33.5246 225.12 32.8907C225.602 32.84 225.602 32.0794 225.12 32.1301C218.224 32.764 211.353 33.3978 204.456 34.0317C203.975 34.057 203.949 34.8177 204.456 34.7923Z" fill="#161616"/>
<path d="M175.476 58.3463C179.761 59.2844 184.122 59.2591 188.382 58.2956C188.863 58.1942 188.661 57.4589 188.179 57.5604C184.046 58.4985 179.812 58.5238 175.679 57.6111C175.197 57.5096 174.995 58.2449 175.476 58.3463Z" fill="#161616"/>
<path d="M176.11 64.7862C179.381 65.2173 182.652 65.3187 185.948 65.0905C186.429 65.0651 186.429 64.3045 185.948 64.3299C182.652 64.5581 179.381 64.4566 176.11 64.0256C175.629 63.9749 175.629 64.7355 176.11 64.7862Z" fill="#161616"/>
<path d="M199.664 55.7856C204.811 59.4112 210.06 62.9101 215.384 66.2822C215.79 66.5357 216.17 65.8765 215.764 65.623C210.44 62.2509 205.192 58.752 200.045 55.1263C199.639 54.8474 199.259 55.5067 199.664 55.7856Z" fill="#161616"/>
<path d="M134.884 234.127C130.067 240.034 125.275 245.917 120.458 251.824C126.112 271.702 129.306 276.925 131.208 276.646C132.577 276.443 133.236 273.477 133.972 270.155C135.797 261.864 134.707 254.74 133.591 250.303C136.634 246.905 139.651 243.483 142.693 240.085C140.082 238.108 137.496 236.13 134.884 234.127Z" fill="#161616" stroke="#161616" stroke-width="2"/>
<path d="M117.111 203.702C120.128 206.035 123.019 205.198 129.002 206.212C134.098 207.074 139.828 208.976 145.913 212.779C139.423 220.385 132.932 228.422 126.492 236.891C124.946 238.944 123.399 240.998 121.903 243.052C124.388 243.635 127.38 244.548 130.625 246.018C133.794 247.438 136.38 249.035 138.434 250.48C148.094 242.063 156.714 233.924 164.397 226.242C167.946 222.692 172.966 217.266 173.752 209.584C173.803 209.153 173.803 208.773 173.803 208.392C173.626 195.639 157.576 186.41 147.815 183.013C137.141 179.311 118.784 177.308 113.663 186.157C110.646 191.38 112.421 200.076 117.111 203.702Z" fill="#EC615B"/>
<path opacity="0.26" d="M135.848 190.949C135.67 193.357 135.239 196.222 134.352 199.392C133.718 201.648 132.957 203.651 132.197 205.35C131.36 205.68 130.549 206.009 129.712 206.339C135.163 208.494 140.64 210.649 146.091 212.804C142.034 217.444 137.952 222.312 133.845 227.383C129.611 232.606 125.579 237.727 121.751 242.773C124.464 243.66 127.151 244.548 129.864 245.41C139.575 234.71 149.286 223.985 158.996 213.286C160.01 210.37 159.96 208.088 159.655 206.491C158.261 198.682 148.702 192.318 135.848 190.949Z" fill="#6D6C6C"/>
<path opacity="0.23" d="M146.04 212.753C146.928 214.097 147.79 215.466 148.677 216.81C141.122 225.912 133.566 234.989 126.01 244.091C124.667 243.736 123.298 243.356 121.954 243.001C126.796 236.358 132.019 229.538 137.673 222.667C140.488 219.244 143.277 215.948 146.04 212.753Z" fill="#6D6C6C"/>
<path d="M120.813 224.493C128.292 225.862 135.797 227.205 143.277 228.575C151.922 247.438 152.886 253.523 151.263 254.563C150.097 255.298 147.663 253.472 144.95 251.419C138.155 246.272 134.377 240.136 132.324 236.003C127.811 235.395 123.297 234.761 118.784 234.153C119.444 230.933 120.128 227.713 120.813 224.493Z" fill="#161616" stroke="#161616" stroke-width="2"/>
<path d="M105.397 182.48C91.7568 186.486 83.4406 194.803 78.0909 200.279C70.865 207.708 61.991 216.81 64.5518 223.529C65.8702 226.952 69.8761 229.056 88.5368 232.301C102.634 234.761 114.855 236.079 124.388 236.815C125.579 232.454 126.771 228.118 127.937 223.757C118.353 220.664 108.795 217.596 99.211 214.503C105.093 213.26 111.28 211.79 117.72 209.99C122.613 208.621 127.278 207.201 131.715 205.705C135.822 197.414 136.71 188.464 132.425 183.393C126.441 176.294 113.029 180.224 105.397 182.48Z" fill="#EC615B"/>
<path opacity="0.29" d="M135.746 191.253C135.62 193.763 135.189 196.983 134.022 200.533C133.312 202.688 132.501 204.564 131.69 206.111C131.005 206.161 130.321 206.238 129.636 206.288C123.855 208.19 117.694 209.99 111.178 211.663C106.969 212.754 102.862 213.692 98.8814 214.554C108.491 217.571 118.1 220.563 127.709 223.58C127.506 224.619 127.253 225.71 126.948 226.85C126.593 228.169 126.188 229.386 125.808 230.501C112.547 227.231 99.287 223.96 86.0268 220.689C85.4183 219.954 83.4153 217.292 83.7195 213.768C84.0491 209.939 87.7002 207.226 92.3653 204.742C105.854 197.592 128.47 192.749 135.746 191.253Z" fill="#6D6C6C"/>
<path opacity="0.24" d="M92.061 215.086C94.4697 214.909 96.9037 214.731 99.3123 214.528C108.769 217.672 118.227 220.842 127.684 223.985C127.278 225.481 126.872 227.003 126.467 228.498C115.007 224.011 103.521 219.548 92.061 215.086Z" fill="#6D6C6C"/>
<path d="M101.823 125.028C105.575 122.822 112.091 119.678 120.762 118.765C134.048 117.371 144.24 122.138 148.271 124.293C147.536 134.257 146.395 142.218 145.482 147.695C144.392 154.236 143.505 157.862 143.099 163.871C142.592 171.401 143.226 177.587 143.809 181.644C139.397 183.013 132.729 184.509 124.515 184.331C116.604 184.154 110.215 182.43 105.93 180.934C107.071 171.857 106.691 164.657 106.133 159.763C105.499 154.312 104.637 151.65 103.597 145.058C102.254 136.539 101.899 129.566 101.823 125.028Z" fill="white" stroke="#161616" stroke-width="2"/>
<path opacity="0.14" d="M129.256 121.783C129.788 123.71 130.397 126.372 130.802 129.566C131.081 131.721 132.222 141.483 128.673 154.363C126.492 162.299 124.185 170.691 116.629 177.587C114.195 179.818 111.837 181.314 110.113 182.252C113.942 183.241 118.937 184.179 124.844 184.23C132.577 184.306 138.966 182.912 143.403 181.542C143.15 179.641 142.82 176.776 142.693 173.328C142.592 170.311 142.592 165.493 144.671 151.929C146.319 141.255 147.485 136.666 148.069 127.006C148.145 125.89 148.17 124.952 148.221 124.318C146.37 123.228 143.961 122.036 140.995 121.073C138.257 120.185 135.797 119.729 133.769 119.526C132.298 120.261 130.777 121.022 129.256 121.783Z" fill="#6D6C6C"/>
<path opacity="0.17" d="M147.485 128.451C146.066 136.488 144.189 142.979 142.719 147.492C138.409 160.676 135.391 169.55 127.253 176.041C122.207 180.072 116.959 181.771 113.587 182.582C117.01 183.545 121.852 184.484 127.709 184.357C134.453 184.205 139.905 182.683 143.479 181.39C142.998 178.297 142.44 173.657 142.592 168.003C142.77 160.676 143.961 156.264 145.28 148.227C146.015 143.511 146.953 136.767 147.485 128.451Z" fill="#6D6C6C"/>
<path d="M101.67 124.901C98.3743 127.183 94.1401 130.783 90.4384 136.133C82.0969 148.252 82.3251 161.107 82.6547 165.848C84.1759 169.93 86.7874 175.28 91.3512 180.528C94.0134 183.596 97.9179 188.008 104.586 190.847C106.817 191.811 108.769 192.343 110.189 192.648C111.406 191.557 112.598 190.467 113.815 189.377C109.91 184.813 105.981 180.021 102.051 175.077C99.0335 171.299 96.1431 167.547 93.3541 163.845C93.4556 160.727 94.1148 155.073 97.5122 149.165C99.4391 145.818 101.696 143.384 103.496 141.736C102.887 136.133 102.279 130.53 101.67 124.901Z" fill="white" stroke="#161616" stroke-width="2"/>
<path opacity="0.13" d="M102.152 130.555C94.85 138.795 91.3765 146.604 89.6524 151.523C86.6353 160.042 87.2691 164.504 87.7255 166.634C88.1058 168.308 88.9425 171.173 92.0104 175.534C94.6726 179.311 100.276 186.081 110.95 191.659C111.888 190.746 112.826 189.859 113.764 188.946C110.747 185.548 107.705 181.973 104.637 178.246C100.605 173.353 96.853 168.536 93.3795 163.82C93.4809 161.259 93.9119 157.684 95.4078 153.678C97.6644 147.669 101.214 143.714 103.42 141.61C102.963 137.933 102.558 134.257 102.152 130.555Z" fill="#6D6C6C"/>
<path opacity="0.16" d="M93.3541 164.15C93.8105 167.116 94.7486 170.894 96.7262 174.976C101.087 183.85 107.907 188.743 111.381 190.873C112.066 190.264 112.725 189.681 113.409 189.073C106.716 180.757 100.048 172.44 93.3541 164.15Z" fill="#6D6C6C"/>
<path d="M148.652 124.445C152.353 126.701 157.12 130.226 161.253 135.474C170.634 147.365 170.355 159.991 170 164.657C168.276 168.663 165.36 173.911 160.239 179.083C157.247 182.075 152.86 186.41 145.381 189.225C142.871 190.163 140.665 190.695 139.068 191C137.724 189.935 136.355 188.87 135.011 187.805C139.372 183.317 143.809 178.627 148.221 173.759C151.593 170.032 154.838 166.355 157.982 162.73C157.855 159.687 157.145 154.135 153.317 148.303C151.136 145.007 148.626 142.624 146.598 141.001C147.308 135.474 147.992 129.972 148.652 124.445Z" fill="white" stroke="#161616" stroke-width="2"/>
<path opacity="0.16" d="M148.474 130.606C151.694 133.978 156.08 139.378 159.503 146.909C161.126 150.484 163.763 156.29 163.814 161.766C163.991 178.424 140.412 189.884 139.042 190.543C137.699 189.681 136.38 188.844 135.036 187.982C142.668 179.616 150.274 171.249 157.906 162.882C157.754 160.143 157.12 155.047 154.078 149.621C151.567 145.159 148.449 142.269 146.395 140.671C147.105 137.325 147.79 133.978 148.474 130.606Z" fill="#6D6C6C"/>
<path opacity="0.12" d="M158.16 162.958C157.779 165.164 157.145 167.572 156.157 170.057C151.694 181.314 142.668 187.475 138.104 190.112C137.014 189.402 135.949 188.692 134.859 187.982C142.617 179.641 150.376 171.299 158.16 162.958Z" fill="#6D6C6C"/>
<rect x="92.1372" y="164.834" width="62.346" height="39.4765" fill="white" stroke="#161616" stroke-width="2"/>
<path d="M122.41 188.337C119.114 188.743 117.517 184.737 118.379 182.075C119.215 179.438 122.334 178.196 124.869 179.109C127.38 180.021 128.597 183.089 127.709 185.548C126.72 188.287 123.272 189.402 120.737 188.185C120.306 187.982 119.9 188.642 120.356 188.845C122.613 189.935 125.377 189.529 127.177 187.754C128.926 186.005 129.18 183.241 128.089 181.086C125.605 176.167 117.922 177.739 117.39 183.14C117.111 186.03 119.19 189.504 122.41 189.123C122.892 189.047 122.892 188.287 122.41 188.337Z" fill="#161616"/>
<path opacity="0.14" d="M115.539 164.733C123.982 167.674 129.737 175.204 129.915 183.292C130.143 193.434 121.624 202.967 110.012 203.93C124.793 204.057 139.575 204.184 154.382 204.311C154.331 191.076 154.306 177.841 154.255 164.631C141.35 164.631 128.444 164.682 115.539 164.733Z" fill="#6D6C6C"/>
<path opacity="0.26" d="M154.382 164.606C154.154 172.668 152.556 178.956 151.213 183.089C149.235 189.098 147.815 193.484 143.733 197.363C138.18 202.688 131.259 203.677 128.216 203.93C136.862 204.006 145.508 204.082 154.154 204.184C154.179 196.654 154.23 189.123 154.28 181.568C154.28 175.914 154.331 170.26 154.382 164.606Z" fill="#6D6C6C"/>
<path d="M121.472 104.567C120.078 106.266 121.421 108.345 121.168 113.897C121.041 116.661 120.585 118.892 120.23 120.388C121.421 120.946 123.526 121.732 126.239 121.808C129.585 121.884 132.121 120.844 133.363 120.236C132.805 119.12 132.07 117.396 131.614 115.165C130.473 109.486 132.501 106.824 130.828 104.719C128.875 102.285 123.348 102.26 121.472 104.567Z" fill="white" stroke="#161616" stroke-width="2"/>
<path d="M112.623 80.1763C111.026 84.2837 111.635 87.9854 111.99 89.5827C111.837 89.6081 108.871 90.2419 108.06 92.5238C107.248 94.831 108.922 98.1017 112.421 99.1666C113.688 102.26 116.756 108.243 123.221 111.514C124.312 112.047 125.351 112.478 126.391 112.782C127.329 112.427 128.597 111.869 130.042 111.032C134.555 108.421 137.065 105.176 137.648 104.39C138.713 102.97 140.158 100.688 141.172 97.5439C141.73 97.6454 142.719 97.6961 143.682 97.2143C145.863 96.0987 146.953 92.6252 145.432 90.3687C144.164 88.4925 141.705 88.4164 141.4 88.4164C141.73 87.098 142.744 82.3568 140.183 77.6662C137.242 72.2658 130.929 69.4261 124.996 70.2375C116.224 71.3784 112.776 79.7706 112.623 80.1763Z" fill="white" stroke="#161616" stroke-width="2"/>
<path d="M121.142 111.286C122.689 112.199 124.388 113.619 126.289 113.466C127.861 113.34 129.611 112.427 130.802 111.463C131.183 111.159 130.65 110.627 130.27 110.931C129.154 111.818 127.354 112.756 125.884 112.731C124.337 112.706 122.765 111.413 121.497 110.627C121.117 110.373 120.737 111.032 121.142 111.286Z" fill="#161616"/>
<path d="M121.041 111.615C122.486 112.858 124.134 114.252 126.163 114.151C128.14 114.049 129.991 112.731 131.284 111.311C131.614 110.956 131.081 110.424 130.752 110.779C129.636 111.996 128.064 113.187 126.34 113.365C124.438 113.542 122.917 112.249 121.573 111.083C121.218 110.753 120.686 111.286 121.041 111.615Z" fill="#161616"/>
<path d="M122.004 111.768C122.004 111.742 122.004 111.742 122.004 111.768C121.852 111.539 121.573 111.489 121.396 111.666C121.396 111.666 121.396 111.666 121.371 111.691C121.218 111.818 121.218 112.097 121.371 112.224C124.16 114.886 129.281 115.748 131.284 111.666C131.487 111.235 130.853 110.829 130.625 111.286C128.85 114.937 124.362 114.049 121.928 111.691C121.928 111.869 121.928 112.046 121.928 112.224C121.928 112.224 121.928 112.224 121.954 112.199C121.751 112.173 121.548 112.148 121.345 112.122V112.148C121.599 112.554 122.258 112.173 122.004 111.768Z" fill="#161616"/>
<path d="M125.047 88.3149C124.717 92.4223 124.895 96.5043 125.554 100.561C125.579 100.764 125.833 100.891 126.01 100.815C126.999 100.485 127.709 99.9018 128.242 99.0144C128.495 98.5834 127.836 98.2031 127.582 98.6341C127.151 99.3694 126.619 99.8004 125.808 100.079C125.96 100.155 126.112 100.257 126.264 100.333C125.605 96.3522 125.453 92.3209 125.782 88.2896C125.858 87.8079 125.098 87.8079 125.047 88.3149Z" fill="#161616"/>
<path d="M120.534 92.3463C120.585 92.5745 120.965 93.9943 120.534 94.2225C120.103 94.4507 118.886 93.538 118.506 92.3463C118.201 91.3321 118.455 90.0644 118.937 89.963C119.444 89.8362 120.23 91.2307 120.534 92.3463Z" fill="#161616" stroke="#161616"/>
<path d="M133.617 92.3463C133.667 92.5745 134.048 93.9943 133.617 94.2225C133.186 94.4507 131.969 93.538 131.588 92.3463C131.284 91.3321 131.538 90.0644 132.019 89.963C132.526 89.8362 133.312 91.2307 133.617 92.3463Z" fill="#161616" stroke="#161616"/>
<path d="M124.134 103.908C127.227 105.226 130.042 103.375 132.324 101.372C132.704 101.043 132.146 100.51 131.791 100.84C129.814 102.564 127.278 104.415 124.54 103.249C124.058 103.071 123.678 103.73 124.134 103.908Z" fill="#161616"/>
<path d="M133.059 96.3776C133.541 96.3776 133.541 95.6169 133.059 95.6169C132.577 95.6169 132.577 96.3776 133.059 96.3776Z" fill="#161616"/>
<path d="M135.873 94.9577C135.899 94.9323 135.924 94.907 135.949 94.8816C136.101 94.7295 136.101 94.5013 135.949 94.3492C135.797 94.1971 135.569 94.1971 135.417 94.3492C135.391 94.3746 135.366 94.3999 135.341 94.4253C135.189 94.5774 135.189 94.8056 135.341 94.9577C135.493 95.1098 135.721 95.1098 135.873 94.9577Z" fill="#161616"/>
<path d="M135.037 96.8086C135.062 96.8086 135.087 96.8086 135.113 96.8086C135.315 96.8086 135.493 96.6311 135.493 96.4283C135.493 96.2255 135.315 96.048 135.113 96.048C135.087 96.048 135.062 96.048 135.037 96.048C134.834 96.048 134.656 96.2255 134.656 96.4283C134.656 96.6311 134.808 96.8086 135.037 96.8086Z" fill="#161616"/>
<path d="M117.542 87.8078C118.506 86.9965 119.925 86.9711 120.889 87.7571C121.269 88.0614 121.802 87.5289 121.421 87.2247C120.103 86.1598 118.277 86.1598 116.984 87.2754C116.629 87.5796 117.187 88.1121 117.542 87.8078Z" fill="#161616"/>
<path d="M129.915 87.529C131.005 86.5655 132.552 86.3881 133.845 87.0726C134.276 87.3008 134.656 86.6416 134.225 86.4134C132.628 85.5514 130.726 85.7796 129.382 86.9966C129.002 87.3262 129.535 87.8586 129.915 87.529Z" fill="#161616"/>
<path d="M117.745 96.3015C118.227 96.3015 118.227 95.5409 117.745 95.5409C117.263 95.5409 117.263 96.3015 117.745 96.3015Z" fill="#161616"/>
<path d="M120.432 95.9465C120.914 95.9465 120.914 95.1859 120.432 95.1859C119.951 95.1859 119.951 95.9465 120.432 95.9465Z" fill="#161616"/>
<path d="M119.089 96.5297C119.063 96.5551 119.038 96.5805 119.013 96.6058C118.861 96.7579 118.861 96.9861 119.013 97.1382C119.165 97.2904 119.393 97.2904 119.545 97.1382C119.57 97.1129 119.596 97.0875 119.621 97.0622C119.773 96.9101 119.773 96.6819 119.621 96.5297C119.469 96.3776 119.241 96.3776 119.089 96.5297Z" fill="#161616"/>
<path d="M116.756 71.9361C115.235 72.8742 111.913 74.9279 109.657 79.1367C107.4 83.3202 107.426 87.2754 107.527 88.9742C103.825 95.6423 102.152 101.524 101.341 105.53C100.022 111.894 100.732 114.227 101.645 115.774C103.876 119.577 108.364 120.515 109.454 120.743C115.057 121.935 119.52 119.07 120.534 118.41C120.813 117.574 121.092 116.534 121.244 115.368C121.523 113.365 121.371 111.641 121.142 110.398C119.875 109.359 118.404 107.964 116.984 106.139C114.829 103.35 113.612 100.612 112.928 98.6341C110.696 98.4059 109.023 96.8847 108.871 95.1859C108.719 93.5886 109.834 91.5349 111.305 91.5349C112.395 91.5349 113.181 92.6505 113.333 92.8534C114.17 92.3716 115.336 91.5349 116.376 90.2165C117.872 88.3149 118.125 86.6162 118.81 84.8414C119.469 83.1173 120.737 80.734 123.475 78.2493C126.112 79.1874 128.216 80.1002 129.661 80.7848C134.301 82.9399 136.938 84.2076 138.992 86.9712C140.133 88.4924 140.716 89.9883 141.02 90.9264C143.378 89.1263 144.341 89.608 144.544 89.7094C146.04 90.5461 145.99 95.1352 143.657 96.4029C142.77 96.8847 141.755 96.7579 141.122 96.6058C140.386 99.1665 138.764 103.35 135.037 107.052C133.794 108.294 132.526 109.258 131.386 109.993C131.284 110.931 131.233 112.224 131.487 113.745C131.715 115.14 132.121 116.281 132.501 117.092C138.662 121.149 146.319 120.413 150.477 116.052C154.179 112.148 154.179 106.24 152.784 102.209C151.517 98.5327 149.057 96.3269 147.84 95.3634C148.17 93.9436 149.995 85.526 144.696 77.793C143.327 75.79 139.499 70.9473 132.603 69.2739C125.3 67.4992 119.292 70.3895 116.756 71.9361Z" fill="#5222D0"/>
<path opacity="0.17" d="M132.831 82.3567C135.696 85.957 136.456 89.2784 136.71 91.0025C137.749 98.2538 133.541 104.136 131.411 107.153C129.661 109.612 127.861 111.362 126.568 112.503C127.684 115.495 128.774 118.461 129.89 121.453C131.031 121.073 132.172 120.692 133.312 120.312C132.78 119.374 132.222 118.208 131.791 116.788C131.005 114.252 130.955 112.021 131.031 110.5C132.425 109.511 134.048 108.167 135.62 106.392C138.764 102.843 140.336 99.1919 141.147 96.7325C141.654 96.8339 142.744 96.9607 143.784 96.3776C145.964 95.1352 145.609 92.042 145.584 91.8392C145.508 91.18 145.356 90.1151 144.595 89.6841C143.708 89.2023 142.237 89.6587 141.071 91.0278C140.716 89.7855 139.702 86.9204 136.963 84.6386C135.442 83.3709 133.896 82.7116 132.831 82.3567Z" fill="#6D6C6C"/>
<path opacity="0.19" d="M125.402 88.5432C125.25 88.5178 124.743 90.7236 123.196 100.46C124.084 100.46 124.971 100.46 125.858 100.46C125.681 99.1666 125.478 97.2904 125.377 95.0085C125.25 91.104 125.554 88.5685 125.402 88.5432Z" fill="#6D6C6C"/>
<path opacity="0.54" d="M147.688 95.617C147.257 95.8706 148.88 98.051 148.652 101.296C148.576 102.311 148.424 104.618 146.598 106.164C146.471 106.266 143.758 108.497 141.071 107.077C139.473 106.24 138.51 104.466 138.561 102.539C137.8 103.959 136.558 105.835 134.605 107.66C133.388 108.801 132.197 109.638 131.157 110.272C131.081 111.387 131.081 112.909 131.487 114.633C131.715 115.571 131.994 116.382 132.273 117.041C133.059 117.548 134.225 118.233 135.746 118.765C136.71 119.095 142.009 120.946 147.181 118.385C148.094 117.929 150.122 116.889 151.593 114.658C151.77 114.379 152.429 113.39 152.911 111.717C154.635 105.987 152.1 100.815 151.872 100.384C150.477 97.5693 148.221 95.3128 147.688 95.617Z" fill="#341999"/>
<path opacity="0.35" d="M112.902 98.7355C112.674 98.7609 113.181 100.84 112.623 102.894C112.218 104.415 110.925 106.9 108.719 107.407C106.412 107.914 103.547 106.215 102.228 103.046C101.62 104.44 100.808 106.671 100.682 109.511C100.606 111.362 100.504 113.34 101.417 115.292C103.471 119.653 109.505 121.351 113.993 120.946C116.984 120.667 119.241 119.501 120.458 118.715C120.762 117.853 121.066 116.813 121.269 115.621C121.599 113.568 121.523 111.768 121.345 110.449C119.342 109.004 117.973 107.508 117.111 106.418C115.894 104.871 114.246 102.792 113.409 99.9018C113.283 99.5722 113.054 98.7102 112.902 98.7355Z" fill="#341999"/>
</svg>
