<svg width="844" height="673" viewBox="0 0 844 673" fill="none" xmlns="http://www.w3.org/2000/svg">
<path d="M164.243 558.852C223.655 558.852 283.068 558.852 342.48 558.852C401.698 558.852 460.915 558.852 520.068 558.852C553.536 558.852 587.069 558.852 620.537 558.852C621.77 558.852 621.77 556.906 620.537 556.906C561.125 556.906 501.713 556.906 442.3 556.906C383.083 556.906 323.865 556.906 264.712 556.906C231.244 556.906 197.711 556.906 164.243 556.906C163.011 556.906 163.011 558.852 164.243 558.852V558.852Z" fill="#E8E8E8"/>
<path d="M632.537 518.509C632.018 537.189 633.899 555.869 638.179 574.094C638.439 575.327 640.32 574.808 640.06 573.576C635.844 555.544 633.963 537.059 634.547 518.509C634.482 517.277 632.537 517.277 632.537 518.509V518.509Z" fill="#E8E8E8"/>
<path d="M709.785 520C711.601 537.253 710.499 554.701 706.542 571.565C706.283 572.797 708.099 573.316 708.423 572.083C712.445 555.025 713.612 537.448 711.731 520C711.601 518.768 709.656 518.768 709.785 520V520Z" fill="#E8E8E8"/>
<path d="M638.958 575.91C661.4 581.618 685.139 580.84 707.126 573.576C708.294 573.186 707.775 571.305 706.607 571.695C684.879 578.829 661.594 579.672 639.477 574.03C638.244 573.77 637.725 575.651 638.958 575.91V575.91Z" fill="#E8E8E8"/>
<path d="M633.445 519.417C658.675 524.801 684.814 524.671 709.98 519.093C711.212 518.834 710.694 516.953 709.461 517.212C684.62 522.725 658.805 522.79 633.964 517.536C632.731 517.277 632.212 519.158 633.445 519.417V519.417Z" fill="#E8E8E8"/>
<path d="M648.816 520.13C645.444 512.542 648.492 503.267 651.022 495.808C653.616 488.089 657.313 480.76 661.853 474.014C661.335 474.079 660.816 474.144 660.297 474.209C661.789 475.895 663.41 477.063 665.421 478.036C666.199 478.36 667.042 477.841 666.848 476.933C666.069 473.431 664.707 469.993 666.264 466.491C667.367 464.026 668.923 461.561 670.22 459.226C669.766 459.356 669.312 459.486 668.858 459.55C670.22 460.394 671.583 461.172 672.945 462.015C673.853 462.599 674.631 461.496 674.307 460.653C672.945 457.67 672.037 454.686 673.918 451.702C675.02 449.886 676.447 448.265 677.679 446.578C680.404 442.946 683.257 439.314 686.111 435.747C691.56 428.936 697.202 422.32 703.04 415.834C702.521 415.77 702.002 415.705 701.483 415.64C709.785 426.536 715.039 439.573 716.466 453.194C717.18 459.745 716.985 466.491 715.817 472.977C715.234 476.284 714.391 479.528 713.353 482.706C713.158 483.354 712.899 484.003 712.704 484.587C711.991 486.403 710.823 487.181 708.942 487.57C707.645 487.83 706.932 487.635 705.829 488.478C705.31 488.867 705.18 489.516 705.634 490.035C707.061 491.527 707.645 491.786 707.126 493.797C706.802 495.094 706.024 496.456 705.44 497.753C704.272 500.348 702.975 502.877 701.613 505.342C698.824 510.401 695.646 515.201 692.078 519.741C691.3 520.714 692.662 522.076 693.441 521.103C700.316 512.282 705.764 502.618 709.85 492.24C709.98 491.916 709.85 491.527 709.591 491.267C708.748 490.424 707.904 489.516 706.996 488.673C706.932 489.192 706.867 489.711 706.802 490.23C708.294 489.192 709.98 489.905 711.537 489.257C712.769 488.803 713.418 487.895 713.936 486.727C715.363 483.679 716.271 480.176 717.05 476.933C718.671 469.798 719.19 462.469 718.671 455.205C717.569 440.546 712.185 426.342 703.235 414.667C702.91 414.213 702.197 413.953 701.678 414.472C694.478 422.45 687.538 430.688 680.922 439.119C677.939 442.881 674.761 446.643 672.166 450.729C669.831 454.426 670.934 457.929 672.555 461.691C673.009 461.237 673.463 460.783 673.918 460.329C672.555 459.486 671.193 458.707 669.831 457.864C669.377 457.605 668.729 457.734 668.469 458.188C666.848 461.172 664.318 464.48 663.41 467.788C662.632 470.706 664.253 474.533 664.902 477.387C665.356 476.998 665.875 476.674 666.329 476.284C664.448 475.441 662.956 474.339 661.594 472.782C661.14 472.263 660.362 472.458 660.037 472.977C654.978 480.5 651.022 488.738 648.298 497.429C645.963 504.953 643.692 513.514 647 521.038C647.649 522.206 649.335 521.233 648.816 520.13V520.13Z" fill="#E8E8E8"/>
<path d="M701.613 430.558C699.019 459.94 678.912 483.484 670.545 511.115C670.156 512.347 672.037 512.801 672.426 511.634C680.793 483.808 700.965 460.199 703.559 430.558C703.689 429.261 701.678 429.326 701.613 430.558V430.558Z" fill="#E8E8E8"/>
<path d="M677.096 446.19C679.171 456.892 681.571 467.464 684.295 477.971C684.62 479.204 686.501 478.685 686.176 477.452C683.452 466.945 681.052 456.308 678.977 445.671C678.782 444.438 676.901 444.957 677.096 446.19V446.19Z" fill="#E8E8E8"/>
<path d="M699.019 453.065C704.662 448.979 709.526 444.114 713.742 438.471C714.52 437.498 712.834 436.526 712.056 437.498C708.099 442.817 703.429 447.487 698.046 451.379C697.073 452.157 698.046 453.843 699.019 453.065V453.065Z" fill="#E8E8E8"/>
<path d="M692.987 425.304C694.738 430.882 695.776 437.693 700.057 441.908C700.965 442.817 702.327 441.39 701.419 440.546C697.462 436.59 696.424 429.909 694.803 424.785C694.479 423.618 692.598 424.137 692.987 425.304V425.304Z" fill="#E8E8E8"/>
<path d="M644.925 519.612C640.968 516.498 638.569 512.153 636.558 507.612C634.288 502.294 632.342 496.845 630.591 491.332C627.283 480.76 624.883 469.863 623.456 458.902C620.537 435.941 622.872 412.721 620.083 389.696C619.5 389.89 618.851 390.02 618.267 390.215C625.532 406.56 642.525 416.354 656.665 426.083C656.535 425.629 656.405 425.175 656.34 424.721C654.395 427.51 652.449 430.299 650.503 433.088C650.049 433.736 650.633 434.579 651.346 434.579C653.876 434.579 656.081 434.255 658.481 433.412C658.092 433.282 657.767 433.088 657.378 432.958C659.778 436.655 662.178 440.352 664.578 444.049C664.643 443.66 664.707 443.271 664.707 442.881C663.54 443.984 662.567 445.216 661.594 446.579C661.27 447.033 661.594 447.941 662.178 448.005C667.496 448.784 669.377 453.843 670.739 458.383C671.129 459.551 673.01 459.097 672.62 457.864C670.999 452.74 668.664 446.968 662.697 446.125C662.891 446.579 663.086 447.097 663.281 447.551C664.124 446.254 664.967 445.346 666.07 444.308C666.394 444.049 666.459 443.465 666.199 443.141C663.799 439.444 661.4 435.747 659 432.05C658.805 431.725 658.351 431.466 657.897 431.596C655.692 432.309 653.551 432.698 651.281 432.634C651.541 433.152 651.865 433.606 652.124 434.125C654.07 431.336 656.016 428.547 657.962 425.758C658.286 425.304 658.027 424.721 657.638 424.396C643.757 414.862 627.088 405.327 619.954 389.242C619.564 388.399 618.008 388.788 618.138 389.761C620.991 413.629 618.462 437.757 621.835 461.561C623.456 473.042 626.115 484.327 629.812 495.289C632.796 504.175 635.909 515.006 643.498 521.038C644.536 521.752 645.898 520.39 644.925 519.612V519.612Z" fill="#E8E8E8"/>
<path d="M618.656 391.642C623.91 406.17 628.321 421.477 635.39 435.293C638.893 442.103 642.72 448.784 646.028 455.724C649.595 463.248 652.773 470.901 656.016 478.49C656.47 479.657 658.157 478.62 657.702 477.517C654.654 470.253 651.541 462.988 648.233 455.854C644.99 448.849 641.228 442.168 637.596 435.358C630.331 421.477 625.856 405.911 620.473 391.188C620.083 389.955 618.202 390.474 618.656 391.642V391.642Z" fill="#E8E8E8"/>
<path d="M621.121 440.936C628.126 441.779 635.78 442.168 641.098 447.422C642.006 448.33 643.368 446.903 642.46 446.06C636.752 440.482 628.645 439.963 621.121 439.055C619.889 438.86 619.889 440.806 621.121 440.936V440.936Z" fill="#E8E8E8"/>
<path d="M639.866 414.667C638.698 418.883 637.92 423.229 637.596 427.639C637.336 431.401 636.882 435.812 638.179 439.444C638.569 440.612 640.45 440.093 640.06 438.925C638.828 435.488 639.282 431.207 639.541 427.575C639.866 423.359 640.644 419.208 641.747 415.121C642.071 413.954 640.19 413.435 639.866 414.667V414.667Z" fill="#E8E8E8"/>
<path d="M625.532 476.285C630.591 476.415 635.455 476.48 640.385 477.842C645.249 479.204 650.049 480.631 654.914 482.058C656.146 482.382 656.665 480.501 655.432 480.177C650.244 478.685 645.12 477.063 639.866 475.701C635.131 474.469 630.396 474.534 625.532 474.404C624.299 474.274 624.299 476.22 625.532 476.285V476.285Z" fill="#E8E8E8"/>
<path d="M696.489 517.796C700.835 517.212 705.116 517.212 709.461 517.796C709.267 517.341 709.072 516.823 708.878 516.369C708.488 516.952 704.597 517.017 703.818 517.082C702.067 517.341 700.251 517.601 698.5 517.99C698.24 518.055 696.489 518.25 696.424 518.444C696.554 518.12 699.148 518.185 699.538 518.185C701.419 518.185 703.3 518.379 705.181 518.509C705.181 517.86 705.181 517.212 705.181 516.563C703.559 516.498 702.132 516.693 700.511 517.147C699.473 517.406 699.667 519.028 700.77 519.028C703.3 519.028 705.57 518.509 708.034 517.86C709.267 517.536 708.748 515.655 707.515 515.979C705.31 516.563 703.105 517.082 700.77 517.082C700.835 517.731 700.965 518.379 701.029 518.963C702.392 518.574 703.754 518.444 705.181 518.444C706.413 518.444 706.413 516.563 705.181 516.498C702.327 516.369 698.176 515.331 695.581 516.952C694.543 517.601 693.052 519.287 694.414 520.325C694.997 520.779 695.646 520.52 696.359 520.455C698.305 520.066 700.186 519.612 702.132 519.287C704.402 518.898 708.942 519.482 710.499 517.341C710.823 516.887 710.499 515.979 709.915 515.915C705.375 515.266 700.965 515.266 696.424 515.85C695.257 515.979 695.257 517.925 696.489 517.796V517.796Z" fill="#E8E8E8"/>
<path d="M634.288 519.028C635.196 518.768 636.104 518.574 637.012 518.509C637.466 518.509 637.855 518.444 638.309 518.509C638.504 518.509 639.412 518.444 639.477 518.509C639.412 518.184 639.282 517.86 639.217 517.536C639.217 517.601 639.152 517.665 639.152 517.665C639.542 517.471 639.931 517.211 640.32 517.017C640.255 517.017 640.19 517.017 640.19 517.017C640.385 517.211 640.644 517.471 640.839 517.665C640.839 517.601 640.839 517.536 640.774 517.536C640.45 516.303 638.633 516.822 638.893 518.055C638.893 518.12 638.893 518.184 638.958 518.184C639.023 518.509 639.347 518.768 639.606 518.833C639.671 518.833 639.736 518.833 639.736 518.833C640.255 518.963 640.709 518.703 640.904 518.184C640.904 518.12 640.968 518.055 640.968 518.055C641.098 517.73 640.968 517.341 640.709 517.082C639.996 516.368 638.439 516.498 637.531 516.498C636.234 516.498 634.872 516.757 633.639 517.082C632.601 517.471 633.12 519.352 634.288 519.028V519.028Z" fill="#E8E8E8"/>
<path d="M635.78 532.065C659.454 536.151 684.036 538.097 707.386 531.092C708.553 530.702 708.099 528.886 706.867 529.211C683.906 536.086 659.648 534.205 636.298 530.184C635.066 529.989 634.547 531.87 635.78 532.065V532.065Z" fill="#E8E8E8"/>
<path d="M717.309 558.722C758.885 558.722 800.525 558.722 842.101 558.722C843.333 558.722 843.333 556.776 842.101 556.776C800.525 556.776 758.885 556.776 717.309 556.776C716.012 556.776 716.012 558.722 717.309 558.722V558.722Z" fill="#E8E8E8"/>
<path d="M685.852 600.428C725.028 600.428 764.268 600.428 803.444 600.428C804.677 600.428 804.677 598.482 803.444 598.482C764.268 598.482 725.028 598.482 685.852 598.482C684.62 598.482 684.62 600.428 685.852 600.428V600.428Z" fill="#E8E8E8"/>
<path d="M703.689 600.233C699.019 604.125 694.349 607.952 689.744 611.843C688.771 612.622 690.133 613.984 691.106 613.206C695.776 609.314 700.446 605.487 705.051 601.595C706.024 600.817 704.597 599.39 703.689 600.233V600.233Z" fill="#E8E8E8"/>
<path d="M690.327 613.919C691.56 613.919 691.56 611.973 690.327 611.973C689.095 611.973 689.095 613.919 690.327 613.919V613.919Z" fill="#E8E8E8"/>
<path d="M710.11 611.973C670.61 611.973 631.11 611.973 591.61 611.973C590.377 611.973 590.377 613.919 591.61 613.919C631.11 613.919 670.61 613.919 710.11 613.919C711.342 613.919 711.342 611.973 710.11 611.973V611.973Z" fill="#E8E8E8"/>
<path d="M591.415 632.08C598.42 626.243 605.62 620.665 613.014 615.281C613.987 614.568 613.078 612.881 612.041 613.595C604.517 619.043 597.188 624.751 590.053 630.653C589.08 631.496 590.442 632.858 591.415 632.08V632.08Z" fill="#E8E8E8"/>
<path d="M0.924263 596.666C46.7158 596.666 92.5074 596.666 138.299 596.666C151.271 596.666 164.243 596.666 177.215 596.666C178.448 596.666 178.448 594.72 177.215 594.72C131.424 594.72 85.6322 594.72 39.8406 594.72C26.8685 594.72 13.8964 594.72 0.924263 594.72C-0.308088 594.72 -0.308088 596.666 0.924263 596.666V596.666Z" fill="#E8E8E8"/>
<path d="M24.8577 613.595C31.0195 608.341 37.2461 603.087 43.4078 597.833C44.3807 596.99 42.9538 595.628 42.0458 596.471C35.884 601.725 29.6574 606.979 23.4956 612.232C22.5227 613.011 23.9497 614.438 24.8577 613.595V613.595Z" fill="#E8E8E8"/>
<path d="M2.54585 615.475C45.0944 615.475 87.6429 615.475 130.191 615.475C131.424 615.475 131.424 613.53 130.191 613.53C87.6429 613.53 45.0944 613.53 2.54585 613.53C1.31349 613.53 1.31349 615.475 2.54585 615.475V615.475Z" fill="#E8E8E8"/>
<path d="M115.338 615.086C110.474 620.535 105.479 625.853 100.42 631.172C99.5772 632.08 100.939 633.442 101.782 632.534C106.842 627.215 111.771 621.897 116.7 616.448C117.608 615.54 116.181 614.178 115.338 615.086V615.086Z" fill="#E8E8E8"/>
<path d="M82.1298 634.285C119.554 634.285 156.914 634.285 194.339 634.285C195.571 634.285 195.571 632.339 194.339 632.339C156.914 632.339 119.554 632.339 82.1298 632.339C80.8975 632.339 80.8975 634.285 82.1298 634.285V634.285Z" fill="#E8E8E8"/>
<path d="M55.6018 564.041C71.4277 564.041 87.2537 564.041 103.145 564.041C104.377 564.041 104.377 562.095 103.145 562.095C87.3186 562.095 71.4926 562.095 55.6018 562.095C54.3694 562.095 54.3694 564.041 55.6018 564.041V564.041Z" fill="#E8E8E8"/>
<path d="M115.144 570.397C120.008 570.397 124.938 570.397 129.802 570.397C131.035 570.397 131.035 568.451 129.802 568.451C124.938 568.451 120.008 568.451 115.144 568.451C113.847 568.451 113.847 570.397 115.144 570.397V570.397Z" fill="#E8E8E8"/>
<path d="M79.9246 223.588C79.9246 234.16 79.9246 244.797 79.9246 255.37C79.9246 256.602 81.8704 256.602 81.8704 255.37C81.8704 244.797 81.8704 234.16 81.8704 223.588C81.8704 222.356 79.9246 222.356 79.9246 223.588V223.588Z" fill="#E8E8E8"/>
<path d="M47.2995 256.926C73.3735 256.926 99.4474 256.926 125.521 256.926C126.754 256.926 126.754 254.98 125.521 254.98C99.4474 254.98 73.3735 254.98 47.2995 254.98C46.0672 254.98 46.0672 256.926 47.2995 256.926V256.926Z" fill="#E8E8E8"/>
<path d="M101.912 257.834C101.912 266.007 101.912 274.114 101.912 282.287C101.912 283.519 103.858 283.519 103.858 282.287C103.858 274.114 103.858 266.007 103.858 257.834C103.858 256.537 101.912 256.537 101.912 257.834V257.834Z" fill="#E8E8E8"/>
<path d="M80.3137 285.66C101.069 285.66 121.889 285.66 142.645 285.66C143.877 285.66 143.877 283.714 142.645 283.714C121.889 283.714 101.069 283.714 80.3137 283.714C79.0165 283.714 79.0165 285.66 80.3137 285.66V285.66Z" fill="#E8E8E8"/>
<path d="M603.739 200.822C603.739 203.416 603.739 205.946 603.739 208.54C603.739 209.773 605.684 209.773 605.684 208.54C605.684 205.946 605.684 203.416 605.684 200.822C605.684 199.59 603.739 199.59 603.739 200.822V200.822Z" fill="#E8E8E8"/>
<path d="M605.295 202.379C649.919 202.379 694.543 202.379 739.167 202.379C740.4 202.379 740.4 200.433 739.167 200.433C694.543 200.433 649.919 200.433 605.295 200.433C604.063 200.433 604.063 202.379 605.295 202.379V202.379Z" fill="#E8E8E8"/>
<path d="M606.463 209.513C650.698 209.513 694.932 209.513 739.102 209.513C740.335 209.513 740.335 207.568 739.102 207.568C694.868 207.568 650.633 207.568 606.463 207.568C605.23 207.568 605.23 209.513 606.463 209.513V209.513Z" fill="#E8E8E8"/>
<path d="M738.843 200.822C738.584 203.481 738.713 206.141 739.167 208.8C739.362 210.032 741.243 209.513 741.048 208.281C740.594 205.816 740.53 203.287 740.789 200.822C740.919 199.59 738.973 199.59 738.843 200.822V200.822Z" fill="#E8E8E8"/>
<path d="M614.44 200.887C614.44 182.791 614.44 164.694 614.44 146.598C614.44 145.366 612.495 145.366 612.495 146.598C612.495 164.694 612.495 182.791 612.495 200.887C612.495 202.184 614.44 202.184 614.44 200.887V200.887Z" fill="#E8E8E8"/>
<path d="M614.44 146.923C619.954 144.718 625.791 145.042 630.915 148.09C632.018 148.739 632.991 147.052 631.888 146.404C626.375 143.161 619.824 142.642 613.922 145.042C612.754 145.496 613.273 147.377 614.44 146.923V146.923Z" fill="#E8E8E8"/>
<path d="M630.591 147.636C630.591 165.019 630.591 182.466 630.591 199.849C630.591 201.081 632.537 201.081 632.537 199.849C632.537 182.466 632.537 165.019 632.537 147.636C632.537 146.404 630.591 146.404 630.591 147.636V147.636Z" fill="#E8E8E8"/>
<path d="M632.796 162.165C636.753 160.543 640.904 160.803 644.601 163.073C645.703 163.721 646.676 162.035 645.574 161.386C641.487 158.922 636.688 158.468 632.277 160.284C631.11 160.738 631.629 162.619 632.796 162.165V162.165Z" fill="#E8E8E8"/>
<path d="M644.211 163.008C644.211 175.202 644.211 187.331 644.211 199.525C644.211 200.757 646.157 200.757 646.157 199.525C646.157 187.331 646.157 175.202 646.157 163.008C646.157 161.776 644.211 161.776 644.211 163.008V163.008Z" fill="#E8E8E8"/>
<path d="M614.7 161.84C620.213 160.608 625.661 160.997 630.98 162.878C632.147 163.267 632.666 161.386 631.499 160.997C625.856 158.987 620.018 158.727 614.181 159.96C613.014 160.219 613.532 162.1 614.7 161.84V161.84Z" fill="#E8E8E8"/>
<path d="M631.434 184.347C635.585 183.245 639.736 183.115 643.952 184.023C645.184 184.282 645.703 182.401 644.471 182.142C639.931 181.169 635.455 181.234 630.915 182.466C629.748 182.791 630.202 184.672 631.434 184.347V184.347Z" fill="#E8E8E8"/>
<path d="M668.729 200.238C668.729 196.606 668.729 192.974 668.729 189.341C668.729 188.109 666.783 188.109 666.783 189.341C666.783 192.974 666.783 196.606 666.783 200.238C666.783 201.47 668.729 201.47 668.729 200.238V200.238Z" fill="#E8E8E8"/>
<path d="M667.756 189.925C688.836 189.925 709.85 189.925 730.93 189.925C732.162 189.925 732.162 187.979 730.93 187.979C709.85 187.979 688.836 187.979 667.756 187.979C666.459 187.979 666.459 189.925 667.756 189.925V189.925Z" fill="#E8E8E8"/>
<path d="M731.579 190.963C732.811 190.963 732.811 189.017 731.579 189.017C730.282 189.017 730.282 190.963 731.579 190.963V190.963Z" fill="#E8E8E8"/>
<path d="M730.606 189.99C730.606 193.298 730.606 196.606 730.606 199.914C730.606 201.146 732.552 201.146 732.552 199.914C732.552 196.606 732.552 193.298 732.552 189.99C732.552 188.758 730.606 188.758 730.606 189.99V189.99Z" fill="#E8E8E8"/>
<path d="M680.988 188.628C680.988 185.19 680.988 181.818 680.988 178.38C680.988 177.148 679.042 177.148 679.042 178.38C679.042 181.818 679.042 185.19 679.042 188.628C679.042 189.86 680.988 189.86 680.988 188.628V188.628Z" fill="#E8E8E8"/>
<path d="M680.015 179.029C700.705 179.029 721.396 179.029 742.151 179.029C743.383 179.029 743.383 177.083 742.151 177.083C721.461 177.083 700.77 177.083 680.015 177.083C678.782 177.083 678.782 179.029 680.015 179.029V179.029Z" fill="#E8E8E8"/>
<path d="M741.502 178.056C741.502 180.91 741.502 183.764 741.502 186.618C741.502 187.85 743.448 187.85 743.448 186.618C743.448 183.764 743.448 180.91 743.448 178.056C743.448 176.759 741.502 176.759 741.502 178.056V178.056Z" fill="#E8E8E8"/>
<path d="M730.217 190.25C733.978 190.25 737.74 190.25 741.502 190.25C742.735 190.25 742.735 188.304 741.502 188.304C737.74 188.304 733.978 188.304 730.217 188.304C728.919 188.304 728.919 190.25 730.217 190.25V190.25Z" fill="#E8E8E8"/>
<path d="M741.373 186.682C741.243 187.396 741.243 188.044 741.437 188.693C741.567 189.212 742.151 189.536 742.605 189.342C743.124 189.212 743.448 188.628 743.254 188.174C743.189 187.85 743.124 187.461 743.189 187.201C743.254 186.682 743.059 186.099 742.54 186.034C742.086 185.904 741.437 186.164 741.373 186.682V186.682Z" fill="#E8E8E8"/>
<path d="M694.803 178.51C695.646 181.818 695.841 185.191 695.387 188.628C695.257 189.861 697.203 189.861 697.332 188.628C697.786 185.061 697.527 181.494 696.684 177.991C696.359 176.824 694.479 177.342 694.803 178.51V178.51Z" fill="#E8E8E8"/>
<path d="M709.461 189.796C709.915 193.039 709.656 196.217 708.878 199.33C708.553 200.562 710.434 201.081 710.758 199.849C711.667 196.346 711.861 192.844 711.342 189.277C711.212 188.044 709.332 188.563 709.461 189.796V189.796Z" fill="#E8E8E8"/>
<path d="M696.749 268.731C696.749 273.855 696.749 278.914 696.749 284.038C696.749 285.27 698.694 285.27 698.694 284.038C698.694 278.914 698.694 273.855 698.694 268.731C698.694 267.434 696.749 267.434 696.749 268.731V268.731Z" fill="#E8E8E8"/>
<path d="M681.701 284.297C694.673 284.297 707.645 284.297 720.617 284.297C721.85 284.297 721.85 282.352 720.617 282.352C707.645 282.352 694.673 282.352 681.701 282.352C680.469 282.352 680.469 284.297 681.701 284.297V284.297Z" fill="#E8E8E8"/>
<path d="M659.583 66.1064C659.583 77.7813 659.583 89.5211 659.583 101.196C659.583 102.428 661.529 102.428 661.529 101.196C661.529 89.5211 661.529 77.7813 661.529 66.1064C661.529 64.874 659.583 64.874 659.583 66.1064V66.1064Z" fill="#E8E8E8"/>
<path d="M662.048 66.0415C676.836 66.0415 691.56 66.0415 706.348 66.0415C707.58 66.0415 707.58 64.0957 706.348 64.0957C691.56 64.0957 676.836 64.0957 662.048 64.0957C660.816 64.0957 660.816 66.0415 662.048 66.0415V66.0415Z" fill="#E8E8E8"/>
<path d="M706.413 65.7819C706.413 77.0677 706.413 88.3534 706.413 99.5743C706.413 100.807 708.359 100.807 708.359 99.5743C708.359 88.2886 708.359 77.0028 708.359 65.7819C708.359 64.5496 706.413 64.5496 706.413 65.7819V65.7819Z" fill="#E8E8E8"/>
<path d="M660.297 102.299C675.993 102.299 691.689 102.299 707.386 102.299C708.618 102.299 708.618 100.353 707.386 100.353C691.689 100.353 675.993 100.353 660.297 100.353C659.064 100.353 659.064 102.299 660.297 102.299V102.299Z" fill="#E8E8E8"/>
<path d="M663.929 70.1279C663.929 79.0138 663.929 87.8348 663.929 96.7207C663.929 97.9531 665.875 97.9531 665.875 96.7207C665.875 87.8348 665.875 79.0138 665.875 70.1279C665.875 68.8955 663.929 68.8955 663.929 70.1279V70.1279Z" fill="#E8E8E8"/>
<path d="M665.356 70.9063C677.485 70.9063 689.679 70.9063 701.808 70.9063C703.04 70.9063 703.04 68.9604 701.808 68.9604C689.679 68.9604 677.485 68.9604 665.356 68.9604C664.124 68.9604 664.124 70.9063 665.356 70.9063V70.9063Z" fill="#E8E8E8"/>
<path d="M701.094 70.1279C701.094 78.3652 701.094 86.5376 701.094 94.7749C701.094 96.0072 703.04 96.0072 703.04 94.7749C703.04 86.5376 703.04 78.3652 703.04 70.1279C703.04 68.8955 701.094 68.8955 701.094 70.1279V70.1279Z" fill="#E8E8E8"/>
<path d="M665.356 97.6934C677.42 97.6934 689.484 97.6934 701.613 97.6934C702.846 97.6934 702.846 95.7476 701.613 95.7476C689.549 95.7476 677.485 95.7476 665.356 95.7476C664.124 95.7476 664.124 97.6934 665.356 97.6934V97.6934Z" fill="#E8E8E8"/>
<path d="M688.317 86.0186C683.193 82.127 690.846 74.0194 694.414 78.884C697.721 83.2945 692.338 88.613 687.733 86.1483C686.63 85.5646 685.657 87.251 686.76 87.8347C689.744 89.4562 693.7 89.0022 695.84 86.2132C698.046 83.4242 697.786 79.0137 694.997 76.6787C692.079 74.2789 687.927 75.9004 685.917 78.6245C683.776 81.6081 684.425 85.4997 687.344 87.705C688.381 88.4185 689.29 86.7321 688.317 86.0186V86.0186Z" fill="#E8E8E8"/>
<path d="M682.155 95.6183C681.895 90.4943 688.187 88.5485 692.143 88.5485C697.008 88.5485 698.565 92.8942 700.575 96.5912C701.159 97.6938 702.845 96.7209 702.262 95.6183C700.9 93.1536 699.602 89.9106 697.332 88.0945C695.257 86.473 692.662 86.5378 690.198 86.7973C685.657 87.3161 679.885 90.1051 680.209 95.6183C680.274 96.8506 682.22 96.8506 682.155 95.6183V95.6183Z" fill="#E8E8E8"/>
<path d="M666.199 90.9481C667.626 88.2888 672.88 89.3266 674.826 90.3644C676.836 91.467 678.004 93.2831 678.523 95.4884C678.782 96.7207 680.663 96.2018 680.404 94.9695C679.625 91.5967 677.29 88.9374 673.918 87.8348C671.064 86.9268 666.199 86.8619 664.578 89.9103C663.929 91.0778 665.616 92.0507 666.199 90.9481V90.9481Z" fill="#E8E8E8"/>
<path d="M669.961 86.1484C667.821 86.0836 668.34 82.9054 669.248 81.8028C670.415 80.3758 672.75 80.1812 674.112 81.5433C675.215 82.5811 675.539 84.5269 674.631 85.7592C673.983 86.6673 673.01 86.8619 671.972 86.8619C671.583 86.8619 669.961 86.9267 669.702 86.6024C668.988 85.5647 667.302 86.5376 668.015 87.5753C668.794 88.7428 670.415 88.8077 671.712 88.8077C673.269 88.8726 674.761 88.4834 675.864 87.3159C677.939 85.0458 677.226 81.219 674.761 79.5326C672.102 77.7814 668.405 78.7543 667.042 81.6082C665.875 84.1377 666.718 87.9645 669.961 88.0294C671.258 88.1591 671.258 86.2133 669.961 86.1484V86.1484Z" fill="#E8E8E8"/>
<path d="M273.014 238.506C276.063 240.971 279.825 239.933 282.679 237.533C286.7 234.225 288.711 228.582 289.489 223.588C291.5 210.875 286.376 198.811 284.365 186.488C280.733 163.592 290.721 139.075 309.271 125.324C318.287 118.579 333.14 111.379 329.638 97.564C329.313 96.3317 327.432 96.8506 327.757 98.0829C331.065 111.25 315.758 117.93 307.391 124.287C299.867 130.059 293.77 137.518 289.424 145.885C285.143 153.993 282.549 163.008 281.835 172.154C280.992 183.245 283.911 193.558 286.311 204.26C287.738 210.746 288.646 217.556 287.413 224.172C286.83 227.22 285.792 230.204 284.17 232.863C282.354 235.717 278.009 240.128 274.377 237.209C273.468 236.366 272.042 237.728 273.014 238.506V238.506Z" fill="#E8E8E8"/>
<path d="M328.924 96.7858C321.595 97.1101 315.174 91.4024 315.563 83.8786C315.952 76.0304 325.227 68.766 333.075 70.8416C340.08 72.7225 345.464 80.4409 343.712 87.6405C341.961 94.84 333.854 96.3966 327.627 97.4344C326.395 97.629 326.914 99.51 328.146 99.3154C336.189 98.0182 345.529 95.1643 346.047 85.4352C346.437 77.5222 339.367 68.9606 331.259 68.6363C322.698 68.2472 314.071 75.2521 313.617 83.9434C313.228 92.505 320.557 99.1208 328.924 98.7965C330.157 98.6668 330.157 96.7209 328.924 96.7858V96.7858Z" fill="#E8E8E8"/>
<path d="M319.325 91.7267C322.438 83.8786 339.043 82.5814 340.988 91.9213C341.248 93.1537 343.129 92.6348 342.869 91.4024C340.469 79.987 321.206 81.6733 317.444 91.2078C316.99 92.3753 318.871 92.8294 319.325 91.7267V91.7267Z" fill="#E8E8E8"/>
<path d="M329.054 82.9704C327.692 81.9975 327.173 80.1165 328.081 78.6896C329.119 76.9384 331.324 76.7438 333.01 77.6518C334.308 78.3653 334.567 79.9868 333.789 81.2192C332.816 82.7109 330.74 82.9055 329.119 82.5164C327.886 82.2569 327.368 84.1379 328.6 84.3973C331.194 84.9811 334.308 84.3973 335.605 81.8678C336.772 79.5976 335.929 76.8735 333.594 75.7709C331 74.6034 327.886 75.1223 326.395 77.6518C324.903 80.0517 325.876 83.0353 328.081 84.5919C329.119 85.4351 330.092 83.7487 329.054 82.9704V82.9704Z" fill="#E8E8E8"/>
<path d="M356.555 62.9935C363.365 44.9622 382.953 35.752 401.179 34.5197C413.243 33.6765 425.307 35.5574 437.112 37.8276C448.268 40.0328 459.878 43.5353 471.293 43.1461C480.698 42.8218 490.362 38.9302 494.773 30.174C495.356 29.0714 493.67 28.0985 493.086 29.2011C487.962 39.3194 476.158 41.9138 465.715 41.0706C453.521 40.0977 441.522 36.4655 429.523 34.4548C410.065 31.2118 389.309 30.7578 371.992 41.7192C364.144 46.7135 357.917 53.7184 354.609 62.4746C354.22 63.6421 356.101 64.161 356.555 62.9935V62.9935Z" fill="#E8E8E8"/>
<path d="M502.621 29.0713C519.744 29.0713 536.932 29.0713 554.055 29.0713C555.288 29.0713 555.288 27.1255 554.055 27.1255C536.932 27.1255 519.744 27.1255 502.621 27.1255C501.324 27.1255 501.324 29.0713 502.621 29.0713V29.0713Z" fill="#E8E8E8"/>
<path d="M501.907 26.9956C498.859 24.012 502.167 18.9529 504.567 16.6828C507.485 13.8289 511.507 12.7263 515.398 14.2829C515.723 14.4127 516.371 14.2181 516.501 13.8289C518.836 8.38063 524.349 4.42413 530.381 4.68357C536.672 4.94302 541.991 9.67784 543.548 15.645C543.677 16.2288 544.456 16.5531 544.975 16.2288C547.829 14.4775 550.747 16.5531 551.915 19.2123C552.952 21.677 552.693 24.466 552.434 27.1253C552.304 28.3577 554.25 28.3577 554.379 27.1253C554.769 23.2337 555.028 18.6286 551.915 15.645C549.709 13.5695 546.661 12.9209 544.067 14.5424C544.521 14.737 545.04 14.9315 545.494 15.1261C543.742 8.64007 538.164 3.45122 531.354 2.80262C524.349 2.08915 517.603 6.43481 514.879 12.856C515.268 12.7263 515.593 12.5317 515.982 12.402C510.793 10.3264 505.345 12.5317 501.972 16.8125C499.443 19.9907 497.237 25.1147 500.675 28.4225C501.453 29.2657 502.815 27.9037 501.907 26.9956V26.9956Z" fill="#E8E8E8"/>
<path d="M538.813 36.5303C546.791 35.6223 551.461 43.9893 552.693 50.7348C553.99 57.6749 552.758 64.615 552.044 71.5551C550.942 81.9976 551.655 94.5806 561.579 100.677C562.617 101.326 563.655 99.6397 562.552 98.9911C548.996 90.6889 554.639 72.2037 555.158 59.491C555.547 49.8268 551.72 33.1576 538.813 34.5845C537.581 34.7142 537.581 36.6601 538.813 36.5303V36.5303Z" fill="#E8E8E8"/>
<path d="M572.346 89.7159C566.509 104.439 560.736 119.163 554.899 133.821C554.444 134.989 556.325 135.507 556.779 134.34C562.617 119.617 568.39 104.893 574.227 90.2348C574.681 89.0673 572.8 88.6133 572.346 89.7159V89.7159Z" fill="#E8E8E8"/>
<path d="M573.254 90.9484C583.372 90.4296 593.426 90.689 603.479 91.8565C603.155 91.4673 602.83 91.0133 602.571 90.6241C597.771 105.996 593.88 121.563 590.766 137.324C590.507 138.556 592.388 139.075 592.647 137.843C595.761 122.082 599.717 106.515 604.452 91.143C604.646 90.4944 604.128 89.9755 603.544 89.9107C593.49 88.7432 583.437 88.4837 573.319 89.0026C572.022 89.0675 572.022 91.0133 573.254 90.9484V90.9484Z" fill="#E8E8E8"/>
<path d="M555.352 135.702C561.32 135.962 567.222 136.286 573.189 136.675C578.962 136.999 585.123 136.87 590.572 139.075C591.739 139.529 592.258 137.648 591.091 137.194C585.902 135.053 580 135.183 574.486 134.859C568.13 134.47 561.774 134.145 555.352 133.821C554.12 133.691 554.12 135.637 555.352 135.702V135.702Z" fill="#E8E8E8"/>
<path d="M574.162 97.4343C580.389 97.564 586.615 98.018 592.777 98.8612C594.009 99.0558 594.528 97.1748 593.296 96.9802C586.94 96.0722 580.583 95.5533 574.162 95.4236C572.865 95.4236 572.865 97.3694 574.162 97.4343V97.4343Z" fill="#E8E8E8"/>
<path d="M572.281 101.845C575.784 101.715 579.286 101.78 582.789 102.104C584.021 102.234 584.021 100.288 582.789 100.158C579.286 99.8342 575.784 99.7045 572.281 99.899C571.049 99.9639 571.049 101.91 572.281 101.845V101.845Z" fill="#E8E8E8"/>
<path d="M568 110.601C575.459 110.147 582.529 109.498 589.858 111.314C591.091 111.639 591.61 109.758 590.377 109.433C582.853 107.617 575.654 108.201 568 108.655C566.703 108.72 566.703 110.666 568 110.601V110.601Z" fill="#E8E8E8"/>
<path d="M568.324 116.309C572.605 115.985 576.886 115.985 581.167 116.374C582.399 116.504 582.399 114.558 581.167 114.428C576.886 114.039 572.605 114.039 568.324 114.363C567.092 114.493 567.027 116.439 568.324 116.309V116.309Z" fill="#E8E8E8"/>
<path d="M564.952 123.833C570.789 123.443 576.497 123.638 582.27 124.416C583.502 124.611 583.502 122.665 582.27 122.47C576.497 121.692 570.724 121.498 564.952 121.887C563.72 121.952 563.72 123.897 564.952 123.833V123.833Z" fill="#E8E8E8"/>
<path d="M242.206 36.7897C244.8 40.2922 248.562 41.7191 252.389 43.4704C256.929 45.5459 261.08 48.3349 264.453 52.032C272.106 60.2693 274.636 71.3604 274.83 82.3218C275.284 102.883 268.344 124.416 277.684 143.875C278.203 144.977 279.89 144.004 279.371 142.902C269.577 122.406 278.268 99.445 276.582 77.9113C275.868 68.5714 273.209 59.4261 267.177 52.1617C264.323 48.7241 260.821 45.7405 256.929 43.5352C252.583 41.0705 246.94 39.9679 243.892 35.8168C243.178 34.8439 241.492 35.8168 242.206 36.7897V36.7897Z" fill="#E8E8E8"/>
<path d="M220.023 9.3537C218.337 7.2133 218.467 5.7215 220.412 4.87832C221.256 4.42429 222.099 4.09999 223.072 3.90541C224.304 3.64597 225.666 3.5811 226.963 3.64596C230.855 3.84055 234.812 4.87832 234.617 9.61314C234.422 15.1911 233.385 20.7043 232.023 26.0877C230.596 31.6009 228.844 36.9843 226.963 42.3677C226.574 43.5352 226.25 44.8973 225.666 45.9999C224.499 48.0106 222.683 47.9457 220.737 47.9457C218.337 47.9457 215.289 48.27 212.954 47.6214C210.359 46.908 209.775 44.3136 212.305 42.6272C213.472 41.8488 215.094 41.7191 216.456 41.7191C218.207 41.7191 219.764 42.1083 221.256 40.9408C224.11 38.7355 224.564 32.7684 225.212 29.5902C226.185 24.9851 227.807 19.3422 227.482 14.6723C227.223 11.1049 223.72 10.9752 221.191 9.48342C220.088 8.83481 219.115 10.5212 220.218 11.1698C222.229 12.3373 225.147 12.467 225.536 15.1263C225.991 18.2396 224.693 22.4555 224.11 25.5688C223.526 28.5524 222.877 31.536 222.099 34.4547C221.515 36.66 221.256 39.3193 218.337 39.903C217.169 40.1625 215.743 39.7733 214.51 39.9679C211.397 40.4219 208.348 42.6272 208.802 46.1296C209.386 50.5402 214.64 49.7618 217.883 49.8916C221.904 50.0213 225.926 50.605 227.742 46.3242C230.012 41.0057 231.633 35.1682 233.19 29.6551C234.812 23.9473 236.044 18.045 236.498 12.1427C236.887 7.5376 237.082 3.84055 231.958 2.6082C227.482 1.50557 221.321 0.986681 217.818 4.61887C215.483 7.01872 216.067 11.7535 220.088 11.4292C221.256 11.1698 221.256 9.22398 220.023 9.3537V9.3537Z" fill="#E8E8E8"/>
<path d="M212.175 16.2938C212.11 16.229 212.045 16.1641 211.98 16.0992C211.721 15.8398 211.332 15.7749 211.008 15.8398C209.127 16.4884 208.413 19.5369 207.894 21.2232C206.986 24.3365 206.792 27.5147 207.246 30.7577C207.375 31.9901 209.321 31.9901 209.191 30.7577C208.932 28.4876 208.867 26.2824 209.256 24.0122C209.451 22.8447 211.462 18.3045 210.748 17.6559C211.656 18.5639 213.018 17.2019 212.175 16.2938V16.2938Z" fill="#E8E8E8"/>
<path d="M205.624 9.15917C199.657 16.7479 195.83 25.8932 198.36 35.6223C198.684 36.8546 200.565 36.3357 200.241 35.1034C197.906 26.1526 201.538 17.5262 206.986 10.5212C207.765 9.54833 206.403 8.18626 205.624 9.15917V9.15917Z" fill="#E8E8E8"/>
<path d="M197.452 0.402992C187.528 13.44 182.858 29.9146 184.544 46.2594C184.674 47.4918 186.62 47.4918 186.49 46.2594C184.869 30.2389 189.344 14.2183 199.138 1.3759C199.852 0.402992 198.165 -0.569917 197.452 0.402992V0.402992Z" fill="#E8E8E8"/>
<path d="M183.636 66.6904C178.642 69.0902 173.972 72.3981 170.275 76.5492C166.513 80.83 165.346 85.4351 164.762 91.0131C163.465 103.791 158.73 117.801 145.888 123.184C144.72 123.638 145.239 125.519 146.406 125.065C156.654 120.784 162.622 111.055 165.151 100.548C166.643 94.2561 165.929 86.7972 169.237 81.1543C172.61 75.3817 178.707 71.1658 184.609 68.3119C185.777 67.8579 184.804 66.1715 183.636 66.6904V66.6904Z" fill="#E8E8E8"/>
<path d="M118.452 157.625C114.171 157.755 109.306 155.939 107.75 151.528C105.934 146.339 109.825 141.28 113.976 138.621C122.019 133.432 132.851 131.421 142.191 131.292C146.925 131.227 152.309 131.292 156.46 133.821C161.778 137.064 162.687 143.161 158.535 147.766C152.244 154.771 141.412 155.485 132.721 156.133C131.489 156.198 131.489 158.144 132.721 158.079C141.412 157.431 151.141 156.652 158.146 150.815C164.567 145.496 165.021 136.675 157.498 132.07C149.714 127.335 137.845 128.892 129.413 130.708C121.305 132.459 110.214 135.637 106.582 144.004C102.82 152.566 110.02 159.701 118.581 159.441C119.749 159.506 119.749 157.56 118.452 157.625V157.625Z" fill="#E8E8E8"/>
<path d="M118.127 158.403C116.506 160.998 114.949 163.592 113.328 166.122C112.809 166.965 113.847 167.873 114.69 167.484C118.646 165.343 122.927 163.981 126.948 162.1C129.154 161.127 131.294 159.96 133.37 158.663C134.083 158.209 134.926 157.949 135.121 157.041C135.251 156.587 134.991 155.939 134.472 155.874C134.407 155.874 134.343 155.874 134.278 155.809C133.824 155.744 133.175 155.939 133.11 156.458C133.11 156.522 133.11 156.522 133.11 156.587C132.851 157.82 134.732 158.338 134.991 157.106C134.991 157.041 134.991 157.041 134.991 156.976C134.602 157.171 134.213 157.43 133.824 157.625C133.889 157.625 133.953 157.625 134.018 157.69C133.824 157.301 133.564 156.912 133.37 156.522C133.175 157.171 129.543 158.663 128.765 159.117C126.819 160.155 124.808 160.998 122.733 161.841C119.684 163.073 116.7 164.241 113.847 165.797C114.301 166.251 114.755 166.705 115.209 167.16C116.83 164.565 118.387 161.971 120.008 159.441C120.462 158.338 118.776 157.366 118.127 158.403V158.403Z" fill="#E8E8E8"/>
<path d="M120.268 147.182C120.203 147.053 120.203 146.793 120.397 146.793C120.916 146.793 120.332 147.442 120.268 147.507C119.943 147.701 118.841 147.961 118.906 147.312C118.97 146.534 120.462 145.691 120.722 146.858C120.786 147.182 120.527 147.572 120.203 147.636C120.008 147.701 119.878 147.701 119.749 147.572C119.684 147.507 119.554 147.442 119.684 147.442C120.916 147.507 120.916 145.561 119.684 145.496C118.387 145.366 117.414 146.728 117.738 147.961C118.062 149.193 119.489 149.842 120.657 149.517C121.824 149.193 122.732 148.155 122.732 146.923C122.732 145.691 121.759 144.653 120.657 144.393C118.257 143.81 115.727 147.312 117.803 149.063C119.489 150.49 122.862 149.193 122.667 146.793C122.538 145.496 121.111 144.458 119.814 144.912C118.516 145.366 117.997 146.988 118.646 148.155C119.165 149.258 120.851 148.285 120.268 147.182V147.182Z" fill="#E8E8E8"/>
<path d="M134.602 145.431C134.537 145.042 134.342 144.523 134.732 144.199C134.926 144.004 135.25 144.004 135.51 144.004C136.158 144.134 136.029 144.847 135.575 145.172C135.315 145.366 135.056 145.366 134.861 145.107C134.667 144.847 134.732 144.783 134.926 144.653C135.056 144.588 134.667 144.653 134.991 144.588C135.769 144.458 134.472 145.366 134.667 144.718C134.278 145.95 136.158 146.404 136.548 145.237C136.872 144.069 135.769 142.902 134.602 143.096C133.24 143.356 132.915 144.977 133.759 145.95C134.537 146.858 135.964 146.663 136.548 145.626C137.131 144.588 136.742 143.226 135.575 142.837C134.407 142.448 133.11 143.161 132.851 144.329C132.526 145.626 133.434 146.923 134.732 147.247C137.067 147.766 139.012 144.588 137.326 142.837C136.483 141.994 135.121 141.929 134.083 142.383C132.656 143.096 132.591 144.588 132.851 145.95C132.915 147.182 134.796 146.663 134.602 145.431V145.431Z" fill="#E8E8E8"/>
<path d="M149.001 141.085C149.26 141.085 149.52 141.15 149.844 141.15V141.085C149.909 141.02 149.909 140.891 149.974 140.826C150.039 140.696 150.233 140.566 150.363 140.502C150.687 140.372 151.012 140.372 151.206 140.696C151.466 141.215 151.012 142.188 150.363 141.799C149.974 141.539 149.909 140.891 150.493 141.02C150.622 141.02 150.687 141.085 150.752 141.15C150.752 141.15 150.752 141.28 150.752 141.15C150.752 141.02 150.752 141.215 150.687 141.215C150.493 141.345 150.428 141.475 150.233 141.345C149.779 141.02 149.131 141.28 148.871 141.669C148.612 142.188 148.806 142.707 149.195 143.031C151.076 144.393 153.606 141.669 152.114 139.853C150.752 138.231 147.833 139.269 147.963 141.41C148.028 142.512 148.871 143.485 149.909 143.745C150.947 144.004 152.049 143.485 152.633 142.577C153.93 140.566 152.114 137.777 149.714 138.556C148.612 138.945 147.639 140.048 147.768 141.28C147.898 142.642 149.844 143.355 150.557 141.993C151.206 140.956 149.585 139.983 149.001 141.085V141.085Z" fill="#E8E8E8"/>
<path d="M188.177 84.5272C196.155 80.1167 203.095 74.2793 208.867 67.2095C209.646 66.2366 208.283 64.8745 207.505 65.8474C201.862 72.7875 195.052 78.4952 187.204 82.8409C186.101 83.4246 187.074 85.111 188.177 84.5272V84.5272Z" fill="#E8E8E8"/>
<path d="M285.208 86.2134C283.781 94.3859 283.197 102.623 283.587 110.925C283.651 112.158 285.597 112.158 285.532 110.925C285.143 102.818 285.662 94.7102 287.089 86.7323C287.284 85.5 285.403 84.9811 285.208 86.2134V86.2134Z" fill="#E8E8E8"/>
<path d="M275.284 275.801C275.284 265.877 279.954 256.472 287.932 250.505C288.905 249.792 287.932 248.105 286.959 248.819C278.398 255.175 273.403 265.099 273.403 275.801C273.339 277.033 275.284 277.033 275.284 275.801V275.801Z" fill="#E8E8E8"/>
<path d="M383.926 537.708C384.964 547.048 386.585 557.296 389.18 568.387C392.682 583.37 397.157 596.472 401.633 607.498C400.401 608.601 396.703 611.519 391.255 611.909C387.818 612.168 385.093 611.325 383.537 610.741C381.202 602.633 378.932 594.202 376.856 585.445C372.575 567.414 369.462 550.226 367.192 534.206C372.835 535.373 378.413 536.541 383.926 537.708Z" fill="#191919"/>
<path d="M529.538 531.611C528.695 540.887 527.268 551.199 524.868 562.29C521.495 577.987 517.02 591.607 512.48 603.088C513.128 603.672 516.825 607.174 522.533 606.915C527.463 606.72 530.641 603.801 531.419 603.088C532.911 595.24 534.338 587.327 535.765 579.414C538.878 562.096 541.667 545.038 544.326 528.174C539.397 529.276 534.467 530.444 529.538 531.611Z" fill="#191919"/>
<path d="M413.567 505.732C415.059 515.655 416.81 525.903 418.821 536.411C421.74 551.653 425.048 566.182 428.55 579.932C427.058 580.84 424.075 582.332 419.989 582.592C416.551 582.786 413.827 582.008 412.27 581.424C410.324 572.214 408.443 562.874 406.562 553.534C403.125 536.216 399.947 519.158 396.898 502.294C402.476 503.397 407.989 504.564 413.567 505.732Z" fill="#191919"/>
<path d="M505.086 503.786C503.334 513.58 501.778 523.828 500.416 534.465C498.535 549.124 497.238 563.133 496.459 576.495C497.562 577.208 500.156 578.7 503.853 578.895C507.81 579.024 510.729 577.468 511.831 576.819C511.183 569.165 510.923 560.669 511.312 551.588C512.091 531.417 515.788 514.034 519.874 500.348C514.944 501.451 510.015 502.619 505.086 503.786Z" fill="#191919"/>
<path d="M620.343 286.763C631.693 306.999 622.937 329.376 601.663 384.961C591.415 411.684 572.67 460.783 546.207 530.768C520.198 540.238 477.131 551.913 423.88 548.216C392.942 546.075 366.997 539.394 347.345 532.519C344.426 527.266 334.308 507.613 341.896 488.544C346.112 477.972 354.609 470.383 372.64 461.432C390.412 452.611 421.74 440.223 467.272 437.953C449.435 349.158 479.985 276.385 527.527 259.586C558.725 248.624 604.711 258.937 620.343 286.763Z" fill="white" stroke="#191919" stroke-width="2"/>
<path d="M616.192 294.092C597.382 317.896 593.101 349.872 585.902 378.475C578.184 409.09 569.298 439.639 556.001 468.372C548.672 484.133 540.046 499.311 529.733 513.321C529.019 514.358 530.706 515.331 531.419 514.293C549.515 489.646 562.293 461.692 572.152 432.893C582.14 403.576 588.756 373.351 596.539 343.451C600.95 326.457 606.592 309.464 617.619 295.519C618.332 294.481 616.97 293.119 616.192 294.092V294.092Z" fill="#191919"/>
<path d="M347.734 518.445C390.996 534.336 438.149 539.006 483.682 531.936C496.719 529.925 509.626 526.941 522.274 523.05C523.441 522.661 522.987 520.78 521.755 521.169C477.649 534.79 430.301 536.865 385.158 527.266C372.64 524.607 360.252 520.974 348.253 516.564C347.085 516.11 346.566 517.991 347.734 518.445V518.445Z" fill="#191919"/>
<path d="M500.026 467.464C510.923 471.032 520.198 478.231 526.425 487.96C527.073 488.998 528.76 488.025 528.111 486.987C521.625 476.869 511.961 469.345 500.545 465.583C499.313 465.194 498.794 467.075 500.026 467.464V467.464Z" fill="#191919"/>
<path d="M304.926 551.459C310.115 559.242 315.303 567.09 320.427 574.874C287.219 604.71 282.938 613.206 285.403 615.282C290.332 619.368 325.681 601.207 329.313 599.326C342.48 592.581 352.404 586.03 359.019 581.36C356.684 575.003 353.571 567.869 349.29 560.345C343.647 550.421 337.421 542.054 331.519 535.244C322.633 540.562 313.747 546.011 304.926 551.459Z" fill="#191919"/>
<path d="M498.989 398.582C501.324 403.641 503.788 410.841 504.177 419.532C504.761 432.634 500.48 443.077 497.237 449.109C495.486 451.379 492.373 455.141 487.768 459.227C487.768 459.227 477.325 468.437 460.721 475.507C443.792 482.771 394.563 491.527 327.692 493.214C329.638 501.516 333.14 511.699 339.367 522.661C342.804 528.693 346.566 534.011 350.263 538.616C347.799 541.859 340.794 550.097 326.849 555.285C313.422 560.28 301.099 559.696 296.234 559.307C289.23 552.886 282.03 545.232 275.349 536.087C255.697 509.04 251.091 482.901 250.248 466.102C255.113 462.6 262.247 457.8 271.587 452.676C291.046 441.974 308.882 436.137 323.541 431.791C348.772 424.397 372.9 419.273 428.42 409.868C445.803 406.949 469.866 402.928 498.989 398.582Z" fill="white" stroke="#191919" stroke-width="2"/>
<path opacity="0.19" d="M437.371 409.739C435.49 422.127 430.171 438.212 413.697 448.201C397.676 457.93 384.25 453.974 352.144 461.757C329.054 467.335 298.504 474.729 290.008 491.139C281.122 508.392 297.921 532.714 327.303 552.691C329.767 552.367 332.881 551.718 336.188 550.421C344.685 547.048 348.836 541.535 350.393 539.135C346.631 534.595 342.739 529.342 339.172 523.309C332.427 512.024 328.794 501.516 326.719 493.02C361.095 491.593 389.958 488.609 411.881 485.755C438.279 482.318 456.57 478.88 474.017 469.021C488.611 460.784 494.448 452.676 496.524 449.563C502.815 440.029 503.334 431.337 503.594 426.473C504.242 414.603 500.351 404.939 497.108 398.842C477.195 402.474 457.283 406.106 437.371 409.739Z" fill="#6C6D6D"/>
<path opacity="0.19" d="M497.756 400.204C496.459 412.268 491.854 431.337 473.498 446.385C462.213 455.66 450.084 459.811 402.476 472.653C381.461 478.296 356.036 484.977 327.108 492.241C363.884 491.852 393.785 488.803 415.254 485.885C437.501 482.836 448.397 480.177 459.683 475.312C470.385 470.707 491.984 461.367 500.805 441.715C509.302 422.646 500.74 405.522 497.756 400.204Z" fill="#6C6D6D"/>
<path opacity="0.22" d="M327.303 493.214C327.043 501.776 327.432 511.57 329.054 522.337C330.611 532.974 333.14 542.508 335.864 550.811C338.07 549.513 340.599 547.762 343.064 545.622C346.047 543.027 348.253 540.563 349.874 538.422C346.112 533.493 342.285 527.785 338.718 521.364C332.946 510.986 329.508 501.387 327.303 493.214Z" fill="#6C6D6D"/>
<path d="M324.319 588.688C329.314 598.482 334.243 608.275 339.237 618.134C307.326 655.624 303.175 666.261 305.575 668.855C310.309 674.044 344.296 651.148 347.799 648.813C360.447 640.317 370.046 632.079 376.402 626.242C374.132 618.264 371.149 609.313 366.998 599.779C361.614 587.326 355.582 576.818 349.939 568.192C341.378 575.067 332.816 581.877 324.319 588.688Z" fill="#191919"/>
<path d="M510.858 396.571C513.128 402.992 515.463 411.943 515.853 422.904C516.436 439.379 512.285 452.481 509.172 460.07C507.485 462.923 504.502 467.658 500.091 472.847C500.091 472.847 490.103 484.457 474.147 493.343C457.867 502.424 410.519 513.515 346.307 515.59C348.188 526.033 351.496 538.81 357.528 552.561C360.836 560.149 364.468 566.83 368.035 572.603C365.7 576.689 358.955 587.002 345.529 593.553C332.621 599.844 320.817 599.131 316.082 598.547C309.336 590.504 302.396 580.84 296.04 569.36C277.101 535.373 272.69 502.488 271.912 481.409C276.582 477.063 283.457 470.966 292.408 464.545C311.153 451.119 328.211 443.725 342.35 438.276C366.543 429.001 389.828 422.58 443.209 410.711C459.683 407.014 482.903 402.019 510.858 396.571Z" fill="white" stroke="#191919" stroke-width="2"/>
<path opacity="0.19" d="M451.64 410.58C449.824 426.147 444.7 446.319 428.874 458.902C413.502 471.16 400.53 466.166 369.722 475.96C347.539 482.965 318.157 492.305 309.985 512.93C301.423 534.594 317.574 565.208 345.788 590.244C348.188 589.855 351.171 589.012 354.35 587.39C362.522 583.174 366.478 576.234 367.97 573.186C364.338 567.478 360.576 560.862 357.139 553.274C350.652 539.069 347.15 525.903 345.204 515.201C378.283 513.384 405.979 509.687 427.123 506.12C452.548 501.839 470.061 497.494 486.86 485.105C500.87 474.728 506.512 464.544 508.458 460.653C514.49 448.654 515.009 437.757 515.269 431.66C515.852 416.742 512.155 404.613 509.042 396.96C489.908 401.435 470.774 405.975 451.64 410.58Z" fill="#6C6D6D"/>
<path opacity="0.19" d="M509.626 398.581C508.394 413.694 503.983 437.692 486.341 456.632C475.444 468.306 463.834 473.495 418.108 489.646C397.871 496.78 373.484 505.147 345.658 514.293C381.007 513.774 409.806 510.012 430.431 506.315C451.835 502.488 462.343 499.18 473.109 493.083C483.422 487.246 504.113 475.571 512.674 450.794C520.782 426.796 512.545 405.327 509.626 398.581Z" fill="#6C6D6D"/>
<path opacity="0.22" d="M345.853 515.525C345.593 526.292 345.983 538.616 347.539 552.107C349.096 565.533 351.431 577.467 354.09 587.845C356.231 586.159 358.63 584.018 361.03 581.294C363.884 578.051 366.025 574.938 367.581 572.278C363.949 566.052 360.252 558.917 356.879 550.81C351.301 537.837 347.928 525.709 345.853 515.525Z" fill="#6C6D6D"/>
<path d="M320.622 295.778C319.39 295.194 316.925 294.092 316.99 292.859C317.12 290.849 323.8 289.487 328.794 289.552C332.167 289.552 338.394 290.265 345.658 295.324C338.848 297.465 328.794 299.41 320.622 295.778Z" fill="white" stroke="#191919" stroke-width="2"/>
<path d="M476.612 211.654C464.288 210.032 453.197 228.518 452.159 230.204C448.397 236.625 447.943 240.906 445.349 252.646C439.057 281.249 435.685 295.778 426.345 304.534C417.913 312.382 408.054 314.263 405.46 314.652C394.369 316.404 384.315 312.253 364.727 303.886C348.188 296.816 346.177 294.221 337.162 293.184C332.556 292.665 319.13 291.173 310.244 299.799C304.537 305.313 302.007 314.134 304.083 315.95C306.742 318.285 317.638 310.047 317.768 310.242C317.833 310.372 314.525 311.928 311.801 315.301C310.439 316.923 308.104 320.425 308.947 321.333C310.439 323.149 319.584 312.123 329.638 314.069C336.513 315.366 337.81 321.593 345.788 322.76C350.458 323.474 354.544 322.047 357.139 320.814C361.679 325.744 369.073 332.749 379.775 338.456C386.131 341.829 408.573 353.439 436.009 346.694C465.131 339.559 479.79 316.793 484.395 309.658C486.989 305.572 506.058 275.088 496.848 240.906C495.227 235.393 489.324 213.34 476.612 211.654Z" fill="white" stroke="#191919" stroke-width="2"/>
<path opacity="0.25" d="M475.315 211.848C471.099 214.054 479.271 229.361 478.233 251.284C477.26 272.363 468.245 287.93 464.223 295.065C458.775 304.599 451.576 317.052 437.241 325.16C417.978 336.056 394.109 334.435 377.116 327.041C372.057 324.836 366.933 317.701 355.777 313.355C350.912 311.474 347.085 310.696 342.61 309.788C331.648 307.647 321.919 305.702 312.904 310.242C308.623 312.447 305.056 315.82 305.315 316.274C305.575 316.728 310.569 314.198 314.979 311.799C309.661 318.868 308.818 320.879 309.207 321.268C309.661 321.657 311.282 320.166 315.433 317.831C319.909 315.366 323.152 313.615 327.108 313.939C329.119 314.134 330.676 314.782 331.584 315.171C335.151 316.728 335.994 318.544 339.561 320.36C341.767 321.463 343.583 321.917 344.556 322.111C346.631 322.565 350.912 323.149 356.555 321.138C361.484 326.327 384.121 349.288 417.264 348.834C434.323 348.575 446.841 342.218 451.77 339.689C478.817 325.614 489.584 300.643 492.308 293.767C500.74 272.493 503.724 240.971 488.287 221.188C484.59 216.389 478.233 210.357 475.315 211.848Z" fill="#6C6D6D"/>
<path d="M305.25 315.949C307.78 312.188 311.088 309.204 315.044 307.064C315.887 306.61 315.109 305.377 314.331 305.831C310.18 308.101 306.677 311.28 304.018 315.236C303.434 316.014 304.731 316.728 305.25 315.949V315.949Z" fill="#191919"/>
<path d="M306.028 307.583C308.558 303.626 312.644 301.551 316.73 299.54C317.574 299.151 316.86 297.854 316.017 298.308C311.671 300.383 307.39 302.653 304.731 306.869C304.277 307.647 305.509 308.361 306.028 307.583V307.583Z" fill="#191919"/>
<path opacity="0.29" d="M493.929 235.198C492.957 241.749 491.205 251.219 488.092 262.375C481.995 284.427 476.482 304.275 462.083 320.036C444.246 339.494 420.053 344.812 406.173 346.434C416.486 348.834 424.594 348.38 429.717 347.666C468.634 342.218 489.649 300.383 495.356 282.092C496.329 278.849 498.405 272.169 498.664 263.023C499.118 250.829 496.135 241.035 493.929 235.198Z" fill="#6C6D6D"/>
<path opacity="0.26" d="M330.935 313.29C334.632 315.106 339.691 317.117 345.918 318.285C350.847 319.193 355.258 319.387 358.76 319.257C349.874 323.992 345.269 323.409 342.675 321.852C341.053 320.879 339.237 318.933 334.243 315.496C332.881 314.523 331.713 313.744 330.935 313.29Z" fill="#6C6D6D"/>
<path d="M199.787 419.921C199.787 451.054 199.787 482.252 199.787 513.385C199.787 517.147 205.624 517.147 205.624 513.385C205.624 482.252 205.624 451.054 205.624 419.921C205.624 416.224 199.787 416.159 199.787 419.921V419.921Z" fill="#161616"/>
<path d="M305.899 418.689C305.899 423.683 305.899 428.677 305.899 433.672C305.899 437.434 311.736 437.434 311.736 433.672C311.736 428.677 311.736 423.683 311.736 418.689C311.736 414.927 305.899 414.927 305.899 418.689V418.689Z" fill="#161616"/>
<path d="M119.23 416.095C150.687 386.453 182.145 356.747 213.667 327.106C264.583 328.014 315.433 328.922 366.349 329.83C358.047 358.628 349.744 387.361 341.442 416.16C267.372 416.095 193.301 416.095 119.23 416.095Z" fill="white" stroke="#191919" stroke-width="2"/>
<path d="M121.111 419.468C177.994 419.468 234.812 419.468 291.694 419.468C307.65 419.468 323.541 419.468 339.497 419.468C343.258 419.468 343.258 413.63 339.497 413.63C282.614 413.63 225.796 413.63 168.913 413.63C152.958 413.63 137.067 413.63 121.111 413.63C117.349 413.63 117.349 419.468 121.111 419.468V419.468Z" fill="#161616"/>
<path d="M137.78 418.494C137.78 483.031 137.78 547.567 137.78 612.038C137.78 630.134 137.78 648.166 137.78 666.262C137.78 670.024 143.618 670.024 143.618 666.262C143.618 601.725 143.618 537.189 143.618 472.718C143.618 454.622 143.618 436.59 143.618 418.494C143.618 414.732 137.78 414.732 137.78 418.494V418.494Z" fill="#161616"/>
<path d="M315.693 418.494C315.693 483.031 315.693 547.567 315.693 612.038C315.693 630.134 315.693 648.166 315.693 666.262C315.693 670.024 321.53 670.024 321.53 666.262C321.53 601.725 321.53 537.189 321.53 472.718C321.53 454.622 321.53 436.59 321.53 418.494C321.53 414.732 315.693 414.732 315.693 418.494V418.494Z" fill="#161616"/>
<path d="M140.699 538.94C186.49 538.94 232.282 538.94 278.074 538.94C291.046 538.94 304.018 538.94 316.99 538.94C320.752 538.94 320.752 533.103 316.99 533.103C271.198 533.103 225.407 533.103 179.615 533.103C166.643 533.103 153.671 533.103 140.699 533.103C136.937 533.103 136.937 538.94 140.699 538.94V538.94Z" fill="#161616"/>
<path d="M365.571 329.83C358.177 358.693 349.68 387.297 339.951 415.446C339.108 417.846 342.869 418.819 343.713 416.484C353.442 388.27 361.938 359.731 369.333 330.868C369.916 328.468 366.219 327.43 365.571 329.83V329.83Z" fill="#161616"/>
<path d="M55.018 672.618C89.4589 672.618 123.835 672.618 158.276 672.618C162.038 672.618 162.038 666.781 158.276 666.781C123.835 666.781 89.4589 666.781 55.018 666.781C51.2561 666.781 51.2561 672.618 55.018 672.618V672.618Z" fill="#161616"/>
<path d="M172.74 671.321C180.653 671.321 188.631 671.321 196.544 671.321C200.306 671.321 200.306 665.484 196.544 665.484C188.631 665.484 180.653 665.484 172.74 665.484C168.978 665.484 168.978 671.321 172.74 671.321V671.321Z" fill="#161616"/>
<path d="M275.998 672.164C307.001 672.164 338.005 672.164 369.073 672.164C372.835 672.164 372.835 666.327 369.073 666.327C338.07 666.327 307.066 666.327 275.998 666.327C272.236 666.327 272.236 672.164 275.998 672.164V672.164Z" fill="#161616"/>
<path d="M390.282 670.088C395.796 670.088 401.309 670.088 406.887 670.088C410.649 670.088 410.649 664.251 406.887 664.251C401.374 664.251 395.86 664.251 390.282 664.251C386.52 664.251 386.52 670.088 390.282 670.088V670.088Z" fill="#161616"/>
<path d="M23.7553 652.057C37.1814 652.057 50.6076 652.057 63.9688 652.057C67.7307 652.057 67.7307 646.22 63.9688 646.22C50.5427 646.22 37.1166 646.22 23.7553 646.22C19.9934 646.22 19.9934 652.057 23.7553 652.057V652.057Z" fill="#161616"/>
<path d="M307.455 403.836C267.436 402.798 227.352 401.825 187.333 400.788C211.072 378.086 234.747 355.32 258.486 332.619C285.857 334.046 313.293 335.473 340.664 336.9C329.573 359.277 318.546 381.524 307.455 403.836Z" fill="white" stroke="#191919" stroke-width="2"/>
<path d="M257.124 332.165C233.839 354.672 210.554 377.243 187.269 399.75C186.231 363.688 185.128 327.56 184.091 291.498C207.7 276.58 231.309 261.662 254.918 246.744C255.567 275.218 256.345 303.691 257.124 332.165Z" fill="white" stroke="#191919" stroke-width="2"/>
<path d="M186.231 294.935C188.112 327.041 189.344 359.212 189.993 391.383C189.993 392.032 190.966 392.032 190.966 391.383C190.317 359.212 189.085 327.041 187.204 294.935C187.139 294.352 186.166 294.352 186.231 294.935V294.935Z" fill="#191919"/>
<path d="M186.75 295.065C208.478 280.925 230.206 266.786 251.935 252.646C252.454 252.322 251.999 251.479 251.416 251.803C229.687 265.943 207.959 280.082 186.231 294.222C185.712 294.611 186.166 295.454 186.75 295.065V295.065Z" fill="#191919"/>
<path d="M251.675 252.581C251.611 278.461 252.389 304.405 254.075 330.219C254.14 330.868 255.113 330.868 255.048 330.219C253.427 304.34 252.583 278.461 252.648 252.581C252.648 251.998 251.675 251.998 251.675 252.581V252.581Z" fill="#191919"/>
<path d="M190.641 392.745C211.916 372.184 233.255 351.623 254.529 331.127C254.983 330.673 254.27 330.025 253.816 330.414C232.541 350.975 211.202 371.536 189.928 392.032C189.539 392.486 190.187 393.199 190.641 392.745V392.745Z" fill="#191919"/>
<path d="M289.165 381.719C293.121 375.427 297.078 369.071 300.905 362.65C301.229 362.131 300.386 361.612 300.061 362.131C296.235 368.552 292.278 374.908 288.322 381.2C287.932 381.719 288.776 382.238 289.165 381.719V381.719Z" fill="#191919"/>
<path d="M300.645 362.455C305.769 362.65 310.893 362.65 316.017 362.39C316.666 362.39 316.666 361.417 316.017 361.417C310.893 361.612 305.769 361.612 300.645 361.482C299.997 361.482 299.997 362.455 300.645 362.455V362.455Z" fill="#191919"/>
<path d="M315.368 362.131C312.45 368.487 309.466 374.844 306.483 381.2C306.223 381.784 307.066 382.238 307.326 381.719C310.309 375.362 313.293 369.006 316.212 362.65C316.471 362.001 315.628 361.547 315.368 362.131V362.131Z" fill="#191919"/>
<path d="M288.84 382.238C294.548 383.081 300.58 382.692 306.353 382.432C307.001 382.432 307.001 381.459 306.353 381.459C300.71 381.719 294.743 382.108 289.1 381.33C288.451 381.2 288.192 382.173 288.84 382.238V382.238Z" fill="#191919"/>
<path d="M310.115 362.196C307.52 368.682 304.537 374.973 301.164 381.07C300.84 381.589 301.683 382.108 302.007 381.589C305.38 375.362 308.428 369.006 311.088 362.455C311.282 361.871 310.374 361.612 310.115 362.196V362.196Z" fill="#191919"/>
<path d="M216.132 391.578C230.401 373.935 245.189 356.683 260.432 339.819C260.821 339.365 260.172 338.651 259.718 339.105C244.476 355.904 229.688 373.157 215.418 390.864C215.029 391.383 215.743 392.032 216.132 391.578V391.578Z" fill="#191919"/>
<path d="M233.385 392.68C246.162 374.844 259.653 357.591 273.793 340.857C274.182 340.403 273.533 339.689 273.079 340.143C258.875 356.942 245.384 374.26 232.541 392.161C232.152 392.68 232.995 393.199 233.385 392.68V392.68Z" fill="#191919"/>
<path d="M251.935 395.339C263.026 376.789 275.155 358.888 288.257 341.7C288.646 341.181 287.803 340.727 287.413 341.181C274.312 358.369 262.183 376.27 251.091 394.821C250.767 395.339 251.61 395.858 251.935 395.339V395.339Z" fill="#191919"/>
<path d="M267.501 396.961C278.398 376.66 291.305 357.526 306.093 339.884C306.483 339.43 305.834 338.716 305.38 339.17C290.527 356.877 277.555 376.076 266.593 396.442C266.334 397.026 267.177 397.545 267.501 396.961V396.961Z" fill="#191919"/>
<path d="M224.434 381.07C241.038 379.319 257.643 381.394 274.182 383.6C274.831 383.665 274.766 382.692 274.182 382.627C257.707 380.422 241.103 378.281 224.434 380.097C223.85 380.162 223.85 381.135 224.434 381.07V381.07Z" fill="#191919"/>
<path d="M232.801 371.601C248.497 371.017 264.193 372.184 279.63 375.168C280.214 375.298 280.473 374.325 279.89 374.26C264.388 371.276 248.562 370.109 232.801 370.693C232.217 370.628 232.217 371.601 232.801 371.601V371.601Z" fill="#191919"/>
<path d="M240.325 362.455C255.437 361.482 270.55 362.844 285.273 366.477C285.857 366.606 286.116 365.698 285.532 365.568C270.744 361.871 255.567 360.509 240.325 361.482C239.676 361.547 239.676 362.52 240.325 362.455V362.455Z" fill="#191919"/>
<path d="M248.108 353.31C262.637 353.374 277.036 354.866 291.24 357.785C291.824 357.915 292.083 356.942 291.5 356.877C277.23 353.958 262.702 352.466 248.108 352.402C247.524 352.337 247.524 353.31 248.108 353.31V353.31Z" fill="#191919"/>
<path d="M255.826 344.813C269.642 345.073 283.392 346.694 296.818 349.743C297.402 349.872 297.661 348.964 297.078 348.835C283.522 345.786 269.706 344.1 255.826 343.905C255.178 343.84 255.178 344.813 255.826 344.813V344.813Z" fill="#191919"/>
<path d="M300.321 354.672C293.964 364.012 287.673 373.352 281.317 382.692C280.992 383.211 281.835 383.73 282.16 383.211C288.516 373.871 294.808 364.531 301.164 355.191C301.553 354.607 300.71 354.153 300.321 354.672V354.672Z" fill="#191919"/>
<path d="M192.912 340.532C201.019 337.095 209.775 339.041 218.337 338.911C225.536 338.846 232.412 336.835 238.573 333.203C239.092 332.879 238.638 332.036 238.055 332.36C230.466 336.835 222.423 338.262 213.732 337.873C206.467 337.549 199.268 336.835 192.393 339.754C191.874 339.949 192.328 340.792 192.912 340.532V340.532Z" fill="#191919"/>
<path d="M214.77 336.511C228.65 328.663 235.071 312.124 249.535 305.183C250.119 304.924 249.6 304.081 249.016 304.34C234.487 311.345 228.131 327.82 214.251 335.668C213.732 335.992 214.186 336.835 214.77 336.511V336.511Z" fill="#191919"/>
<path d="M232.412 290.265C230.012 288.384 230.401 285.336 231.763 282.936C232.412 281.768 233.385 280.536 234.487 279.823C236.498 278.525 238.379 279.563 239.936 280.925C240.39 281.314 241.103 280.666 240.649 280.212C237.406 277.488 234.358 277.747 231.698 281.25C229.558 284.103 228.455 288.384 231.698 290.979C232.217 291.368 232.931 290.654 232.412 290.265V290.265Z" fill="#191919"/>
<path d="M432.182 242.852C414.41 262.569 409.611 284.233 407.016 296.491C402.281 319.192 407.276 328.273 407.6 371.405C407.73 389.761 406.951 404.614 406.368 413.954C410.389 417.067 435.296 435.617 468.569 429.52C493.216 425.045 508.069 409.608 512.739 404.354C513.842 398.193 515.398 389.112 517.214 378.086C526.814 318.609 531.549 288.449 525.581 266.85C522.014 253.748 513.193 232.993 488.157 211.524C477.649 213.729 452.419 220.475 432.182 242.852Z" fill="#EC615B"/>
<path opacity="0.19" d="M450.278 230.917C456.44 249.338 459.748 265.099 461.694 276.644C466.818 307.193 474.536 352.985 452.808 397.349C445.868 411.489 437.76 421.867 432.052 428.288C439.576 430.039 454.494 432.439 472.266 427.834C493.411 422.386 506.642 410.127 512.09 404.549C516.306 380.421 519.679 359.73 522.274 343.58C526.749 315.171 527.787 306.545 527.333 294.416C526.814 278.849 526.1 262.504 516.76 244.862C507.81 227.999 495.227 217.88 487.508 212.691C481.217 213.794 472.331 216.129 462.926 221.577C457.737 224.691 453.521 227.999 450.278 230.917Z" fill="#6C6D6D"/>
<path opacity="0.18" d="M523.96 261.856C522.792 261.921 525.257 279.887 521.43 304.664C514.361 350.52 491.659 382.302 482.903 393.588C475.574 402.993 464.094 415.965 447.295 428.742C453.327 429.65 461.369 430.039 470.58 428.288C492.438 424.202 506.318 410.776 511.636 405.003C512.998 397.09 515.204 384.702 517.993 369.395C524.544 333.592 525.841 329.311 526.879 318.155C529.732 287.735 525.322 261.856 523.96 261.856Z" fill="#6C6D6D"/>
<path d="M317.898 310.048C316.666 309.205 314.201 307.648 314.46 306.351C314.979 304.275 322.438 303.951 327.822 304.859C331.454 305.443 338.07 307.324 345.01 313.874C337.226 314.977 326.006 315.301 317.898 310.048Z" fill="white" stroke="#191919" stroke-width="2"/>
<path d="M500.999 247.911C487.962 244.084 472.72 261.661 471.358 263.348C466.169 269.509 464.937 273.92 460.072 285.854C448.268 315.042 442.106 329.765 430.431 337.419C419.989 344.294 409.027 344.553 406.108 344.553C393.85 344.488 383.731 338.391 364.014 326.198C347.41 315.885 345.723 312.771 336.124 310.177C331.259 308.88 316.99 304.988 305.899 312.577C298.829 317.377 294.483 326.327 296.429 328.597C298.894 331.516 312.125 324.641 312.19 324.9C312.255 325.03 308.363 326.133 304.861 329.246C303.11 330.738 299.996 333.981 300.71 335.148C302.007 337.354 313.812 327.235 324.319 330.997C331.454 333.527 331.843 340.337 340.21 342.997C345.139 344.553 349.809 343.71 352.793 342.867C356.814 348.899 363.625 357.525 374.132 365.373C380.424 370.043 402.606 386.129 433.415 383.729C466.104 381.199 485.952 359.601 492.114 352.92C495.681 349.093 521.56 320.101 517.604 282.352C517.02 276.19 514.49 251.932 500.999 247.911Z" fill="white" stroke="#191919" stroke-width="2"/>
<path opacity="0.25" d="M499.572 247.911C494.643 249.533 500.805 267.11 495.81 290.135C491.076 312.253 478.622 327.171 472.98 333.981C465.391 343.126 455.467 355.061 438.539 361.158C415.837 369.33 390.347 363.558 373.289 352.856C368.23 349.613 363.949 341.246 352.598 334.695C347.669 331.841 343.712 330.414 338.978 328.663C327.562 324.511 317.314 320.75 306.872 324.057C301.877 325.614 297.402 328.598 297.661 329.117C297.921 329.7 303.693 327.819 308.882 326.068C301.942 332.619 300.645 334.63 300.969 335.149C301.358 335.667 303.434 334.305 308.299 332.619C313.617 330.738 317.314 329.506 321.595 330.544C323.735 331.062 325.292 332.035 326.265 332.619C329.832 334.824 330.416 336.965 333.918 339.494C336.059 341.051 338.005 341.829 339.042 342.218C341.183 343.062 345.723 344.424 352.144 343.256C356.555 349.613 376.986 377.762 412.854 382.951C431.339 385.61 445.933 381.07 451.705 379.189C483.357 368.941 499.378 344.424 503.529 337.613C516.371 316.598 525.127 283.779 511.896 260.17C508.783 254.267 502.945 246.809 499.572 247.911Z" fill="#6C6D6D"/>
<path d="M297.597 328.792C301.034 325.225 305.056 322.63 309.726 321.074C310.634 320.75 310.244 319.387 309.336 319.647C304.472 321.333 300.126 324.057 296.559 327.754C295.91 328.468 296.948 329.506 297.597 328.792V328.792Z" fill="#191919"/>
<path d="M299.932 320.101C303.369 316.274 308.169 314.782 312.969 313.42C313.877 313.161 313.487 311.734 312.579 311.993C307.585 313.485 302.526 315.107 298.959 319.063C298.245 319.777 299.283 320.749 299.932 320.101V320.101Z" fill="#191919"/>
<path opacity="0.29" d="M515.593 275.801C513.388 282.547 509.82 292.276 504.567 303.561C494.124 325.809 484.719 345.85 466.364 360.055C443.727 377.567 416.616 379.059 401.374 378.346C412.076 382.691 420.961 383.599 426.604 383.729C469.542 384.637 499.637 343.969 508.977 325.679C510.599 322.436 513.971 315.69 515.917 306.091C518.447 293.184 516.955 282.352 515.593 275.801Z" fill="#6C6D6D"/>
<path opacity="0.26" d="M325.876 330.349C329.508 332.878 334.632 335.862 341.183 338.197C346.372 340.013 351.106 340.921 354.868 341.375C344.426 344.813 339.561 343.451 337.032 341.375C335.475 340.078 333.854 337.678 328.989 333.203C327.757 331.97 326.654 330.997 325.876 330.349Z" fill="#6C6D6D"/>
<path d="M400.465 117.087C399.752 121.238 399.038 125.389 398.455 129.735C395.925 147.377 394.887 164.046 394.823 179.548C398.39 179.159 401.892 178.77 405.46 178.445C405.07 181.883 403.968 194.466 412.011 206.919C419.599 218.659 430.496 222.94 433.869 224.107C433.479 230.464 433.155 236.755 432.766 243.111C439.771 236.885 449.305 229.556 461.434 223.005C470.709 218.01 479.466 214.573 486.925 212.238C478.558 201.86 475.379 192.066 474.017 186.423C471.682 176.694 472.136 168.327 472.59 160.933C473.044 153.344 474.147 147.053 475.12 142.642C478.168 128.762 470.19 106.774 454.3 98.8615C438.603 91.0133 415.189 97.6291 400.465 117.087Z" fill="white" stroke="#161616" stroke-width="2"/>
<path d="M403.968 178.899C405.784 178.64 407.665 178.445 409.481 178.251C410.13 178.186 410.13 177.213 409.481 177.278C407.535 177.472 405.654 177.732 403.708 177.991C403.125 177.991 403.384 178.964 403.968 178.899V178.899Z" fill="#161616"/>
<path d="M462.472 127.141C454.624 129.151 453.197 135.962 443.273 150.166C433.22 164.565 426.864 173.581 415.513 178.835C408.184 182.207 404.552 181.299 401.309 185.645C395.731 193.169 399.492 205.557 402.8 211.913C406.627 219.243 412.465 223.653 417.264 227.285C421.869 230.723 426.085 232.993 429.069 234.355C425.891 229.491 425.696 227.999 426.085 227.545C427.123 226.507 431.534 232.085 436.722 231.372C438.214 231.177 440.874 230.334 446.776 221.059C450.797 214.767 453.521 210.422 455.337 204.195C459.294 190.834 453.716 187.202 455.337 169.624C455.597 166.965 457.413 146.145 464.807 144.783C467.466 144.264 470.191 146.469 471.488 148.156C474.212 151.723 473.888 157.431 470.515 162.36C471.617 161.582 482.19 154.447 482.06 142.837C482.06 141.021 481.995 134.34 476.936 129.995C471.163 125.065 463.121 127.011 462.472 127.141Z" fill="#161616" stroke="#161616" stroke-width="2"/>
<ellipse cx="410.195" cy="151.788" rx="2.72414" ry="4.86454" fill="#161616"/>
<ellipse cx="389.439" cy="154.058" rx="2.72414" ry="4.86454" fill="#161616"/>
<path d="M385.353 146.08C387.104 144.069 389.828 143.875 391.774 145.821C392.682 146.729 394.044 145.302 393.136 144.459C390.477 141.864 386.391 141.929 383.926 144.718C383.212 145.691 384.575 147.053 385.353 146.08V146.08Z" fill="#161616"/>
<path d="M406.627 142.707C408.897 140.826 411.881 141.086 413.827 143.226C414.67 144.134 416.032 142.772 415.189 141.864C412.465 138.945 408.249 138.816 405.2 141.345C404.292 142.123 405.654 143.486 406.627 142.707V142.707Z" fill="#161616"/>
<path d="M398.26 124.806C398.974 120.136 400.79 112.482 405.784 104.569C407.535 101.78 411.297 95.8777 417.264 91.8564C428.68 84.2677 446.257 84.8514 459.035 94.1914C471.553 103.337 477.779 119.682 475.055 135.897C449.435 132.265 423.88 128.567 398.26 124.806Z" fill="#5222D0"/>
<path d="M356.36 125.389C395.731 130.448 435.166 135.508 474.536 140.502C478.233 140.956 478.233 135.118 474.536 134.664C435.166 129.605 395.731 124.546 356.36 119.552C352.663 119.033 352.663 124.87 356.36 125.389V125.389Z" fill="#161616"/>
<path d="M431.598 87.1217C441.717 89.3269 449.37 97.4994 450.667 107.293C451.835 115.855 448.073 124.546 440.938 129.865C452.159 131.357 463.445 132.913 474.666 134.405C475.25 131.421 475.768 126.881 475.055 121.563C473.369 109.109 466.169 101.132 463.834 98.7317C461.305 96.1373 452.354 87.446 439.057 86.6677C436.009 86.5379 433.414 86.7974 431.598 87.1217Z" fill="#321693"/>
</svg>
