<svg width="479" height="316" viewBox="0 0 479 316" fill="none" xmlns="http://www.w3.org/2000/svg">
<path d="M36.5299 282.04C32.0991 278.418 27.4743 274.957 23.367 270.979C21.4588 269.136 19.6801 267.131 18.3217 264.834C17.6102 263.67 17.0281 262.409 16.6076 261.115C16.2519 260.048 15.8961 258.398 17.4485 258.237C18.0307 258.172 18.6451 258.301 19.1949 258.463C19.8094 258.625 20.0682 257.687 19.4537 257.525C17.6102 257.072 14.9582 257.202 15.2493 259.789C15.6051 262.7 17.5132 265.675 19.2596 267.907C23.7874 273.728 30.191 278.094 35.8507 282.719C36.3359 283.107 37.015 282.428 36.5299 282.04Z" fill="#E8E8E8"/>
<path d="M19.6153 257.687C17.7395 255.455 16.2842 252.868 15.4433 250.054C15.0552 248.793 14.8935 247.499 14.5054 246.271C14.2467 245.494 13.7616 244.783 14.4731 244.104C14.7965 243.813 15.2816 243.619 15.6374 243.36C16.737 242.616 17.3514 241.743 15.9931 240.805C15.2169 240.287 14.2467 240.19 13.4058 239.77C12.2739 239.155 11.4006 238.153 10.7538 237.086C9.39547 234.886 8.65162 232.299 7.84309 229.873C6.87285 226.995 5.93495 224.052 5.09408 221.141C3.41233 215.255 2.02165 209.304 0.8897 203.321C0.792676 203.515 0.66331 203.709 0.566286 203.903C6.64646 201.898 12.6943 207.04 17.028 210.695C21.4911 214.447 25.5015 218.748 29.0267 223.405C36.3035 233.108 41.3811 244.298 44.5505 255.973C46.491 263.12 47.72 270.462 48.3991 277.836C48.4638 278.45 49.4341 278.45 49.3694 277.836C47.0085 252.383 37.6295 226.607 17.5455 209.822C12.953 206.006 6.74348 200.863 0.339897 202.965C0.081166 203.062 -0.0481993 203.289 0.0164833 203.548C1.21311 209.951 2.73316 216.29 4.57661 222.564C5.44983 225.507 6.35539 228.418 7.35797 231.296C8.1665 233.625 8.91035 236.115 10.3334 238.153C10.8832 238.929 11.4977 239.641 12.2739 240.19C13.2118 240.87 14.3114 240.934 15.2493 241.516C16.4782 242.26 14.6995 242.842 14.0526 243.295C13.5675 243.651 13.1147 244.071 13.0177 244.718C12.8883 245.688 13.7292 246.82 13.9556 247.726C14.279 249.117 14.5701 250.475 15.0876 251.833C16.0255 254.226 17.3514 256.426 19.0009 258.399C19.3243 258.851 20.0034 258.172 19.6153 257.687Z" fill="#E8E8E8"/>
<path d="M5.77324 208.528C19.2919 223.793 29.8029 241.613 36.6592 260.824C38.5674 266.16 40.1521 271.594 41.4781 277.092C41.6398 277.706 42.5454 277.447 42.416 276.833C37.6295 256.911 29.0267 237.926 17.1251 221.206C13.8262 216.549 10.2687 212.086 6.48475 207.817C6.03197 207.396 5.3528 208.075 5.77324 208.528Z" fill="#E8E8E8"/>
<path d="M7.97249 229.809C9.52487 230.197 11.0449 230.714 12.5326 231.329C13.1148 231.555 13.3735 230.617 12.7914 230.391C11.3036 229.776 9.78361 229.259 8.23122 228.871C7.64908 228.709 7.39035 229.647 7.97249 229.809Z" fill="#E8E8E8"/>
<path d="M19.3566 251.283C21.4588 251.219 23.2052 252.318 24.9193 253.353C26.4717 254.291 27.9917 255.229 29.4794 256.264C32.5519 258.398 35.3332 260.921 37.1767 264.22C37.4677 264.77 38.3086 264.285 38.0175 263.735C36.0771 260.307 33.1663 257.655 29.9646 255.455C28.2828 254.291 26.504 253.191 24.7253 252.157C23.0435 251.154 21.3294 250.313 19.3242 250.345C18.7421 250.313 18.7421 251.283 19.3566 251.283Z" fill="#E8E8E8"/>
<path d="M32.2284 245.462C31.3552 240.223 31.3875 234.919 32.3254 229.712C32.4225 229.097 31.4846 228.838 31.3875 229.453C30.4173 234.854 30.385 240.32 31.2905 245.721C31.3875 246.335 32.3254 246.076 32.2284 245.462Z" fill="#E8E8E8"/>
<path d="M30.5791 223.308C31.2582 216.905 32.6166 210.501 34.8805 204.485C36.7886 199.408 39.6346 194.427 44.5182 191.711C44.2594 191.581 44.0331 191.42 43.7743 191.29C44.2918 200.281 49.5634 208.269 49.7898 217.293C49.9192 217.131 50.0162 216.969 50.1456 216.84C48.9166 217.163 47.6876 217.487 46.4587 217.81C46.1029 217.907 45.9735 218.36 46.2323 218.619C47.72 220.042 48.011 222.047 48.0757 224.02C48.1081 225.055 48.6579 230.067 47.4612 230.391C47.1702 230.488 47.0085 230.844 47.1702 231.102C50.7601 236.859 49.1106 243.683 48.1081 249.893C47.0731 256.296 46.9438 262.765 47.6876 269.168C47.7523 269.783 48.7225 269.783 48.6579 269.168C47.817 261.956 48.2374 254.873 49.4664 247.758C50.469 242.001 51.2775 235.824 48.0434 230.585C47.9464 230.811 47.8493 231.07 47.7523 231.296C48.6255 231.07 48.9166 230.391 49.046 229.55C49.2724 227.998 49.1106 226.284 49.0783 224.731C49.046 222.273 48.7872 219.718 46.9114 217.939C46.8468 218.198 46.7821 218.489 46.685 218.748C47.914 218.425 49.143 218.101 50.372 217.778C50.566 217.713 50.7277 217.519 50.7277 217.325C50.5013 208.269 45.262 200.313 44.7122 191.323C44.6799 190.967 44.3241 190.708 43.9684 190.902C39.1495 193.586 36.2388 198.341 34.2336 203.354C31.6787 209.725 30.2556 216.549 29.5441 223.373C29.5441 223.923 30.5144 223.923 30.5791 223.308Z" fill="#E8E8E8"/>
<path d="M42.319 196.141C38.8585 209.24 37.0797 222.758 37.0474 236.309C37.0474 236.924 38.0176 236.924 38.0176 236.309C38.0499 222.823 39.7964 209.434 43.2246 196.4C43.4186 195.786 42.4807 195.527 42.319 196.141Z" fill="#E8E8E8"/>
<path d="M422.039 176.769C424.109 183.431 425.661 190.223 426.631 197.144C427.116 200.637 427.472 204.194 427.634 207.72C427.699 208.625 427.731 209.563 427.763 210.469C427.796 211.018 427.634 211.924 427.828 212.441C428.022 212.927 428.701 213.25 429.089 213.573C429.768 214.123 430.448 214.673 431.094 215.223C431.127 214.964 431.159 214.705 431.191 214.447C430.286 214.996 429.413 215.255 428.345 215.287C428.119 215.287 427.957 215.449 427.893 215.643C426.955 218.554 427.634 221.626 429.736 223.89C429.865 223.599 429.962 223.34 430.092 223.049C426.728 222.92 426.664 226.801 426.987 229.194C427.44 232.525 428.087 235.857 429.025 239.091C430.9 245.43 434.037 251.445 439.18 255.779C439.665 256.167 440.344 255.488 439.859 255.1C435.525 251.445 432.614 246.529 430.739 241.193C429.865 238.67 429.186 236.083 428.669 233.496C428.248 231.329 426.146 223.89 430.092 224.02C430.545 224.052 430.706 223.502 430.448 223.179C428.604 221.174 428.022 218.457 428.863 215.902C428.701 216.031 428.539 216.128 428.41 216.258C429.639 216.258 430.674 215.967 431.741 215.287C431.968 215.126 432.097 214.738 431.838 214.511C430.642 213.541 428.992 212.7 428.798 211.083C428.604 209.369 428.669 207.59 428.539 205.876C428.313 202.674 427.99 199.473 427.504 196.271C426.534 189.576 425.014 182.978 423.009 176.51C422.783 175.896 421.845 176.154 422.039 176.769Z" fill="#E8E8E8"/>
<path d="M423.623 178.224C422.297 176.478 424.788 175.184 426.243 175.54C427.698 175.928 428.895 177.092 429.898 178.127C431.741 180.003 433.197 182.202 434.458 184.498C437.077 189.22 439.277 194.266 441.217 199.278C445.195 209.595 447.944 220.397 449.4 231.329C450.208 237.538 450.629 243.78 450.629 250.022C450.629 250.637 451.599 250.637 451.599 250.022C451.599 237.021 449.82 224.052 446.327 211.568C444.613 205.488 442.511 199.537 440.021 193.716C437.724 188.347 435.266 182.59 431.321 178.192C429.736 176.413 427.052 173.664 424.4 174.602C422.783 175.152 421.715 177.222 422.815 178.709C423.171 179.194 424.012 178.742 423.623 178.224Z" fill="#E8E8E8"/>
<path d="M446.909 213.767C448.559 208.237 450.467 202.836 452.634 197.5C453.766 194.751 454.962 192.002 456.256 189.317C456.87 188.056 457.485 186.762 458.132 185.501C458.552 184.693 459.813 181.135 461.139 181.458C461.528 181.555 461.786 181.232 461.722 180.876C461.398 178.871 463.662 177.157 464.859 175.831C465.926 174.667 466.961 173.502 468.028 172.338C470.227 169.945 472.394 167.552 474.593 165.126C474.335 165.061 474.044 164.997 473.785 164.9C477.116 173.147 476.243 182.17 474.302 190.643C473.3 194.977 472.038 199.278 470.971 203.612C470.227 206.62 469.419 211.18 465.732 211.827C465.473 211.859 465.344 212.183 465.409 212.409C466.346 216.258 463.759 219.815 462.045 223.049C460.428 226.089 458.94 229.227 457.582 232.428C454.93 238.67 452.828 245.106 451.243 251.671C451.081 252.286 452.019 252.545 452.181 251.93C453.927 244.653 456.321 237.571 459.393 230.747C460.848 227.512 462.465 224.343 464.18 221.238C465.732 218.425 467.155 215.449 466.379 212.183C466.282 212.377 466.152 212.571 466.055 212.765C469.192 212.215 470.551 209.046 471.359 206.264C472.685 201.607 473.882 196.821 475.014 192.099C477.181 183.108 478.345 173.438 474.788 164.641C474.658 164.317 474.238 164.123 473.979 164.414C471.23 167.422 468.481 170.462 465.732 173.47C464.438 174.893 463.048 176.251 461.851 177.771C461.075 178.806 460.654 179.777 460.848 181.07C461.042 180.876 461.236 180.682 461.431 180.488C459.102 179.906 457.97 183.722 457.194 185.242C455.641 188.315 454.186 191.42 452.86 194.557C450.208 200.701 447.944 207.04 446.036 213.444C445.777 214.091 446.715 214.35 446.909 213.767Z" fill="#E8E8E8"/>
<path d="M472.2 173.502C462.11 192.325 451.825 211.73 449.4 233.237C449.335 233.851 450.305 233.851 450.37 233.237C452.795 211.892 463.048 192.616 473.041 173.988C473.364 173.438 472.524 172.953 472.2 173.502Z" fill="#E8E8E8"/>
<path d="M430.124 186.439C437.983 207.235 442.673 229.162 444.063 251.348C444.096 251.963 445.066 251.963 445.033 251.348C443.643 229.065 438.953 207.073 431.062 186.18C430.836 185.631 429.898 185.857 430.124 186.439Z" fill="#E8E8E8"/>
<path d="M21.4588 176.025C41.187 172.5 61.5621 172.694 81.2256 176.607C90.9603 178.548 100.501 181.361 109.686 185.048C119.291 188.897 128.509 193.522 137.92 197.791C173.431 213.897 211.432 224.44 250.144 229.032C272.104 231.652 294.29 232.331 316.347 231.102C316.962 231.07 316.962 230.1 316.347 230.132C276.761 232.364 236.885 228.321 198.528 218.263C179.285 213.218 160.43 206.652 142.221 198.664C132.778 194.524 123.56 189.867 114.084 185.824C105.029 181.976 95.6822 178.871 86.1091 176.672C64.8609 171.821 42.6747 171.271 21.2001 175.119C20.5856 175.184 20.8443 176.122 21.4588 176.025Z" fill="#E8E8E8"/>
<path d="M197.396 217.551C215.798 218.489 233.553 211.859 250.856 206.555C268.967 201.025 287.143 195.656 305.351 190.417C323.462 185.21 341.574 179.744 359.976 175.572C378.313 171.433 397.007 169.46 415.797 168.91C436.722 168.263 457.647 169.201 478.539 170.171C479.154 170.204 479.154 169.233 478.539 169.201C441.638 167.519 404.251 165.87 367.77 172.953C349.271 176.543 331.16 182.041 313.048 187.183C294.84 192.39 276.664 197.726 258.521 203.192C248.463 206.232 238.437 209.531 228.314 212.312C218.224 215.093 207.874 217.099 197.363 216.581C196.781 216.549 196.781 217.519 197.396 217.551Z" fill="#E8E8E8"/>
<path d="M118.871 184.369C131.646 188.056 144.906 185.501 157.648 183.043C171.296 180.424 185.074 178.645 198.98 178.095C226.535 177.06 253.928 181.006 281.386 182.105C296.587 182.72 311.852 182.364 326.858 179.874C327.473 179.777 327.214 178.839 326.599 178.936C299.594 183.431 272.169 180.747 245.067 178.71C231.516 177.675 217.932 176.801 204.317 177.028C190.83 177.254 177.344 178.548 164.019 180.909C149.272 183.496 133.942 187.765 119.097 183.464C118.515 183.27 118.256 184.208 118.871 184.369Z" fill="#E8E8E8"/>
<path d="M176.115 246.691C180.255 244.977 184.718 244.104 189.213 244.233C193.385 244.362 197.137 245.721 201.18 246.561C204.187 247.208 207.195 247.208 209.621 245.074C210.559 244.265 211.367 243.424 212.726 243.845C213.728 244.136 214.569 244.815 215.507 245.235C216.606 245.753 217.738 245.947 218.903 245.721C221.684 245.171 223.786 242.875 226.212 241.549C230.319 239.349 234.265 242.292 238.275 243.36C246.619 245.591 255.545 244.912 264.084 244.815C274.595 244.718 285.138 244.783 295.584 243.489C296.199 243.424 296.199 242.454 295.584 242.519C286.205 243.651 276.729 243.715 267.285 243.812C258.295 243.909 248.786 244.75 239.925 242.745C237.855 242.292 235.914 241.613 233.941 240.805C232.227 240.093 230.449 239.414 228.573 239.673C225.63 240.061 223.431 242.389 220.94 243.812C219.647 244.556 218.224 245.074 216.736 244.653C215.119 244.168 213.793 242.745 212.014 242.681C210.332 242.648 209.524 244.006 208.295 244.88C206.581 246.076 204.414 246.109 202.409 245.785C198.14 245.106 194.162 243.457 189.796 243.263C185.041 243.036 180.287 243.909 175.856 245.753C175.274 245.979 175.533 246.917 176.115 246.691Z" fill="#E8E8E8"/>
<path d="M196.749 217.842C197.331 217.939 197.881 218.069 198.463 218.166C199.077 218.295 199.304 217.454 198.722 217.228C198.366 217.099 198.01 216.969 197.622 216.84C197.105 216.646 196.749 217.487 197.234 217.713C200.209 219.265 203.314 220.494 206.548 221.368C207.163 221.529 207.422 220.591 206.807 220.43C203.638 219.589 200.63 218.392 197.719 216.872C197.59 217.163 197.46 217.454 197.331 217.745C197.687 217.875 198.043 218.004 198.431 218.134C198.528 217.81 198.592 217.519 198.689 217.196C198.107 217.099 197.557 216.969 196.975 216.872C196.393 216.775 196.134 217.713 196.749 217.842Z" fill="#E8E8E8"/>
<path d="M153.282 262.668C152.571 261.827 151.924 260.953 151.374 259.983C151.115 259.498 150.792 258.981 150.63 258.431C150.404 258.075 150.371 257.655 150.501 257.234C150.404 256.781 150.533 256.426 150.857 256.167C151.342 254.841 150.759 253.45 150.436 252.092C149.951 249.957 149.466 247.823 148.981 245.688C148.722 244.556 148.463 243.457 148.237 242.325C148.107 241.807 148.01 241.322 147.881 240.805C147.687 239.899 147.493 239.479 148.172 238.735C148.496 238.056 148.981 237.926 149.628 238.444C149.919 238.735 150.21 239.026 150.501 239.317C150.824 239.737 151.051 240.223 151.309 240.675C151.762 241.516 152.215 242.357 152.635 243.198C153.638 245.203 154.511 247.273 155.255 249.375C156.678 253.321 157.648 257.396 158.23 261.568C158.392 261.374 158.554 261.147 158.683 260.953C158.748 261.018 158.78 261.115 158.845 261.18C159.007 260.565 158.069 260.307 157.907 260.921C157.778 261.503 158.069 261.924 158.683 261.924C159.039 261.924 159.201 261.633 159.136 261.309C158.392 255.973 157.001 250.766 154.867 245.818C153.864 243.489 152.797 240.902 151.309 238.832C150.501 237.7 149.045 236.665 147.655 237.474C146.07 238.379 146.814 240.611 147.137 242.001C147.784 244.847 148.431 247.693 149.045 250.54C149.336 251.898 149.951 253.418 150.016 254.809C150.048 255.941 149.11 256.458 149.272 257.59C149.595 259.692 151.18 261.827 152.506 263.379C152.991 263.799 153.67 263.12 153.282 262.668Z" fill="#E8E8E8"/>
<path d="M156.258 248.761C155.772 245.85 155.837 242.875 156.516 239.996C156.678 239.252 156.904 238.541 157.163 237.829C157.616 236.6 158.263 236.73 158.91 237.635C159.75 238.832 160.397 240.158 160.882 241.516C162.855 247.144 161.982 253.192 161.141 258.916C161.044 259.53 161.982 259.789 162.079 259.175C163.146 251.963 164.246 243.78 159.88 237.344C159.395 236.633 158.748 235.436 157.745 235.598C156.678 235.792 156.322 237.247 156.031 238.088C154.867 241.613 154.673 245.365 155.287 248.987C155.449 249.634 156.387 249.375 156.258 248.761Z" fill="#E8E8E8"/>
<path d="M158.004 241.322C158.974 246.368 159.33 251.445 159.168 256.555C159.136 257.17 160.106 257.17 160.138 256.555C160.333 251.348 159.912 246.174 158.942 241.064C158.812 240.449 157.907 240.708 158.004 241.322Z" fill="#E8E8E8"/>
<path d="M39.0525 172.371C38.1146 170.301 36.0124 168.845 34.6864 167.034C33.231 165.029 32.0021 162.862 30.8054 160.728C30.7084 160.954 30.6114 161.213 30.5144 161.439C37.015 160.275 40.7666 166.678 42.0279 172.079C42.1572 172.694 43.0951 172.435 42.9658 171.821C41.5751 165.838 37.306 159.272 30.2556 160.501C29.9322 160.566 29.8352 160.954 29.9646 161.213C31.1612 163.38 32.3578 165.547 33.8455 167.519C35.1715 169.33 37.306 170.851 38.2116 172.856C38.4703 173.438 39.3112 172.953 39.0525 172.371Z" fill="#E8E8E8"/>
<path d="M41.8662 167.164C42.3513 162.086 47.2025 158.917 49.0783 154.421C48.8519 154.518 48.5932 154.615 48.3668 154.712C50.5337 156.103 48.9166 161.148 48.3021 163.089C47.3966 165.935 45.9089 168.522 44.0007 170.786C43.6127 171.271 44.2918 171.95 44.6799 171.465C47.0732 168.651 48.7873 165.385 49.6605 161.795C50.2103 159.531 51.2452 155.424 48.8519 153.871C48.5609 153.677 48.2375 153.904 48.1404 154.162C46.2 158.819 41.4134 161.86 40.896 167.164C40.8313 167.778 41.8015 167.778 41.8662 167.164Z" fill="#E8E8E8"/>
<path d="M329.057 181.846C328.766 181.103 328.475 180.359 328.184 179.615C328.022 179.259 327.893 178.871 327.731 178.515C327.537 178.257 327.537 177.965 327.699 177.674C327.99 177.933 328.572 177.771 328.54 177.319C328.378 175.702 328.216 174.052 328.055 172.435C328.022 172.047 327.634 170.527 327.861 170.236C328.863 168.845 329.542 171.141 329.64 171.497C330.513 174.473 330.48 177.901 330.448 180.973C330.448 181.588 331.418 181.588 331.418 180.973C331.451 178.451 331.321 175.96 330.966 173.47C330.739 171.885 330.48 169.589 328.928 168.651C327.925 168.037 327.085 168.684 326.891 169.751C326.696 170.786 327.02 172.015 327.117 173.017C327.246 174.44 327.408 175.863 327.537 177.286C327.828 177.157 328.087 177.06 328.378 176.931C327.828 176.413 326.988 176.51 326.664 177.222C326.438 177.707 326.632 178.224 326.793 178.709C327.182 179.841 327.699 180.941 328.119 182.073C328.346 182.687 329.284 182.429 329.057 181.846Z" fill="#E8E8E8"/>
<path d="M331.224 176.575C331.095 172.047 332.033 167.616 334.006 163.509C333.747 163.541 333.488 163.574 333.229 163.606C335.332 165.352 333.941 170.074 333.585 172.338C333.1 175.378 332.486 178.418 331.709 181.394C331.548 182.008 332.486 182.267 332.647 181.653C333.585 178.03 334.297 174.343 334.814 170.624C335.138 168.231 336.075 164.706 333.909 162.895C333.682 162.7 333.294 162.7 333.132 162.992C331.095 167.228 330.092 171.821 330.222 176.543C330.286 177.189 331.257 177.189 331.224 176.575Z" fill="#E8E8E8"/>
<path d="M161.497 275.572C163.534 273.502 166.704 276.283 169.065 276.154C170.197 276.089 171.232 275.669 172.267 275.313C173.657 274.86 174.983 274.699 176.439 274.828C182.195 275.313 187.79 275.733 193.579 275.345C194.194 275.313 194.194 274.343 193.579 274.375C190.442 274.569 187.338 274.634 184.2 274.504C181.031 274.375 177.732 273.599 174.595 273.825C173.334 273.922 172.169 274.343 170.973 274.731C169.226 275.281 167.9 275.184 166.219 274.569C164.375 273.89 162.305 273.34 160.785 274.893C160.365 275.345 161.044 276.025 161.497 275.572Z" fill="#E8E8E8"/>
<path d="M100.404 283.431C102.668 280.973 106.646 280.811 109.039 283.14C109.071 282.881 109.104 282.622 109.136 282.363C107.454 283.172 105.74 283.528 103.897 283.431C103.282 283.398 103.282 284.369 103.897 284.401C105.934 284.498 107.81 284.11 109.654 283.204C109.945 283.075 109.977 282.655 109.751 282.428C106.969 279.744 102.344 279.873 99.7248 282.719C99.3044 283.204 99.9836 283.884 100.404 283.431Z" fill="#E8E8E8"/>
<path d="M10.2687 292.163C8.61931 292.033 6.9699 292.519 5.70859 293.651C4.9324 294.362 3.83279 295.688 4.83537 296.626C5.96732 297.661 8.68399 296.982 10.01 296.852C12.4356 296.594 14.7965 296.141 17.1574 295.526C17.7719 295.365 17.5132 294.427 16.8987 294.588C14.0527 295.332 11.1743 295.817 8.23122 296.011C7.64907 296.044 7.03459 296.108 6.45244 296.108C4.99708 296.044 5.67625 294.944 6.38776 294.33C7.45502 293.359 8.8457 293.004 10.2687 293.133C10.9155 293.165 10.8832 292.195 10.2687 292.163Z" fill="#E8E8E8"/>
<path d="M56.4845 265.481C56.5491 265.223 56.7432 265.061 57.0019 265.061C57.2283 265.029 57.4547 264.996 57.6488 264.964C58.1662 264.899 58.6513 264.932 59.1688 264.996C60.1714 265.126 61.0769 265.481 61.9502 266.031C61.9825 265.74 62.0148 265.449 62.0795 265.158C60.8829 265.578 59.6863 265.675 58.4249 265.481C57.8105 265.384 57.5517 266.322 58.1662 266.419C59.5892 266.646 60.9476 266.549 62.3383 266.096C62.7263 265.966 62.8234 265.449 62.4676 265.223C60.7859 264.155 58.5867 263.638 56.6138 264.188C55.5466 264.479 54.7057 266.128 56.2257 266.452C56.8402 266.549 57.099 265.611 56.4845 265.481Z" fill="#E8E8E8"/>
<path d="M83.2631 43.0698C75.5659 40.3531 70.0678 32.8823 69.227 24.7969C68.3537 16.4529 73.0432 8.49689 80.0937 4.22783C87.6939 -0.364641 98.4959 -0.396982 104.738 6.55641C107.94 10.0816 109.912 14.9005 111.077 19.4606C112.273 24.1501 112.467 29.3571 109.783 33.5938C107.066 37.8305 102.215 40.1914 97.655 41.9702C92.8361 43.8783 87.047 45.366 82.3252 42.3906C81.8077 42.0672 81.3226 42.9081 81.8401 43.2315C86.0768 45.8835 91.1867 45.2043 95.7145 43.7166C100.145 42.2613 104.835 40.2238 108.263 36.9249C115.928 29.5834 112.791 17.4554 108.004 9.40245C105.482 5.13339 101.698 1.99628 96.8788 0.702624C92.2863 -0.526348 87.3705 -0.10591 83.0044 1.67286C74.9837 4.97168 68.7095 12.6689 68.192 21.4658C67.6099 31.1682 73.8518 40.7736 83.0044 44.0077C83.5865 44.2341 83.8452 43.2962 83.2631 43.0698Z" fill="#E8E8E8"/>
<path d="M326.438 230.811C348.495 229.421 370.422 226.445 392.026 221.885C398.268 220.559 404.477 219.104 410.655 217.519C411.269 217.357 411.01 216.419 410.396 216.581C388.986 222.047 367.188 225.992 345.196 228.289C338.954 228.935 332.712 229.453 326.47 229.841C325.823 229.873 325.823 230.844 326.438 230.811Z" fill="#E8E8E8"/>
<path d="M275.888 254.162C278.734 254.647 281.645 254.615 284.459 253.935C286.205 253.515 287.466 252.836 289.277 253.418C290.409 253.774 291.477 253.903 292.641 253.677C293.935 253.418 295.131 252.771 296.231 252.06C297.428 251.251 298.624 250.119 300.08 249.828C301.761 249.505 303.281 250.831 304.898 251.186C306.063 251.445 307.259 251.413 308.424 251.219C309.038 251.122 308.779 250.184 308.165 250.281C306.127 250.637 304.543 250.119 302.699 249.311C301.923 248.955 301.179 248.761 300.306 248.825C297.686 249.117 295.875 251.574 293.45 252.448C291.897 252.997 290.636 252.803 289.116 252.318C287.951 251.963 287.111 252.157 285.979 252.512C282.777 253.515 279.51 253.806 276.212 253.256C275.565 253.127 275.274 254.065 275.888 254.162Z" fill="#E8E8E8"/>
<path d="M115.637 296.238C140.766 296.238 165.895 296.238 191.024 296.238C192.286 296.238 192.286 294.297 191.024 294.297C165.895 294.297 140.766 294.297 115.637 294.297C114.375 294.297 114.375 296.238 115.637 296.238Z" fill="#161616"/>
<path d="M196.425 295.656C199.369 295.656 202.312 295.656 205.255 295.656C206.516 295.656 206.516 293.715 205.255 293.715C202.312 293.715 199.369 293.715 196.425 293.715C195.164 293.715 195.164 295.656 196.425 295.656Z" fill="#161616"/>
<path d="M211.788 295.365C212.726 295.365 213.696 295.365 214.634 295.365C215.895 295.365 215.895 293.424 214.634 293.424C213.696 293.424 212.726 293.424 211.788 293.424C210.526 293.424 210.526 295.365 211.788 295.365Z" fill="#161616"/>
<path d="M34.557 303.353C53.1533 303.353 71.7173 303.353 90.3135 303.353C91.5748 303.353 91.5748 301.412 90.3135 301.412C71.7173 301.412 53.1533 301.412 34.557 301.412C33.3281 301.412 33.3281 303.353 34.557 303.353Z" fill="#161616"/>
<path d="M95.7146 303.353C100.566 303.353 105.385 303.353 110.236 303.353C111.497 303.353 111.497 301.412 110.236 301.412C105.385 301.412 100.566 301.412 95.7146 301.412C94.4856 301.412 94.4856 303.353 95.7146 303.353Z" fill="#161616"/>
<path d="M118.483 302.771C118.774 302.771 119.065 302.771 119.324 302.771C119.841 302.771 120.326 302.318 120.294 301.801C120.262 301.283 119.874 300.83 119.324 300.83C119.033 300.83 118.742 300.83 118.483 300.83C117.965 300.83 117.48 301.283 117.513 301.801C117.545 302.318 117.933 302.771 118.483 302.771Z" fill="#161616"/>
<path d="M24.3372 303.612C25.0163 303.612 25.6632 303.612 26.3423 303.612C27.6036 303.612 27.6036 301.671 26.3423 301.671C25.6632 301.671 25.0163 301.671 24.3372 301.671C23.0758 301.671 23.0758 303.612 24.3372 303.612Z" fill="#161616"/>
<path d="M280.61 268.069C306.677 268.069 332.744 268.069 358.844 268.069C360.105 268.069 360.105 266.128 358.844 266.128C332.777 266.128 306.709 266.128 280.61 266.128C279.349 266.128 279.349 268.069 280.61 268.069Z" fill="#161616"/>
<path d="M369.064 266.937C392.673 266.937 416.282 266.937 439.891 266.937C441.153 266.937 441.153 264.996 439.891 264.996C416.282 264.996 392.673 264.996 369.064 264.996C367.835 264.996 367.835 266.937 369.064 266.937Z" fill="#161616"/>
<path d="M446.165 266.355C448.074 266.355 449.949 266.355 451.857 266.355C453.119 266.355 453.119 264.414 451.857 264.414C449.949 264.414 448.074 264.414 446.165 264.414C444.904 264.414 444.904 266.355 446.165 266.355Z" fill="#161616"/>
<path d="M421.133 255.552C426.534 255.552 431.935 255.552 437.336 255.552C438.598 255.552 438.598 253.612 437.336 253.612C431.935 253.612 426.534 253.612 421.133 253.612C419.872 253.612 419.872 255.552 421.133 255.552Z" fill="#161616"/>
<path d="M442.737 255.261C444.063 255.261 445.389 255.261 446.715 255.261C447.977 255.261 447.977 253.321 446.715 253.321C445.389 253.321 444.063 253.321 442.737 253.321C441.508 253.321 441.508 255.261 442.737 255.261Z" fill="#161616"/>
<path d="M264.957 273.761C271.878 273.761 278.799 273.761 285.72 273.761C286.981 273.761 286.981 271.82 285.72 271.82C278.799 271.82 271.878 271.82 264.957 271.82C263.728 271.82 263.728 273.761 264.957 273.761Z" fill="#161616"/>
<path d="M293.126 273.47C296.069 273.47 299.012 273.47 301.955 273.47C303.217 273.47 303.217 271.529 301.955 271.529C299.012 271.529 296.069 271.529 293.126 271.529C291.865 271.529 291.865 273.47 293.126 273.47Z" fill="#161616"/>
<path d="M305.933 278.321C307.938 278.321 309.911 278.321 311.916 278.321C313.178 278.321 313.178 276.38 311.916 276.38C309.911 276.38 307.938 276.38 305.933 276.38C304.672 276.38 304.672 278.321 305.933 278.321Z" fill="#161616"/>
<path d="M168.191 116.161C167.027 114.706 171.426 113.8 172.137 113.509C173.528 112.895 174.401 111.763 174.724 110.275C175.048 108.755 174.724 107.138 175.177 105.65C175.856 103.451 178.379 103.58 180.255 103.677C181.516 103.742 181.484 101.802 180.255 101.737C178.12 101.608 175.662 101.672 174.175 103.419C172.849 104.971 173.107 107.073 172.946 108.981C172.816 110.696 172.169 111.536 170.488 112.022C169.517 112.313 168.547 112.474 167.739 113.089C166.251 114.156 165.636 116.032 166.833 117.52C167.577 118.522 168.968 117.131 168.191 116.161Z" fill="#161616"/>
<path d="M175.08 117.778C174.207 116.744 176.212 115.709 176.859 115.32C177.732 114.803 178.476 114.318 179.123 113.542C180.449 111.957 181.322 108.949 183.715 108.82C184.944 108.755 184.977 106.815 183.715 106.879C179.737 107.073 179.414 111.213 176.697 113.154C175.533 113.962 174.142 114.415 173.398 115.709C172.719 116.873 172.849 118.134 173.69 119.137C174.498 120.107 175.889 118.716 175.08 117.778Z" fill="#161616"/>
<path d="M326.632 13.0893C326.502 15.1591 324.885 17.6494 326.826 19.3959C328.508 20.8836 330.61 19.784 332.518 19.9133C334.62 20.075 333.715 22.0155 333.456 23.4385C333.262 24.5058 333.165 25.6701 333.65 26.705C334.426 28.3221 336.528 29.357 338.081 28.1927C339.051 27.4489 338.081 25.7671 337.11 26.511C335.526 27.7076 335.202 24.8292 335.364 23.956C335.526 23.0181 335.849 22.0802 335.881 21.11C335.914 19.7516 335.202 18.6843 333.941 18.2316C332.389 17.6818 330.998 18.2963 329.445 18.2639C326.632 18.1992 328.508 14.771 328.605 13.0893C328.669 11.828 326.729 11.828 326.632 13.0893Z" fill="#161616"/>
<path d="M337.757 15.3209C336.949 17.0673 336.173 19.1372 337.466 20.8836C337.951 21.5305 338.598 21.9186 339.374 22.0479C339.892 22.1126 340.571 21.8862 341.024 22.0803C341.768 22.3713 342.188 23.2445 341.832 24.0207C341.282 25.1527 342.964 26.1229 343.514 24.991C344.193 23.5356 343.934 21.8539 342.641 20.7866C341.929 20.2045 341.282 20.2045 340.409 20.1074C338.048 19.881 338.695 17.9082 339.439 16.3235C339.956 15.1915 338.275 14.189 337.757 15.3209Z" fill="#161616"/>
<path d="M440.829 82.397C440.118 80.5535 441.832 77.9015 443.999 78.5807C445.648 79.1305 446.392 81.5884 445.292 82.9468C444.516 83.917 445.874 85.2754 446.651 84.3051C448.656 81.8795 447.653 77.6428 444.516 76.7049C441.055 75.67 437.724 79.6156 438.986 82.8821C439.406 84.0787 441.282 83.5613 440.829 82.397Z" fill="#161616"/>
<path d="M63.2762 159.175C63.0821 156.879 65.9928 155.585 67.2218 157.752C68.2567 159.628 66.2192 161.277 64.4404 160.663C63.2762 160.242 62.7587 162.118 63.923 162.539C67.5129 163.832 70.9087 159.757 68.7418 156.523C66.4133 153.063 61.0123 155.1 61.368 159.175C61.4327 160.404 63.3732 160.437 63.2762 159.175Z" fill="#161616"/>
<path d="M74.531 68.5224C73.7871 69.7513 73.7224 71.3361 74.6927 72.468C75.1778 73.0178 75.8569 73.3736 76.5685 73.5029C77.571 73.6646 78.3149 73.1148 79.1881 73.5353C80.0613 73.9881 79.8673 74.5379 79.9643 75.4434C79.9966 75.9932 80.029 76.5107 80.0937 77.0605C80.1583 77.6426 80.223 78.2248 80.6435 78.6776C81.0316 79.098 81.5167 79.2597 82.0665 79.3567C82.4546 79.4214 82.8427 79.3891 83.2631 79.3891C83.5865 79.3891 83.9423 79.3891 84.2657 79.4537C84.8802 79.6154 85.1389 80.0359 85.0742 80.6504C84.5891 81.0061 85.0419 81.847 85.5594 81.4912C86.5296 80.7797 86.2062 79.6801 85.3653 78.9686C84.9772 78.6452 84.5568 78.4835 84.0393 78.4188C82.3576 78.1924 81.3873 78.8393 80.9992 76.4783C80.8052 75.314 81.2256 72.8884 80.029 72.1123C79.4792 71.7565 78.9941 71.9182 78.4443 72.1446C77.571 72.5004 76.8595 72.7914 75.954 72.2416C74.725 71.4978 74.6927 70.0424 75.3718 68.9428C75.6952 68.49 74.8544 68.0049 74.531 68.5224Z" fill="#EC615B"/>
<path d="M87.5969 72.3711C86.95 73.5031 86.1738 75.2172 87.1764 76.3815C87.8233 77.1576 88.9229 77.0606 89.7637 77.5457C91.0897 78.2896 91.7042 79.842 91.4455 81.2973C91.3485 81.9118 92.2864 82.1706 92.3834 81.5561C92.6421 80.1007 92.3187 78.6777 91.3161 77.5781C90.8957 77.093 90.3459 76.7372 89.7637 76.4785C89.0846 76.1874 87.9203 75.8317 87.6939 74.9908C87.5322 74.3763 88.179 73.3414 88.4377 72.8562C88.7288 72.3064 87.8879 71.8213 87.5969 72.3711Z" fill="#EC615B"/>
<path d="M269.646 174.505C268.547 172.241 270.617 169.589 273.074 170.462C275.629 171.368 275.532 174.861 273.107 175.831C272.525 176.057 272.783 176.995 273.366 176.769C276.503 175.508 276.923 171.012 273.657 169.654C270.293 168.231 267.318 171.885 268.838 175.023C269.096 175.572 269.937 175.055 269.646 174.505Z" fill="#EC615B"/>
<path d="M150.533 166.84C148.463 166.42 151.794 164.188 152.15 163.962C152.668 163.606 153.153 163.218 153.412 162.603C154.285 160.63 152.7 156.685 156.193 156.491C156.807 156.458 156.807 155.488 156.193 155.521C154.835 155.585 153.832 156.329 153.217 157.493C152.215 159.369 153.412 161.924 151.471 163.218C150.371 163.962 149.207 164.447 149.078 165.902C149.013 166.775 149.369 167.552 150.274 167.746C150.889 167.907 151.148 166.969 150.533 166.84Z" fill="#EC615B"/>
<path d="M156.743 164.026C155.837 162.765 156.355 160.986 157.875 160.501C158.91 160.178 159.686 160.34 160.268 159.272C160.85 158.173 160.753 156.879 161.4 155.747C162.208 154.292 163.567 153.289 165.119 152.804C165.701 152.61 165.475 151.672 164.86 151.866C163.405 152.319 162.144 153.127 161.206 154.324C160.721 154.939 160.3 155.65 160.042 156.426C159.686 157.461 159.847 158.852 158.683 159.402C157.972 159.757 157.26 159.563 156.581 160.081C156.128 160.404 155.805 160.889 155.611 161.374C155.158 162.442 155.255 163.574 155.934 164.512C156.258 165.029 157.098 164.544 156.743 164.026Z" fill="#EC615B"/>
<path d="M123.852 15.2886C123.269 14.1243 125.76 14.5448 125.857 14.5771C126.212 14.7065 126.568 14.9975 126.892 15.1916C127.409 15.4827 127.991 15.7737 128.606 15.8061C129.414 15.8384 130.093 15.4827 130.611 14.9005C132.099 13.0894 131.549 8.39991 135.042 9.79058C136.077 10.211 137.241 10.8255 138.373 10.308C139.278 9.88761 139.472 8.98205 139.343 8.07649C139.278 7.62371 138.761 6.71816 138.89 6.26538C139.149 5.39216 139.958 5.32748 140.572 5.61855C140.863 5.74792 141.122 5.94196 141.445 6.03899C142.415 6.39474 143.353 6.33006 143.935 5.4245C144.259 4.90704 143.418 4.42192 143.095 4.93938C142.448 5.97431 139.86 3.83978 138.696 4.4866C137.758 4.97172 137.791 5.94196 138.017 6.84752C138.276 7.91479 138.923 9.46717 136.95 9.43483C136.077 9.43483 135.268 8.69098 134.427 8.52927C133.425 8.33522 132.519 8.59395 131.872 9.37015C130.255 11.2783 130.87 16.2589 127.118 14.2213C126.018 13.6392 125.113 13.0571 123.884 13.6069C122.946 14.0273 122.493 14.8358 122.978 15.7737C123.302 16.3235 124.11 15.8384 123.852 15.2886Z" fill="#5222D0"/>
<path d="M162.37 41.679C160.915 41.3232 160.721 39.4474 161.432 38.3478C162.435 36.7954 164.796 36.8925 166.38 37.1835C169.032 37.6687 171.49 38.7036 174.175 37.701C176.762 36.7308 178.702 34.6286 181.613 34.5639C184.653 34.4992 187.532 35.8252 190.604 35.7282C195.973 35.5665 200.856 32.9145 205.998 31.6855C209.039 30.9417 212.014 30.877 215.054 31.6532C217.965 32.397 220.681 33.5937 223.592 34.3052C226.632 35.0814 229.64 34.952 232.712 34.6933C236.076 34.4345 239.536 34.1758 242.577 35.9222C242.512 35.7282 242.415 35.5665 242.35 35.3724C240.733 40.1266 235.494 42.0671 230.869 42.3258C225.08 42.6492 219.452 40.547 213.631 40.7734C207.745 40.9998 202.764 44.5897 196.975 45.1395C191.057 45.7217 185.462 42.908 179.576 43.0697C173.592 43.2314 165.798 46.4979 161.076 41.1615C160.656 40.7087 159.977 41.3879 160.397 41.8407C164.116 46.0127 170.003 45.2689 174.951 44.525C178.605 43.9752 181.937 43.9429 185.591 44.6544C188.696 45.2689 191.801 46.1098 194.97 46.1744C201.374 46.3361 206.775 42.1965 213.081 41.776C219.452 41.3556 225.63 43.9105 232.001 43.199C236.755 42.6816 241.703 40.45 243.32 35.5988C243.385 35.4048 243.288 35.146 243.094 35.049C237.402 31.7179 230.546 34.855 224.433 33.4643C221.07 32.6881 217.932 31.2004 214.537 30.4889C211.594 29.8421 208.683 30.0038 205.772 30.7153C202.667 31.4591 199.724 32.6881 196.684 33.626C193.191 34.6933 189.86 35.0167 186.238 34.2728C183.36 33.6583 180.708 33.1732 177.991 34.5316C176.73 35.1784 175.565 36.0516 174.272 36.6337C172.072 37.604 169.97 37.0218 167.739 36.472C165.378 35.9222 161.82 35.5341 160.494 38.1538C159.653 39.8032 160.235 42.1641 162.176 42.6169C162.726 42.7463 162.985 41.8084 162.37 41.679Z" fill="#E8E8E8"/>
<path d="M27.7007 91.5171C32.0991 90.9349 36.2712 93.1988 40.6373 92.649C42.416 92.4226 44.0654 91.6464 45.7149 90.9673C46.4911 90.6439 47.2996 90.3528 48.1405 90.1587C49.7252 89.803 51.1482 90.2234 52.7006 90.5468C57.0343 91.4847 61.8855 90.4498 66.2193 89.8353C68.3538 89.5443 70.456 89.2208 72.5905 88.8651C75.0161 88.4447 77.4417 87.7978 79.8673 87.5391C82.4223 87.2804 85.43 88.4123 84.3951 91.5494C83.5219 94.2338 80.2554 95.0099 77.7975 95.204C73.5284 95.5274 69.2917 94.2984 65.0226 95.107C61.0447 95.8508 57.4871 97.9207 53.6385 99.0526C51.504 99.6994 49.3694 99.9582 47.1702 99.6671C44.971 99.3437 42.9012 98.7939 40.6373 98.9556C36.0448 99.2467 31.1613 101.931 26.5688 100.864C23.7551 100.217 22.2997 97.6296 23.6581 94.9453C24.9841 92.358 28.0241 91.6788 30.6761 91.6788C31.2906 91.6788 31.2906 90.7085 30.6761 90.7085C26.9569 90.7085 22.5585 92.3256 22.1704 96.5947C21.8146 100.54 25.6956 102.157 29.0267 102.028C31.4523 101.931 33.8456 101.219 36.2065 100.67C39.2789 99.9582 42.0926 99.6994 45.1974 100.282C47.4936 100.702 49.6282 100.928 51.9567 100.476C54.35 100.023 56.6139 99.0526 58.8454 98.1471C61.1093 97.2415 63.4056 96.3036 65.8312 95.9478C68.6772 95.5274 71.5233 95.9802 74.3693 96.1419C78.0885 96.3683 84.007 96.2066 85.3654 91.8082C85.8505 90.2234 85.4947 88.38 84.104 87.345C82.7457 86.3425 80.9022 86.4071 79.3175 86.6012C73.4961 87.4097 67.7717 88.7357 61.8855 89.3826C58.5867 89.7383 55.4173 90.1587 52.1831 89.3826C49.5635 88.7357 47.4936 89.1885 45.0357 90.1911C43.742 90.7085 42.4807 91.2907 41.1224 91.5494C39.4406 91.8728 37.6942 91.6464 36.0125 91.3554C33.2634 90.8379 30.5791 90.1264 27.7977 90.4822C27.0862 90.6115 27.0862 91.5818 27.7007 91.5171Z" fill="#E8E8E8"/>
<path d="M421.78 129.971C415.667 132.106 408.52 127.06 404.122 123.244C404.057 123.503 403.992 123.794 403.895 124.053C407 122.791 410.266 122.727 413.565 122.921C416.832 123.082 420.098 123.309 423.365 123.406C430.318 123.6 437.304 123.438 444.225 122.921C447.815 122.662 451.372 122.306 454.93 121.886C456.676 121.659 458.778 121.239 460.428 122.047C462.724 123.212 462.53 125.734 460.331 126.705C459.199 127.19 457.97 127.351 456.773 127.578C454.898 127.901 453.022 128.257 451.146 128.58C447.718 129.195 444.29 129.809 440.829 130.424C438.856 130.78 436.883 131.135 434.911 131.491C433.067 131.815 431.159 132.3 429.251 132.332C426.017 132.364 423.591 129.518 420.357 129.874C419.742 129.939 419.742 130.909 420.357 130.844C422.2 130.618 423.656 131.62 425.241 132.364C426.534 132.979 427.795 133.302 429.219 133.302C432.938 133.27 436.786 132.138 440.441 131.459C444.387 130.747 448.365 130.036 452.31 129.324C454.186 129.001 456.062 128.645 457.938 128.322C459.199 128.095 460.525 127.804 461.625 127.06C463.468 125.799 463.533 123.47 461.98 121.95C459.555 119.557 455.383 120.818 452.44 121.142C444.484 122.015 436.463 122.468 428.442 122.436C424.044 122.436 419.645 122.274 415.247 121.983C411.334 121.756 407.356 121.562 403.669 123.05C403.378 123.179 403.151 123.6 403.442 123.859C408.1 127.901 415.538 133.108 422.039 130.844C422.621 130.715 422.394 129.777 421.78 129.971Z" fill="#E8E8E8"/>
<path d="M273.463 300.83C273.172 298.987 275.791 299.278 276.826 299.634C277.635 299.892 278.411 300.216 279.252 300.313C281.257 300.572 283.23 299.892 285.106 299.278C286.917 298.663 288.825 297.984 290.765 298.178C293.094 298.405 294.97 300.313 294.614 302.771C294.226 305.326 291.606 306.522 289.278 305.811C287.693 305.326 286.302 304.323 284.653 304.064C281.16 303.547 277.505 306.587 274.142 304.97C273.592 304.711 273.075 305.52 273.657 305.811C275.662 306.781 277.667 306.328 279.704 305.746C280.998 305.39 282.356 304.938 283.715 304.97C285.3 305.002 286.593 305.779 287.984 306.361C289.957 307.202 292.027 307.363 293.773 305.94C295.261 304.744 295.908 302.835 295.455 300.992C294.096 295.656 287.952 297.305 284.265 298.534C282.518 299.116 280.675 299.666 278.799 299.278C277.602 299.019 276.47 298.275 275.177 298.308C273.624 298.34 272.234 299.472 272.492 301.089C272.622 301.704 273.56 301.445 273.463 300.83Z" fill="#E8E8E8"/>
<path d="M236.173 290.061C237.725 288.605 239.86 287.991 241.962 288.444C242.835 288.638 245.261 289.285 243.741 290.449C242.932 291.063 241.154 290.999 240.183 290.999C239.569 290.999 239.569 291.969 240.183 291.969C241.606 291.969 244.097 291.904 245.164 290.772C246.069 289.802 245.035 288.735 244.161 288.25C241.38 286.633 237.79 287.247 235.494 289.382C235.041 289.802 235.72 290.481 236.173 290.061Z" fill="#E8E8E8"/>
<path d="M218.191 311.503C217.933 311.406 217.706 311.309 217.447 311.212C217.415 311.471 217.383 311.729 217.35 311.988C219.323 310.565 221.555 311.6 223.657 312.085C225.436 312.506 226.988 312.311 228.735 311.891C230.901 311.374 233.101 311.05 235.332 310.921C236.367 310.856 237.402 310.824 238.437 310.791C239.407 310.759 241.833 310.274 240.992 311.923C239.989 313.896 237.079 313.961 235.3 313.379C233.78 312.894 232.357 312.182 230.74 312.57C229.058 312.958 227.635 314.026 225.888 314.381C223.56 314.866 221.264 314.64 219.032 313.832C218.45 313.637 218.191 314.543 218.773 314.769C220.973 315.546 223.269 315.804 225.597 315.416C228.217 314.963 230.546 312.926 233.262 313.67C235.203 314.22 236.788 315.093 238.857 314.478C240.183 314.09 242.059 312.926 242.318 311.438C242.641 309.692 240.474 309.756 239.342 309.789C236.723 309.854 234.071 309.983 231.451 310.371C230.028 310.597 228.67 310.985 227.279 311.244C225.565 311.568 224.174 311.244 222.525 310.791C220.585 310.242 218.579 309.918 216.833 311.147C216.574 311.341 216.509 311.665 216.736 311.923C217.221 312.473 217.738 312.603 218.418 312.473C219.064 312.344 218.806 311.406 218.191 311.503Z" fill="#E8E8E8"/>
<path d="M351.761 292.971C353.637 292.195 355.61 291.775 357.647 291.807C359.749 291.839 361.528 292.648 363.533 293.101C366.476 293.812 368.676 292.001 371.069 290.61C374.853 288.379 378.604 289.834 382.55 290.643C385.364 291.225 388.371 291.322 390.797 289.608C391.314 289.252 390.829 288.411 390.312 288.767C387.272 290.966 383.52 289.899 380.189 289.09C377.052 288.347 373.947 287.926 371.004 289.543C369.71 290.255 368.514 291.193 367.155 291.807C365.086 292.745 363.404 292.001 361.399 291.419C358.132 290.481 354.672 290.74 351.535 292.033C350.92 292.26 351.179 293.198 351.761 292.971Z" fill="#E8E8E8"/>
<path d="M126.892 133.723C129.77 132.623 134.815 138.542 137.306 142.423C141.122 148.276 141.736 153.386 143.612 165.223C144.324 169.816 145.488 177.092 147.073 186.277C149.919 189.059 150.986 191.775 151.406 193.457C151.988 195.624 152.15 198.405 151.406 198.664C150.598 198.955 149.175 196.239 148.593 196.497C147.816 196.853 150.339 201.219 148.819 203.224C147.267 205.262 141.445 204.938 138.405 201.931C135.559 199.117 136.691 195.527 136.238 186.957C136.077 184.046 135.624 176.122 133.198 168.296C130.223 158.755 127.118 158.27 125.372 149.829C124.143 143.878 123.787 134.919 126.892 133.723Z" fill="white" stroke="#161616" stroke-width="2"/>
<path opacity="0.15" d="M131.161 142.067C132.939 141.679 136.044 149.732 136.238 150.184C139.084 157.623 137.726 160.792 138.987 171.756C140.022 180.682 140.604 185.76 143.483 192.034C146.264 198.05 149.498 201.575 148.269 203.192C147.04 204.841 142.221 203.257 138.437 201.736C138.082 200.928 137.564 199.667 137.144 198.114C136.076 194.33 136.141 191.323 136.141 189.867C136.141 189.059 136.109 179.68 134.265 171.497C133.263 167.131 132.81 167.778 131.646 163.25C129.091 153.418 129.188 142.487 131.161 142.067Z" fill="#6D6C6C"/>
<path opacity="0.17" d="M135.527 157.72C135.882 161.083 136.335 166.096 136.529 172.209C136.82 181.62 136.368 189.447 136.109 189.447C135.882 189.447 136.174 183.819 134.945 176.122C134.136 171.012 132.939 166.872 132.034 164.123C132.648 163.509 133.392 162.668 134.071 161.504C134.912 160.016 135.333 158.658 135.527 157.72Z" fill="#6D6C6C"/>
<path d="M133.295 272.435C132.454 273.987 132.325 275.669 134.265 290.319C134.492 292.13 134.718 293.618 134.848 294.653C139.796 295.429 146.782 296.044 155.061 295.235C160.074 294.75 165.928 294.2 166.251 292.292C166.51 290.74 163.114 287.958 147.59 282.654C146.879 277.48 146.135 272.305 145.423 267.131C136.335 267.745 133.974 271.238 133.295 272.435Z" fill="#161616"/>
<path d="M113.793 180.229C116.833 184.369 121.167 190.32 126.245 197.597C138.276 214.802 144.291 223.405 146.393 229.162C152.603 246.206 150.986 262.765 150.371 268.392C150.016 271.626 149.563 274.278 149.207 276.089C146.749 277.027 143.224 278.062 138.923 278.418C135.074 278.741 131.775 278.385 129.35 277.965C128.606 273.567 127.991 268.618 127.7 263.25C127.28 255.261 127.668 248.114 128.412 242.001C120.1 235.63 114.731 229.065 111.465 224.505C102.733 212.183 100.404 201.51 99.0134 194.654C97.0406 185.145 98.3989 182.558 99.6602 181.2C103.865 176.834 112.985 179.971 113.793 180.229Z" fill="white" stroke="#161616" stroke-width="2"/>
<path opacity="0.19" d="M114.731 207.526C118.062 210.339 122.396 214.511 126.601 220.236C127.765 221.853 132.584 228.742 136.82 239.802C142.642 255.132 143.127 269.427 142.868 277.512C141.445 278.03 139.44 278.58 137.047 278.774C133.845 279 131.225 278.45 129.544 277.933C128.509 271.626 127.733 264.349 127.668 256.264C127.635 251.025 127.862 246.141 128.282 241.678C127.474 241.225 111.853 232.428 112.047 217.713C112.079 213.606 113.373 210.113 114.731 207.526Z" fill="#6D6C6C"/>
<path opacity="0.15" d="M118.903 232.299C119.615 231.329 128.509 234.045 132.034 240.643C134.686 245.591 132.551 249.408 132.648 256.458C132.713 261.73 134.071 269.233 139.925 278.321C136.529 278.256 133.133 278.191 129.705 278.127C128.767 272.111 128.024 265.255 127.83 257.719C127.668 251.768 127.862 246.27 128.25 241.258C126.989 240.611 125.372 239.608 123.657 238.12C121.749 236.439 118.386 233.01 118.903 232.299Z" fill="#6D6C6C"/>
<path d="M76.148 269.88C73.6901 271.464 73.2697 273.664 71.0381 278.515C69.4857 281.878 67.1572 286.374 63.5673 291.484C65.6048 293.78 69.0006 296.982 73.9812 299.343C80.8052 302.577 90.3782 304.129 91.8659 301.315C93.4507 298.275 85.1389 291.063 82.6487 288.929C83.3278 287.409 84.4274 284.983 85.7858 282.04C89.3757 274.343 90.0872 273.211 89.505 271.82C88.1467 268.521 80.6112 267.034 76.148 269.88Z" fill="#161616"/>
<path d="M86.5296 172.92C84.5891 178.257 82.6163 183.593 80.6758 188.897C77.474 198.147 78.8647 204.55 79.8996 207.623C81.0316 211.018 83.0044 213.929 86.9177 219.718C89.9578 224.181 92.7068 227.771 94.712 230.262C90.7016 234.434 86.1415 239.835 81.8401 246.626C76.051 255.811 72.6228 264.446 70.5206 271.206C72.4288 272.661 75.3071 274.504 79.0911 275.895C83.3278 277.448 87.0794 277.803 89.6344 277.836C94.1298 274.375 100.275 268.974 105.999 261.05C110.495 254.873 116.542 246.562 118.483 234.919C121.782 215.093 111.012 198.955 107.163 193.198C100.21 182.752 91.8659 176.413 86.5296 172.92Z" fill="white" stroke="#161616" stroke-width="2"/>
<path d="M100.145 184.563C102.636 188.024 105.093 191.517 107.454 195.042C107.745 194.88 108.004 194.718 108.295 194.557C106.193 191.743 104.317 188.735 102.7 185.598C102.474 185.824 102.247 186.051 102.021 186.277C103.347 187.183 104.091 188.541 104.899 189.867C105.837 191.42 106.808 192.972 107.745 194.524C109.589 197.532 111.432 200.572 113.276 203.58C113.567 203.418 113.826 203.256 114.117 203.095C111.303 198.696 108.489 194.298 105.643 189.899C105.32 189.382 104.479 189.867 104.802 190.385C108.295 196.206 111.82 201.995 115.313 207.817C115.637 208.366 116.478 207.881 116.154 207.331C113.599 202.998 111.077 198.632 108.522 194.298C108.263 194.492 108.004 194.686 107.745 194.88C111.4 198.923 112.047 204.809 116.025 208.593C116.478 209.013 117.157 208.334 116.704 207.914C112.726 204.162 112.079 198.244 108.425 194.201C108.037 193.78 107.39 194.33 107.648 194.783C110.203 199.117 112.726 203.483 115.281 207.817C115.572 207.655 115.831 207.493 116.122 207.331C112.629 201.51 109.104 195.721 105.611 189.899C105.32 190.061 105.061 190.223 104.77 190.385C107.584 194.783 110.397 199.181 113.244 203.58C113.567 204.097 114.408 203.612 114.084 203.095C112.015 199.699 109.945 196.303 107.875 192.94C106.355 190.417 104.964 187.15 102.442 185.436C102.021 185.145 101.568 185.695 101.762 186.116C103.379 189.253 105.223 192.228 107.357 195.074C107.713 195.559 108.554 195.106 108.198 194.589C105.837 191.031 103.412 187.539 100.889 184.11C100.63 183.561 99.7895 184.046 100.145 184.563Z" fill="white"/>
<path opacity="0.2" d="M102.183 185.986C100.501 188.412 98.1724 192.422 97.1699 197.694C94.0974 213.67 107.034 220.753 104.156 234.757C102.636 242.131 98.7869 241.452 90.1841 256.781C85.818 264.576 83.0367 271.432 81.3873 276.089C79.2851 275.442 76.9889 274.601 74.5633 273.502C73.1402 272.855 71.8142 272.208 70.6176 271.529C72.5258 265.578 75.4041 258.398 79.7379 250.701C84.6538 242.001 90.0548 235.21 94.6149 230.197C93.3536 228.58 91.4778 226.122 89.3109 223.049C83.3278 214.576 80.2877 210.242 79.2851 205.262C78.1531 199.764 79.091 195.074 79.7379 191.905C80.7081 187.118 82.3575 183.366 83.6835 180.812C89.8284 182.526 96.0056 184.272 102.183 185.986Z" fill="#6D6C6C"/>
<path opacity="0.17" d="M94.5826 184.013C90.928 188.185 86.1415 195.042 86.5296 203.321C87.1118 216.29 99.9189 221.238 98.0755 231.879C97.558 234.822 93.483 239.544 85.3006 248.89C80.8052 254.032 76.9889 258.14 74.3693 260.889C76.3744 255.973 79.2851 250.087 83.4895 243.877C87.2088 238.379 91.0251 233.981 94.4209 230.52C93.4183 229 91.6395 226.284 89.408 222.92C81.6137 211.213 80.0937 209.369 79.2205 205.294C78.1855 200.508 78.8647 196.465 79.3822 193.457C80.3201 187.862 82.2929 183.561 83.7806 180.844C87.3705 181.879 90.9927 182.946 94.5826 184.013Z" fill="#6D6C6C"/>
<path d="M111.303 127.74C106.711 130.456 97.9784 136.439 91.3161 147.435C82.8426 161.439 82.8426 175.12 83.1337 180.424C84.7184 180.941 86.3355 181.458 87.9849 181.944C99.0133 185.242 109.686 187.474 119.776 188.897C120.617 186.019 121.523 183.108 122.493 180.1C123.948 175.669 125.469 171.433 127.021 167.39C132.39 164.609 134.265 161.019 134.88 159.531C137.37 153.71 135.009 147.629 132.454 141.064C131.031 137.377 130.287 135.501 128.509 133.496C122.946 127.19 113.761 127.578 111.303 127.74Z" fill="#EC615B"/>
<path opacity="0.27" d="M122.202 135.404C113.373 136.569 108.651 140.579 106.743 142.455C95.9733 153.095 99.6926 171.045 100.695 175.896C101.601 180.262 102.959 183.755 104.026 186.116C97.2023 184.272 90.4106 182.396 83.5866 180.553C83.1661 175.605 82.7457 162.895 90.0872 149.344C96.9112 136.795 106.711 130.359 111.077 127.837C111.691 127.869 112.306 127.934 112.92 127.966C113.858 129.066 114.99 130.23 116.381 131.426C118.451 133.238 120.488 134.499 122.202 135.404Z" fill="#6D6C6C"/>
<path opacity="0.2" d="M93.9034 143.522C92.9978 148.276 92.254 155.165 93.2242 163.315C94.3885 172.888 97.4609 180.294 99.8542 184.951C94.2915 183.528 88.6964 182.105 83.1337 180.715C82.875 176.252 83.0044 169.557 85.1389 161.86C87.4675 153.451 91.2191 147.306 93.9034 143.522Z" fill="#6D6C6C"/>
<path d="M367.317 250.378C365.28 254.938 365.668 259.207 365.991 261.212C372.362 264.026 378.022 265.32 382.356 265.966C383.779 266.193 401.373 268.683 403.087 263.864C403.507 262.668 402.828 261.439 402.149 260.242C398.365 253.612 388.792 253.224 387.498 253.192C387.142 246.303 382.712 241.193 378.184 240.837C371.78 240.352 367.77 249.375 367.317 250.378Z" fill="#161616"/>
<path d="M375.726 139.124C379.93 145.171 385.59 154.583 389.697 167.066C396.392 187.409 395.292 204.485 394.549 214.155C393.902 222.758 392.155 234.983 387.272 249.084C385.946 249.925 380.092 253.418 372.686 251.833C368.287 250.895 365.312 248.567 363.889 247.273C366.509 241.516 369.678 232.849 370.875 222.047C372.201 210.275 370.584 201.057 368.449 189.22C363.598 162.474 356.903 152.319 362.692 144.848C365.474 141.226 370.228 139.609 375.726 139.124Z" fill="white" stroke="#161616" stroke-width="2"/>
<path opacity="0.16" d="M378.022 153.904C380.221 164.609 381.968 176.898 382.647 190.546C383.811 214.77 381.192 235.663 377.796 251.93C376.34 252.124 372.815 252.351 369.064 250.475C366.832 249.343 365.312 247.855 364.439 246.82C368.482 237.506 369.937 229.582 370.519 224.246C371.425 215.87 370.681 209.143 369.29 196.594C368.482 189.253 367.544 183.237 366.864 179.13C370.584 170.754 374.303 162.312 378.022 153.904Z" fill="#6D6C6C"/>
<path opacity="0.22" d="M370.939 170.01C373.721 177.254 377.893 191.064 376.47 208.625C375.111 225.54 369.161 238.121 365.377 244.783C371.716 226.478 372.039 215.255 371.069 208.302C370.81 206.523 369.71 199.473 368.449 189.091C367.932 184.79 367.544 181.264 367.317 179.001C368.546 175.993 369.743 172.985 370.939 170.01Z" fill="#6D6C6C"/>
<path d="M320.519 236.374C317.835 237.7 317.026 239.867 313.339 246.885C310.882 251.542 308.812 255.261 307.453 257.655C311.593 260.63 318.158 264.543 326.923 266.613C332.097 267.842 342.867 269.556 344.096 266.613C345.454 263.347 334.394 255.811 329.737 252.771C334.523 248.114 334.749 241.354 331.515 237.894C328.766 234.951 323.786 234.757 320.519 236.374Z" fill="#161616"/>
<path d="M367.414 138.444C378.087 147.856 365.603 179.227 355.351 204.324C350.92 215.158 343.999 230.844 333.812 249.181C332.033 249.44 326.696 249.957 321.004 246.885C315.28 243.813 312.79 238.994 312.046 237.409C315.021 232.267 318.611 225.346 322.039 216.905C323.398 213.573 329.251 198.696 332.55 177.675C333.844 169.363 335.008 158.399 334.846 145.366C336.755 143.425 347.395 132.979 359.976 135.372C361.884 135.728 365.021 136.342 367.414 138.444Z" fill="white" stroke="#161616" stroke-width="2"/>
<path d="M370.875 151.381C370.842 152.513 370.81 153.645 370.81 154.777C371.133 154.777 371.457 154.777 371.78 154.777C371.619 152.966 371.716 151.252 372.071 149.473C371.748 149.44 371.425 149.376 371.133 149.343C371.327 153.16 370.454 157.17 369.775 160.922C369.096 164.706 368.19 168.457 367.123 172.144C367.447 172.241 367.738 172.306 368.061 172.403C369.84 165.676 371.327 158.916 372.556 152.06C372.653 151.446 371.716 151.187 371.619 151.801C370.39 158.625 368.902 165.417 367.123 172.144C366.961 172.759 367.899 173.017 368.061 172.403C369.193 168.522 370.099 164.544 370.81 160.566C371.457 156.944 372.298 153.03 372.104 149.343C372.071 148.826 371.263 148.664 371.166 149.214C370.778 151.058 370.681 152.901 370.842 154.777C370.907 155.391 371.813 155.424 371.813 154.777C371.845 153.645 371.877 152.513 371.877 151.381C371.877 150.766 370.907 150.766 370.875 151.381Z" fill="white"/>
<path d="M366.767 170.107C366.8 172.597 366.864 175.087 366.897 177.578C366.897 178.192 367.867 178.192 367.867 177.578C367.835 175.087 367.77 172.597 367.738 170.107C367.705 169.46 366.735 169.46 366.767 170.107Z" fill="white"/>
<path opacity="0.19" d="M353.313 148.503C353.41 155.003 353.055 163.865 351.146 174.149C349.109 185.048 346.004 193.489 341.476 206.2C337.789 216.613 336.011 219.718 332.259 231.264C329.963 238.282 328.346 244.168 327.311 248.114C325.532 247.888 321.845 247.144 318.158 244.395C314.73 241.84 312.984 238.8 312.207 237.215C318.158 226.769 321.942 217.616 324.335 210.954C331.742 190.352 333.488 172.435 334.491 161.407C334.911 156.814 335.138 152.998 335.235 150.508C341.25 149.829 347.298 149.182 353.313 148.503Z" fill="#6D6C6C"/>
<path opacity="0.24" d="M349.982 149.441C347.46 160.534 344.549 169.266 342.253 175.378C340.377 180.424 337.498 187.215 331.774 200.766C329.672 205.779 328.605 208.269 328.087 209.401C324.918 216.517 319.84 226.51 311.722 238.282C318.999 225.216 327.343 206.588 331.774 183.108C334.006 171.271 334.814 160.469 334.911 151.122C334.879 151.09 334.879 151.09 349.982 149.441Z" fill="#6D6C6C"/>
<path d="M360.202 69.9131C360.72 71.1745 361.625 73.0179 363.275 74.8937C364.471 76.2521 365.991 77.9985 368.255 78.6777C372.654 80.036 376.923 76.5431 377.505 76.058C381.774 78.5806 386.043 81.1033 390.28 83.6259C390.668 88.8975 390.7 96.8535 388.63 106.135C386.657 114.965 384.749 116.032 383.197 124.602C380.836 137.474 382.582 148.955 382 148.988C381.903 148.988 381.774 148.729 381.515 147.338C364.859 148.6 348.203 149.861 331.548 151.122C331.063 141.129 331.127 132.72 331.321 126.511C331.58 116.808 332.356 105.068 335.59 91.4525C337.887 81.7177 339.698 78.4189 342.447 75.8316C348.398 70.1719 356.548 69.8161 360.202 69.9131Z" fill="#5222D0"/>
<path opacity="0.3" d="M379.478 77.2222C378.928 83.1406 377.893 91.9375 375.92 102.481C375.338 105.65 373.688 114.382 372.362 118.651C370.745 123.891 364.439 138.865 333.585 151.025C342.997 149.926 352.699 148.955 362.628 148.147C368.837 147.629 374.982 147.177 381.03 146.821C383.164 139.221 385.137 130.618 386.56 121.109C388.727 106.717 389.148 93.7163 388.792 82.7525C385.687 80.9091 382.582 79.0656 379.478 77.2222Z" fill="#32198E"/>
<path d="M366.153 50.4437C365.021 56.2328 364.504 62.6364 359.814 69.7191C359.167 70.6893 358.617 71.4332 358.229 71.9183C358.617 72.6945 362.725 80.6505 371.457 81.8471C376.437 82.5263 380.351 80.6181 381.838 79.8096C381.612 77.8691 381.483 75.5406 381.677 72.9209C381.935 69.0723 382.744 65.8705 383.553 63.4449C387.304 62.9598 391.023 62.4746 394.775 61.9895C395.519 60.3401 396.23 58.6907 396.974 57.009C398.009 56.9766 399.012 56.9443 400.047 56.9119C399.27 54.648 398.106 51.0581 396.748 46.6274C394.225 38.2833 394.258 37.0867 392.899 35.2109C389.148 30.0686 380.739 26.8021 375.208 29.5512C369.872 32.1708 368.255 39.6417 366.153 50.4437Z" fill="white" stroke="#161616" stroke-width="2"/>
<path d="M399.885 56.4592C398.041 56.4916 396.23 56.3622 394.419 56.1035C393.805 56.0064 393.546 56.9443 394.161 57.0414C396.069 57.3324 397.944 57.4618 399.885 57.4295C400.532 57.4295 400.532 56.4592 399.885 56.4592Z" fill="#161616"/>
<path d="M401.179 41.6144C399.529 40.7088 397.556 41.2263 396.489 42.7463C396.133 43.2638 396.974 43.7489 397.33 43.2315C398.074 42.1642 399.562 41.8408 400.693 42.4553C401.243 42.7463 401.728 41.9055 401.179 41.6144Z" fill="#161616"/>
<path d="M400.338 47.436C400.499 46.6922 400.467 45.9483 400.111 45.2692C399.853 44.784 399.303 44.2019 398.688 44.4606C398.042 44.7194 398.074 45.6249 398.203 46.1747C398.333 46.8539 398.688 47.4684 399.206 47.9212C399.497 48.1799 400.047 48.0182 400.047 47.5654C400.047 46.7569 399.853 46.0454 399.497 45.3015C399.238 44.7517 398.397 45.2368 398.656 45.7866C398.915 46.3364 399.044 46.9186 399.076 47.5331C399.367 47.4037 399.626 47.3067 399.917 47.1773C399.367 46.7245 399.173 46.1424 399.141 45.4632C399.173 45.3985 399.141 45.3338 399.044 45.3338C399.109 45.3662 399.173 45.4309 399.206 45.4956C399.303 45.6249 399.4 45.819 399.432 45.9807C399.562 46.3688 399.562 46.7245 399.465 47.1126C399.238 47.7918 400.176 48.0505 400.338 47.436Z" fill="#161616"/>
<path d="M391.8 42.9081C389.924 42.2936 387.951 43.0698 386.851 44.6869C386.496 45.2043 387.337 45.6895 387.692 45.172C388.533 43.9107 390.086 43.3932 391.541 43.846C392.123 44.0077 392.382 43.1022 391.8 42.9081Z" fill="#161616"/>
<path d="M392.317 48.3092C392.382 47.436 392.026 46.0776 391.12 45.7219C389.924 45.2368 389.924 46.9185 390.053 47.63C390.215 48.3415 390.797 49.6675 391.767 49.1177C392.155 48.8913 392.22 48.4709 392.091 48.0828C391.864 47.4683 391.509 46.9185 391.25 46.3364C390.991 46.5304 390.732 46.7245 390.474 46.9185C390.603 47.0479 390.7 47.1772 390.732 47.3713C390.894 47.9858 391.832 47.727 391.67 47.1126C391.573 46.7568 391.412 46.4981 391.153 46.2393C390.732 45.8512 390.15 46.3364 390.377 46.8215C390.506 47.0479 390.603 47.2743 390.732 47.533C390.829 47.727 390.926 48.0828 391.088 48.2445C391.153 48.4709 391.217 48.4709 391.314 48.2445C391.282 48.1798 391.217 48.0828 391.185 48.0181C391.088 47.8241 391.023 47.63 390.991 47.4036C390.959 47.2096 390.991 46.9508 390.926 46.7568C390.959 46.6274 390.926 46.5951 390.894 46.7568C390.959 46.8538 391.056 46.9508 391.088 47.0479C391.314 47.436 391.379 47.8887 391.347 48.3415C391.282 48.9237 392.252 48.9237 392.317 48.3092Z" fill="#161616"/>
<path d="M394.193 37.2807C393.934 35.5666 393.255 32.7853 391.444 29.9069C390.797 28.9043 389.406 26.7374 387.207 25.2821C383.003 22.5007 376.534 22.7271 371.813 26.123C367.22 29.4541 364.924 35.4373 365.927 41.3557C375.37 39.9974 384.782 38.6391 394.193 37.2807Z" fill="#EC615B"/>
<path d="M409.652 34.1759C395.131 36.0193 380.642 37.8628 366.121 39.7062C364.277 39.9326 364.277 42.8434 366.121 42.617C380.642 40.7735 395.131 38.93 409.652 37.0866C411.463 36.8602 411.495 33.9495 409.652 34.1759Z" fill="#161616"/>
<path d="M375.338 40.9677C377.893 41.9056 379.381 43.6844 381.127 45.8189C384.782 50.282 383.682 51.9314 386.269 54.7128C390.344 59.1435 394.484 56.5239 398.139 60.8576C401.243 64.5445 400.823 69.5251 400.693 70.6247C400.564 71.7243 400.014 76.1551 396.424 79.1952C393.32 81.8148 389.083 82.4293 388.824 81.8472C388.727 81.6208 389.083 81.1033 391.379 79.5509C390.7 80.036 389.665 80.6182 388.274 80.8769C386.69 81.168 385.202 80.8769 385.17 80.6505C385.17 80.4888 386.01 80.4888 386.657 79.7773C387.045 79.3569 387.207 78.8718 387.304 78.4513C386.043 79.2922 384.426 80.0037 382.906 79.5509C378.766 78.2896 378.022 69.0076 377.763 65.9352C376.987 55.9741 379.833 50.5407 376.373 47.0479C376.082 46.7568 374.691 45.3338 373.171 45.6248C371.23 45.9806 369.743 49.0207 370.39 51.0259C370.939 52.7399 372.88 53.2251 372.751 53.5485C372.556 53.9689 369.29 53.3221 366.541 51.1229C365.538 50.3143 364.73 49.6675 364.309 48.4709C363.566 46.401 364.439 44.0401 365.603 42.6494C368.029 39.7387 372.556 39.9328 375.338 40.9677Z" fill="#161616" stroke="#161616" stroke-width="2"/>
<path opacity="0.22" d="M371.489 53.807C372.104 53.8717 372.977 53.904 373.042 53.6776C373.074 53.5806 372.848 53.4189 372.848 53.4189C372.848 53.4189 373.591 54.3568 374.497 54.4862C374.95 54.5509 375.305 54.3892 375.564 54.2598C373.915 57.7203 372.233 61.9247 370.842 66.7759C369.387 71.7888 368.578 76.3813 368.158 80.2946C366.735 79.8418 364.148 78.8069 361.754 76.4783C360.008 74.7966 359.005 73.0178 358.423 71.8211C360.364 68.9104 361.496 66.3555 362.175 64.609C362.789 62.992 363.016 61.9247 364.115 58.2378C365.021 55.2624 365.732 52.8044 366.218 51.1227C366.476 51.3491 366.864 51.7048 367.382 52.0606C368.126 52.578 369.581 53.5806 371.489 53.807Z" fill="#6D6C6C"/>
<path d="M381.936 23.5356C378.152 24.2794 375.338 27.3195 374.917 30.9094C374.4 35.1784 377.537 38.0892 377.828 38.3479C373.818 38.833 369.808 39.3505 365.797 39.8356C365.733 38.8977 365.7 37.6041 365.927 36.1163C366.703 31.3298 369.484 28.3868 370.066 27.7723C371.004 26.802 374.303 23.6649 379.187 23.3739C380.318 23.3092 381.256 23.4385 381.936 23.5356Z" fill="#B74949"/>
<path d="M389.309 83.3024C391.897 82.9143 394.549 87.4098 395.778 89.4796C402.893 101.575 399.917 115.547 399.012 119.622C398.3 122.824 396.974 128.483 392.834 134.725C388.889 140.741 384.232 144.46 381.256 146.497C376.276 148.406 367.22 151.025 356.321 149.246C352.537 148.632 349.238 147.597 346.489 146.497C341.832 146.788 337.175 147.047 332.518 147.338C331.774 147.209 330.739 147.015 329.51 146.562C328.022 146.012 326.599 145.462 326.599 144.945C326.599 144.363 328.216 143.457 336.108 142.228C335.72 142.293 330.545 143.296 327.085 139.673C323.85 136.31 323.656 130.553 326.114 128.289C328.184 126.381 331.548 127.222 337.692 128.871C343.773 130.488 348.656 132.688 352.214 134.563C353.572 135.178 364.148 139.738 373.818 134.175C381.192 129.939 383.65 122.338 384.232 120.236C386.56 111.892 382.324 108.949 383.844 96.8858C384.038 94.8159 385.428 83.8522 389.309 83.3024Z" fill="white" stroke="#161616" stroke-width="2"/>
<path d="M324.885 135.501C328.637 135.792 332.227 136.698 335.655 138.25C336.205 138.509 336.722 137.668 336.14 137.41C332.55 135.76 328.799 134.79 324.885 134.499C324.271 134.499 324.271 135.469 324.885 135.501Z" fill="#161616"/>
<path d="M324.659 131.556C328.96 131.426 332.615 134.046 336.625 135.275C337.207 135.469 337.466 134.531 336.884 134.337C332.809 133.076 329.09 130.456 324.659 130.586C324.044 130.618 324.012 131.588 324.659 131.556Z" fill="#161616"/>
<path d="M328.799 128.128C332.324 128.419 335.429 130.1 338.469 131.814C339.019 132.105 339.504 131.297 338.954 130.974C335.752 129.195 332.518 127.481 328.799 127.157C328.152 127.093 328.152 128.063 328.799 128.128Z" fill="#161616"/>
<path opacity="0.18" d="M385.364 89.2532C383.456 96.9181 388.533 102.093 390.247 110.857C390.538 112.41 392.835 124.99 386.108 133.917C378.604 143.878 363.727 144.234 360.817 144.331C353.216 144.525 350.338 142.293 338.436 142.908C337.304 142.972 326.955 143.554 326.858 145.01C326.826 145.786 329.704 146.659 331.871 146.95C334.717 147.338 336.205 146.691 339.827 146.4C341.379 146.271 343.611 146.174 346.36 146.4C349.659 147.759 353.928 149.085 359.038 149.602C360.428 149.732 364.762 150.12 370.325 149.311C370.325 149.311 374.982 148.664 378.669 147.371C387.822 144.201 396.877 130.844 399.432 116.291C402.311 99.8935 395.907 87.5392 392.317 84.7901C391.832 84.402 390.441 83.3348 388.986 83.6905C386.625 84.208 385.655 88.0566 385.364 89.2532Z" fill="#6D6C6C"/>
<path opacity="0.17" d="M399.012 98.988C398.494 98.988 398.494 105.165 397.071 112.927C396.198 117.649 394.419 127.254 390.118 133.949C382.453 145.883 366.8 148.567 360.849 149.279C365.959 149.99 373.818 150.152 381.483 146.077C398.106 137.216 399.723 115.838 400.014 111.957C400.467 105.424 399.529 98.988 399.012 98.988Z" fill="#6D6C6C"/>
<path d="M119.744 221.368C133.133 209.466 146.587 197.629 160.106 185.889C185.591 163.735 211.302 141.873 237.273 120.269C235.235 114.221 232.615 103.742 234.168 90.9997C234.653 86.957 238.793 57.1707 266.089 41.7762C268.353 40.4825 299.691 23.5357 329.057 42.229C348.43 54.551 358.456 77.0282 356.095 98.988C352.602 131.62 323.624 146.077 321.942 146.886C301.05 156.847 275.921 153.904 257.195 139.35C229.058 162.506 200.986 185.695 172.946 208.949C160.656 219.136 148.399 229.324 136.141 239.544C133.586 238.315 129.35 235.857 125.533 231.361C122.331 227.61 120.65 223.858 119.744 221.368Z" fill="#161616"/>
<ellipse cx="295.778" cy="93.5547" rx="51.2934" ry="49.1589" fill="white" stroke="#161616" stroke-width="2"/>
<path d="M299.95 47.1126C290.571 66.9702 280.707 86.6337 270.39 106.039C267.479 111.504 264.536 116.97 261.561 122.403C261.27 122.953 262.111 123.438 262.402 122.888C272.977 103.613 283.1 84.1111 292.738 64.3505C295.455 58.7878 298.139 53.1928 300.823 47.5654C301.082 47.0479 300.241 46.5628 299.95 47.1126Z" fill="#E8E8E8"/>
<path d="M315.765 51.9314C305.48 68.1668 295.713 84.6932 286.431 101.511C286.14 102.061 286.981 102.546 287.272 101.996C296.554 85.1783 306.321 68.6519 316.606 52.4166C316.929 51.8991 316.088 51.414 315.765 51.9314Z" fill="#E8E8E8"/>
<path d="M284.717 107.203C280.448 115.514 275.888 123.697 271.005 131.685C270.681 132.235 271.522 132.72 271.846 132.17C276.697 124.182 281.289 116 285.558 107.688C285.849 107.138 285.008 106.621 284.717 107.203Z" fill="#E8E8E8"/>
<path d="M302.667 82.9467C297.233 93.1666 291.832 103.386 286.399 113.606C286.108 114.156 286.949 114.641 287.24 114.091C292.673 103.872 298.074 93.6517 303.508 83.4318C303.799 82.882 302.958 82.3969 302.667 82.9467Z" fill="#E8E8E8"/>
<path opacity="0.08" d="M294.258 44.2343C290.668 45.5279 267.027 54.3894 259.459 78.128C258.586 80.877 255.869 89.7385 257.906 99.9907C261.82 119.525 281.354 135.34 306.904 140.644C304.963 141.291 302.246 142.067 298.883 142.487C278.573 145.042 262.822 131.2 260.979 129.551C256.968 125.896 244.582 113.477 244.355 93.8135C244.323 92.0994 244.42 72.6946 259.135 58.6908C267.706 50.5408 277.732 47.5654 281.936 46.3688C286.852 44.9781 291.153 44.4606 294.258 44.2343Z" fill="#6D6C6C"/>
<path d="M104.996 144.007C107.325 143.716 110.818 143.684 113.373 145.754C118.871 150.217 114.634 159.919 117.351 170.171C118.806 175.669 122.655 183.075 133.845 190.417C138.276 192.648 141.963 194.33 144.518 195.494C148.172 197.144 150.501 198.082 150.468 199.343C150.436 200.604 148.14 201.542 146.49 202.092C148.463 203.936 149.466 206.264 148.787 208.043C148.269 209.434 146.846 210.113 145.261 210.889C143.45 211.795 141.93 211.989 140.184 212.215C136.917 212.635 135.3 212.829 133.813 212.215C131.516 211.245 130.481 209.11 128.961 206.038C128.121 204.356 127.086 201.736 126.536 198.341C122.881 196.659 117.642 193.748 112.435 188.865C110.397 186.956 91.5101 168.845 97.461 153.192C98.3665 150.993 100.275 147.435 104.996 144.007Z" fill="white" stroke="#161616" stroke-width="2"/>
<path d="M133.91 208.205C134.718 209.984 135.947 211.471 137.532 212.668C138.017 213.056 138.502 212.215 138.017 211.827C136.594 210.76 135.494 209.337 134.751 207.72C134.492 207.17 133.651 207.655 133.91 208.205Z" fill="#161616"/>
<path d="M137.791 207.687C138.761 209.563 140.216 211.115 141.995 212.28C142.513 212.603 142.998 211.762 142.48 211.439C140.831 210.404 139.505 208.949 138.599 207.202C138.34 206.652 137.5 207.137 137.791 207.687Z" fill="#161616"/>
<path d="M141.866 205.488C142.771 207.396 144.324 208.916 146.232 209.822C146.782 210.081 147.299 209.24 146.717 208.981C144.938 208.14 143.547 206.782 142.707 205.003C142.416 204.421 141.607 204.906 141.866 205.488Z" fill="#161616"/>
<path opacity="0.2" d="M105.805 144.072C105.094 147.274 104.317 152.319 104.997 158.399C106.775 173.793 116.736 183.949 118.386 185.598C126.601 193.748 131.969 192.648 135.236 199.925C136.109 201.866 137.661 206.264 141.866 208.56C143.515 209.434 145.067 209.757 146.102 209.886C145.553 210.339 144.647 210.954 143.45 211.471C141.445 212.344 139.699 212.377 136.95 212.409C134.912 212.441 133.877 212.441 132.972 212.021C131.064 211.148 130.158 209.337 129.802 208.431C128.509 204.938 127.247 201.445 125.954 197.952C119.647 194.718 110.721 188.962 103.671 179.097C100.727 174.99 95.8116 167.94 96.232 159.466C96.4261 155.618 97.6551 152.933 97.9461 152.286C100.242 147.532 104.059 145.074 105.805 144.072Z" fill="#6D6C6C"/>
<path opacity="0.32" d="M96.6525 161.439C96.8465 161.374 98.0755 165.255 100.501 169.783C106.42 180.973 114.958 187.83 121.07 192.616C123.852 194.783 126.212 196.4 127.7 197.403C129.511 200.443 130.546 203.062 131.161 204.97C131.678 206.555 131.969 207.978 133.166 209.466C134.395 211.083 135.98 211.989 137.144 212.506C136.271 212.538 134.945 212.474 133.554 211.827C130.902 210.598 129.738 208.043 128.509 205.326C127.797 203.774 126.956 201.445 126.504 198.438C109.621 189.899 103.282 179.13 100.889 174.02C98.4312 168.781 96.3937 161.568 96.6525 161.439Z" fill="#6D6C6C"/>
<path d="M123.431 114.48C121.135 115.385 122.493 119.913 118.806 124.02C116.995 126.058 114.796 127.028 113.276 127.578C114.246 129.033 116.154 131.394 119.291 133.27C121.523 134.628 123.658 135.275 125.145 135.566C125.63 134.693 126.439 133.335 127.441 131.718C131.031 126.058 132.325 125.443 132.519 123.568C133.004 118.975 126.374 113.315 123.431 114.48Z" fill="white" stroke="#161616" stroke-width="2"/>
<path d="M123.011 123.212C124.337 125.864 125.727 128.483 127.927 130.521C128.379 130.941 129.058 130.262 128.606 129.842C126.471 127.869 125.145 125.282 123.852 122.727C123.56 122.177 122.72 122.662 123.011 123.212Z" fill="#161616"/>
<path d="M122.04 121.465C123.528 124.376 125.145 127.254 127.991 129.033C128.476 129.324 128.961 128.677 128.573 128.257C127.635 127.254 126.665 126.252 125.76 125.249C125.533 125.476 125.307 125.702 125.081 125.928C125.63 126.511 126.212 127.06 126.859 127.513C127.086 127.675 127.797 127.998 127.927 128.192C128.121 128.516 127.927 129.033 127.83 129.357C128.153 129.454 128.444 129.518 128.767 129.615C128.8 129.454 128.8 129.292 128.832 129.163C128.897 128.742 128.379 128.289 128.024 128.677C128.024 128.322 127.927 127.966 127.7 127.675C127.409 127.837 127.15 127.998 126.859 128.16C127.215 128.645 127.571 129.13 127.927 129.615C128.185 129.421 128.444 129.227 128.703 129.033C128.412 128.71 128.185 128.386 127.959 128.031C127.668 127.61 126.859 127.869 127.086 128.419C127.28 128.839 127.344 129.001 127.635 129.357C128.024 129.842 128.703 129.163 128.315 128.677C128.218 128.516 128.121 128.354 128.024 128.16C127.733 128.289 127.441 128.419 127.15 128.548C127.441 128.969 127.733 129.357 128.056 129.745C128.412 130.165 129.156 129.615 128.832 129.163C128.476 128.677 128.121 128.192 127.765 127.707C127.409 127.19 126.665 127.643 126.924 128.192C127.247 128.839 127.894 130.359 128.767 129.389C128.509 129.227 128.218 129.066 127.959 128.904C127.927 129.066 127.927 129.227 127.894 129.357C127.797 129.971 128.67 130.23 128.832 129.615C129.059 128.839 129.608 128.483 128.961 127.707C128.67 127.351 128.185 127.19 127.83 126.963C127.086 126.478 126.439 125.896 125.824 125.249C125.404 124.796 124.725 125.476 125.145 125.928C126.083 126.931 127.021 127.934 127.959 128.936C128.153 128.677 128.347 128.419 128.541 128.16C125.857 126.478 124.369 123.697 122.946 120.948C122.59 120.398 121.749 120.916 122.04 121.465Z" fill="#161616"/>
<path d="M153.185 105.909C152.538 108.788 151.212 113.057 148.172 117.455C142.836 125.185 135.591 128.451 132.487 129.648C130.708 128.969 128.379 127.772 126.18 125.734C120.165 120.139 119.712 112.474 119.647 110.502C119 110.34 118.062 109.984 117.254 109.208C115.184 107.203 114.699 103.225 116.607 101.575C118.774 99.6997 122.914 101.996 123.366 102.222C124.369 102.772 125.081 103.451 125.533 103.969C127.312 98.6 131.581 94.5574 136.659 93.7165C143.58 92.5846 151.148 97.6298 153.185 105.909Z" fill="white" stroke="#161616" stroke-width="2"/>
<path d="M145.358 113.639C144.065 116.549 142.157 119.04 139.699 121.077C139.214 121.465 139.893 122.145 140.378 121.756C142.933 119.687 144.873 117.132 146.199 114.124C146.458 113.542 145.617 113.057 145.358 113.639Z" fill="#161616"/>
<path d="M138.47 118.91C138.34 120.01 138.729 121.077 139.472 121.886C139.893 122.339 140.572 121.659 140.152 121.207C139.569 120.56 139.343 119.784 139.44 118.91C139.505 118.296 138.535 118.296 138.47 118.91Z" fill="#161616"/>
<path d="M136.497 113.38C137.338 112.216 138.34 111.181 139.472 110.243C139.214 110.081 138.923 109.92 138.664 109.758C138.243 111.052 137.338 112.086 136.141 112.733C136.335 112.992 136.529 113.251 136.723 113.509C137.467 112.604 138.211 111.731 138.955 110.825C139.343 110.34 138.664 109.661 138.276 110.146C137.532 111.052 136.788 111.925 136.044 112.83C135.688 113.251 136.141 113.865 136.626 113.606C138.049 112.83 139.084 111.569 139.602 110.049C139.764 109.531 139.149 109.305 138.793 109.564C137.597 110.534 136.562 111.634 135.688 112.895C135.3 113.412 136.141 113.898 136.497 113.38Z" fill="#161616"/>
<path d="M147.234 116.226C147.655 115.515 148.205 114.9 148.819 114.35C148.56 114.189 148.269 114.027 148.011 113.865C147.719 114.835 147.137 115.709 146.296 116.323C146.523 116.517 146.782 116.679 147.008 116.873C147.202 116.356 147.493 115.87 147.849 115.45C148.237 114.965 147.558 114.286 147.17 114.771C146.717 115.353 146.361 115.935 146.102 116.614C145.941 117.002 146.491 117.423 146.814 117.164C147.849 116.388 148.593 115.385 148.948 114.156C149.11 113.671 148.496 113.38 148.14 113.671C147.461 114.253 146.879 114.965 146.393 115.741C146.038 116.258 146.879 116.744 147.234 116.226Z" fill="#161616"/>
<path d="M133.166 110.987C133.651 112.119 133.91 113.283 133.91 114.48C133.91 114.803 134.395 114.803 134.395 114.48C134.395 113.186 134.104 111.925 133.586 110.728C133.457 110.437 133.037 110.696 133.166 110.987Z" fill="#161616"/>
<path d="M131.808 110.146C132.131 110.663 132.357 111.181 132.551 111.731C132.648 112.022 133.101 111.892 133.004 111.601C132.81 110.987 132.551 110.437 132.228 109.887C132.066 109.628 131.646 109.887 131.808 110.146Z" fill="#161616"/>
<path d="M139.278 107.494C140.475 107.138 141.607 107.947 141.639 109.208C141.639 109.661 142.383 109.693 142.383 109.208C142.319 107.494 140.766 106.33 139.084 106.782C138.632 106.912 138.826 107.623 139.278 107.494Z" fill="#161616"/>
<path d="M147.946 112.248C148.463 111.925 149.078 111.892 149.628 112.216C150.016 112.474 150.404 111.828 149.983 111.601C149.239 111.148 148.302 111.148 147.59 111.634C147.202 111.892 147.558 112.507 147.946 112.248Z" fill="#161616"/>
<path d="M132.163 120.56C132.94 121.951 134.266 122.953 135.818 123.374C136.432 123.535 136.691 122.597 136.077 122.436C134.751 122.08 133.683 121.271 133.004 120.075C132.681 119.525 131.84 120.01 132.163 120.56Z" fill="#161616"/>
<path d="M125.501 105.262C126.212 104.033 127.927 101.414 131.225 99.6026C133.489 98.3413 135.624 97.9855 136.917 97.8562C137.629 98.7941 138.793 100.023 140.507 100.799C144.55 102.643 147.817 100.217 150.21 101.834C151.471 102.675 152.732 104.713 152.247 110.275C154.382 112.474 155.805 112.604 156.581 112.442C159.815 111.795 162.144 104.518 160.106 99.2145C159.492 97.6298 158.683 96.7242 151.827 91.2585C142.157 83.5613 140.96 83.1085 139.699 82.8174C133.037 81.2651 127.15 84.6286 126.148 85.2107C124.854 85.9545 124.563 86.3103 117.157 94.1046C111.4 100.152 110.85 100.702 110.333 102.19C108.975 105.942 109.233 111.375 112.694 115.353C115.96 119.072 120.359 119.622 121.491 119.751C121.006 118.652 120.488 117.099 120.229 115.191C119.906 112.733 120.229 110.696 120.52 109.37C120.294 109.208 119 108.141 118.903 106.33C118.839 105.004 119.453 103.322 120.876 102.772C122.461 102.158 124.628 103.095 125.501 105.262Z" fill="#5222D0"/>
<path d="M124.11 88.9946C122.784 86.375 118.903 85.9869 118.224 85.9222C112.823 85.3724 108.489 90.1912 105.934 93.0049C101.407 98.0178 102.7 99.5055 98.3019 105.553C92.4804 113.574 88.1143 113.93 87.2088 119.46C87.1441 119.881 86.3356 125.443 90.0225 128.807C93.1919 131.718 98.3019 131.75 101.665 130.003C106.225 127.643 105.837 122.888 109.136 114.9C115.604 99.3115 126.665 94.0399 124.11 88.9946Z" fill="#5222D0"/>
<path opacity="0.12" d="M129.317 100.767C128.282 103.354 127.053 107.462 127.118 112.604C127.215 120.819 130.579 126.834 132.26 129.421C130.417 128.645 127.344 126.996 124.66 123.762C123.561 122.436 120.973 119.299 120.294 114.48C119.971 112.313 120.165 110.502 120.359 109.273C120.165 109.111 118.839 107.914 118.903 106.039C118.936 104.81 119.583 103.16 120.973 102.675C122.526 102.125 124.66 103.128 125.501 105.295C125.824 104.648 126.277 103.839 126.956 102.999C127.797 101.996 128.638 101.284 129.317 100.767Z" fill="#6D6C6C"/>
<path opacity="0.13" d="M123.625 124.441C123.366 125.023 123.075 125.605 122.72 126.187C121.103 128.904 119 130.715 117.351 131.815C116.769 131.459 115.993 130.909 115.216 130.068C114.376 129.163 113.858 128.257 113.567 127.61C114.828 127.222 117.965 126.025 120.1 122.888C120.844 121.756 121.297 120.657 121.555 119.751C122.234 121.336 122.914 122.888 123.625 124.441Z" fill="#6D6C6C"/>
<path opacity="0.18" d="M120.779 108.723C120.941 110.954 121.361 113.865 122.461 117.132C123.981 121.562 126.18 124.829 127.862 126.899C126.18 125.54 124.175 123.503 122.558 120.657C121.491 118.749 119.906 116 120.1 112.248C120.165 110.793 120.488 109.564 120.779 108.723Z" fill="#6D6C6C"/>
<path opacity="0.32" d="M125.727 86.0192C124.369 87.3452 115.896 95.8833 117.06 108.011C117.545 113.186 119.615 117.099 121.103 119.395C120.068 119.331 118.062 119.104 115.896 117.843C113.729 116.582 112.5 114.932 111.95 114.091C111.529 113.412 111.012 112.313 110.689 110.922C110.689 110.922 110.106 108.205 111.174 104.842C112.306 101.155 117.416 93.9751 125.727 86.0192Z" fill="#32198E"/>
<path opacity="0.33" d="M108.231 91.2585C108.975 91.7436 104.867 100.379 100.339 107.914C96.2644 114.674 94.2592 116.549 93.9681 120.689C93.677 124.991 95.4882 128.677 97.1052 131.168C96.2967 131.232 93.2566 131.329 90.6046 129.227C89.1493 128.063 88.3731 126.705 88.0173 125.864C87.2411 123.6 86.5619 120.301 87.9203 117.196C88.8258 115.094 89.8931 114.932 93.2243 111.569C96.1673 108.593 99.078 105.65 101.213 101.284C102.312 99.0528 102.7 97.4357 104.576 94.9131C105.805 93.2313 107.81 90.9674 108.231 91.2585Z" fill="#32198E"/>
</svg>
