<svg width="64" height="64" viewBox="0 0 64 64" fill="none" xmlns="http://www.w3.org/2000/svg">
<path d="M54 40H2C0.896 40 0 39.104 0 38V22C0 20.896 0.896 20 2 20H54C55.104 20 56 20.896 56 22V38C56 39.104 55.104 40 54 40ZM4 36H52V24H4V36Z" fill="white"/>
<path d="M26 32H10C8.896 32 8 31.104 8 30C8 28.896 8.896 28 10 28H26C27.104 28 28 28.896 28 30C28 31.104 27.104 32 26 32Z" fill="white"/>
<path d="M62 56H54C52.896 56 52 55.104 52 54C52 52.896 52.896 52 54 52H60V2C60 0.896 60.896 0 62 0C63.104 0 64 0.896 64 2V54C64 55.104 63.104 56 62 56Z" fill="white"/>
<path d="M62 32H54C52.896 32 52 31.104 52 30C52 28.896 52.896 28 54 28H62C63.104 28 64 28.896 64 30C64 31.104 63.104 32 62 32Z" fill="white"/>
<path d="M54 64H2C0.896 64 0 63.104 0 62V46C0 44.896 0.896 44 2 44H54C55.104 44 56 44.896 56 46V62C56 63.104 55.104 64 54 64ZM4 60H52V48H4V60Z" fill="white"/>
<path d="M26 56H10C8.896 56 8 55.104 8 54C8 52.896 8.896 52 10 52H26C27.104 52 28 52.896 28 54C28 55.104 27.104 56 26 56Z" fill="white"/>
<path d="M46 28C47.105 28 48 28.895 48 30C48 31.105 47.105 32 46 32C44.895 32 44 31.105 44 30C44 28.895 44.895 28 46 28Z" fill="white"/>
<path d="M38 28C39.105 28 40 28.895 40 30C40 31.105 39.105 32 38 32C36.895 32 36 31.105 36 30C36 28.895 36.895 28 38 28Z" fill="white"/>
<path d="M46 52C47.105 52 48 52.895 48 54C48 55.105 47.105 56 46 56C44.895 56 44 55.105 44 54C44 52.895 44.895 52 46 52Z" fill="white"/>
<path d="M38 52C39.105 52 40 52.895 40 54C40 55.105 39.105 56 38 56C36.895 56 36 55.105 36 54C36 52.895 36.895 52 38 52Z" fill="white"/>
</svg>
