<svg width="727" height="651" viewBox="0 0 727 651" fill="none" xmlns="http://www.w3.org/2000/svg">
<path d="M158.532 527.759C105.98 527.759 53.4292 527.759 0.877908 527.759C-0.292636 527.759 -0.292636 529.607 0.877908 529.607C53.4292 529.607 105.98 529.607 158.532 529.607C159.702 529.607 159.702 527.759 158.532 527.759Z" fill="#161616"/>
<path d="M346.804 518.518C390.669 518.518 434.472 518.518 478.336 518.518C490.781 518.518 503.226 518.518 515.671 518.518C516.841 518.518 516.841 516.67 515.671 516.67C471.806 516.67 428.003 516.67 384.138 516.67C371.694 516.67 359.249 516.67 346.804 516.67C345.634 516.67 345.634 518.518 346.804 518.518Z" fill="#161616"/>
<path d="M525.836 518.518C559.535 518.518 593.235 518.518 626.934 518.518C628.104 518.518 628.104 516.67 626.934 516.67C593.235 516.67 559.535 516.67 525.836 516.67C524.665 516.67 524.665 518.518 525.836 518.518Z" fill="#161616"/>
<path d="M641.781 518.518C647.634 518.518 653.548 518.518 659.401 518.518C660.572 518.518 660.572 516.67 659.401 516.67C653.548 516.67 647.634 516.67 641.781 516.67C640.611 516.67 640.549 518.518 641.781 518.518Z" fill="#161616"/>
<path d="M558.796 516.423C558.796 495.723 558.796 474.961 558.796 454.261C558.796 453.091 556.948 453.091 556.948 454.261C556.948 474.961 556.948 495.723 556.948 516.423C556.948 517.594 558.796 517.594 558.796 516.423Z" fill="#E8E8E8"/>
<path d="M558.241 455.186C595.391 455.186 632.602 455.186 669.751 455.186C670.922 455.186 670.922 453.338 669.751 453.338C632.602 453.338 595.391 453.338 558.241 453.338C557.071 453.338 557.071 455.186 558.241 455.186Z" fill="#E8E8E8"/>
<path d="M669.197 455.802C669.197 475.516 669.197 495.23 669.197 514.945C669.197 516.115 671.045 516.115 671.045 514.945C671.045 495.23 671.045 475.516 671.045 455.802C671.045 454.569 669.197 454.569 669.197 455.802Z" fill="#E8E8E8"/>
<path d="M568.592 461.408C568.592 476.194 568.592 491.041 568.592 505.827C568.592 506.998 570.44 506.998 570.44 505.827C570.44 491.041 570.44 476.194 570.44 461.408C570.44 460.237 568.592 460.237 568.592 461.408Z" fill="#E8E8E8"/>
<path d="M582.946 461.778C582.946 475.208 582.946 488.639 582.946 502.069C582.946 503.24 584.794 503.24 584.794 502.069C584.794 488.639 584.794 475.208 584.794 461.778C584.794 460.607 582.946 460.607 582.946 461.778Z" fill="#E8E8E8"/>
<path d="M598.779 460.669C598.779 473.976 598.779 487.283 598.779 500.59C598.779 501.761 600.628 501.761 600.628 500.59C600.628 487.283 600.628 473.976 600.628 460.669C600.628 459.498 598.779 459.498 598.779 460.669Z" fill="#E8E8E8"/>
<path d="M614.982 463.318C614.982 476.871 614.982 490.425 614.982 503.979C614.982 505.149 616.83 505.149 616.83 503.979C616.83 490.425 616.83 476.871 616.83 463.318C616.83 462.147 614.982 462.086 614.982 463.318Z" fill="#E8E8E8"/>
<path d="M630.753 464.057C630.753 477.98 630.753 491.903 630.753 505.888C630.753 507.059 632.602 507.059 632.602 505.888C632.602 491.965 632.602 478.042 632.602 464.057C632.602 462.886 630.753 462.886 630.753 464.057Z" fill="#E8E8E8"/>
<path d="M650.345 464.426C650.345 477.611 650.345 490.795 650.345 503.979C650.345 505.149 652.193 505.149 652.193 503.979C652.193 490.795 652.193 477.611 652.193 464.426C652.193 463.256 650.345 463.256 650.345 464.426Z" fill="#E8E8E8"/>
<path d="M663.529 466.336C663.529 478.165 663.529 489.932 663.529 501.761C663.529 502.931 665.377 502.931 665.377 501.761C665.377 489.932 665.377 478.165 665.377 466.336C665.377 465.104 663.529 465.104 663.529 466.336Z" fill="#E8E8E8"/>
<path d="M516.656 156.266C564.156 156.266 611.717 156.266 659.216 156.266C672.708 156.266 686.262 156.266 699.754 156.266C700.924 156.266 700.924 154.417 699.754 154.417C652.255 154.417 604.693 154.417 557.194 154.417C543.702 154.417 530.148 154.417 516.656 154.417C515.424 154.417 515.424 156.266 516.656 156.266Z" fill="#E8E8E8"/>
<path d="M517.58 154.787C517.58 150.721 517.58 146.717 517.58 142.65C517.58 141.48 515.732 141.48 515.732 142.65C515.732 146.717 515.732 150.721 515.732 154.787C515.732 156.019 517.58 156.019 517.58 154.787Z" fill="#E8E8E8"/>
<path d="M516.656 144.129C563.663 144.129 610.669 144.129 657.614 144.129C671.106 144.129 684.598 144.129 698.091 144.129C699.261 144.129 699.261 142.281 698.091 142.281C651.084 142.281 604.077 142.281 557.132 142.281C543.64 142.281 530.148 142.281 516.656 142.281C515.424 142.281 515.424 144.129 516.656 144.129Z" fill="#E8E8E8"/>
<path d="M697.721 143.759C697.721 147.825 697.721 151.83 697.721 155.896C697.721 157.066 699.569 157.066 699.569 155.896C699.569 151.83 699.569 147.825 699.569 143.759C699.569 142.588 697.721 142.588 697.721 143.759Z" fill="#E8E8E8"/>
<path d="M535.94 95.6436C536.494 99.8329 537.11 104.145 536.494 108.396C535.94 112.462 534.153 116.097 532.613 119.855C529.656 126.94 528.115 134.333 528.177 141.972C528.177 143.143 530.025 143.143 530.025 141.972C530.025 133.224 532.243 125.462 535.632 117.514C536.864 114.619 537.973 111.662 538.404 108.52C538.958 104.207 538.404 99.9561 537.849 95.6436C537.603 94.4731 535.755 94.4731 535.94 95.6436Z" fill="#E8E8E8"/>
<path d="M537.418 96.4447C539.451 95.459 541.731 95.0893 544.01 95.5822C545.304 95.8902 545.55 96.6295 545.92 97.7385C546.105 98.2929 546.166 98.5394 546.536 99.0322C547.275 99.9563 548.569 98.6626 547.83 97.7385C547.337 97.1224 547.83 95.8902 547.152 95.151C546.474 94.2884 545.119 93.9804 544.133 93.7956C541.484 93.3027 538.835 93.734 536.432 94.9045C535.385 95.3358 536.309 96.9376 537.418 96.4447Z" fill="#E8E8E8"/>
<path d="M545.982 96.9989C545.427 104.453 547.337 111.045 550.787 117.576C554.915 125.4 555.592 133.532 555.839 142.28C555.9 143.451 557.749 143.451 557.687 142.28C557.441 134.826 557.194 127.125 554.114 120.225C552.512 116.59 550.356 113.325 549.185 109.505C547.891 105.439 547.522 101.25 547.83 96.9989C547.953 95.8283 546.043 95.8283 545.982 96.9989Z" fill="#E8E8E8"/>
<path d="M575.184 141.726C576.046 140.063 575.245 138.276 576.354 136.859C578.079 134.765 583.562 134.826 586.026 134.58C591.51 134.025 596.931 134.087 602.414 134.518C607.897 134.95 613.38 135.689 618.925 135.935C621.636 136.058 624.346 135.997 627.057 135.935C629.768 135.874 637.222 136.736 634.388 141.357C633.772 142.342 635.374 143.328 635.99 142.281C638.516 138.215 634.327 134.58 630.446 134.087C627.057 133.656 623.545 134.21 620.095 134.087C615.968 133.964 611.84 133.533 607.712 133.101C599.888 132.362 592.126 131.931 584.301 132.855C581.591 133.163 577.525 133.163 575.184 134.703C572.842 136.243 574.629 138.584 573.582 140.679C573.027 141.85 574.629 142.835 575.184 141.726Z" fill="#E8E8E8"/>
<path d="M597.732 132.67C598.286 131.314 597.978 129.959 598.41 128.604C599.519 125.154 603.893 126.201 606.542 126.201C611.47 126.201 616.337 126.201 621.266 126.263C631.062 126.263 640.857 126.324 650.714 126.324C650.406 126.078 650.098 125.893 649.852 125.646C650.53 128.788 651.084 131.93 651.515 135.134C651.639 136.305 653.487 136.305 653.364 135.134C652.932 131.746 652.378 128.419 651.639 125.154C651.577 124.784 651.146 124.476 650.776 124.476C638.947 124.414 627.057 124.414 615.228 124.353C612.394 124.353 609.499 124.353 606.665 124.353C604.509 124.353 602.044 123.983 599.888 124.476C595.884 125.4 597.301 129.281 596.13 132.177C595.514 133.286 597.301 133.779 597.732 132.67Z" fill="#E8E8E8"/>
<path d="M635.374 137.414C640.734 137.722 646.094 137.599 651.392 136.983C652.563 136.86 652.563 135.011 651.392 135.135C646.032 135.751 640.734 135.874 635.374 135.566C634.204 135.443 634.204 137.291 635.374 137.414Z" fill="#E8E8E8"/>
<path d="M635.189 125.523C636.422 128.727 636.976 132.054 636.853 135.504C636.791 136.674 638.639 136.674 638.701 135.504C638.824 131.869 638.208 128.419 636.976 125.03C636.545 123.921 634.758 124.414 635.189 125.523Z" fill="#E8E8E8"/>
<path d="M674.865 86.156C674.865 91.2695 674.865 96.4445 674.865 101.558C674.865 106.425 675.234 111.538 674.31 116.344C673.448 120.964 670.983 124.722 668.519 128.604C665.87 132.916 663.467 137.352 661.249 141.911C660.756 142.958 662.358 143.944 662.851 142.835C665.192 137.968 667.78 133.224 670.675 128.604C673.016 124.907 675.234 121.211 676.035 116.837C676.836 112.401 676.651 107.842 676.651 103.406C676.651 97.6767 676.651 91.8855 676.651 86.156C676.713 84.9855 674.865 84.9855 674.865 86.156Z" fill="#E8E8E8"/>
<path d="M676.405 87.3271C679.423 85.6637 682.812 85.7253 685.769 87.4503C686.816 88.0664 687.741 86.4646 686.693 85.8485C683.182 83.7538 678.992 83.6922 675.481 85.7253C674.433 86.2797 675.357 87.8815 676.405 87.3271Z" fill="#E8E8E8"/>
<path d="M684.291 86.7722C684.291 92.4401 684.229 98.1696 684.229 103.838C684.229 108.396 683.798 113.202 684.414 117.761C685.03 122.073 687.371 125.277 689.897 128.665C693.039 132.793 695.257 137.106 696.366 142.219C696.612 143.39 698.399 142.897 698.152 141.726C697.29 137.598 695.688 133.717 693.347 130.206C690.759 126.324 687.248 123.059 686.385 118.254C685.461 113.202 686.077 107.657 686.077 102.605C686.077 97.3071 686.139 92.0089 686.139 86.7106C686.139 85.6017 684.291 85.6017 684.291 86.7722Z" fill="#E8E8E8"/>
<path d="M586.766 175.98C586.766 199.145 586.766 222.371 586.766 245.535C586.766 246.706 588.614 246.706 588.614 245.535C588.614 222.371 588.614 199.145 588.614 175.98C588.614 174.748 586.766 174.748 586.766 175.98Z" fill="#E8E8E8"/>
<path d="M589.045 176.164C621.143 176.164 653.24 176.164 685.338 176.164C686.508 176.164 686.508 174.316 685.338 174.316C653.24 174.316 621.143 174.316 589.045 174.316C587.875 174.316 587.875 176.164 589.045 176.164Z" fill="#E8E8E8"/>
<path d="M587.936 246.336C618.617 246.336 649.297 246.336 680.04 246.336C681.21 246.336 681.21 244.488 680.04 244.488C649.359 244.488 618.678 244.488 587.936 244.488C586.704 244.488 586.704 246.336 587.936 246.336Z" fill="#E8E8E8"/>
<path d="M683.305 176.535C683.305 199.514 683.305 222.432 683.305 245.412C683.305 246.583 685.153 246.583 685.153 245.412C685.153 222.432 685.153 199.514 685.153 176.535C685.153 175.364 683.305 175.364 683.305 176.535Z" fill="#E8E8E8"/>
<path d="M679.485 246.644C680.717 246.644 682.011 246.644 683.243 246.644C684.414 246.644 684.414 244.796 683.243 244.796C682.011 244.796 680.717 244.796 679.485 244.796C678.315 244.796 678.315 246.644 679.485 246.644Z" fill="#E8E8E8"/>
<path d="M595.206 196.927C621.944 196.989 648.743 197.05 675.481 197.112C676.651 197.112 676.651 195.263 675.481 195.263C648.743 195.202 621.944 195.14 595.206 195.079C594.035 195.079 594.035 196.927 595.206 196.927Z" fill="#E8E8E8"/>
<path d="M597.732 214.978C623.607 214.916 649.421 214.854 675.296 214.793C676.466 214.793 676.466 212.944 675.296 212.944C649.421 213.006 623.607 213.068 597.732 213.129C596.561 213.129 596.561 214.978 597.732 214.978Z" fill="#E8E8E8"/>
<path d="M599.21 232.967C624.901 232.967 650.591 232.967 676.281 232.967C677.452 232.967 677.452 231.119 676.281 231.119C650.591 231.119 624.901 231.119 599.21 231.119C598.04 231.119 598.04 232.967 599.21 232.967Z" fill="#E8E8E8"/>
<path d="M611.594 196.249C611.594 208.262 611.594 220.276 611.594 232.289C611.594 233.46 613.442 233.46 613.442 232.289C613.442 220.276 613.442 208.262 613.442 196.249C613.442 195.078 611.594 195.078 611.594 196.249Z" fill="#E8E8E8"/>
<path d="M633.341 196.804C633.341 208.201 633.341 219.66 633.341 231.057C633.341 232.228 635.189 232.228 635.189 231.057C635.189 219.66 635.189 208.201 635.189 196.804C635.189 195.572 633.341 195.572 633.341 196.804Z" fill="#E8E8E8"/>
<path d="M654.842 196.003C654.842 207.585 654.842 219.167 654.842 230.811C654.842 231.981 656.69 231.981 656.69 230.811C656.69 219.229 656.69 207.646 656.69 196.003C656.69 194.832 654.842 194.832 654.842 196.003Z" fill="#E8E8E8"/>
<path d="M674.372 196.557C674.372 208.139 674.372 219.721 674.372 231.365C674.372 232.536 676.22 232.536 676.22 231.365C676.22 219.783 676.22 208.201 676.22 196.557C676.22 195.325 674.372 195.325 674.372 196.557Z" fill="#E8E8E8"/>
<path d="M602.229 217.751C599.827 219.722 597.301 222.864 599.026 226.129C599.642 227.3 600.689 228.224 602.044 228.409C603.769 228.655 605.125 227.485 606.295 226.376C607.158 225.575 605.864 224.219 605.002 225.082C604.077 225.944 603.03 226.992 601.736 226.376C600.812 225.944 600.319 224.835 600.319 223.85C600.319 221.878 602.106 220.276 603.523 219.106C604.447 218.305 603.153 217.011 602.229 217.751Z" fill="#E8E8E8"/>
<path d="M623.299 225.081C621.019 224.034 620.527 220.83 623.052 219.66C624.593 218.982 625.147 220.83 625.332 222.001C625.517 222.987 625.024 225.513 623.422 224.465C622.436 223.849 621.512 225.451 622.498 226.067C624.223 227.176 626.379 226.005 627.057 224.219C627.55 222.802 627.119 221.323 626.626 219.968C626.256 218.921 625.825 217.996 624.716 217.627C622.56 217.011 620.28 218.921 619.664 220.892C618.925 223.172 620.219 225.636 622.313 226.622C623.422 227.176 624.346 225.574 623.299 225.081Z" fill="#E8E8E8"/>
<path d="M606.357 217.565C606.234 217.38 606.234 217.134 606.48 217.072C606.295 216.949 606.111 216.887 605.926 216.764C606.172 217.442 605.741 218.181 605.741 218.92C605.741 219.413 605.987 219.906 606.419 220.214C607.343 220.892 608.575 220.522 609.068 219.536C609.314 218.982 608.513 218.551 608.267 219.043C607.774 220.029 606.542 219.598 606.665 218.551C606.727 217.873 607.035 217.257 606.788 216.518C606.727 216.271 606.48 216.086 606.234 216.21C605.494 216.456 605.063 217.38 605.556 218.058C605.864 218.551 606.665 218.058 606.357 217.565Z" fill="#E8E8E8"/>
<path d="M627.858 217.195C628.474 217.072 629.029 216.887 629.645 216.764C630.199 216.641 629.953 215.716 629.398 215.901C628.782 216.025 628.228 216.209 627.612 216.333C627.057 216.456 627.304 217.38 627.858 217.195Z" fill="#E8E8E8"/>
<path d="M627.55 217.195C627.673 217.503 627.735 217.873 627.858 218.181C627.92 218.366 628.104 218.551 628.289 218.551C628.597 218.489 629.029 218.427 629.275 218.551C629.398 218.612 629.521 218.736 629.521 218.859C629.521 218.982 629.398 218.859 629.46 218.92C629.09 218.489 628.412 219.105 628.782 219.598C629.337 220.214 630.446 219.721 630.446 218.92C630.446 217.75 629.152 217.565 628.289 217.688C628.412 217.811 628.597 217.935 628.721 218.058C628.597 217.75 628.536 217.38 628.412 217.072C628.289 216.333 627.427 216.579 627.55 217.195Z" fill="#E8E8E8"/>
<path d="M619.048 200.562C619.295 203.088 619.295 205.552 618.987 208.078C618.925 208.694 619.849 208.694 619.911 208.078C620.157 205.552 620.219 203.088 619.972 200.562C619.911 199.946 618.987 199.946 619.048 200.562Z" fill="#E8E8E8"/>
<path d="M619.972 204.874C621.82 204.689 623.053 203.087 622.683 201.239C622.56 200.685 621.82 200.869 621.759 201.362C621.512 203.642 621.451 205.983 621.574 208.262C621.574 208.878 622.498 208.878 622.498 208.262C622.375 205.921 622.437 203.642 622.683 201.362C622.375 201.424 622.067 201.424 621.759 201.486C622.005 202.718 621.143 203.827 619.911 203.95C619.418 204.011 619.418 204.936 619.972 204.874Z" fill="#E8E8E8"/>
<path d="M625.209 199.884C625.271 199.761 625.271 199.699 625.332 199.576C625.209 199.638 625.024 199.638 624.901 199.699C625.271 199.822 625.332 200.438 625.024 200.685C624.716 200.87 624.716 201.424 625.147 201.547C625.517 201.609 625.825 201.671 626.195 201.732C626.133 201.486 626.01 201.301 625.948 201.054C625.702 201.486 625.394 201.855 624.962 202.04C624.408 202.287 624.654 203.149 625.209 202.903C625.887 202.595 626.441 202.163 626.749 201.486C626.872 201.239 626.811 200.87 626.503 200.808C626.133 200.746 625.825 200.685 625.455 200.623C625.517 200.931 625.517 201.178 625.579 201.486C626.626 200.808 626.379 199.206 625.209 198.837C625.086 198.775 624.901 198.837 624.778 198.96C624.408 199.329 624.346 199.699 624.408 200.13C624.408 200.746 625.271 200.5 625.209 199.884Z" fill="#E8E8E8"/>
<path d="M645.909 201.548C643.075 199.576 638.886 204.258 640.426 207.031C641.104 208.263 642.705 208.879 643.999 208.263C645.231 207.708 645.724 205.983 644.307 205.306C644.246 205.614 644.246 205.86 644.184 206.168C644.862 206.045 645.539 205.922 646.217 205.799C646.772 205.675 646.525 204.813 645.971 204.936C645.293 205.059 644.615 205.183 643.938 205.306C643.568 205.367 643.445 205.983 643.814 206.168C644.122 207.031 643.938 207.524 643.322 207.585C643.075 207.708 642.767 207.708 642.521 207.647C642.213 207.585 641.843 207.4 641.658 207.216C640.796 206.415 640.98 205.183 641.535 204.32C642.274 203.088 643.999 201.486 645.478 202.472C645.909 202.657 646.402 201.856 645.909 201.548Z" fill="#E8E8E8"/>
<path d="M648.558 201.547C648.681 202.471 648.805 203.457 648.928 204.381C648.989 204.874 649.113 205.367 649.113 205.798C649.113 206.106 649.051 206.352 649.051 206.66C648.866 207.523 648.312 207.585 647.572 206.968C647.634 206.414 646.772 206.106 646.71 206.722C646.525 208.139 648.004 209.063 649.174 208.201C649.852 207.708 650.098 206.907 650.16 206.106C650.222 204.627 649.852 203.026 649.667 201.547C649.421 200.931 648.497 200.931 648.558 201.547Z" fill="#E8E8E8"/>
<path d="M647.449 200.931C648.496 201.177 649.482 201.301 650.591 201.239C651.207 201.177 651.207 200.253 650.591 200.315C649.605 200.377 648.681 200.315 647.696 200.068C647.079 199.884 646.833 200.808 647.449 200.931Z" fill="#E8E8E8"/>
<path d="M638.27 219.413C638.516 221.385 638.516 223.294 638.27 225.266C638.208 225.882 639.132 225.82 639.194 225.266C639.44 223.233 639.44 221.2 639.132 219.167C639.071 218.612 638.208 218.859 638.27 219.413Z" fill="#E8E8E8"/>
<path d="M638.947 223.665C641.227 224.404 641.905 221.755 641.905 220.091C641.905 219.475 641.042 219.537 640.98 220.091C640.796 222.124 640.672 224.219 640.611 226.314C640.611 226.93 641.535 226.93 641.535 226.314C641.597 224.219 641.72 222.186 641.905 220.091C641.597 220.091 641.289 220.091 640.98 220.091C640.98 221.139 640.857 223.295 639.194 222.802C638.578 222.617 638.331 223.541 638.947 223.665Z" fill="#E8E8E8"/>
<path d="M642.521 224.711C642.582 225.327 642.644 225.944 642.582 226.498C642.582 226.744 642.829 226.929 643.075 226.991C643.383 226.991 643.753 227.052 644.061 227.052C644.677 227.052 644.677 226.128 644.061 226.128C643.753 226.128 643.383 226.067 643.075 226.067C643.26 226.252 643.383 226.375 643.568 226.56C643.568 225.944 643.568 225.327 643.506 224.773C643.445 224.527 643.322 224.342 643.013 224.28C642.705 224.28 642.459 224.465 642.521 224.711Z" fill="#E8E8E8"/>
<path d="M648.004 225.759C647.388 224.896 647.08 223.911 647.018 222.802C647.018 222.124 647.08 220.461 647.696 219.968C648.99 218.859 649.544 222.001 649.606 222.74C649.667 223.295 649.667 223.911 649.544 224.465C649.482 224.896 648.866 226.93 647.881 225.636C647.511 225.143 646.895 225.821 647.203 226.313C648.189 227.546 649.729 226.683 650.222 225.513C650.899 223.726 650.653 220.954 649.544 219.413C648.435 217.873 647.141 218.797 646.587 220.214C645.786 222.186 646.094 224.465 647.264 226.19C647.511 226.745 648.312 226.252 648.004 225.759Z" fill="#E8E8E8"/>
<path d="M664.145 202.471C663.159 201.671 661.865 201.671 660.818 202.348C659.524 203.211 659.155 204.874 659.031 206.291C658.97 207.646 659.34 209.002 660.88 209.187C662.42 209.371 663.467 208.139 664.33 206.969C664.699 206.476 663.898 206.045 663.529 206.476C662.974 207.215 662.297 208.139 661.249 208.201C659.894 208.263 659.894 206.784 659.956 205.86C660.079 204.381 661.496 201.486 663.406 203.026C663.898 203.519 664.576 202.841 664.145 202.471Z" fill="#E8E8E8"/>
<path d="M667.225 207.031C666.856 206.538 666.548 205.983 666.424 205.367C666.301 204.875 666.116 203.766 666.424 203.334C666.732 203.211 667.04 203.026 667.348 202.903C667.595 203.088 667.78 203.396 667.903 203.704C668.026 203.95 668.088 204.258 668.149 204.505C668.211 204.875 668.334 205.244 668.273 205.614C668.211 206.045 667.718 206.969 667.102 206.353C666.671 205.922 666.055 206.6 666.424 207.031C667.225 207.832 668.519 207.462 669.012 206.476C669.566 205.306 669.012 203.273 668.149 202.41C667.164 201.486 665.931 201.979 665.562 203.211C665.131 204.751 665.562 206.353 666.486 207.585C666.794 207.955 667.595 207.524 667.225 207.031Z" fill="#E8E8E8"/>
<path d="M668.95 200.377C668.95 200.438 668.95 200.438 668.95 200.377C669.012 200.377 669.135 200.315 669.258 200.315C669.135 200.315 669.258 201.177 669.32 201.362C669.382 201.486 669.443 201.609 669.505 201.732C669.69 201.978 669.936 202.102 670.244 202.163C670.799 202.286 671.415 202.04 671.661 201.486C671.907 200.931 671.107 200.5 670.86 200.993C670.737 201.301 670.306 201.301 670.182 200.993C669.998 200.5 669.998 200.007 669.32 199.884C668.827 199.822 668.457 200.253 668.581 200.685C668.704 201.116 669.258 201.301 669.628 200.993C670.059 200.623 669.382 200.007 668.95 200.377Z" fill="#E8E8E8"/>
<path d="M598.533 200.993C598.225 204.197 598.163 207.462 598.348 210.665C598.348 211.281 599.272 211.281 599.272 210.665C599.149 207.462 599.211 204.197 599.457 200.993C599.457 200.377 598.533 200.377 598.533 200.993Z" fill="#E8E8E8"/>
<path d="M599.334 202.964C600.566 202.841 601.182 203.211 601.12 204.011C601.12 204.381 601.12 204.689 600.997 205.059C600.812 205.921 600.443 206.661 599.518 207.03C599.149 207.153 599.026 207.831 599.518 207.893C601.305 208.262 602.784 209.125 603.831 210.603C604.201 211.096 605.001 210.603 604.632 210.111C603.4 208.447 601.798 207.4 599.765 206.969C599.765 207.277 599.765 207.585 599.765 207.831C601.983 206.969 603.03 203.149 601.12 201.424C599.518 200.007 597.054 201.917 598.656 203.519C599.087 204.011 599.765 203.395 599.334 202.964Z" fill="#E8E8E8"/>
<path d="M605.926 208.879C605.864 209.125 605.926 209.556 605.987 209.864C606.049 210.234 606.172 210.542 606.48 210.727C607.035 211.158 607.774 210.85 608.39 210.604C608.945 210.357 608.452 209.556 607.897 209.803C607.712 209.926 607.466 210.049 607.22 210.049C606.912 210.049 606.912 209.803 606.912 209.495C606.912 209.063 606.85 208.632 606.603 208.262C606.172 207.77 605.186 207.893 605.063 208.57C604.94 209.187 605.803 209.433 605.926 208.879Z" fill="#E8E8E8"/>
<path d="M659.031 219.475C659.093 222.371 659.093 225.266 658.908 228.1C658.847 228.593 659.709 228.716 659.832 228.224C659.894 227.977 659.956 227.731 660.017 227.546C660.14 226.991 659.278 226.745 659.155 227.299C659.093 227.546 659.031 227.792 658.97 227.977C659.278 228.039 659.586 228.039 659.894 228.1C660.079 225.205 660.14 222.309 660.017 219.475C659.894 218.859 658.97 218.859 659.031 219.475Z" fill="#E8E8E8"/>
<path d="M659.032 219.783C659.524 222.247 660.264 224.65 661.249 226.991C661.434 227.484 662.112 227.422 662.174 226.868C662.543 224.157 662.851 221.508 663.221 218.797C663.282 218.181 662.358 218.243 662.297 218.797C661.927 221.508 661.619 224.157 661.249 226.868C661.557 226.806 661.865 226.806 662.174 226.745C661.188 224.403 660.448 222.001 659.956 219.536C659.771 218.92 658.908 219.167 659.032 219.783Z" fill="#E8E8E8"/>
<path d="M664.823 226.683C664.576 226.252 664.268 225.697 664.33 225.205C664.391 224.958 664.699 224.465 665.007 224.65C665.315 224.773 665.254 225.697 665.192 226.005C665.131 226.314 664.761 226.93 664.391 226.498C664.022 226.067 663.344 226.683 663.714 227.176C664.268 227.792 665.315 227.607 665.808 226.93C666.301 226.19 666.363 224.712 665.747 224.034C665.192 223.418 664.206 223.726 663.775 224.28C663.036 225.143 663.59 226.314 664.022 227.176C664.33 227.669 665.131 227.176 664.823 226.683Z" fill="#E8E8E8"/>
<path d="M667.287 218.797C667.657 221.754 667.78 224.65 667.595 227.607C667.533 228.223 668.457 228.223 668.519 227.607C668.704 224.65 668.581 221.754 668.211 218.797C668.088 218.243 667.164 218.243 667.287 218.797Z" fill="#E8E8E8"/>
<path d="M668.334 220.646C668.273 220.153 668.211 219.475 668.827 219.352C669.443 219.229 669.751 219.968 669.813 220.461C669.936 221.447 669.32 222.433 668.519 222.987C668.026 223.295 668.457 224.096 669.012 223.788C670.552 222.802 671.538 220.461 670.121 218.921C669.628 218.366 668.766 218.12 668.149 218.551C667.41 219.044 667.41 220.03 667.533 220.831C667.533 221.447 668.457 221.2 668.334 220.646Z" fill="#E8E8E8"/>
<path d="M670.429 216.702C670.121 217.38 670.367 218.181 670.86 218.674C671.353 219.105 672.339 219.29 672.708 218.551C672.955 217.996 672.154 217.565 671.907 218.058C671.846 218.181 671.969 218.119 671.907 218.119C671.846 218.119 671.784 218.119 671.723 218.119C671.599 218.058 671.476 217.934 671.415 217.811C671.23 217.503 671.23 217.195 671.353 216.887C671.476 216.641 671.23 216.394 671.045 216.333C670.737 216.333 670.552 216.518 670.429 216.702Z" fill="#E8E8E8"/>
<path d="M594.59 196.003C594.59 207.955 594.59 219.845 594.59 231.797C594.59 232.967 596.438 232.967 596.438 231.797C596.438 219.845 596.438 207.955 596.438 196.003C596.438 194.832 594.59 194.832 594.59 196.003Z" fill="#E8E8E8"/>
<path d="M595.76 232.967C622.498 232.967 649.236 232.967 675.974 232.967C677.144 232.967 677.144 231.119 675.974 231.119C649.236 231.119 622.498 231.119 595.76 231.119C594.59 231.119 594.59 232.967 595.76 232.967Z" fill="#E8E8E8"/>
<path d="M5.25195 384.337C5.25195 400.539 5.25195 416.681 5.25195 432.883C5.25195 434.054 7.10018 434.054 7.10018 432.883C7.10018 416.681 7.10018 400.539 7.10018 384.337C7.10018 383.166 5.25195 383.166 5.25195 384.337Z" fill="#E8E8E8"/>
<path d="M8.20927 385.261C39.6907 385.261 71.1722 385.261 102.592 385.261C103.763 385.261 103.763 383.413 102.592 383.413C71.1106 383.413 39.6291 383.413 8.20927 383.413C6.97712 383.413 6.97712 385.261 8.20927 385.261Z" fill="#E8E8E8"/>
<path d="M8.20927 434.486C38.1505 434.486 68.0302 434.486 97.9715 434.486C99.142 434.486 99.142 432.637 97.9715 432.637C68.0302 432.637 38.1505 432.637 8.20927 432.637C6.97712 432.637 6.97712 434.486 8.20927 434.486Z" fill="#E8E8E8"/>
<path d="M100.99 385.692C100.99 400.539 100.99 415.387 100.99 430.234C100.99 431.405 102.838 431.405 102.838 430.234C102.838 415.387 102.838 400.539 102.838 385.692C102.838 384.521 100.99 384.521 100.99 385.692Z" fill="#E8E8E8"/>
<path d="M49.1782 359.077C49.1782 364.191 49.1782 369.243 49.1782 374.356C49.1782 375.527 51.0264 375.527 51.0264 374.356C51.0264 369.243 51.0264 364.191 51.0264 359.077C51.0264 357.907 49.1782 357.907 49.1782 359.077Z" fill="#E8E8E8"/>
<path d="M50.7185 360.002C71.1106 360.002 91.5027 360.002 111.895 360.002C113.065 360.002 113.065 358.154 111.895 358.154C91.5027 358.154 71.1106 358.154 50.7185 358.154C49.5479 358.154 49.5479 360.002 50.7185 360.002Z" fill="#E8E8E8"/>
<path d="M51.3962 375.959C71.1106 375.959 90.8251 375.959 110.539 375.959C111.71 375.959 111.71 374.11 110.539 374.11C90.8251 374.11 71.1106 374.11 51.3962 374.11C50.2257 374.11 50.2257 375.959 51.3962 375.959Z" fill="#E8E8E8"/>
<path d="M110.293 361.727C110.293 365.917 110.293 370.168 110.293 374.357C110.293 375.527 112.141 375.527 112.141 374.357C112.141 370.168 112.141 365.917 112.141 361.727C112.141 360.557 110.293 360.557 110.293 361.727Z" fill="#E8E8E8"/>
<path d="M154.65 50.6087C158.901 50.4239 163.091 49.931 167.218 49.1301C168.389 48.8837 167.896 47.0971 166.726 47.3435C162.721 48.0828 158.717 48.5757 154.65 48.7605C153.418 48.8221 153.418 50.6703 154.65 50.6087Z" fill="#E8E8E8"/>
<path d="M167.218 47.9595C165.432 41.3059 165.432 34.3443 167.465 27.7523C169.19 22.0228 174.365 12.0423 181.942 15.6156C188.35 18.6343 189.212 27.6907 190.26 33.8514C191.553 41.1827 192.169 48.6372 192.293 56.0917C192.293 57.2623 194.141 57.2623 194.141 56.0917C193.956 46.7274 192.97 37.4246 191.06 28.2451C189.767 22.146 187.302 13.829 179.848 13.0897C173.256 12.4736 168.882 19.004 166.725 24.3022C163.645 32.0032 163.275 40.505 165.432 48.4524C165.74 49.6229 167.526 49.1301 167.218 47.9595Z" fill="#E8E8E8"/>
<path d="M155.266 47.9597C152.987 37.9793 154.034 27.3212 158.532 18.0801C162.536 9.94788 170.36 2.00051 179.971 1.81568C190.568 1.63086 197.652 11.0568 200.61 20.2363C203.936 30.5248 204.737 41.8606 204.676 52.6419C204.676 53.8125 206.524 53.8125 206.524 52.6419C206.586 42.6615 205.785 32.4346 203.259 22.7623C201.287 15.1845 197.591 7.73001 190.876 3.29427C176.767 -6.07008 161.55 6.18982 155.944 19.3122C152.001 28.5534 151.2 38.7186 153.418 48.5142C153.726 49.6231 155.513 49.1303 155.266 47.9597Z" fill="#E8E8E8"/>
<path d="M192.539 57.5089C197.406 60.5277 203.998 58.1866 206.093 52.95C206.524 51.841 204.737 51.3482 204.306 52.4571C202.643 56.6464 197.283 58.3098 193.525 55.9071C192.478 55.2911 191.553 56.8929 192.539 57.5089Z" fill="#E8E8E8"/>
<path d="M152.248 73.8343C152.248 89.4826 152.248 105.069 152.248 120.718C152.248 121.888 154.096 121.888 154.096 120.718C154.096 105.069 154.096 89.4826 154.096 73.8343C154.096 72.6637 152.248 72.6637 152.248 73.8343Z" fill="#E8E8E8"/>
<path d="M153.85 75.19C172.27 72.048 190.383 67.6123 208.126 61.8828C209.235 61.5131 208.742 59.7265 207.633 60.0961C189.89 65.8872 171.777 70.323 153.357 73.4034C152.186 73.5882 152.741 75.3748 153.85 75.19Z" fill="#E8E8E8"/>
<path d="M208.495 62.9919C208.495 77.6545 208.495 92.2554 208.495 106.918C208.495 108.089 210.344 108.089 210.344 106.918C210.344 92.2554 210.344 77.6545 210.344 62.9919C210.344 61.8213 208.495 61.8213 208.495 62.9919Z" fill="#E8E8E8"/>
<path d="M154.342 122.813C172.64 119.917 190.691 115.543 208.311 109.752C209.419 109.382 208.927 107.596 207.818 107.966C190.198 113.757 172.147 118.131 153.849 121.026C152.679 121.211 153.172 122.998 154.342 122.813Z" fill="#E8E8E8"/>
<path d="M180.71 90.284C180.094 88.6822 179.355 86.8956 179.293 85.1706C179.232 83.0759 180.649 80.3036 183.113 80.9197C186.871 81.8438 185.824 87.8813 184.468 90.2224C183.852 91.2697 185.454 92.1938 186.07 91.1465C188.103 87.6965 188.658 79.8107 183.236 78.9482C181.08 78.6402 179.047 80.1188 178.061 82.0286C176.644 84.8625 177.815 88.1277 178.862 90.8385C179.355 91.8858 181.142 91.3929 180.71 90.284Z" fill="#E8E8E8"/>
<path d="M179.232 90.0988C179.478 94.5345 179.725 99.0319 179.971 103.468C180.094 105.439 181.08 106.548 183.298 106.055C185.392 105.562 186.44 103.776 186.686 101.804C186.933 99.7712 186.378 97.6765 186.193 95.7051C186.009 93.364 186.009 91.0229 186.193 88.6202C186.255 87.4497 184.407 87.4497 184.345 88.6202C184.222 90.9613 184.16 93.3024 184.345 95.7051C184.468 97.3069 186.009 103.529 183.483 104.022C180.895 104.515 181.573 98.9703 181.45 97.4301C181.326 95.0274 181.203 92.5631 181.018 90.1604C181.018 88.9283 179.17 88.9283 179.232 90.0988Z" fill="#E8E8E8"/>
<path d="M316.124 55.6601C316.124 68.9057 316.124 82.1513 316.124 95.3969C316.124 96.5675 317.972 96.5675 317.972 95.3969C317.972 82.1513 317.972 68.9057 317.972 55.6601C317.972 54.4895 316.124 54.4895 316.124 55.6601Z" fill="#E8E8E8"/>
<path d="M279.344 99.34C302.447 99.34 325.488 99.34 348.591 99.34C349.761 99.34 349.761 97.4918 348.591 97.4918C325.488 97.4918 302.447 97.4918 279.344 97.4918C278.173 97.4918 278.173 99.34 279.344 99.34Z" fill="#E8E8E8"/>
<path d="M339.535 101.496C339.535 112.031 339.535 122.566 339.535 133.04C339.535 134.21 341.383 134.21 341.383 133.04C341.383 122.505 341.383 111.97 341.383 101.496C341.383 100.326 339.535 100.326 339.535 101.496Z" fill="#E8E8E8"/>
<path d="M9.44138 235.863C31.8665 235.863 54.2301 235.863 76.6552 235.863C77.8258 235.863 77.8258 234.015 76.6552 234.015C54.2301 234.015 31.8665 234.015 9.44138 234.015C8.27084 234.015 8.27084 235.863 9.44138 235.863Z" fill="#E8E8E8"/>
<path d="M47.0836 232.906C47.0836 227.114 47.0836 221.385 47.0836 215.594C47.0836 214.423 45.2354 214.423 45.2354 215.594C45.2354 221.385 45.2354 227.114 45.2354 232.906C45.2354 234.076 47.0836 234.076 47.0836 232.906Z" fill="#E8E8E8"/>
<path d="M67.5989 237.957C67.5989 244.734 67.5989 251.511 67.5989 258.349C67.5989 259.52 69.4471 259.52 69.4471 258.349C69.4471 251.572 69.4471 244.796 69.4471 237.957C69.4471 236.787 67.5989 236.787 67.5989 237.957Z" fill="#E8E8E8"/>
<path d="M545.181 353.964C573.027 353.964 600.874 353.964 628.72 353.964C629.891 353.964 629.891 352.116 628.72 352.116C600.874 352.116 573.027 352.116 545.181 352.116C544.01 352.116 544.01 353.964 545.181 353.964Z" fill="#E8E8E8"/>
<path d="M597.054 352.055C597.054 345.955 597.054 339.856 597.054 333.695C597.054 332.525 595.206 332.525 595.206 333.695C595.206 339.795 595.206 345.894 595.206 352.055C595.206 353.225 597.054 353.225 597.054 352.055Z" fill="#E8E8E8"/>
<path d="M585.903 334.62C607.651 334.62 629.337 334.62 651.084 334.62C652.255 334.62 652.255 332.771 651.084 332.771C629.337 332.771 607.651 332.771 585.903 332.771C584.733 332.771 584.733 334.62 585.903 334.62Z" fill="#E8E8E8"/>
<path d="M58.7891 595.219C99.2653 595.219 139.68 595.219 180.156 595.219C181.327 595.219 181.327 593.371 180.156 593.371C139.68 593.371 99.2653 593.371 58.7891 593.371C57.557 593.371 57.557 595.219 58.7891 595.219Z" fill="#E8E8E8"/>
<path d="M110.601 585.301C154.712 585.301 198.823 585.301 242.996 585.301C244.166 585.301 244.166 583.452 242.996 583.452C198.885 583.452 154.774 583.452 110.601 583.452C109.431 583.452 109.431 585.301 110.601 585.301Z" fill="#E8E8E8"/>
<path d="M197.776 617.275C225.006 617.275 252.175 617.275 279.406 617.275C280.576 617.275 280.576 615.427 279.406 615.427C252.175 615.427 225.006 615.427 197.776 615.427C196.544 615.427 196.544 617.275 197.776 617.275Z" fill="#E8E8E8"/>
<path d="M303.679 581.974C320.621 581.974 337.502 581.974 354.444 581.974C355.614 581.974 355.614 580.126 354.444 580.126C337.502 580.126 320.621 580.126 303.679 580.126C302.447 580.126 302.447 581.974 303.679 581.974Z" fill="#E8E8E8"/>
<path d="M442.666 563.245C479.076 563.245 515.486 563.245 551.896 563.245C553.066 563.245 553.066 561.397 551.896 561.397C515.486 561.397 479.076 561.397 442.666 561.397C441.434 561.397 441.434 563.245 442.666 563.245Z" fill="#E8E8E8"/>
<path d="M519.86 537.863C563.232 537.863 606.665 537.863 650.037 537.863C651.207 537.863 651.207 536.015 650.037 536.015C606.665 536.015 563.232 536.015 519.86 536.015C518.69 536.015 518.69 537.863 519.86 537.863Z" fill="#E8E8E8"/>
<path d="M595.945 562.136C639.317 562.136 682.75 562.136 726.122 562.136C727.293 562.136 727.293 560.288 726.122 560.288C682.75 560.288 639.317 560.288 595.945 560.288C594.775 560.288 594.775 562.136 595.945 562.136Z" fill="#E8E8E8"/>
<path d="M545.242 601.812C564.71 601.812 584.24 601.812 603.708 601.812C604.878 601.812 604.878 599.964 603.708 599.964C584.24 599.964 564.71 599.964 545.242 599.964C544.01 599.964 544.01 601.812 545.242 601.812Z" fill="#E8E8E8"/>
<path opacity="0.07" d="M253.592 578.277C222.665 602.428 191.8 626.578 160.873 650.728C119.288 632.615 77.7641 614.503 36.179 596.39C80.2284 572.24 124.278 548.09 168.327 523.939C175.166 523.077 181.203 523.262 186.44 523.939C226.793 529.361 249.218 569.96 253.592 578.277Z" fill="#353535"/>
<path d="M160.626 248.616C160.01 341.828 159.394 434.979 158.778 528.191C189.089 547.289 219.4 566.388 249.711 585.486C281.87 562.876 314.029 540.266 346.25 517.594C346.065 439.168 345.819 360.68 345.634 282.253C318.835 259.027 292.097 235.74 265.298 212.514C230.366 224.527 195.496 236.541 160.626 248.616Z" fill="white"/>
<path d="M249.095 327.597C249.095 394.81 249.095 462.024 249.095 529.238C249.095 548.09 249.095 566.942 249.095 585.794C249.095 586.964 250.943 586.964 250.943 585.794C250.943 518.58 250.943 451.366 250.943 384.152C250.943 365.3 250.943 346.449 250.943 327.597C250.943 326.426 249.095 326.364 249.095 327.597Z" fill="#161616"/>
<path d="M344.833 282.87C344.956 344.169 345.018 405.53 345.141 466.83C345.141 484.018 345.202 501.145 345.202 518.334C345.202 519.504 347.051 519.504 347.051 518.334C346.927 457.034 346.866 395.673 346.743 334.373C346.743 317.185 346.681 300.058 346.681 282.87C346.619 281.699 344.771 281.699 344.833 282.87Z" fill="#161616"/>
<path d="M160.133 248.986C186.748 240.052 213.424 231.119 240.038 222.186C246.63 219.968 253.161 217.812 259.753 215.594C261.17 215.101 262.895 214.116 264.435 214.608C265.606 214.978 267.207 216.95 268.193 217.812C270.965 220.215 273.799 222.556 276.572 224.959C287.168 233.953 297.703 242.948 308.3 251.943C320.436 262.293 332.573 272.581 344.71 282.931C344.771 282.438 344.833 281.946 344.894 281.453C313.721 297.101 282.301 312.072 250.512 326.488C250.881 326.549 251.251 326.611 251.621 326.611C241.394 317.74 231.167 308.806 220.94 299.935C204.552 285.704 188.165 271.411 171.777 257.179C168.019 253.914 164.323 250.649 160.565 247.384C159.949 246.891 158.963 247.199 158.963 248.061C158.963 264.88 158.963 281.761 158.963 298.58C158.963 334.312 158.963 369.983 158.963 405.715C158.963 438.059 158.963 470.403 158.963 502.747C158.963 510.756 158.963 518.703 158.963 526.712C158.963 527.945 158.716 528.992 159.579 529.854C160.318 530.655 161.612 531.148 162.536 531.764C164.631 533.12 166.725 534.413 168.758 535.769C195.003 552.464 221.186 569.098 247.431 585.794C248.109 586.225 248.787 586.657 249.403 587.088C249.649 587.273 250.08 587.273 250.327 587.088C282.301 564.355 314.275 541.683 346.188 518.95C347.174 518.272 346.25 516.67 345.264 517.348C328.445 529.3 311.626 541.252 294.807 553.204C286.306 559.241 277.804 565.279 269.364 571.316C265.174 574.273 261.047 577.231 256.857 580.188C255.071 581.482 252.298 582.775 250.881 584.439C250.45 584.932 250.512 585.424 250.142 585.424C249.28 585.424 247.37 583.638 246.692 583.207C244.228 581.605 241.763 580.065 239.237 578.463C231.783 573.719 224.328 568.975 216.874 564.231C201.041 554.128 185.208 544.086 169.313 533.982C167.095 532.565 164.939 531.21 162.721 529.793C162.166 529.423 161.55 528.93 160.934 528.684C160.503 528.499 160.133 527.883 160.503 528.684C160.934 529.608 160.688 528.253 160.749 527.883C160.811 526.774 160.749 525.665 160.749 524.556C160.749 514.206 160.749 503.794 160.749 493.444C160.749 476.194 160.749 458.944 160.749 441.694C160.749 421.363 160.749 401.033 160.749 380.702C160.749 360.742 160.749 340.781 160.749 320.82C160.749 304.987 160.749 289.154 160.749 273.32C160.749 268.145 160.749 262.909 160.749 257.734C160.749 255.023 161.119 252.004 160.749 249.294C160.688 248.924 160.749 248.554 160.749 248.185C160.195 248.431 159.702 248.616 159.148 248.862C169.375 257.734 179.601 266.667 189.828 275.538C206.216 289.77 222.603 304.063 238.991 318.294C242.749 321.559 246.446 324.824 250.204 328.09C250.573 328.398 250.943 328.398 251.313 328.213C283.04 313.797 314.522 298.826 345.695 283.178C346.188 282.931 346.311 282.069 345.88 281.699C323.948 263.032 302.016 244.365 280.083 225.698C277.434 223.418 274.785 221.2 272.136 218.921C270.904 217.874 269.672 216.826 268.378 215.717C267.392 214.917 265.667 212.822 264.435 212.391C263.572 212.083 262.833 212.575 261.971 212.883C260.246 213.438 258.521 214.054 256.734 214.608C253.284 215.779 249.772 216.95 246.322 218.12C232.83 222.617 219.277 227.176 205.785 231.674C190.321 236.849 174.919 242.024 159.456 247.199C158.47 247.569 158.963 249.355 160.133 248.986Z" fill="#161616"/>
<path d="M172.886 535.398C172.886 523.262 172.886 511.187 172.886 499.05C172.886 497.879 171.038 497.879 171.038 499.05C171.038 511.187 171.038 523.262 171.038 535.398C171.038 536.569 172.886 536.569 172.886 535.398Z" fill="#161616"/>
<path d="M171.531 498.188C185.947 506.258 200.178 514.699 214.163 523.508C215.149 524.124 216.073 522.523 215.087 521.907C201.102 513.097 186.871 504.656 172.455 496.586C171.408 496.031 170.483 497.633 171.531 498.188Z" fill="#161616"/>
<path d="M213.855 523.077C213.054 535.707 212.253 548.398 211.452 561.027C211.391 562.198 213.239 562.198 213.301 561.027C214.102 548.398 214.902 535.707 215.703 523.077C215.765 521.907 213.917 521.907 213.855 523.077Z" fill="#161616"/>
<path d="M178.801 511.618C177.753 520.12 177.137 528.622 177.014 537.124C177.014 538.294 178.862 538.294 178.862 537.124C178.985 528.56 179.601 520.058 180.649 511.618C180.834 510.386 178.985 510.448 178.801 511.618Z" fill="#161616"/>
<path d="M188.596 515.992C187.487 524.802 186.686 533.612 186.255 542.422C186.193 543.592 188.042 543.592 188.103 542.422C188.596 533.612 189.335 524.74 190.444 515.992C190.629 514.822 188.781 514.822 188.596 515.992Z" fill="#161616"/>
<path d="M198.7 522.523C197.344 531.456 196.359 540.45 195.804 549.445C195.743 550.616 197.591 550.616 197.652 549.445C198.207 540.574 199.131 531.764 200.486 523.015C200.671 521.845 198.885 521.352 198.7 522.523Z" fill="#161616"/>
<path d="M206.216 526.835C205.661 534.783 205.107 542.669 204.614 550.616C204.552 551.786 206.401 551.786 206.462 550.616C207.017 542.669 207.571 534.783 208.064 526.835C208.126 525.665 206.277 525.665 206.216 526.835Z" fill="#161616"/>
<path d="M172.763 491.966C188.473 500.159 203.936 508.846 219.092 518.026C220.139 518.642 221.063 517.04 220.016 516.424C204.86 507.244 189.397 498.496 173.687 490.364C172.64 489.809 171.654 491.411 172.763 491.966Z" fill="#161616"/>
<path d="M173.872 490.548C173.872 487.345 173.872 484.203 173.872 480.999C173.872 479.828 172.024 479.828 172.024 480.999C172.024 484.203 172.024 487.345 172.024 490.548C172.024 491.78 173.872 491.78 173.872 490.548Z" fill="#161616"/>
<path d="M172.824 480.753C189.274 488.639 205.168 497.633 220.386 507.614C221.371 508.292 222.295 506.69 221.31 506.012C206.093 495.97 190.198 487.037 173.749 479.151C172.701 478.658 171.777 480.199 172.824 480.753Z" fill="#161616"/>
<path d="M219.4 508.168C219.092 510.94 218.784 513.774 218.476 516.547C218.352 517.717 220.201 517.717 220.324 516.547C220.632 513.774 220.94 510.94 221.248 508.168C221.371 506.997 219.523 506.997 219.4 508.168Z" fill="#161616"/>
<path d="M256.18 334.928C280.145 324.393 303.617 312.687 326.412 299.811C327.46 299.257 326.535 297.655 325.488 298.21C302.632 311.024 279.221 322.729 255.255 333.326C254.147 333.819 255.071 335.42 256.18 334.928Z" fill="#161616"/>
<path d="M254.701 334.004C254.701 339.117 254.701 344.231 254.701 349.344C254.701 350.515 256.549 350.515 256.549 349.344C256.549 344.231 256.549 339.117 256.549 334.004C256.549 332.833 254.701 332.833 254.701 334.004Z" fill="#161616"/>
<path d="M256.426 349.344C273.122 341.951 289.448 333.757 305.404 324.824C306.451 324.27 305.527 322.668 304.48 323.222C288.524 332.155 272.198 340.288 255.502 347.742C254.455 348.235 255.379 349.837 256.426 349.344Z" fill="#161616"/>
<path d="M255.687 417.728C255.687 462.456 255.687 507.183 255.687 551.848C255.687 553.019 257.535 553.019 257.535 551.848C257.535 507.121 257.535 462.394 257.535 417.728C257.535 416.558 255.687 416.558 255.687 417.728Z" fill="#161616"/>
<path d="M260.862 490.549C260.862 514.822 260.862 539.095 260.862 563.369C260.862 564.539 262.71 564.539 262.71 563.369C262.71 539.095 262.71 514.822 262.71 490.549C262.71 489.378 260.862 489.378 260.862 490.549Z" fill="#161616"/>
<path d="M162.721 262.601C162.721 294.021 162.721 325.502 162.721 356.922C162.721 358.092 164.569 358.092 164.569 356.922C164.569 325.502 164.569 294.021 164.569 262.601C164.569 261.43 162.721 261.43 162.721 262.601Z" fill="#161616"/>
<path d="M168.019 330.8C168.019 367.149 168.019 403.559 168.019 439.907C168.019 441.078 169.867 441.078 169.867 439.907C169.867 403.559 169.867 367.149 169.867 330.8C169.867 329.63 168.019 329.63 168.019 330.8Z" fill="#161616"/>
<path opacity="0.06" d="M159.148 248.554C159.148 342.012 159.148 435.471 159.148 528.93C189.459 548.028 219.708 567.126 250.019 586.225C250.019 499.666 250.019 413.107 250.019 326.487C219.708 300.55 189.459 274.552 159.148 248.554Z" fill="#353535"/>
<path opacity="0.1" d="M161.735 281.637C170.915 326.118 179.909 363.082 187.056 390.559C198.145 433.315 203.813 449.949 211.329 466.953C224.205 496.093 238.745 518.333 249.526 533.058C249.896 490.179 250.204 447.361 250.573 404.483C253.592 464.427 280.699 502.069 302.2 501.576C319.574 501.145 336.577 475.947 346.065 445.267C346.065 469.725 346.065 494.122 346.065 518.58C314.214 540.758 282.363 562.999 250.573 585.178C220.447 566.264 190.321 547.289 160.195 528.375C160.688 446.129 161.181 363.883 161.735 281.637Z" fill="#353535"/>
<path opacity="0.39" d="M358.818 252.497C330.355 268.576 301.954 284.656 273.491 300.735C256.611 277.879 239.669 254.961 222.788 232.105C255.317 219.352 287.908 206.537 320.436 193.785C333.251 213.376 346.065 232.906 358.818 252.497Z" fill="#EC615B"/>
<g opacity="0.39">
<path d="M233.447 237.28C236.589 239.374 239.731 241.469 242.934 243.564C243.427 243.872 244.166 243.564 244.289 243.009C245.645 236.725 247.801 230.811 250.882 225.205C251.436 224.157 249.834 223.233 249.28 224.281C246.138 230.072 243.92 236.171 242.503 242.578C242.934 242.393 243.427 242.208 243.858 242.024C240.716 239.929 237.574 237.834 234.371 235.74C233.385 235 232.461 236.602 233.447 237.28Z" fill="#EC615B"/>
</g>
<path d="M258.767 224.281C259.814 222.679 261.231 221.447 263.018 220.708C263.573 220.461 263.08 219.66 262.525 219.907C260.615 220.769 259.075 222.125 257.966 223.85C257.658 224.343 258.459 224.774 258.767 224.281Z" fill="#EC615B"/>
<path d="M258.829 228.162C260.061 224.343 263.511 221.57 267.515 221.139C268.131 221.077 268.131 220.153 267.515 220.215C263.08 220.646 259.322 223.603 257.966 227.916C257.781 228.47 258.644 228.717 258.829 228.162Z" fill="#EC615B"/>
<path d="M259.876 231.304C261.231 225.882 265.051 221.939 270.904 223.849C271.458 224.034 271.705 223.171 271.15 222.987C264.866 220.892 260.492 225.143 259.014 231.057C258.829 231.612 259.691 231.858 259.876 231.304Z" fill="#EC615B"/>
<path d="M261.724 234.323C261.909 231.304 262.402 227.731 265.298 226.006C268.132 224.342 271.335 225.513 273.43 227.731C273.861 228.162 274.477 227.484 274.107 227.053C271.89 224.712 268.624 223.48 265.544 224.835C261.848 226.437 261.108 230.626 260.862 234.261C260.8 234.877 261.724 234.877 261.724 234.323Z" fill="#EC615B"/>
<path d="M264.497 237.835C265.113 234.323 262.217 231.12 265.359 228.101C267.639 225.945 270.534 227.054 272.382 229.025C274.046 230.873 274.723 233.276 275.032 235.679C275.093 236.233 276.017 236.295 275.956 235.679C275.463 231.613 272.875 225.205 267.577 225.883C265.667 226.13 264.004 227.793 263.264 229.518C262.094 232.29 264.127 234.755 263.634 237.527C263.511 238.143 264.435 238.389 264.497 237.835Z" fill="#EC615B"/>
<path d="M266.53 239.251C268.439 236.109 264.435 233.09 266.037 230.195C267.7 227.053 270.965 229.147 272.074 231.365C273.245 233.83 273.245 236.602 272.567 239.189C272.444 239.744 273.306 239.99 273.43 239.436C274.354 235.863 273.984 227.915 268.809 227.669C267.146 227.607 265.482 228.778 264.989 230.318C264.004 233.275 267.515 235.986 265.79 238.758C265.421 239.313 266.222 239.805 266.53 239.251Z" fill="#EC615B"/>
<path d="M268.686 239.929C269.672 237.588 269.425 235.37 268.255 233.214C268.008 232.844 267.823 232.413 267.639 231.982C268.994 231.058 269.795 231.304 270.041 232.598C270.288 233.214 270.473 233.83 270.534 234.508C270.842 236.417 270.534 238.266 269.856 240.052C269.61 240.607 270.534 240.853 270.719 240.299C271.581 238.143 271.828 235.863 271.273 233.645C270.965 232.228 270.165 229.887 268.378 229.825C267.207 229.764 266.53 230.688 266.591 231.797C266.653 232.783 267.392 233.645 267.762 234.508C268.501 236.233 268.439 238.019 267.7 239.744C267.577 240.237 268.439 240.484 268.686 239.929Z" fill="#EC615B"/>
<path d="M310.394 273.197C310.579 272.088 310.641 270.856 309.593 270.178C308.546 269.5 306.759 270.178 305.527 270.116C303.556 269.993 301.584 269.254 299.736 268.638C295.978 267.406 292.158 265.681 289.448 262.6C288.216 261.183 286.614 258.904 286.49 256.932C286.244 252.312 288.893 255.885 290.741 256.378C291.727 256.624 292.528 256.563 292.59 255.454C292.651 254.714 292.035 254.345 291.542 253.79C290.249 252.435 289.016 251.141 287.846 249.663C285.505 246.582 283.657 243.132 282.548 239.436C282.116 238.019 280.699 232.474 283.472 232.844C284.765 232.967 286.983 235.986 287.784 236.971C288.031 236.725 288.216 236.54 288.462 236.294C286.675 234.014 283.718 230.626 283.903 227.545C284.211 221.631 291.049 227.299 292.282 229.455C292.528 229.27 292.774 229.086 293.021 228.901C292.22 227.977 290.988 226.19 290.988 224.835C290.865 221.077 292.959 222.494 294.438 223.479C296.409 224.835 297.826 226.929 299.243 228.839C299.613 229.332 300.291 228.901 300.044 228.346C299.613 227.545 299.305 226.683 299.058 225.759C298.504 224.588 298.997 223.972 300.66 223.849C302.94 222.678 302.755 222.986 304.233 224.588C305.897 226.375 307.191 228.47 308.546 230.503C310.764 233.953 313.29 237.033 315.754 240.237C317.356 242.331 318.65 244.549 319.327 247.137C320.005 249.663 319.943 252.25 320.313 254.776C320.744 257.733 321.976 260.382 324.81 261.738C325.365 261.984 325.796 261.183 325.303 260.937C319.512 258.164 321.545 249.108 319.204 243.933C318.157 241.592 316.555 239.559 314.892 237.587C312.735 235 310.949 232.351 309.1 229.517C307.314 226.745 304.172 220.83 300.352 220.707C296.101 220.584 298.319 226.56 299.243 228.593C299.49 228.408 299.798 228.285 300.044 228.1C298.504 225.944 294.499 219.906 290.988 221.077C287.907 222.124 291.234 227.915 292.405 229.27C292.774 229.702 293.391 229.147 293.144 228.716C292.035 226.806 290.495 225.266 288.524 224.342C287.291 223.787 284.704 222.802 283.533 224.034C282.363 225.266 282.979 227.977 283.472 229.394C284.334 232.104 286.121 234.446 287.907 236.663C288.277 237.156 288.893 236.479 288.585 235.986C287.599 234.754 284.334 230.441 282.301 231.119C280.576 231.735 281.007 235.431 281.131 236.602C281.623 240.36 283.472 244.118 285.443 247.26C286.367 248.738 287.415 250.155 288.524 251.449C289.078 252.127 290.249 252.866 290.618 253.667C291.789 254.468 291.542 254.714 289.817 254.406C289.324 254.098 288.77 253.852 288.277 253.544C286.737 252.743 285.751 252.743 285.443 254.714C285.074 257.364 286.922 260.567 288.524 262.477C290.741 265.188 293.822 266.913 297.025 268.206C298.935 268.946 300.968 269.623 302.94 270.116C304.418 270.486 309.84 270.239 309.532 272.519C309.409 273.566 310.333 273.813 310.394 273.197Z" fill="#EC615B"/>
<path d="M287.045 235.925C289.633 239.067 291.727 242.64 294.007 246.028C294.315 246.521 295.116 246.028 294.808 245.535C292.467 242.085 290.31 238.451 287.661 235.247C287.292 234.816 286.675 235.432 287.045 235.925Z" fill="#EC615B"/>
<path d="M290.865 227.484C293.391 230.934 295.732 234.446 297.95 238.081C298.258 238.574 299.058 238.142 298.75 237.588C296.533 233.953 294.192 230.441 291.666 226.991C291.358 226.56 290.557 226.991 290.865 227.484Z" fill="#EC615B"/>
<path d="M222.542 232.228C239.114 255.208 256.056 277.941 273.43 300.305C273.799 300.797 274.416 300.12 274.107 299.627C256.796 277.263 239.915 254.653 223.343 231.735C223.035 231.304 222.234 231.735 222.542 232.228Z" fill="#EC615B"/>
<path d="M458.129 551.539C459.115 563.183 460.101 574.765 461.086 586.409C437.86 596.698 426.648 603.29 427.51 606.124C428.558 609.574 447.101 607.602 483.08 600.209C482.341 580.495 481.54 560.719 480.801 541.005C473.285 544.516 465.707 548.028 458.129 551.539Z" fill="#161616"/>
<path d="M480.739 301.783C484.251 304.124 484.867 309.36 486.099 319.772C486.715 324.762 487.023 330.923 485.483 348.789C485.298 350.699 484.805 356.798 483.265 369.92C481.047 389.142 480.431 391.422 479.815 399.554C479.322 405.899 479.014 412.615 479.199 427.031C479.384 440.769 479.569 459.559 481.725 485.743C483.327 505.149 486.037 529.299 490.904 557.023C486.099 559.549 481.602 561.089 477.967 562.074C469.896 564.231 463.366 564.292 457.759 564.292C452.4 564.292 447.717 563.861 443.898 563.368C442.111 554.065 439.77 540.081 437.922 522.954C436.936 514.082 436.32 504.287 435.088 485.065C433.363 458.142 432.5 444.712 432.254 433.315C432.131 428.263 432.131 424.074 432.87 389.45C433.979 337.515 434.41 331.169 439.832 322.852C450.613 306.218 472.484 296.238 480.739 301.783Z" fill="white"/>
<path d="M485.36 303.507C486.407 320.264 486.099 337.022 484.435 353.717C482.772 369.982 480 386.061 478.952 402.326C476.796 435.717 479.014 469.293 482.71 502.5C484.805 521.044 487.331 539.587 489.919 558.07C490.103 559.24 491.89 558.747 491.705 557.577C487.085 524.247 482.464 490.856 480.677 457.218C479.815 440.769 479.63 424.196 480.431 407.747C481.294 391.36 483.696 375.28 485.668 359.016C487.886 340.595 488.378 321.989 487.208 303.446C487.146 302.275 485.298 302.275 485.36 303.507Z" fill="#161616"/>
<path d="M431.946 383.782C430.467 430.604 432.254 477.487 437.491 524.062C438.908 537 440.633 549.876 442.604 562.752C442.789 563.922 444.576 563.429 444.391 562.259C437.429 516.238 433.733 469.724 433.363 423.149C433.24 410.027 433.425 396.904 433.856 383.782C433.856 382.55 432.008 382.55 431.946 383.782Z" fill="#161616"/>
<path d="M443.158 564.107C459.176 567.311 475.749 565.216 490.473 558.069C491.52 557.577 490.596 555.975 489.549 556.468C475.318 563.368 459.176 565.462 443.651 562.32C442.481 562.074 441.988 563.861 443.158 564.107Z" fill="#161616"/>
<path opacity="0.09" d="M438.292 338.192C436.628 349.836 435.088 363.082 434.041 377.744C433.425 385.753 432.562 399.492 432.439 416.742C432.316 431.096 432.87 443.233 434.041 467.014C435.334 493.874 436.012 507.613 437.799 522.584C439.832 539.834 442.358 553.88 444.206 563.183C448.518 564.107 454.433 564.785 461.333 564.23C465.892 563.861 469.835 562.998 473.1 562.074C467.863 542.483 463.058 521.968 458.684 500.59C446.67 442.186 440.633 387.54 438.292 338.192Z" fill="#353535"/>
<path opacity="0.09" d="M433.486 398.629C436.135 420.685 438.476 439.66 440.448 454.754C445.5 494.244 447.101 504.163 450.613 516.731C456.404 537.554 463.982 553.634 469.342 563.738C465.584 564.662 459.485 565.647 452.215 564.292C448.826 563.676 445.931 562.629 443.651 561.643C441.125 546.672 438.969 530.962 437.244 514.636C432.747 472.558 432.069 433.622 433.486 398.629Z" fill="#353535"/>
<path d="M388.081 558.131C387.219 570.391 386.356 582.713 385.432 594.973C356.477 602.119 342.245 607.294 342.677 610.436C343.169 614.194 364.547 615.057 406.81 613.085C408.104 595.342 409.459 577.538 410.753 559.795C403.175 559.179 395.598 558.624 388.081 558.131Z" fill="#161616"/>
<path d="M413.649 304.123C410.014 308.005 407.611 312.933 407.611 312.933C406.132 315.952 405.208 318.54 404.839 320.634C404.161 325.255 403.175 331.662 402.066 339.301C399.664 355.997 398 369.058 397.138 376.081C394.057 400.416 392.332 416.188 388.882 445.328C383.769 488.392 382.29 497.694 378.471 532.687C377.054 545.687 375.883 556.406 375.144 563.43C376.191 565.093 377.978 567.434 380.812 569.529C381.489 570.022 382.783 570.946 386.664 572.794C390.238 574.457 393.872 575.936 395.474 576.49C405.023 579.571 422.274 574.95 423.198 574.704C423.198 567.989 423.321 558.932 423.814 548.151C423.999 543.838 424.615 532.195 427.017 509.831C429.174 489.809 430.837 473.975 434.595 452.659C437.306 437.072 439.955 425.182 442.358 414.832C445.992 398.568 449.566 384.706 452.523 373.925C456.774 365.608 461.025 357.291 465.276 348.974C466.508 347.187 477.782 330.491 471.375 315.336C461.764 292.295 421.596 295.622 413.649 304.123Z" fill="white"/>
<path d="M411.554 297.347C400.033 329.013 397.569 363.205 393.688 396.412C389.498 432.021 385.309 467.63 381.181 503.301C378.84 523.261 376.499 543.222 374.158 563.122C374.035 564.292 375.883 564.292 376.006 563.122C380.134 527.697 384.323 492.273 388.451 456.849C392.517 422.04 396.09 387.17 400.834 352.485C403.36 333.941 406.872 315.459 413.34 297.839C413.71 296.731 411.923 296.238 411.554 297.347Z" fill="#161616"/>
<path d="M464.844 348.358C455.11 363.698 447.41 380.209 441.988 397.582C441.618 398.691 443.405 399.184 443.775 398.075C449.135 380.886 456.774 364.499 466.446 349.282C467.062 348.296 465.461 347.31 464.844 348.358Z" fill="#161616"/>
<path d="M452.646 370.721C437.737 422.225 428.188 475.269 424.368 528.745C423.259 544.085 422.643 559.425 422.458 574.766C422.458 575.936 424.307 575.936 424.307 574.766C424.923 521.105 431.207 467.568 443.035 415.264C446.362 400.478 450.182 385.815 454.433 371.276C454.741 370.105 453.016 369.612 452.646 370.721Z" fill="#161616"/>
<path d="M374.343 564.107C386.48 578.461 406.502 582.836 423.629 575.135C424.738 574.642 423.752 573.04 422.705 573.533C406.317 580.864 387.219 576.428 375.637 562.752C374.836 561.889 373.542 563.183 374.343 564.107Z" fill="#161616"/>
<path opacity="0.06" d="M425.97 309.36C433.301 316.075 421.719 338.192 414.757 355.319C404.592 380.332 402.436 421.671 398.185 504.471C397.261 521.968 396.275 546.487 396.029 576.121C393.873 575.813 391.285 575.197 388.574 573.964C381.366 570.822 377.177 565.586 375.205 562.752C376.93 550.492 379.395 531.948 382.167 509.276C388.513 457.28 389.806 435.963 394.489 398.629C397.138 377.498 401.265 347.187 407.857 310.407C407.796 310.407 407.796 310.407 425.97 309.36Z" fill="#353535"/>
<path opacity="0.06" d="M396.029 390.62C399.294 436.764 395.844 466.274 391.778 485.25C388.266 501.514 389.067 518.456 386.972 534.967C385.925 543.037 384.508 553.203 390.176 562.752C394.242 569.59 400.28 573.472 404.592 575.566C402.066 576.059 395.474 576.983 388.02 573.964C380.75 571.007 376.684 565.955 375.205 563.799C378.163 538.17 381.243 512.48 384.262 486.851C388.143 454.692 392.086 422.656 396.029 390.62Z" fill="#353535"/>
<path d="M466.631 162.611C465.337 163.35 465.892 170.558 467.062 184.79C467.185 185.96 467.247 187.316 467.432 189.164C467.863 193.353 468.418 197.419 469.095 201.793C474.209 235 481.478 259.643 481.478 259.643C484.99 271.533 489.98 286.196 497.065 302.522C498.236 304.616 500.577 308.005 504.52 309.976C508.771 312.133 512.59 311.516 518.258 310.469C529.224 308.436 536.248 303.446 538.773 301.474C542.47 298.641 547.337 294.882 546.906 290.508C546.721 288.968 545.858 286.689 543.949 286.011C542.285 285.395 540.19 286.196 538.773 287.982C541.669 283.978 543.702 280.281 545.057 277.509C548.199 271.102 548.199 268.884 547.522 267.282C547.399 267.036 546.659 265.311 545.057 264.51C544.626 264.325 543.764 263.955 540.991 264.51C537.726 265.126 537.233 265.927 535.139 265.988C533.167 266.05 532.551 265.372 531.073 265.249C529.163 265.064 526.329 265.804 522.509 270.239C521.893 269.747 520.969 269.192 519.798 269.254C517.827 269.315 516.287 271.164 512.344 278.002C511.112 280.097 509.571 282.869 507.846 286.257C506.984 282.438 505.69 276.523 504.212 269.315C499.16 243.933 499.899 239.004 496.079 220.461C490.72 194.092 485.052 183.065 480.061 175.61C475.256 168.094 468.911 161.256 466.631 162.611Z" fill="white"/>
<path d="M466.816 163.966C469.588 162.672 472.915 167.601 474.394 169.388C476.242 171.667 477.967 174.008 479.507 176.473C482.403 180.97 484.805 185.775 486.838 190.765C491.397 201.793 494.046 213.499 496.141 225.204C498.297 237.402 500.022 249.662 501.932 261.861C503.596 272.457 504.704 283.731 510.619 292.972C511.235 293.958 512.837 293.034 512.221 292.048C506.984 283.916 505.69 274.244 504.273 264.941C502.671 254.468 501.07 243.994 499.406 233.521C496.387 214.484 492.568 194.955 482.711 178.136C480.369 174.193 477.72 170.435 474.763 166.923C472.545 164.397 469.65 160.639 465.953 162.364C464.783 162.857 465.707 164.459 466.816 163.966Z" fill="#161616"/>
<path d="M466.446 189.903C468.602 208.878 472.052 227.668 476.858 246.15C481.54 264.14 487.023 282.684 494.909 299.564C498.236 306.588 504.52 314.35 513.268 312.071C514.438 311.763 513.946 309.976 512.775 310.284C500.515 313.549 495.217 295.991 492.013 287.674C488.07 277.324 484.559 266.851 481.478 256.254C475.194 234.568 470.82 212.39 468.233 189.964C468.171 188.732 466.323 188.671 466.446 189.903Z" fill="#161616"/>
<path d="M508.894 287.428C510.496 284.162 512.036 280.836 513.638 277.57C515.301 274.182 517.334 269.438 521.831 269.87C523.002 269.993 523.002 268.145 521.831 268.021C518.32 267.713 515.794 269.993 514.069 272.765C511.42 277.016 509.51 281.945 507.292 286.442C506.799 287.551 508.339 288.475 508.894 287.428Z" fill="#161616"/>
<path d="M518.135 279.604C520.784 275.168 525.836 262.847 532.736 266.605C533.783 267.159 534.707 265.557 533.66 265.003C525.22 260.382 519.737 273.258 516.533 278.618C515.917 279.727 517.519 280.651 518.135 279.604Z" fill="#161616"/>
<path d="M523.495 281.883C525.713 278.741 527.992 275.599 530.21 272.457C532.613 269.069 535.816 264.941 540.498 265.619C541.669 265.803 542.162 264.017 540.991 263.832C537.11 263.216 533.968 265.064 531.442 267.898C527.869 271.841 524.973 276.646 521.893 280.959C521.154 281.883 522.755 282.807 523.495 281.883Z" fill="#161616"/>
<path d="M528.731 283.239C531.381 280.097 533.968 276.893 536.617 273.751C538.157 271.903 544.318 262.354 546.906 268.022C547.583 269.439 546.474 272.334 545.982 273.751C545.304 275.6 544.318 277.325 543.394 279.05C541.299 282.869 539.143 286.627 536.432 290.016C535.693 290.94 536.987 292.234 537.726 291.31C541.115 286.997 543.948 282.192 546.413 277.263C547.953 274.183 550.356 268.576 547.953 265.311C545.55 262.046 541.423 265.25 539.574 267.344C535.385 272.088 531.442 277.078 527.438 281.945C526.698 282.808 527.992 284.101 528.731 283.239Z" fill="#161616"/>
<path d="M540.067 265.557C540.991 265.68 541.854 265.927 542.716 266.235C543.209 266.42 543.702 266.05 543.825 265.619C543.948 265.064 543.64 264.695 543.209 264.51C542.223 264.14 541.176 263.894 540.067 263.771C539.574 263.709 539.143 264.263 539.143 264.695C539.143 265.188 539.574 265.496 540.067 265.557Z" fill="#161616"/>
<path d="M540.868 287.613C542.285 285.826 545.057 287.058 545.612 289.03C545.858 289.892 545.858 290.939 545.674 291.802C545.242 293.835 543.949 295.622 542.532 297.1C540.006 299.811 536.987 302.152 533.783 304C527.376 307.697 520.106 309.545 512.775 310.099C511.605 310.161 511.605 312.009 512.775 311.948C523.864 311.147 534.769 307.327 542.84 299.441C545.797 296.546 548.754 292.48 547.275 288.105C546.166 284.779 541.977 283.238 539.574 286.257C538.774 287.243 540.129 288.537 540.868 287.613Z" fill="#161616"/>
<path opacity="0.08" d="M467.37 163.658C468.726 168.525 470.697 176.042 472.977 185.283C478.829 209.248 482.649 229.394 489.795 259.088C497.004 289.03 499.714 295.807 506.368 298.394C513.761 301.228 528.362 299.811 537.48 292.233C540.375 289.831 543.271 286.381 544.749 287.182C546.29 288.044 545.858 293.096 543.887 296.977C540.19 304.37 531.504 306.896 523.125 309.299C516.287 311.27 512.837 312.256 508.524 310.962C502.179 309.052 498.544 303.754 496.757 301.166C494.539 297.901 494.17 295.991 491.151 287.674C488.07 279.111 487.824 279.357 485.545 273.073C480.986 260.567 478.275 249.601 476.55 242.762C473.038 228.716 469.835 215.717 468.11 198.159C467.37 189.41 466.754 177.643 467.37 163.658Z" fill="#353535"/>
<path opacity="0.06" d="M495.71 294.636C497.435 296.422 505.567 304.493 518.689 304.986C533.598 305.54 543.086 295.806 544.503 294.328C542.901 297.039 539.759 301.351 534.399 304.678C531.011 306.834 528.115 307.697 524.85 308.621C516.41 311.085 510.927 312.625 505.752 310.284C497.866 306.773 496.018 296.361 495.71 294.636Z" fill="#353535"/>
<path d="M462.072 157.498C455.48 156.697 449.258 161.194 445.869 163.659C436.443 170.497 432.808 180.169 431.145 184.359C420.98 209.803 418.023 240.606 416.729 252.189C415.065 266.728 411.8 287.921 404.407 313.673C408.72 317.185 425.785 330.307 450.798 329.506C472.176 328.767 486.777 318.232 491.52 314.412C492.876 289.708 493.061 268.884 492.937 253.297C492.629 224.835 491.644 211.774 487.331 196.742C484.004 185.16 476.55 159.223 462.072 157.498Z" fill="#EC615B"/>
<path opacity="0.08" d="M456.835 159.407C450.675 165.445 465.399 188.979 467.802 194.462C478.891 219.721 484.004 260.567 457.513 328.951C461.148 328.274 465.214 327.288 469.527 325.748C478.521 322.667 485.606 318.478 490.781 314.782C491.212 310.284 491.767 304.247 492.198 297.1C492.876 285.703 492.937 276.339 492.876 268.453C492.753 244.426 492.691 232.412 490.781 216.456C489.795 208.509 487.639 193.661 480.493 176.842C476.242 166.924 471.868 160.024 464.906 158.422C464.043 158.175 459.238 157.066 456.835 159.407Z" fill="#353535"/>
<path opacity="0.05" d="M491.52 230.194C490.288 230.071 488.686 241.345 485.852 256.008C479.877 286.873 472.422 310.962 467.124 326.425C470.635 325.07 474.332 323.53 478.09 321.805C482.71 319.71 487.085 317.554 491.212 315.459C493.861 244.857 492.937 230.318 491.52 230.194Z" fill="#353535"/>
<path d="M447.964 166.492C445.993 165.691 444.144 165.814 443.035 165.999C441.187 168.217 438.292 171.728 434.78 176.041C419.316 195.324 417.961 199.821 407.18 212.143C396.83 223.972 389.683 229.516 384.385 233.089C378.409 237.094 373.973 239.127 372.618 239.743C362.822 244.117 353.951 245.473 348.098 245.965C346.312 245.103 343.724 243.686 341.136 241.345C337.81 238.264 336.269 235.307 334.668 232.597C328.569 222.308 326.905 219.351 324.626 219.413C323.825 219.413 322.531 219.844 320.929 222.247C320.313 221.815 319.266 221.014 318.095 219.967C315.2 217.38 314.399 215.839 311.996 214.792C310.949 214.361 309.593 213.745 308.423 214.422C307.252 215.1 307.006 216.702 306.944 217.072C305.897 215.963 303.371 213.683 299.798 213.498C298.812 213.437 297.395 213.375 296.717 214.238C295.67 215.47 296.656 218.427 299.243 221.507C298.627 221.322 295.67 220.337 294.438 221.692C293.083 223.109 294.5 226.251 295.424 228.284C297.272 232.412 299.675 234.506 304.665 240.051C306.698 242.331 308.3 244.179 309.347 245.349C308.3 245.226 306.636 244.98 304.788 244.24C302.016 243.132 301.092 241.838 299.859 242.207C298.504 242.639 297.765 244.918 298.011 246.705C298.319 248.738 300.229 249.97 301.4 250.648C308.484 254.96 317.233 257.116 319.943 257.794C326.659 259.457 330.047 260.258 332.573 260.566C336.947 261.121 341.321 261.367 347.852 261.059C365.964 260.197 380.072 256.5 383.091 255.699C389.622 253.974 395.351 252.434 402.559 249.169C409.274 246.15 424.06 239.312 436.998 223.848C444.083 215.408 447.102 208.446 453.201 194.585C453.94 192.86 455.419 189.471 455.665 184.912C455.973 178.505 454.186 168.956 447.964 166.492Z" fill="white"/>
<path d="M447.471 165.198C443.22 163.596 440.016 167.601 437.614 170.558C434.164 174.747 430.899 179.06 427.633 183.434C420.548 192.983 413.71 202.779 405.886 211.835C391.1 229.085 371.632 244.302 347.913 244.857C346.743 244.857 346.743 246.705 347.913 246.705C369.353 246.212 387.835 233.952 402.066 218.797C409.459 210.911 415.99 202.286 422.397 193.599C425.785 188.979 429.174 184.358 432.624 179.799C434.657 177.15 436.751 174.501 438.846 171.913C440.756 169.572 443.405 165.753 446.917 167.046C448.087 167.355 448.518 165.568 447.471 165.198Z" fill="#161616"/>
<path d="M454.617 183.496C446.485 239.435 382.044 264.941 331.587 259.273C323.332 258.349 314.953 256.439 307.375 252.927C305.466 252.065 303.556 251.079 301.831 249.909C301.091 249.416 300.352 248.984 299.798 248.307C298.381 247.259 298.257 246.151 299.305 244.918C299.428 243.255 300.229 242.762 301.769 243.378C304.788 244.056 306.698 246.643 309.963 246.705C311.133 246.705 311.133 244.857 309.963 244.857C306.636 244.795 304.48 241.653 301.215 241.407C298.874 241.222 296.902 242.516 296.594 244.918C295.978 250.586 304.541 253.728 308.608 255.453C323.701 261.737 340.582 262.6 356.661 261.244C386.356 258.718 416.606 247.999 436.69 225.204C446.916 213.56 454.125 199.39 456.342 183.989C456.589 182.818 454.802 182.325 454.617 183.496Z" fill="#161616"/>
<path d="M310.456 245.165C308.977 242.454 306.636 240.729 304.48 238.635C301.4 235.616 298.874 231.365 296.779 227.545C296.224 226.498 295.67 225.451 295.362 224.342C294.561 222.802 295.054 222.247 296.717 222.74C297.765 222.309 298.566 222.555 299.182 223.356C300.722 224.28 302.2 226.067 303.433 227.361C306.451 230.441 309.1 233.891 311.442 237.526C312.058 238.512 313.659 237.587 313.043 236.602C311.195 233.768 296.964 214.053 293.637 221.015C291.666 225.02 296.594 230.749 298.504 233.829C299.921 236.047 301.276 238.142 303.186 239.99C305.219 241.962 307.499 243.563 308.916 246.151C309.409 247.137 311.01 246.213 310.456 245.165Z" fill="#161616"/>
<path d="M301.646 222.493C300.845 221.692 294.869 214.361 298.689 213.93C299.551 213.807 301.769 215.655 302.508 216.148C303.741 217.01 304.973 217.996 306.082 219.105C310.148 222.863 313.351 227.422 316.493 231.919C317.171 232.905 318.773 231.981 318.095 230.995C313.351 224.28 307.93 216.025 300.106 212.575C298.196 211.712 295.608 211.589 295.362 214.238C295.054 217.626 298.073 221.692 300.291 223.849C301.215 224.65 302.508 223.356 301.646 222.493Z" fill="#161616"/>
<path d="M309.1 219.412C308.916 219.043 308.053 217.256 308.176 216.825C308.854 216.27 309.532 215.654 310.209 215.1C310.641 215.346 311.133 215.531 311.565 215.778C313.351 216.825 314.892 218.365 316.309 219.905C319.142 223.109 321.607 226.682 324.194 230.071C324.934 230.995 326.535 230.071 325.796 229.146C321.853 224.033 317.787 216.578 311.626 213.745C310.271 213.128 308.361 212.636 307.129 213.745C305.281 215.346 306.636 218.242 307.375 219.967C307.745 221.014 309.532 220.521 309.1 219.412Z" fill="#161616"/>
<path d="M322.346 223.356C321.853 221.816 321.422 221.446 323.393 221.261C325.118 221.138 325.18 221.508 326.227 222.617C327.521 224.095 328.692 225.635 329.862 227.175C331.834 229.886 333.682 232.72 335.715 235.492C338.857 239.743 342.985 245.719 348.652 246.52C349.823 246.705 350.316 244.918 349.145 244.734C344.032 243.994 340.151 238.45 337.317 234.568C334.729 231.057 332.326 227.299 329.677 223.849C328.137 221.939 325.796 217.996 322.9 218.119C319.82 218.242 320.005 221.754 320.683 223.849C320.929 224.958 322.716 224.465 322.346 223.356Z" fill="#161616"/>
<path opacity="0.08" d="M454.371 173.269C452.893 172.838 450.49 179.122 445.869 187.254C438.292 200.684 430.652 209.494 422.582 217.503C403.422 236.478 393.811 246.027 377.054 251.018C371.078 252.804 343.478 260.197 317.972 244.241C305.897 236.663 298.935 226.744 295.424 220.707C294.808 221.323 294.068 222.247 293.945 223.479C293.699 225.266 294.869 226.621 296.225 228.469C298.073 231.118 298.196 231.796 298.874 233.151C298.874 233.151 299.428 234.137 300.229 235.246C302.324 238.142 309.717 244.857 309.224 245.534C309.039 245.781 307.622 245.103 304.726 243.809C301.892 242.516 301.4 242.146 300.476 242.331C298.812 242.639 297.149 244.487 297.21 246.335C297.272 247.999 298.689 249.108 299.983 250.093C301.461 251.264 302.878 251.695 303.248 251.818C308.669 253.667 310.025 254.899 314.768 256.316C328.63 260.443 344.278 260.813 344.278 260.813C367.258 261.368 384.878 255.576 388.574 254.283C396.214 251.695 411.184 246.459 426.34 233.521C433.856 227.114 445.315 217.133 451.352 200.499C455.973 187.87 456.466 173.823 454.371 173.269Z" fill="#353535"/>
<path opacity="0.06" d="M310.209 253.605C320.067 255.761 332.08 257.363 345.757 257.117C379.21 256.501 405.023 244.919 419.563 236.848C411.8 243.255 398.678 252.435 380.257 257.61C347.667 266.789 320.128 257.486 310.209 253.605Z" fill="#353535"/>
<path d="M410.999 81.5969C410.938 81.7201 408.781 85.3549 404.531 92.6862C399.602 101.126 397.569 104.638 395.536 109.628C394.119 113.14 393.195 116.035 392.64 118.007C395.351 119.116 398.062 120.225 400.772 121.334C401.512 127.371 403.298 131.992 404.715 134.887C406.995 139.57 410.26 146.408 417.653 149.735C418.762 150.228 422.089 151.645 426.648 151.645C432.316 151.645 436.505 149.427 438.353 148.318C438.723 150.659 439.462 153.616 440.879 156.881C442.05 159.654 443.405 161.872 444.637 163.597C450.428 161.379 456.219 159.161 461.949 156.881C460.347 154.479 458.252 150.659 456.959 145.607C456.527 143.882 455.542 139.57 455.911 133.47C456.342 126.016 458.437 122.135 460.717 115.111C464.228 104.145 466.323 97.738 465.337 90.8996C464.043 82.0281 457.39 71.8013 447.163 68.1048C432.5 62.745 417.283 73.1566 410.999 81.5969Z" fill="white"/>
<path d="M400.773 88.7433C396.953 87.2648 396.09 79.7486 396.83 74.7584C397.076 73.095 398 68.1664 402.498 63.2378C408.597 56.5226 415.066 56.5842 424.43 52.5797C429.605 50.3618 436.998 46.3573 444.884 38.5948C443.713 42.1064 442.542 45.5564 441.31 49.0681C443.097 49.1913 447.533 49.3761 452.153 46.7886C457.883 43.6466 460.101 38.4716 460.717 36.993C461.702 38.5332 465.769 45.2484 463.612 52.8877C462.996 55.044 462.01 56.769 461.086 58.1244C464.29 57.2619 468.787 55.5985 472.607 51.8404C476.796 47.7127 477.351 43.9546 479.076 44.1395C482.403 44.4475 483.635 58.0012 484.312 65.4557C484.744 70.3843 485.421 73.8343 484.128 77.962C482.957 81.7817 480.739 84.6772 480.986 84.8621C481.417 85.1085 487.639 74.8816 489.364 75.6825C490.412 76.1754 488.563 80.1183 487.886 87.5728C487.085 96.6907 488.933 98.4157 487.27 104.885C486.284 108.643 484.867 111.292 483.327 114.31C481.417 117.822 479.076 122.258 474.763 126.201C470.759 129.897 465.83 134.395 459.731 133.532C451.784 132.361 448.087 122.936 447.841 122.258C448.518 122.258 454.618 121.95 457.636 117.268C461.456 111.292 457.636 102.42 453.262 100.942C450.059 99.8327 447.533 103.098 444.514 101.558C442.05 100.326 441.742 97.3068 440.756 94.4728C439.462 90.7148 436.628 85.7246 429.667 80.6727C425.292 80.4879 418.824 80.8576 412.108 83.9996C406.194 86.6487 403.668 89.8523 400.773 88.7433Z" fill="#5222D0"/>
<path d="M400.218 99.2784C397.014 104.207 394.365 109.444 392.517 115.05C392.086 116.344 391.347 117.699 392.271 118.808C392.948 119.609 394.612 119.855 395.536 120.225C397.076 120.779 398.616 121.395 400.156 121.95C401.265 122.381 401.758 120.595 400.649 120.163C399.602 119.794 398.616 119.424 397.569 118.993C396.953 118.746 394.92 118.315 394.489 117.822C393.195 116.528 395.043 113.325 395.598 111.97C397.261 107.842 399.356 103.961 401.82 100.202C402.498 99.2167 400.896 98.2926 400.218 99.2784Z" fill="#161616"/>
<path d="M399.787 121.272C403.175 133.101 407.426 146.285 419.501 151.891C420.549 152.384 421.534 150.782 420.425 150.289C408.843 144.868 404.839 132.176 401.573 120.779C401.204 119.608 399.417 120.101 399.787 121.272Z" fill="#161616"/>
<path d="M419.809 152.076C430.591 154.479 442.666 148.687 449.874 140.987C450.675 140.124 449.381 138.83 448.58 139.693C441.803 146.901 430.406 152.569 420.302 150.289C419.132 149.981 418.639 151.768 419.809 152.076Z" fill="#161616"/>
<path d="M437.491 148.749C438.23 154.17 440.201 159.037 443.59 163.35C444.329 164.274 445.623 162.98 444.884 162.056C441.865 158.175 440.017 153.616 439.339 148.749C439.216 147.578 437.367 147.578 437.491 148.749Z" fill="#161616"/>
<path d="M455.11 140.802C455.48 146.901 457.698 152.446 461.641 157.128C462.38 158.052 463.735 156.697 462.935 155.834C459.3 151.522 457.267 146.408 456.897 140.802C456.835 139.631 454.987 139.631 455.11 140.802Z" fill="#161616"/>
<path d="M445.992 103.961C447.779 101.25 451.168 100.88 453.817 102.605C456.219 104.145 457.39 107.103 457.575 109.813C457.883 114.187 455.049 123.059 448.888 120.41C447.779 119.917 446.855 121.519 447.964 122.012C455.973 125.462 460.224 114.927 459.3 108.581C458.745 104.946 456.651 101.373 453.016 100.141C449.751 98.9704 446.362 100.203 444.452 103.037C443.713 104.022 445.315 104.946 445.992 103.961Z" fill="#161616"/>
<path d="M439.154 151.214C442.727 148.934 445.808 146.162 448.457 142.897C449.196 141.972 447.902 140.679 447.163 141.603C444.637 144.745 441.618 147.456 438.23 149.673C437.244 150.289 438.168 151.891 439.154 151.214Z" fill="#161616"/>
<path d="M405.455 133.47C409.706 133.84 413.957 132.3 416.914 129.158C418.824 127.063 419.563 123.552 415.682 123.675C414.696 123.736 414.388 125.215 415.435 125.461C416.852 125.831 418.023 126.385 419.193 127.371C420.117 128.11 421.411 126.817 420.487 126.077C419.07 124.907 417.715 124.168 415.928 123.736C415.866 124.352 415.743 124.968 415.682 125.523C417.776 125.461 415.004 128.48 414.757 128.727C413.772 129.589 412.724 130.205 411.554 130.698C409.582 131.56 407.611 131.807 405.455 131.622C404.284 131.56 404.284 133.409 405.455 133.47Z" fill="#161616"/>
<path d="M413.587 105.624C412.54 103.775 412.17 101.742 412.663 99.7093C412.232 99.8942 411.739 100.079 411.307 100.264C412.971 101.558 412.601 103.96 412.355 105.747C412.909 105.685 413.464 105.624 414.018 105.5C413.279 104.453 412.909 103.344 412.909 102.05C412.909 100.88 411.061 100.88 411.061 102.05C411.061 103.652 411.492 105.131 412.416 106.425C412.848 106.979 413.957 107.041 414.08 106.178C414.511 103.406 414.634 100.51 412.17 98.6004C411.677 98.2307 410.938 98.6004 410.815 99.1549C410.198 101.681 410.568 104.268 411.923 106.486C412.601 107.595 414.203 106.671 413.587 105.624Z" fill="#161616"/>
<path d="M409.89 92.5631C412.909 88.9899 417.283 91.7006 418.885 95.089C419.378 96.1364 420.98 95.2122 420.487 94.1649C418.392 89.7292 412.355 86.8952 408.597 91.2694C407.796 92.1935 409.089 93.4872 409.89 92.5631Z" fill="#161616"/>
<path opacity="0.07" d="M439.585 91.5157C439.832 92.9327 440.14 95.1505 440.633 97.738C441.988 105.069 443.159 109.259 443.59 111.23C445.192 118.746 443.097 130.328 435.458 137.906C427.017 146.223 415.497 146.038 412.601 145.915C413.895 147.455 415.928 149.427 418.885 150.721C427.88 154.663 436.998 148.934 437.984 148.256C437.86 152.261 438.723 153.616 439.585 154.047C442.234 155.218 448.149 149.735 450.736 143.82C453.509 137.413 452.092 131.253 451.352 128.727C447.902 123.983 447.718 122.319 448.21 121.765C448.95 120.964 450.983 122.443 453.262 121.642C455.665 120.718 456.651 117.822 457.267 116.035C458.068 113.633 460.224 107.102 456.219 103.283C453.693 100.88 449.566 100.449 445.684 101.804C444.884 101.681 443.836 101.311 443.035 100.449C441.988 99.3398 441.988 98.0461 441.434 95.8282C441.064 94.7193 440.571 93.2407 439.585 91.5157Z" fill="#353535"/>
<path opacity="0.1" d="M448.21 133.163C447.717 138.461 446.424 142.773 445.253 145.915C447.409 145.299 449.627 144.622 451.784 144.006C453.632 148.873 455.418 153.801 457.267 158.668C458.622 157.991 459.916 157.313 461.271 156.574C459.731 153.124 458.191 148.873 456.959 143.944C455.911 139.755 455.357 135.873 455.049 132.547C454.001 131.499 452.769 130.206 451.66 128.542C449.751 125.77 448.642 123.182 447.964 121.149C448.334 124.291 448.642 128.419 448.21 133.163Z" fill="#353535"/>
<path opacity="0.13" d="M483.08 55.9065C482.218 55.9065 482.772 64.4083 479.137 74.7584C477.597 79.1325 474.763 86.8951 467.494 93.4255C462.318 98.0461 456.959 100.326 453.57 101.434C454.494 101.989 455.973 103.036 457.082 104.823C459.793 109.135 458.068 114.002 457.575 115.419C456.897 117.391 455.973 119.978 453.385 121.334C450.983 122.566 448.518 122.073 447.656 121.827C447.841 122.381 451.722 132.608 459.793 133.47C463.181 133.84 465.953 132.361 468.048 131.253C473.531 128.419 476.303 124.168 479.692 118.931C484.189 111.969 487.331 107.041 487.762 100.079C488.07 94.596 486.407 93.1791 487.578 87.9424C487.947 86.279 488.933 82.9522 488.748 78.3316C488.687 77.3459 488.625 76.545 488.563 75.9906C486.037 78.8861 483.511 81.8433 480.986 84.7388C481.848 83.0754 482.957 80.4879 483.696 77.1611C484.497 73.5263 484.374 70.6923 484.189 66.0101C484.128 63.361 483.881 55.9065 483.08 55.9065Z" fill="#353535"/>
</svg>
