<svg width="815" height="669" viewBox="0 0 815 669" fill="none" xmlns="http://www.w3.org/2000/svg">
<circle cx="564.018" cy="141.022" r="10.359" fill="#EC615B"/>
<circle cx="575.012" cy="117.825" r="4.82994" fill="#EC615B"/>
<circle cx="258.333" cy="54.8452" r="4.95705" fill="#EC615B"/>
<circle cx="582.702" cy="631.578" r="8.38885" fill="#EC615B"/>
<circle cx="200.946" cy="664.816" r="3.87666" fill="#EC615B"/>
<circle cx="249.372" cy="378.324" r="4.00377" fill="#EC615B"/>
<circle cx="257.253" cy="398.852" r="3.87666" fill="#5222D0"/>
<circle cx="252.614" cy="503.521" r="7.24491" fill="#5222D0"/>
<circle cx="558.234" cy="94.438" r="4.57573" fill="#5222D0"/>
<circle cx="384.166" cy="103.018" r="4.00377" fill="#5222D0"/>
<circle cx="27.1951" cy="417.154" r="3.05049" fill="#5222D0"/>
<circle cx="572.089" cy="653.313" r="7.62622" fill="#5222D0"/>
<circle cx="653.753" cy="4.00374" r="4.00377" fill="#5222D0"/>
<path d="M264.752 183.983C264.116 180.042 263.544 172.162 269.836 172.797C272.124 173.052 273.395 175.085 275.937 174.196C280.703 172.543 279.623 166.379 281.593 162.82C284.834 157.1 291.126 165.425 295.956 162.693C297.545 161.803 297.926 160.151 297.862 158.435C297.735 152.016 303.392 152.461 308.031 153.732C309.238 154.05 309.747 152.207 308.539 151.889C303.836 150.618 296.019 150.173 295.829 156.973C295.765 158.625 296.655 160.278 294.24 161.295C293.477 161.612 292.206 161.231 291.507 161.04C289.855 160.532 288.393 159.388 286.677 158.943C284.453 158.308 282.292 158.753 280.767 160.532C278.86 162.82 278.924 165.934 278.034 168.603C277.081 171.463 275.238 173.115 272.124 171.717C270.853 171.145 269.709 170.637 268.247 170.827C261.701 171.717 262.019 179.661 262.845 184.491C263.1 185.699 264.943 185.19 264.752 183.983Z" fill="#5222D0"/>
<path d="M272.251 187.669C272.76 183.728 275.937 182.013 279.623 182.013C281.593 182.013 283.563 182.33 285.47 181.631C289.791 179.979 288.965 175.276 289.982 171.59C291.889 164.599 300.722 168.921 305.616 167.777C308.921 166.951 311.717 163.646 310.319 160.151C309.874 159.007 308.031 159.515 308.476 160.659C310.636 165.934 303.264 166.252 300.15 165.87C297.863 165.616 295.638 165.235 293.35 165.807C289.728 166.76 288.33 169.429 287.821 172.861C287.376 176.039 287.44 179.534 283.309 180.042C281.085 180.297 278.861 179.661 276.636 180.17C273.077 180.996 270.789 183.983 270.345 187.542C270.154 188.876 272.06 188.876 272.251 187.669Z" fill="#5222D0"/>
<path d="M403.549 31.5852C401.325 34.3815 398.974 37.8133 400.054 41.5629C400.944 44.6134 403.359 45.7573 406.282 45.5667C407.998 45.4395 409.777 44.9947 411.175 46.5199C412.256 47.6639 411.557 50.0788 411.239 51.3499C410.731 53.32 409.777 55.2265 409.968 57.3237C410.286 60.1836 412.574 62.4079 415.497 61.7724C416.705 61.5182 416.196 59.6752 414.989 59.9294C409.46 61.2004 413.273 51.9854 413.527 49.7611C413.718 47.9181 413.4 45.8844 412.002 44.5498C410.604 43.2152 408.888 43.3423 407.108 43.533C404.312 43.8508 401.706 42.961 401.579 39.5928C401.516 37.0507 403.295 34.7628 404.82 32.8563C405.71 32.0301 404.312 30.632 403.549 31.5852Z" fill="#5222D0"/>
<path d="M418.548 30.632C415.561 31.903 413.654 35.0171 414.417 38.2582C414.798 39.7199 415.688 41.118 416.959 42.0078C418.484 43.1517 420.263 42.8975 421.789 43.8508C424.649 45.5667 422.361 48.9349 422.488 51.6041C422.551 52.9387 422.869 54.1462 424.013 54.9724C425.729 56.3069 428.271 55.8621 428.97 53.7013C429.351 52.5574 427.508 52.049 427.127 53.1929C424.712 52.8751 423.886 51.7948 424.585 49.9518C424.712 49.3162 424.839 48.6807 424.966 48.0452C425.093 47.4097 425.157 46.7742 425.157 46.1386C425.157 44.8041 424.776 43.4059 423.759 42.4526C422.234 41.0545 419.882 41.6265 418.23 40.4825C414.862 38.1311 416.069 33.6825 419.501 32.2208C420.645 31.7759 419.628 30.1871 418.548 30.632Z" fill="#5222D0"/>
<path d="M2.98184 406.287C1.52015 403.999 1.52015 401.203 2.98184 398.851C4.44353 396.564 6.47719 396.5 8.82861 395.61C12.0698 394.276 12.1333 390.907 11.9427 387.857C11.8791 386.777 11.8155 385.633 12.1333 384.552C12.9595 382.01 15.1202 382.709 17.0904 383.027C18.2343 383.218 19.3147 383.027 20.2679 382.392C21.4754 381.565 22.2381 380.104 22.6194 378.706C22.9371 377.562 23.0007 376.354 23.2549 375.21C23.382 374.384 23.6362 373.621 24.0175 372.922C25.0343 371.334 26.2418 371.206 27.7035 372.605C28.0213 373.812 29.8643 373.304 29.5465 372.096C28.4026 367.965 23.3184 369.808 22.0474 372.732C21.4754 374.066 21.4119 375.528 21.0941 376.926C20.9035 377.752 20.7764 378.642 20.3315 379.405C19.3782 381.12 17.5988 380.803 15.9464 380.612C13.9763 380.421 12.4511 380.231 11.18 382.074C9.71834 384.171 10.0996 386.649 10.0996 389.064C10.1632 391.988 9.52768 393.132 6.66785 394.085C5.52391 394.466 4.57064 394.657 3.55381 395.42C-0.132203 398.025 -1.08548 403.427 1.32949 407.177C1.96501 408.257 3.61736 407.304 2.98184 406.287Z" fill="#EC615B"/>
<path d="M10.9258 410.672C8.25663 410.291 9.27346 407.367 10.4809 406.223C11.3707 405.397 12.5782 404.889 13.7221 404.317C15.1202 403.618 16.5184 402.792 17.5352 401.584C20.2679 398.152 16.3277 393.577 20.1408 390.844C23.9539 388.175 34.1858 386.967 31.1989 379.849C30.754 378.706 29.1016 379.722 29.5465 380.803C31.7073 385.95 21.2212 387.476 18.552 389.636C17.5988 390.399 16.7726 391.416 16.3913 392.623C15.6287 395.293 17.853 398.025 15.8829 400.567C13.595 403.364 8.7015 403.364 7.55756 407.304C6.85849 409.528 8.06598 412.197 10.4809 412.579C11.6249 412.706 12.1333 410.863 10.9258 410.672Z" fill="#EC615B"/>
<path d="M707.581 262.978C706.755 261.516 706.882 259.927 707.772 258.529C709.17 256.495 710.822 256.94 712.983 257.131C714.445 257.258 715.78 257.576 717.178 256.75C719.656 255.224 719.275 252.047 719.72 249.632C720.737 243.976 725.63 249.123 728.935 247.344C730.142 246.708 730.587 245.501 730.841 244.23C731.286 241.751 731.413 234.379 736.18 237.366C737.196 238.002 738.213 236.349 737.133 235.714C732.875 233.108 729.443 237.43 729.062 241.434C728.808 243.721 729.062 245.946 726.011 245.628C724.931 245.501 723.851 244.929 722.77 244.802C721.054 244.611 719.529 245.12 718.576 246.645C717.495 248.424 717.877 250.649 717.432 252.555C716.479 256.877 712.793 254.462 709.806 254.97C705.802 255.669 703.959 260.499 705.865 263.867C706.501 265.011 708.153 264.058 707.581 262.978Z" fill="#EC615B"/>
<path d="M717.051 266.981C715.97 264.058 719.338 260.817 722.262 262.342C722.643 262.533 723.152 262.533 723.406 262.215C724.867 260.626 725.249 258.783 725.884 256.749C727.028 253.063 729.761 252.555 733.066 251.538C736.307 250.521 739.929 247.852 738.595 244.039C738.15 242.895 736.307 243.404 736.752 244.548C738.595 249.568 729.57 249.949 726.901 251.792C723.66 254.08 724.613 258.211 722.135 260.88C722.516 260.817 722.897 260.753 723.279 260.753C719.021 258.529 713.619 262.914 715.271 267.553C715.652 268.634 717.495 268.189 717.051 266.981Z" fill="#EC615B"/>
<path d="M460.365 283.632C460.492 283.632 461.89 287.064 462.462 287.509C463.352 288.208 464.432 288.271 465.512 288.081C467.419 287.763 468.626 286.365 470.279 285.475C473.838 283.441 473.838 286.937 475.236 288.907C476.825 291.258 478.541 290.114 480.384 288.97C481.591 288.208 482.735 287.699 483.815 288.78C484.387 289.352 484.769 290.305 485.213 291.004C485.913 292.021 486.675 292.847 487.819 293.355C488.899 293.864 489.916 292.211 488.772 291.703C486.167 290.559 485.849 286.238 482.735 285.793C481.273 285.602 480.638 286.428 479.494 287.064C478.096 287.89 477.269 288.462 476.38 286.873C475.998 286.238 475.935 285.348 475.49 284.712C473.456 281.344 470.279 283.187 467.737 284.839C467.292 285.157 466.847 285.475 466.339 285.729C465.258 285.411 464.114 285.094 463.034 284.776C462.589 284.331 462.589 283.251 462.208 282.679C461.572 281.789 460.937 281.535 459.92 281.725C458.649 281.98 459.157 283.823 460.365 283.632Z" fill="#EC615B"/>
<path d="M475.299 277.531C477.206 274.544 481.591 280.772 483.37 281.535C484.451 281.98 485.468 281.98 486.612 281.662C487.12 281.535 487.565 281.281 488.01 281.09C489.726 280.391 491.187 280.836 492.585 282.043C494.619 283.759 495.191 286.047 498.114 286.682C499.83 287.064 501.419 286.555 502.182 284.903C502.69 283.823 501.038 282.806 500.529 283.95C498.75 287.763 493.856 280.264 492.585 279.438C490.234 277.912 488.772 279.183 486.421 279.692C482.671 280.454 481.464 276.26 478.35 275.243C476.507 274.608 474.727 274.925 473.711 276.641C472.948 277.658 474.6 278.611 475.299 277.531Z" fill="#EC615B"/>
<path d="M712.793 388.62C746.539 388.62 780.285 388.62 814.094 388.62C815.302 388.62 815.302 386.713 814.094 386.713C780.348 386.713 746.602 386.713 712.793 386.713C711.585 386.713 711.585 388.62 712.793 388.62Z" fill="#E8E8E8"/>
<path d="M740.438 388.175C740.438 398.025 740.438 407.812 740.438 417.663C740.438 418.87 742.344 418.87 742.344 417.663C742.344 407.812 742.344 398.025 742.344 388.175C742.344 386.967 740.438 386.967 740.438 388.175Z" fill="#E8E8E8"/>
<path d="M787.593 387.222C787.593 373.494 787.593 359.767 787.593 346.04C787.593 344.832 785.687 344.832 785.687 346.04C785.687 359.767 785.687 373.494 785.687 387.222C785.687 388.493 787.593 388.493 787.593 387.222Z" fill="#E8E8E8"/>
<path d="M765.159 346.803C777.933 346.803 790.707 346.803 803.481 346.803C804.689 346.803 804.689 344.896 803.481 344.896C790.707 344.896 777.933 344.896 765.159 344.896C763.952 344.896 763.952 346.803 765.159 346.803Z" fill="#E8E8E8"/>
<path d="M740.056 117.952C740.056 129.836 740.056 141.721 740.056 153.541C740.056 154.749 741.963 154.749 741.963 153.541C741.963 141.657 741.963 129.773 741.963 117.952C741.963 116.745 740.056 116.745 740.056 117.952Z" fill="#E8E8E8"/>
<path d="M710.378 156.274C733.32 156.274 756.199 156.274 779.141 156.274C780.348 156.274 780.348 154.367 779.141 154.367C756.199 154.367 733.32 154.367 710.378 154.367C709.107 154.367 709.107 156.274 710.378 156.274Z" fill="#E8E8E8"/>
<path d="M778.505 156.02C778.505 163.9 778.505 171.781 778.505 179.661C778.505 180.869 780.412 180.869 780.412 179.661C780.412 171.781 780.412 163.9 780.412 156.02C780.412 154.812 778.505 154.812 778.505 156.02Z" fill="#E8E8E8"/>
<path d="M140.254 80.9015C162.688 80.9015 185.185 80.9015 207.619 80.9015C208.826 80.9015 208.826 78.9949 207.619 78.9949C185.185 78.9949 162.688 78.9949 140.254 78.9949C139.046 78.9949 138.983 80.9015 140.254 80.9015Z" fill="#E8E8E8"/>
<path d="M204.823 80.7108C204.823 86.8118 204.823 92.9128 204.823 99.0138C204.823 100.221 206.729 100.221 206.729 99.0138C206.729 92.9128 206.729 86.8118 206.729 80.7108C206.729 79.4398 204.823 79.4398 204.823 80.7108Z" fill="#E8E8E8"/>
<path d="M184.422 79.1856C184.422 69.3986 184.422 59.6752 184.422 49.8882C184.422 48.6807 182.516 48.6807 182.516 49.8882C182.516 59.6752 182.516 69.3986 182.516 79.1856C182.516 80.4567 184.422 80.4567 184.422 79.1856Z" fill="#E8E8E8"/>
<path d="M6.9856 276.768C22.4923 276.768 37.9989 276.768 53.5056 276.768C54.7131 276.768 54.7131 274.862 53.5056 274.862C37.9989 274.862 22.4923 274.862 6.9856 274.862C5.77812 274.862 5.77812 276.768 6.9856 276.768Z" fill="#E8E8E8"/>
<path d="M35.3933 257.639C35.3933 263.359 35.3933 269.079 35.3933 274.798C35.3933 276.006 37.2998 276.006 37.2998 274.798C37.2998 269.079 37.2998 263.359 37.2998 257.639C37.2998 256.432 35.3933 256.432 35.3933 257.639Z" fill="#E8E8E8"/>
<path d="M24.2082 258.593C32.4699 258.593 40.7316 258.593 48.9934 258.593C50.2009 258.593 50.2009 256.686 48.9934 256.686C40.7316 256.686 32.4699 256.686 24.2082 256.686C22.9371 256.686 22.9371 258.593 24.2082 258.593Z" fill="#E8E8E8"/>
<path d="M304.091 659.287C324.808 659.287 345.526 659.287 366.244 659.287C367.452 659.287 367.452 657.38 366.244 657.38C345.526 657.38 324.808 657.38 304.091 657.38C302.82 657.38 302.82 659.287 304.091 659.287Z" fill="#E8E8E8"/>
<path d="M342.349 657.38C342.349 652.932 342.349 648.483 342.349 643.971C342.349 642.764 340.442 642.764 340.442 643.971C340.442 648.42 340.442 652.868 340.442 657.38C340.442 658.652 342.349 658.652 342.349 657.38Z" fill="#E8E8E8"/>
<path d="M336.566 644.035C345.145 644.035 353.788 644.035 362.368 644.035C363.575 644.035 363.575 642.128 362.368 642.128C353.788 642.128 345.145 642.128 336.566 642.128C335.358 642.128 335.358 644.035 336.566 644.035Z" fill="#E8E8E8"/>
<path d="M8.4473 625.859C29.1652 625.859 49.8831 625.859 70.601 625.859C71.8085 625.859 71.8085 623.952 70.601 623.952C49.8831 623.952 29.1652 623.952 8.4473 623.952C7.23982 623.952 7.23982 625.859 8.4473 625.859Z" fill="#E8E8E8"/>
<path d="M37.1727 600.946C37.1727 608.255 37.1727 615.627 37.1727 622.935C37.1727 624.143 39.0793 624.143 39.0793 622.935C39.0793 615.627 39.0793 608.255 39.0793 600.946C39.0793 599.739 37.1727 599.739 37.1727 600.946Z" fill="#E8E8E8"/>
<path d="M37.1727 598.087C28.911 598.087 20.5857 598.087 12.3239 598.087C11.1165 598.087 11.1165 599.993 12.3239 599.993C20.5857 599.993 28.911 599.993 37.1727 599.993C38.3802 599.993 38.3802 598.087 37.1727 598.087Z" fill="#E8E8E8"/>
<path d="M699.32 569.933C697.222 567.836 697.731 563.769 700.972 563.069C702.688 562.688 704.34 563.769 705.993 563.959C707.264 564.15 708.598 564.023 709.424 562.879C710.695 561.226 709.679 559.32 709.615 557.477C709.488 551.694 716.352 552.075 719.783 554.109C720.546 554.554 721.372 553.791 721.182 553.028C719.529 545.084 728.617 539.619 734.845 544.894C735.798 545.656 737.133 544.322 736.18 543.559C728.49 537.077 717.241 543.686 719.339 553.6C719.783 553.219 720.292 552.901 720.737 552.52C717.813 550.74 714.064 549.851 710.95 551.821C709.806 552.52 708.789 553.6 708.28 554.871C707.899 555.761 707.709 556.587 707.772 557.54C707.836 559.256 708.408 559.129 707.137 560.782C705.738 562.625 705.611 561.798 703.641 561.354C702.942 561.163 702.307 561.036 701.544 561.099C699.955 561.163 698.494 561.926 697.477 563.069C695.252 565.548 695.824 569.043 698.049 571.268C698.875 572.157 700.209 570.823 699.32 569.933Z" fill="#E8E8E8"/>
<path d="M711.712 571.84C711.013 566.056 720.482 565.993 723.152 561.989C723.851 560.972 724.105 559.828 724.55 558.748C725.376 556.778 726.838 555.507 728.998 554.935C732.494 554.045 736.116 555.634 739.294 556.969C740.438 557.413 740.946 555.57 739.802 555.126C733.955 552.711 726.075 550.868 722.834 557.985C721.69 560.527 721.309 561.926 718.639 563.26C717.051 564.023 715.398 564.468 713.873 565.357C711.458 566.756 709.552 568.916 709.869 571.84C709.996 573.047 711.903 573.047 711.712 571.84Z" fill="#E8E8E8"/>
<path d="M438.376 387.031C439.647 390.208 440.918 393.45 442.189 396.627C442.316 396.246 442.507 395.928 442.634 395.547C441.935 395.992 441.235 396.436 440.536 396.945C439.456 394.403 439.901 393.767 441.935 394.911C443.142 395.674 443.714 397.326 443.968 398.661C444.54 401.711 443.905 404.889 442.888 407.812C442.634 408.575 443.396 409.083 444.032 408.956C447.845 408.194 449.37 412.769 448.608 415.629C448.036 417.726 446.892 419.569 445.748 421.412C445.112 422.429 446.765 423.382 447.4 422.366C449.434 419.188 451.785 415.248 450.387 411.308C449.307 408.384 446.637 406.541 443.523 407.113C443.905 407.495 444.286 407.876 444.667 408.257C445.938 404.571 446.765 399.932 445.176 396.182C444.095 393.704 441.617 391.797 438.821 392.623C436.66 393.259 435.579 395.42 436.596 397.517C438.312 401.012 441.299 398.661 443.523 397.199C443.841 397.008 444.095 396.5 443.968 396.119C442.697 392.941 441.426 389.7 440.155 386.522C439.774 385.442 437.931 385.887 438.376 387.031Z" fill="#E8E8E8"/>
<path d="M62.5299 86.367C61.3224 83.3165 65.3897 82.4903 67.2963 83.5707C68.758 84.3969 69.7113 85.8586 70.601 87.1931C71.4272 88.4006 72.3169 89.7352 72.7618 91.1334C73.2702 92.3408 73.2066 93.4848 72.5711 94.6287C70.3468 95.6455 69.2028 95.3913 69.1393 93.9296C68.5673 91.8324 70.7916 90.4343 72.6982 90.4978C74.6683 90.5614 76.5113 91.7053 77.8459 93.1035C80.1338 95.5184 80.9599 98.696 80.6422 101.937C81.2142 101.747 81.8497 101.619 82.4216 101.429C81.1506 99.5858 82.3581 97.6157 84.074 96.6624C85.5357 95.8997 87.188 96.0904 88.5862 96.853C90.874 98.0605 92.4628 100.285 93.9245 102.318C94.6236 103.335 96.2759 102.382 95.5769 101.365C93.1619 97.997 89.5394 93.2941 84.7731 94.3745C81.2777 95.1371 78.4814 99.2044 80.7693 102.382C81.3413 103.208 82.4216 102.827 82.5487 101.874C83.1207 95.8362 78.6721 87.5745 71.5543 88.5913C69.0122 88.9726 67.1692 90.752 67.1692 93.3577C67.1692 95.3913 68.4402 97.4885 70.601 97.6157C73.1431 97.8063 74.859 95.3278 74.9861 93.0399C75.1767 89.8623 72.6982 86.4305 70.7916 84.0791C69.0122 81.9819 66.4066 80.2024 63.6103 81.2828C61.3224 82.109 59.7972 84.3969 60.7505 86.7483C61.1318 88.0193 62.9748 87.5109 62.5299 86.367Z" fill="#E8E8E8"/>
<path d="M397.321 179.598C394.652 178.009 396.559 173.306 399.545 175.276C402.405 177.183 398.592 180.424 396.749 178.199C395.987 177.246 394.652 178.581 395.415 179.534C396.876 181.313 399.673 181.186 401.325 179.725C403.231 178.009 402.723 175.212 400.753 173.814C398.783 172.416 395.923 172.67 394.716 174.958C393.508 177.119 394.334 180.042 396.431 181.25C397.385 181.822 398.338 180.233 397.321 179.598Z" fill="#E8E8E8"/>
<path d="M599.797 40.6096C598.399 38.6395 600.814 35.6525 603.039 36.5423C602.848 36.4152 602.657 36.2245 602.467 36.0974C603.674 38.1946 601.895 41.0544 599.543 40.9273C599.861 41.1816 600.179 41.3722 600.433 41.6264C600.052 40.546 599.607 39.4021 599.225 38.3217C598.781 37.1778 596.938 37.6862 597.382 38.8301C597.764 39.9105 598.209 41.0544 598.59 42.1348C598.717 42.5797 599.035 42.8339 599.48 42.8339C601.513 42.961 603.293 41.69 604.183 39.9105C604.882 38.5124 605.263 35.589 603.547 34.6993C599.797 32.8563 595.921 38.4488 598.145 41.5629C598.844 42.5797 600.496 41.6264 599.797 40.6096Z" fill="#E8E8E8"/>
<path d="M651.529 135.111C651.211 133.65 652.291 132.061 653.753 131.743C655.087 131.489 656.295 132.569 656.613 133.777C657.439 136.636 653.689 137.971 651.91 136.001C651.084 135.111 649.749 136.446 650.575 137.336C653.88 141.022 660.235 137.399 658.202 132.696C657.312 130.599 655.087 129.264 652.863 129.964C650.512 130.726 649.114 133.205 649.622 135.62C650.003 136.827 651.846 136.319 651.529 135.111Z" fill="#E8E8E8"/>
<path d="M445.239 661.13C442.824 659.986 443.015 656.681 445.239 655.41C447.4 654.203 449.434 655.283 451.404 656.173C453.056 656.936 454.963 657.635 456.424 656.173C457.759 654.902 457.505 652.932 457.568 651.28C457.823 644.861 464.051 646.132 468.309 647.721C469.453 648.166 469.961 646.323 468.817 645.878C465.067 644.416 459.856 643.018 456.869 646.704C455.98 647.784 455.725 649.055 455.662 650.39C455.598 651.28 455.98 653.25 455.471 654.076C454.073 656.173 452.166 654.266 450.705 653.631C447.908 652.423 443.905 652.741 442.189 655.665C440.727 658.143 441.617 661.511 444.222 662.719C445.366 663.291 446.32 661.639 445.239 661.13Z" fill="#E8E8E8"/>
<path d="M475.998 511.338C474.092 534.662 475.109 558.049 479.049 581.118C479.24 582.326 481.083 581.817 480.892 580.61C477.015 557.731 475.998 534.471 477.905 511.338C478.032 510.131 476.126 510.131 475.998 511.338Z" fill="#E8E8E8"/>
<path d="M477.269 512.8C487.184 516.232 497.415 518.52 507.838 519.664C517.625 520.68 528.874 521.761 538.279 518.075C539.423 517.63 538.915 515.787 537.771 516.232C528.619 519.854 517.498 518.774 507.838 517.757C497.606 516.677 487.501 514.325 477.778 510.957C476.57 510.512 476.126 512.355 477.269 512.8Z" fill="#E8E8E8"/>
<path d="M492.395 515.406C489.09 510.258 486.357 504.792 484.451 498.946C483.561 496.149 482.798 493.353 482.226 490.493C481.909 488.777 481.591 487.061 481.4 485.346C481.4 485.155 480.701 480.643 482.036 481.278C482.671 481.596 483.752 481.024 483.434 480.198C479.939 471.364 478.032 462.086 477.841 452.553C477.524 452.871 477.206 453.188 476.888 453.506C477.397 453.697 477.841 453.887 478.35 454.078C478.985 454.841 480.193 454.014 479.939 453.125C478.668 449.057 477.841 444.863 477.587 440.541C477.524 439.525 477.714 428.085 478.413 428.276C479.176 428.467 479.684 427.768 479.557 427.132C478.35 419.951 477.778 412.642 478.096 405.397C478.223 401.775 478.54 398.216 479.112 394.657C479.621 391.416 479.875 387.476 482.417 385.124C481.909 385.061 481.4 384.997 480.892 384.934C486.23 394.975 489.217 405.969 491.95 416.9C494.619 427.64 496.971 438.508 499.004 449.439C503.135 472 505.741 494.815 506.885 517.757C506.948 518.964 508.855 518.964 508.791 517.757C507.647 494.688 505.042 471.682 500.847 448.93C498.75 437.618 496.335 426.369 493.539 415.184C490.806 404.444 487.819 393.767 482.544 383.917C482.226 383.345 481.464 383.345 481.019 383.726C478.858 385.696 478.223 388.302 477.714 391.035C477.015 394.911 476.507 398.915 476.253 402.855C475.744 411.117 476.253 419.379 477.651 427.577C478.032 427.196 478.413 426.814 478.795 426.433C475.109 425.416 475.554 433.36 475.49 435.14C475.236 441.368 476.189 447.596 478.032 453.57C478.54 453.252 479.112 452.934 479.621 452.616C478.795 451.663 478.096 451.345 476.825 451.472C476.316 451.536 475.871 451.854 475.871 452.426C476.062 462.086 477.969 471.555 481.527 480.579C481.972 480.198 482.481 479.88 482.926 479.499C476.57 476.448 480.256 490.811 480.765 492.972C482.671 501.233 486.103 509.114 490.679 516.232C491.441 517.376 493.094 516.422 492.395 515.406Z" fill="#E8E8E8"/>
<path d="M502.499 451.917C501.928 447.85 501.8 443.719 502.309 439.652C502.436 438.635 504.851 426.687 506.058 427.196C506.694 427.513 507.457 427.132 507.52 426.369C507.901 418.235 510.443 410.99 513.43 403.491C516.417 396.055 519.341 388.874 524.298 382.455C523.853 382.455 523.408 382.455 522.963 382.455C526.586 386.586 526.141 392.878 526.331 398.025C526.586 403.808 526.776 409.592 526.84 415.375C526.967 426.751 526.776 438.126 526.268 449.502C525.187 472.762 522.582 495.959 518.642 518.901C518.451 520.108 520.294 520.617 520.485 519.409C524.616 495.514 527.221 471.301 528.302 447.024C528.81 434.822 528.937 422.62 528.683 410.418C528.556 404.317 528.429 398.216 527.984 392.115C527.73 388.111 527.094 384.171 524.298 381.057C523.98 380.676 523.281 380.676 522.963 381.057C518.07 387.412 515.019 394.403 512.096 401.838C508.855 409.846 506.122 417.599 505.677 426.369C506.185 426.115 506.63 425.797 507.139 425.543C503.262 423.827 501.991 432.089 501.483 434.313C500.085 440.287 499.957 446.325 500.847 452.362C500.784 453.633 502.627 453.125 502.499 451.917Z" fill="#E8E8E8"/>
<path d="M479.939 582.707C499.83 589.126 521.374 588.808 541.075 581.817C542.219 581.436 541.711 579.593 540.567 579.974C521.184 586.838 500.021 587.156 480.447 580.864C479.24 580.483 478.731 582.326 479.939 582.707Z" fill="#E8E8E8"/>
<path d="M538.025 517.439C538.788 527.735 539.614 538.03 540.313 548.325C541.012 558.811 541.266 569.425 539.55 579.847C539.36 581.055 541.203 581.563 541.393 580.356C543.109 570.124 542.982 559.828 542.283 549.533C541.584 538.856 540.758 528.116 539.932 517.439C539.868 516.232 537.962 516.232 538.025 517.439Z" fill="#E8E8E8"/>
<path d="M198.849 599.04C211.813 592.113 224.841 585.186 237.806 578.258C243.907 579.275 252.296 580.61 262.337 582.008C282.419 584.804 314.767 589.317 355.695 590.524C396.622 591.731 427.318 589.126 439.011 587.982C467.165 585.313 484.197 581.69 498.114 577.941C510.761 574.509 521.184 570.759 528.619 567.9C534.72 569.933 541.52 572.666 548.765 576.415C552.896 578.576 556.709 580.801 560.078 583.025C548.13 586.457 532.051 590.842 512.922 595.29C472.63 604.696 441.744 609.145 435.262 610.098C398.211 615.373 345.399 622.808 278.988 615.119C258.333 612.64 230.815 608.128 198.849 599.04Z" fill="white"/>
<path d="M198.15 599.103C198.467 601.773 198.849 604.378 199.166 607.047C203.933 608.382 210.924 610.289 219.567 612.195C236.09 615.881 252.868 618.423 274.793 620.139C355.758 626.494 420.454 620.838 420.454 620.838C452.802 617.978 484.197 615.055 524.743 603.234C539.995 598.786 552.451 594.274 561.349 590.778C560.65 587.791 559.95 584.804 559.251 581.817C556.773 582.834 553.087 584.296 548.575 585.948C517.943 597.133 492.713 600.819 470.215 603.552C420.772 609.653 396.05 612.64 359.762 613.212C318.453 613.911 263.036 611.433 198.15 599.103Z" fill="#161616"/>
<path d="M197.705 600.311C197.705 602.345 197.705 604.378 197.705 606.412C197.705 607.619 199.611 607.619 199.611 606.412C199.611 604.378 199.611 602.345 199.611 600.311C199.611 599.04 197.705 599.04 197.705 600.311Z" fill="#161616"/>
<path d="M198.404 608.191C245.877 621.029 295.448 622.681 344.319 623.38C391.284 624.016 438.566 621.982 484.832 613.403C510.888 608.573 536.563 601.518 561.349 591.922C562.492 591.477 561.984 589.634 560.84 590.079C517.116 607.047 470.66 615.691 423.949 619.313C376.857 622.935 329.321 622.109 282.229 619.249C254.075 617.47 226.176 613.784 198.912 606.412C197.705 606.031 197.196 607.874 198.404 608.191Z" fill="#161616"/>
<path d="M561.349 590.588C561.73 587.918 561.857 585.186 561.603 582.516C561.476 581.309 559.569 581.309 559.696 582.516C559.887 585.059 559.887 587.601 559.506 590.079C559.315 591.223 561.158 591.795 561.349 590.588Z" fill="#161616"/>
<path d="M199.23 600.12C212.576 593.765 225.668 586.965 238.505 579.593C239.585 578.958 238.632 577.369 237.552 577.941C224.714 585.249 211.623 592.113 198.277 598.468C197.133 598.976 198.086 600.629 199.23 600.12Z" fill="#161616"/>
<path d="M237.997 578.703C313.814 593.13 392.618 595.799 469.071 584.868C489.408 581.944 509.617 577.432 528.429 569.043C529.573 568.535 528.556 566.883 527.475 567.391C510.571 574.89 492.522 579.275 474.282 582.135C455.725 585.058 436.978 586.838 418.23 588.045C380.162 590.46 341.904 589.825 303.963 586.202C281.975 584.105 260.176 580.928 238.505 576.86C237.298 576.67 236.789 578.513 237.997 578.703Z" fill="#161616"/>
<path d="M528.047 568.726C539.36 572.412 549.973 577.559 559.887 584.105C560.904 584.804 561.857 583.152 560.84 582.453C550.799 575.844 539.995 570.632 528.556 566.883C527.348 566.501 526.84 568.344 528.047 568.726Z" fill="#161616"/>
<path d="M199.357 599.104C221.791 606.666 245.178 610.225 268.692 612.132C292.524 614.038 316.547 614.61 340.442 614.61C387.915 614.61 435.516 611.369 482.29 602.853C508.855 598.023 535.165 591.477 560.777 582.898C561.921 582.517 561.412 580.673 560.268 581.055C515.21 596.053 468.372 604.823 421.09 609.145C374.061 613.466 326.524 613.72 279.369 610.924C252.423 609.272 225.413 605.904 199.738 597.261C198.722 596.879 198.213 598.722 199.357 599.104Z" fill="#161616"/>
<path d="M235.963 236.159C313.623 218.174 393.572 214.233 473.011 213.471C495.509 213.217 518.006 213.28 540.504 213.28C541.711 213.28 541.711 211.374 540.504 211.374C460.81 211.246 380.734 211.183 301.612 222.177C279.369 225.291 257.316 229.232 235.455 234.316C234.247 234.634 234.756 236.477 235.963 236.159Z" fill="#161616"/>
<path d="M544.444 211.564C545.27 241.116 545.778 275.37 545.588 313.438C545.461 335.554 545.27 325.004 543.3 417.027C542.156 470.03 541.838 489.985 538.089 520.617C535.674 540.572 532.75 556.969 530.589 568.09C546.986 572.666 562.62 576.987 576.347 580.801C597.573 586.711 603.229 588.3 611.682 589.507C624.773 591.287 640.725 591.541 659.155 587.791C665.955 532.12 669.704 484.647 671.865 448.295C679.619 320.556 672.374 261.707 669.577 241.052C665.764 213.217 661.061 190.338 657.439 174.513C643.839 177.119 632.781 179.915 625.027 182.013C598.399 189.321 577.3 197.901 559.633 205.145C553.087 207.878 547.812 210.103 544.444 211.564Z" fill="white"/>
<path d="M106.317 175.657C105.809 181.123 105.237 187.859 104.728 193.706C94.1788 314.01 88.904 374.193 87.1881 412.897C85.4086 454.459 85.2815 514.707 94.1152 589.634C94.8143 591.16 96.0853 593.257 98.3732 594.973C101.36 597.197 104.093 597.133 109.495 598.659C113.753 599.866 115.977 601.074 118.011 601.836C123.857 604.124 136.949 606.73 153.6 606.094C177.495 605.141 195.862 597.832 209.335 592.303C221.982 587.156 232.086 581.627 239.077 577.432C235.137 542.034 232.213 504.665 230.561 465.454C227.193 382.074 230.561 305.494 237.488 237.239C234.565 236.095 230.307 234.506 225.286 232.473C216.643 228.977 195.925 220.525 159.447 202.731C145.02 195.74 126.972 186.652 106.317 175.657Z" fill="white"/>
<path d="M657.058 174.259C657.82 178.454 658.837 184.237 659.981 191.164C661.57 201.015 665.129 224.338 667.734 254.97C670.404 286.873 671.039 314.328 671.103 336.189C671.293 380.549 669.641 413.087 665.319 488.968C663.985 512.609 662.015 547.245 659.536 589.507C662.142 589.316 664.684 589.189 667.289 588.999C668.561 578.449 670.276 562.752 671.611 543.559C672.628 529.705 673.073 519.6 673.518 508.733C675.742 458.908 676.123 459.48 676.886 439.143C678.411 399.042 678.093 368.22 677.839 340.511C677.648 321.382 677.076 303.27 675.933 267.045C675.106 242.387 674.28 220.525 668.688 192.117C667.226 184.872 665.828 178.835 664.811 174.704C662.205 174.577 659.663 174.45 657.058 174.259Z" fill="#161616"/>
<path d="M96.5937 176.801C96.1489 179.026 95.4498 182.457 94.7507 186.652C92.7171 198.79 92.2086 207.942 92.018 210.929C90.6198 232.536 87.8236 243.086 83.7562 291.068C82.9936 299.838 82.4217 307.528 81.2777 322.971C78.9263 354.492 77.7824 370.253 76.9562 388.048C76.0665 407.939 75.9394 421.984 75.7487 450.074C75.5581 474.351 75.431 491.892 76.0665 514.834C76.5749 533.137 77.5917 557.985 80.0702 587.601C85.2179 589.126 90.3021 590.651 95.4498 592.176C95.3862 589.316 95.1956 584.169 94.8143 577.75C93.289 549.215 90.8105 537.649 90.2385 513.88C90.0479 506.572 90.175 501.742 90.2385 494.815C90.9376 445.117 90.1114 422.429 90.5563 390.145C91.3189 337.46 94.8778 296.279 97.9283 261.198C100.788 228.024 104.029 199.616 106.826 177.373C103.33 177.183 99.962 176.992 96.5937 176.801Z" fill="#161616"/>
<path d="M542.918 212.645C545.27 259.292 544.952 306.066 544.317 352.713C543.618 398.343 543.3 444.1 539.804 489.667C537.834 515.596 534.72 541.462 529.89 567.073C529.636 568.281 531.479 568.789 531.733 567.582C540.186 522.778 543.3 477.211 544.698 431.708C546.16 385.251 546.795 338.668 546.732 292.148C546.668 265.647 546.223 239.146 544.889 212.645C544.761 211.437 542.855 211.437 542.918 212.645Z" fill="#161616"/>
<path d="M545.27 212.645C580.541 195.168 617.973 182.585 656.613 175.149C657.82 174.895 657.312 173.052 656.104 173.306C617.338 180.805 579.715 193.515 544.317 210.992C543.236 211.564 544.19 213.217 545.27 212.645Z" fill="#161616"/>
<path d="M655.977 174.577C666.463 227.389 669.641 281.344 669.577 335.109C669.45 388.874 666.273 442.512 663.667 496.213C662.142 527.163 660.617 558.049 659.091 588.999C659.028 590.206 660.934 590.206 660.998 588.999C663.731 534.217 666.59 479.435 669.069 424.59C671.484 370.825 673.009 316.933 669.387 263.232C667.353 233.299 663.731 203.493 657.884 174.132C657.566 172.861 655.723 173.37 655.977 174.577Z" fill="#161616"/>
<path d="M530.208 567.455C533.068 570.759 538.152 571.395 542.156 572.602C547.621 574.255 553.15 575.907 558.616 577.559C569.674 580.864 580.668 584.359 591.853 587.156C613.715 592.494 636.149 593.574 658.329 589.761C659.536 589.571 659.028 587.728 657.82 587.918C635.958 591.668 613.842 590.588 592.362 585.313C582.13 582.834 572.089 579.657 562.048 576.606C556.963 575.081 551.879 573.556 546.795 572.03C544.253 571.268 541.711 570.505 539.169 569.743C536.5 568.916 533.513 568.344 531.606 566.12C530.717 565.23 529.382 566.565 530.208 567.455Z" fill="#161616"/>
<path d="M657.248 174.641C659.6 175.213 661.951 175.785 664.366 176.356C665.574 176.674 666.082 174.831 664.875 174.513C662.523 173.941 660.172 173.37 657.757 172.798C656.549 172.543 656.041 174.386 657.248 174.641Z" fill="#161616"/>
<path d="M664.239 175.721C670.594 201.396 672.31 228.215 674.153 254.589C676.06 281.535 677.077 308.544 677.521 335.617C678.284 389.319 676.441 443.02 673.391 496.658C671.675 527.036 669.514 557.413 667.29 587.791C667.226 588.999 669.133 588.999 669.196 587.791C673.2 533.772 676.822 479.753 678.538 425.607C680.254 371.588 680.127 317.442 676.695 263.423C674.852 234.062 673.2 203.938 666.146 175.276C665.764 174.005 663.921 174.513 664.239 175.721Z" fill="#161616"/>
<path d="M660.108 590.079C662.904 589.825 665.637 589.571 668.433 589.317C669.641 589.189 669.641 587.283 668.433 587.41C665.637 587.664 662.904 587.918 660.108 588.173C658.901 588.3 658.901 590.206 660.108 590.079Z" fill="#161616"/>
<path d="M235.899 236.731C231.641 280.772 229.099 324.941 228.273 369.173C227.447 413.596 228.337 458.082 231.006 502.441C232.468 527.353 234.565 552.202 237.107 576.987C237.234 578.195 239.141 578.195 239.013 576.987C234.438 533.01 231.578 488.841 230.434 444.609C229.29 400.186 229.862 355.7 232.213 311.341C233.548 286.428 235.391 261.58 237.742 236.731C237.933 235.523 236.027 235.523 235.899 236.731Z" fill="#161616"/>
<path d="M107.525 177.183C148.77 200.125 191.604 220.207 235.582 237.303C236.726 237.748 237.234 235.905 236.09 235.46C192.239 218.428 149.596 198.409 108.478 175.53C107.398 174.895 106.444 176.547 107.525 177.183Z" fill="#161616"/>
<path d="M105.555 176.738C98.5003 230.503 93.6068 284.585 90.9376 338.795C88.2684 393.005 87.8871 447.278 89.6666 501.488C90.6834 531.929 92.3993 562.371 94.8143 592.748C94.9414 593.956 96.8479 593.956 96.7208 592.748C92.3993 538.666 90.3657 484.392 90.4928 430.183C90.6199 375.909 93.0348 321.7 97.6106 267.617C100.216 237.239 103.521 206.988 107.461 176.738C107.588 175.53 105.682 175.53 105.555 176.738Z" fill="#161616"/>
<path d="M94.7507 593.956C130.149 613.212 172.538 609.081 208.509 593.829C219.312 589.253 229.735 583.724 239.776 577.686C240.793 577.051 239.84 575.399 238.823 576.034C205.331 596.307 166.056 610.479 126.463 603.107C115.723 601.137 105.3 597.515 95.704 592.303C94.6872 591.731 93.6704 593.384 94.7507 593.956Z" fill="#161616"/>
<path d="M80.7058 588.681C85.1544 590.778 89.7301 592.558 94.3694 594.147C95.5134 594.528 96.0218 592.685 94.8778 592.304C90.3657 590.778 85.9806 589.062 81.6591 587.029C80.5151 586.52 79.5619 588.173 80.7058 588.681Z" fill="#161616"/>
<path d="M95.3227 177.183C88.4591 230.439 82.7394 283.823 78.9899 337.397C75.3039 390.717 73.5244 444.164 74.6683 497.611C75.3039 527.862 76.8291 558.112 79.4347 588.236C79.5618 589.444 81.4684 589.444 81.3413 588.236C76.7655 534.789 75.431 481.151 76.702 427.513C77.9095 374.066 81.5955 320.683 86.8703 267.426C89.8572 237.303 93.3526 207.179 97.2292 177.119C97.4199 175.975 95.5133 175.975 95.3227 177.183Z" fill="#161616"/>
<path d="M96.4031 178.517C100.089 177.755 103.775 177.5 107.588 177.691C108.796 177.755 108.796 175.848 107.588 175.785C103.648 175.594 99.7713 175.912 95.8947 176.674C94.6872 176.928 95.1956 178.771 96.4031 178.517Z" fill="#161616"/>
<path d="M567.259 216.966C569.928 290.686 569.801 364.47 566.75 438.19C565.924 458.844 564.844 479.435 563.509 500.09C563.446 501.297 565.352 501.297 565.416 500.09C570.055 426.497 571.835 352.713 570.754 278.929C570.436 258.275 569.928 237.62 569.165 216.966C569.102 215.759 567.195 215.759 567.259 216.966Z" fill="#161616"/>
<path d="M598.082 190.529C600.624 241.815 601.895 293.228 601.831 344.578C601.831 395.928 600.56 447.342 598.018 498.628C596.62 527.671 594.777 556.651 592.553 585.63C592.489 586.838 594.396 586.838 594.459 585.63C598.399 534.408 601.069 483.121 602.53 431.771C603.928 380.422 604.119 329.008 603.039 277.658C602.403 248.615 601.386 219.572 599.988 190.529C599.925 189.321 598.018 189.321 598.082 190.529Z" fill="#161616"/>
<path d="M635.069 179.216C638.628 232.536 640.788 285.983 641.36 339.494C641.932 393.195 641.043 446.833 638.628 500.471C637.293 530.531 635.45 560.591 633.099 590.587C633.035 591.795 634.942 591.795 635.005 590.587C639.072 537.267 641.742 483.82 642.822 430.373C643.902 376.735 643.521 323.034 641.615 269.333C640.534 239.273 639.009 209.213 636.975 179.153C636.912 177.945 635.005 177.945 635.069 179.216Z" fill="#161616"/>
<path d="M560.713 523.922C559.251 540.572 556.582 557.096 552.705 573.365C552.451 574.573 554.231 575.081 554.548 573.873C558.489 557.414 561.158 540.763 562.62 523.922C562.747 522.714 560.84 522.714 560.713 523.922Z" fill="#161616"/>
<path d="M128.37 189.575C120.743 242.895 117.502 296.787 116.994 350.616C116.549 404.762 118.773 458.845 122.078 512.864C123.921 543.432 126.082 573.937 128.243 604.505C128.306 605.713 130.213 605.713 130.149 604.505C126.336 550.677 122.523 496.849 120.426 442.957C118.328 389.192 118.011 335.3 121.125 281.535C122.904 250.966 125.828 220.398 130.149 190.084C130.403 188.94 128.56 188.368 128.37 189.575Z" fill="#161616"/>
<path d="M164.912 207.37C160.082 258.91 156.841 310.642 155.761 362.436C154.744 414.167 155.951 465.899 160.209 517.503C162.561 546.165 165.865 574.699 170.187 603.107C170.377 604.315 172.22 603.806 172.03 602.599C164.276 551.376 159.828 499.645 158.176 447.85C156.523 396.754 157.476 345.531 160.273 294.499C161.862 265.456 164.086 236.413 166.819 207.433C166.946 206.162 165.039 206.162 164.912 207.37Z" fill="#161616"/>
<path d="M201.518 222.559C195.29 270.667 191.667 319.094 190.714 367.584C189.761 416.074 191.413 464.628 195.671 512.927C198.086 539.873 201.264 566.692 205.267 593.447C205.458 594.655 207.301 594.146 207.11 592.939C199.929 545.021 195.353 496.785 193.383 448.422C191.413 400.186 192.112 351.823 195.353 303.587C197.196 276.514 199.866 249.441 203.361 222.495C203.615 221.351 201.709 221.351 201.518 222.559Z" fill="#161616"/>
<path opacity="0.12" d="M620.833 183.538C627.887 212.327 633.607 246.073 635.514 283.886C640.28 380.104 617.656 458.717 597.954 509.178C584.037 531.484 570.182 553.791 556.264 576.098C569.801 581.945 589.883 588.745 614.923 590.778C632.209 592.176 647.207 590.905 658.901 588.999C659.028 586.203 661.125 543.686 661.252 540.89C668.179 398.47 668.624 388.747 668.878 378.96C670.022 339.113 669.832 281.916 663.032 210.547C660.68 198.409 658.329 186.271 655.977 174.196C644.347 177.246 632.59 180.36 620.833 183.538Z" fill="#3F3F3F"/>
<path opacity="0.13" d="M177.305 214.615C175.652 221.542 173.174 231.901 170.25 244.548C157.286 300.982 147.753 342.481 142.669 380.676C133.644 447.977 124.938 513.181 162.052 566.692C172.856 582.262 184.677 592.748 192.557 598.976C184.931 601.963 175.462 604.696 164.404 606.031C133.644 609.653 108.986 599.675 96.9115 593.702C92.3358 551.567 89.1582 506.445 88.1414 458.717C85.8535 353.094 94.433 258.148 107.525 176.484C130.721 189.194 153.981 201.904 177.305 214.615Z" fill="#3F3F3F"/>
<path d="M110.639 146.233C109.813 146.868 110.448 149.347 111.592 153.605C112.037 155.257 112.482 156.528 112.736 157.354C112.227 160.786 111.783 164.218 111.274 167.65C110.257 167.777 107.652 168.349 105.237 170.446C103.012 172.416 102.123 174.704 101.805 175.721C103.839 175.912 106.317 176.356 108.986 177.183C112.863 178.39 115.914 180.042 118.138 181.441C118.138 182.203 118.265 183.665 119.282 184.745C120.171 185.635 121.252 185.762 121.887 185.889C124.175 186.271 126.908 186.779 130.403 187.542C131.929 188.431 134.471 189.893 137.585 191.609C148.134 197.329 151.947 198.282 162.497 203.874C169.297 207.497 168.725 207.624 173.492 209.912C180.8 213.471 187.092 215.568 191.35 216.775C193.129 214.805 195.989 210.992 197.578 205.463C198.849 201.078 198.785 197.265 198.531 194.786C199.611 195.358 201.327 195.994 203.297 195.74C208.381 195.168 211.623 189.385 212.639 185.254C213.529 181.631 212.703 179.343 212.004 175.085C210.415 165.553 209.017 157.037 212.957 151.635C216.262 147.123 223.062 145.025 228.527 138.988C229.036 138.416 229.989 137.336 229.671 136.827C229.099 135.874 224.651 137.526 222.49 138.48C221.092 139.115 210.606 143.945 207.428 154.876C206.92 156.592 206.856 161.549 206.793 171.399C206.729 178.581 206.856 182.648 203.996 184.999C202.535 186.207 200.374 186.906 198.404 186.461C195.48 185.826 194.082 182.966 192.811 181.059C189.507 176.039 184.804 173.941 179.021 171.082C174.508 168.857 170.632 168.031 162.815 166.315C155.443 164.726 153.218 164.917 150.041 162.566C146.482 159.896 144.512 156.147 143.495 154.05C142.478 152.08 140.889 148.966 140.19 144.517C139.809 141.911 139.873 140.068 139.237 139.941C138.093 139.687 137.521 144.962 133.644 146.805C131.293 147.949 129.768 146.868 125.637 146.995C122.968 147.059 119.917 147.631 116.485 149.156C115.342 148.33 111.783 145.407 110.639 146.233Z" fill="black"/>
<path d="M112.545 167.141C111.211 156.655 120.743 147.123 131.293 148.203C141.271 149.22 147.88 161.358 147.562 170.446C147.499 171.654 149.405 171.654 149.469 170.446C149.787 160.405 142.288 147.186 131.293 146.296C119.727 145.343 109.177 155.575 110.639 167.141C110.829 168.285 112.736 168.349 112.545 167.141Z" fill="black"/>
<path d="M112.355 173.751C116.231 181.313 124.557 186.652 133.263 185.508C141.207 184.428 147.944 178.009 149.151 170.065C149.342 168.857 147.499 168.349 147.308 169.556C146.228 176.801 140.254 182.648 133.009 183.601C125.065 184.682 117.566 179.725 114.007 172.798C113.435 171.717 111.783 172.67 112.355 173.751Z" fill="black"/>
<path d="M119.218 182.966C119.028 180.551 125.891 179.534 127.607 179.153C130.721 178.454 133.899 178.072 137.076 178.072C142.987 178.072 148.643 179.598 153.663 182.712C154.68 183.347 155.697 181.695 154.617 181.059C148.134 177.056 140.572 175.657 133.073 176.356C129.132 176.738 125.256 177.564 121.506 178.835C119.472 179.534 117.057 180.424 117.248 182.966C117.375 184.173 119.345 184.173 119.218 182.966Z" fill="black"/>
<path d="M146.546 160.977C150.549 165.807 157.032 166.951 162.815 168.222C170.505 170.001 178.449 171.59 185.185 175.848C199.103 184.618 201.709 203.747 190.714 216.013C189.888 216.903 191.222 218.301 192.049 217.347C201.836 206.48 202.09 189.829 191.985 179.026C186.647 173.306 179.021 170.319 171.585 168.349C164.022 166.379 153.155 166.061 147.817 159.579C147.117 158.689 145.783 160.024 146.546 160.977Z" fill="black"/>
<path d="M191.032 194.215C187.854 190.02 182.262 188.558 177.368 190.592C171.331 193.071 171.013 200.506 171.712 206.162C171.839 207.37 173.746 207.37 173.619 206.162C173.047 201.714 172.983 194.85 177.559 192.626C181.499 190.656 186.647 191.672 189.316 195.231C190.079 196.185 191.731 195.231 191.032 194.215Z" fill="black"/>
<path d="M173.364 205.273C169.869 202.603 166.247 200.316 161.734 201.523C161.226 201.65 160.972 202.222 161.099 202.667C162.243 207.116 169.233 208.959 172.92 210.547C178.576 213.026 184.359 215.123 190.206 216.966C191.35 217.347 191.858 215.504 190.714 215.123C186.011 213.661 181.435 212.073 176.86 210.166C174.381 209.149 171.966 208.069 169.551 206.925C167.39 205.908 163.514 204.701 162.878 202.159C162.688 202.54 162.433 202.921 162.243 203.302C166.183 202.222 169.424 204.573 172.348 206.861C173.364 207.688 174.318 206.035 173.364 205.273Z" fill="black"/>
<path d="M117.502 182.775C119.981 186.843 125.001 187.542 129.387 188.177C135.869 189.13 142.351 189.13 148.833 188.431C150.041 188.304 150.041 186.398 148.833 186.525C143.622 187.097 138.411 187.224 133.2 186.715C128.815 186.271 121.76 186.016 119.091 181.822C118.519 180.742 116.867 181.695 117.502 182.775Z" fill="black"/>
<path d="M102.695 176.293C103.521 171.844 107.398 169.556 111.719 169.366C111.401 169.112 111.084 168.921 110.829 168.667C111.147 170.192 111.592 171.654 112.227 173.052C112.672 174.196 114.515 173.687 114.07 172.543C113.499 171.082 113.054 169.684 112.672 168.158C112.609 167.777 112.164 167.459 111.783 167.459C106.698 167.713 101.869 170.51 100.915 175.785C100.661 176.992 102.504 177.5 102.695 176.293Z" fill="black"/>
<path d="M113.753 156.592C112.799 153.859 112.1 150.999 111.846 148.076C111.846 147.822 111.783 147.567 111.783 147.313C111.719 146.741 111.783 146.805 112.037 147.504C112.609 147.885 113.181 148.33 113.753 148.775C114.706 149.601 115.596 150.491 116.358 151.444C117.185 152.397 118.519 150.999 117.693 150.11C116.613 148.838 112.1 143.627 110.194 145.661C109.241 146.678 109.94 149.029 110.13 150.173C110.448 152.524 111.084 154.876 111.846 157.1C112.355 158.244 114.198 157.799 113.753 156.592Z" fill="black"/>
<path d="M135.233 147.695C135.805 146.678 136.377 145.661 137.013 144.644C137.267 144.199 137.521 143.818 137.712 143.373C138.093 142.737 138.093 142.166 138.856 142.356C139.745 142.547 139.428 144.644 139.428 145.407C139.428 146.614 139.491 147.822 139.491 149.029C139.491 150.237 141.398 150.237 141.398 149.029C141.398 147.059 141.461 145.089 141.334 143.119C141.271 141.848 140.826 140.45 139.428 140.005C138.157 139.623 137.267 140.45 136.631 141.403C135.551 143.119 134.598 144.962 133.581 146.678C132.945 147.822 134.598 148.775 135.233 147.695Z" fill="black"/>
<path d="M196.116 189.257C196.497 194.087 201.899 195.676 205.649 193.325C211.178 189.893 212.385 182.14 211.686 176.293C210.733 168.285 208.826 160.85 211.559 152.906C214.165 145.343 220.647 139.179 228.845 138.67C230.053 138.607 230.053 136.7 228.845 136.764C217.66 137.463 210.034 146.995 208.445 157.545C207.492 163.837 208.89 169.684 209.716 175.848C210.224 179.915 209.97 183.792 208.127 187.542C207.301 189.13 206.157 190.719 204.632 191.736C202.28 193.198 198.213 192.753 197.959 189.321C197.959 188.05 196.052 187.986 196.116 189.257Z" fill="black"/>
<path d="M197.133 192.689C199.103 197.964 205.966 195.613 208.953 192.562C213.847 187.605 212.767 179.343 212.385 173.052C212.322 171.844 210.415 171.844 210.479 173.052C210.733 177.055 211.114 181.377 210.415 185.381C210.097 187.287 209.398 189.067 208.127 190.592C206.729 192.308 200.628 196.629 198.976 192.181C198.531 191.037 196.688 191.545 197.133 192.689Z" fill="black"/>
<path d="M228.909 136.7C221.664 139.496 214.355 143.437 211.432 151.063C208.064 159.833 210.479 169.366 210.288 178.454C210.288 179.661 212.195 179.661 212.195 178.454C212.385 170.51 210.479 162.375 212.385 154.495C214.482 145.852 221.664 141.53 229.417 138.543C230.561 138.098 230.053 136.255 228.909 136.7Z" fill="black"/>
<path d="M227.447 137.78C220.774 140.831 214.673 146.169 211.559 152.969C209.907 156.528 210.161 160.468 210.161 164.345C210.161 169.302 210.352 174.323 210.733 179.28C210.796 180.487 212.703 180.487 212.639 179.28C212.385 175.276 212.195 171.336 212.131 167.332C212.067 163.138 211.496 158.181 213.084 154.24C215.817 147.567 221.982 142.42 228.4 139.433C229.544 138.924 228.591 137.272 227.447 137.78Z" fill="black"/>
<path d="M116.295 160.786C118.074 163.9 122.586 162.82 123.031 159.388C123.095 158.753 122.142 158.816 122.078 159.388C121.76 161.994 118.456 162.502 117.121 160.341C116.803 159.769 115.977 160.278 116.295 160.786Z" fill="white"/>
<path d="M129.768 158.308C131.738 161.676 136.759 160.341 136.822 156.465C136.822 155.829 135.869 155.829 135.869 156.465C135.805 159.452 132.119 160.405 130.594 157.863C130.276 157.291 129.45 157.736 129.768 158.308Z" fill="white"/>
<path d="M125.955 162.502C126.4 164.345 126.018 166.188 124.874 167.713C124.493 168.222 125.319 168.667 125.7 168.222C126.972 166.506 127.353 164.345 126.908 162.248C126.717 161.676 125.764 161.93 125.955 162.502Z" fill="white"/>
<path d="M126.336 162.439C126.145 164.854 127.48 167.141 129.704 168.158C130.276 168.412 130.721 167.586 130.213 167.332C128.306 166.442 127.099 164.536 127.289 162.439C127.289 161.803 126.336 161.803 126.336 162.439Z" fill="white"/>
<path d="M110.829 168.095C116.422 167.65 119.981 172.226 123.73 175.594C124.175 175.975 124.874 175.34 124.429 174.895C120.489 171.336 116.676 166.697 110.829 167.078C110.257 167.141 110.257 168.095 110.829 168.095Z" fill="white"/>
<path d="M121.252 179.28C128.433 174.704 136.949 173.179 145.274 175.022C145.846 175.149 146.101 174.259 145.529 174.132C136.949 172.289 128.179 173.814 120.807 178.517C120.235 178.771 120.743 179.598 121.252 179.28Z" fill="white"/>
<path d="M139.301 187.986C145.211 188.368 150.803 186.525 155.316 182.648C155.76 182.267 155.125 181.568 154.617 181.949C150.295 185.635 144.957 187.414 139.301 187.033C138.729 187.033 138.729 187.986 139.301 187.986Z" fill="white"/>
<path d="M137.585 142.865C136.187 145.216 135.869 147.949 136.695 150.554C136.886 151.126 137.775 150.872 137.585 150.3C136.822 147.949 137.076 145.47 138.347 143.373C138.729 142.801 137.902 142.293 137.585 142.865Z" fill="white"/>
<path d="M112.418 148.775C113.943 149.728 114.897 151.19 115.278 152.906C115.405 153.478 116.295 153.224 116.168 152.652C115.723 150.681 114.579 149.029 112.863 147.949C112.355 147.631 111.91 148.457 112.418 148.775Z" fill="white"/>
<path d="M146.037 158.943C147.245 160.405 148.643 161.676 150.232 162.629C150.74 162.947 151.248 162.121 150.74 161.803C149.215 160.85 147.817 159.642 146.736 158.244C146.291 157.799 145.656 158.498 146.037 158.943Z" fill="white"/>
<path d="M185.249 190.147C183.914 186.779 177.495 189.067 175.398 190.401C171.649 192.88 169.996 197.519 171.394 201.777C171.585 202.349 172.475 202.095 172.284 201.523C171.204 198.155 172.093 194.532 174.763 192.054C175.906 190.973 177.432 190.211 178.957 189.829C180.037 189.512 183.723 188.813 184.295 190.338C184.55 190.973 185.439 190.719 185.249 190.147Z" fill="white"/>
<path d="M172.157 201.841C167.2 199.744 161.925 199.553 156.777 201.142C156.205 201.332 156.46 202.222 157.032 202.031C162.052 200.443 167.073 200.697 171.903 202.73C172.475 202.985 172.729 202.031 172.157 201.841Z" fill="white"/>
<path d="M346.734 466.153C344.128 472.381 344.128 477.02 343.747 488.968C343.302 503.712 342.031 518.393 341.904 533.073C341.777 545.466 341.586 564.213 341.078 588.617C361.414 589.761 383.912 590.015 408.316 588.808C431.576 587.664 453.056 585.313 472.439 582.389C463.288 551.439 457.251 528.879 452.929 511.402C450.641 502.06 447.273 488.078 437.994 471.745C432.91 462.785 427.635 456.048 423.759 451.536C422.742 450.646 400.308 431.771 374.379 440.669C373.108 441.177 354.233 448.041 346.734 466.153Z" fill="#EC615B"/>
<path d="M384.166 503.204C388.424 510.766 392.682 518.329 396.876 525.892C397.448 526.972 399.101 526.019 398.529 524.938C394.271 517.376 390.013 509.813 385.818 502.25C385.246 501.17 383.594 502.123 384.166 503.204Z" fill="#C64F4F"/>
<path d="M383.658 502.822C393.445 515.024 399.101 528.942 402.151 544.195C405.011 558.621 406.854 573.238 407.934 587.918C407.998 589.126 409.904 589.126 409.841 587.918C408.697 572.856 406.79 557.795 403.867 542.987C400.817 527.671 394.843 513.69 385.056 501.488C384.293 500.471 382.895 501.869 383.658 502.822Z" fill="#C64F4F"/>
<path opacity="0.19" d="M398.974 439.207C401.198 443.656 404.375 450.201 407.934 458.082C418.293 481.088 429.034 505.364 434.753 535.234C437.105 547.309 439.329 564.785 438.376 586.584C443.714 586.329 449.37 585.885 455.28 585.249C461.191 584.614 466.847 583.851 472.185 582.961C470.533 577.369 467.864 568.471 464.877 557.477C456.551 526.718 455.408 517.121 448.29 496.848C443.015 481.787 438.121 471.555 431.067 461.768C424.712 452.934 418.738 447.405 411.175 443.528C406.473 441.113 402.088 439.906 398.974 439.207Z" fill="#3F3F3F"/>
<path opacity="0.11" d="M383.785 503.521C386.263 512.8 388.424 523.858 389.441 536.314C391.22 557.858 388.932 576.225 386.136 589.952C393.445 589.507 400.689 589.062 407.998 588.617C407.235 574.191 405.583 562.053 403.994 552.838C399.99 529.387 395.796 520.68 392.428 515.088C389.25 509.94 386.073 506.063 383.785 503.521Z" fill="#3F3F3F"/>
<path d="M302.375 357.861C300.277 359.259 299.006 361.928 296.528 367.203C294.494 371.524 293.541 374.892 292.016 379.913C287.821 394.149 288.266 391.734 286.804 397.136C284.898 404.317 281.466 416.9 279.56 433.487C277.717 449.566 278.098 461.959 278.161 464.945C278.86 483.82 282.165 497.865 284.389 506.89C288.33 523.095 293.604 536.568 304.091 563.451C306.378 569.234 308.285 574 309.62 577.305C308.666 577.432 307.141 577.623 305.298 577.877C295.702 579.021 294.367 578.767 290.49 579.593C285.533 580.673 281.085 581.754 279.369 585.503C278.606 587.219 278.288 589.634 279.242 590.46C280.449 591.477 282.801 589.189 286.868 587.855C290.3 586.774 293.35 586.838 295.447 587.156C293.795 590.397 292.842 593.32 292.27 595.417C290.872 600.247 289.791 604.188 291.571 606.984C292.461 608.382 294.176 609.653 295.575 609.272C296.337 609.081 297.036 608.382 298.943 603.361C300.786 598.341 300.913 596.752 302.438 594.782C303.773 593.13 305.298 592.24 306.315 591.731C305.806 593.32 305.234 595.672 304.98 598.531C304.853 600.247 304.663 601.836 304.98 603.87C305.234 605.713 305.806 609.653 308.73 611.814C309.238 612.195 311.335 613.784 312.607 612.958C313.687 612.322 313.369 610.543 313.814 604.823C314.195 599.993 314.577 598.659 314.894 597.896C315.721 595.672 316.992 594.083 317.945 593.13C317.627 597.705 317.691 601.518 317.818 604.315C318.072 608.827 318.517 610.861 319.979 612.132C320.805 612.831 322.203 613.53 323.347 613.021C324.491 612.513 324.872 610.924 325.19 608.954C326.588 601.518 325.762 599.358 327.351 595.608C327.986 594.146 328.685 592.367 330.401 591.096C334.023 588.427 339.171 590.016 339.87 590.206C342.921 591.159 344.065 592.812 345.59 592.113C346.861 591.541 347.56 589.698 347.624 588.173C347.687 584.423 343.556 581.563 339.997 579.212C338.218 578.004 335.549 576.415 331.99 575.144C328.876 568.98 324.936 560.019 321.694 548.643C319.534 541.017 318.517 535.17 317.564 529.641C314.195 510.258 315.403 502.822 311.653 483.566C310.763 478.927 309.874 475.241 309.365 473.144C309.62 469.966 310.064 465.009 310.7 458.972C312.797 439.27 314.195 426.941 318.453 412.452C321.822 401.076 325.253 391.734 325.253 391.734C329.575 380.104 330.973 378.515 330.465 374.765C328.685 362.945 310.192 352.649 302.375 357.861Z" fill="white"/>
<path d="M297.481 363.898C286.169 390.018 279.051 417.917 277.526 446.388C275.937 475.432 280.958 503.839 290.363 531.294C295.702 546.991 302.184 562.243 308.793 577.496C309.302 578.64 310.891 577.623 310.446 576.543C299.006 550.105 287.821 523.286 282.483 494.942C277.208 466.979 278.288 438.063 284.389 410.291C287.821 394.721 292.778 379.532 299.133 364.915C299.578 363.771 297.99 362.754 297.481 363.898Z" fill="#161616"/>
<path d="M321.186 400.186C313.178 424.399 308.984 449.757 308.539 475.241C308.539 476.448 310.446 476.448 310.446 475.241C310.891 449.884 315.085 424.781 323.029 400.694C323.41 399.551 321.567 399.042 321.186 400.186Z" fill="#161616"/>
<path d="M301.866 463.674C307.522 471.555 309.81 480.96 311.145 490.366C312.543 499.962 313.178 509.686 314.577 519.282C317.373 538.793 321.949 558.24 331.164 575.716C331.736 576.797 333.388 575.843 332.816 574.763C323.22 556.587 318.707 536.314 316.038 516.105C313.687 498.374 314.386 477.846 303.519 462.721C302.819 461.768 301.167 462.721 301.866 463.674Z" fill="#161616"/>
<path d="M308.539 576.606C302.629 576.924 296.718 577.496 290.935 578.576C286.804 579.402 282.419 580.737 279.559 584.042C277.907 586.012 275.81 590.715 279.432 592.049C281.021 592.621 282.419 591.541 283.754 590.778C287.059 588.872 290.49 586.901 294.431 587.982C295.638 588.3 296.147 586.457 294.939 586.139C291.698 585.249 288.775 586.012 285.851 587.473C284.961 587.918 284.135 588.363 283.309 588.872C282.801 589.126 282.356 589.444 281.847 589.761C281.275 588.744 280.64 587.728 280.068 586.711C280.195 585.122 283.373 583.279 284.517 582.643C287.631 580.991 291.253 580.419 294.685 579.911C299.324 579.212 303.963 578.767 308.603 578.513C309.81 578.449 309.81 576.542 308.539 576.606Z" fill="#161616"/>
<path d="M303.328 582.262C298.307 583.088 294.176 586.52 292.27 591.159C290.236 595.989 288.52 603.171 290.872 608.128C292.651 611.877 297.036 613.212 298.689 608.636C299.705 605.776 299.515 602.662 300.532 599.803C301.803 596.244 303.963 593.193 307.141 591.096C308.158 590.397 307.205 588.745 306.188 589.444C303.201 591.414 300.977 594.083 299.515 597.324C298.752 598.976 298.18 600.692 297.799 602.472C297.481 603.933 297.29 611.305 293.795 609.145C291.825 607.937 291.634 604.061 291.698 602.09C291.825 599.167 292.588 595.799 293.541 593.002C295.13 588.3 298.879 584.931 303.773 584.105C305.044 583.915 304.535 582.072 303.328 582.262Z" fill="#161616"/>
<path d="M309.302 586.965C305.362 589.507 303.963 595.036 303.582 599.485C303.201 604.251 304.535 609.399 308.094 612.767C310.191 614.737 313.433 615.754 314.005 612.068C314.958 605.904 312.479 597.197 319.216 593.511C320.296 592.939 319.343 591.287 318.263 591.859C315.848 593.193 314.322 595.354 313.369 597.96C312.034 601.773 312.797 605.649 312.225 609.59C311.971 611.369 311.463 613.276 309.492 611.433C308.793 610.797 308.158 609.971 307.649 609.145C306.442 607.238 305.743 605.077 305.552 602.853C305.107 598.404 306.251 591.287 310.319 588.617C311.272 587.918 310.319 586.266 309.302 586.965Z" fill="#161616"/>
<path d="M318.326 592.049C317.119 596.625 315.975 601.391 316.737 606.158C317.055 608.446 318.39 614.038 321.313 614.61C324.618 615.246 325.952 609.399 326.27 607.238C326.969 602.535 326.079 596.879 329.765 593.257C330.655 592.367 329.321 591.032 328.431 591.922C323.982 596.307 325.508 602.662 324.173 608.255C323.728 610.289 322.457 613.339 320.36 610.988C319.216 609.78 318.898 607.429 318.644 605.84C318.008 601.391 319.089 596.943 320.233 592.621C320.487 591.414 318.644 590.905 318.326 592.049Z" fill="#161616"/>
<path d="M332.053 576.797C335.803 578.322 339.68 579.974 342.603 582.898C343.938 584.232 345.59 586.266 345.971 588.172C346.924 593.447 342.984 590.079 341.523 589.443C337.519 587.664 329.575 588.935 327.287 593.002C326.715 594.083 328.367 595.036 328.939 593.956C330.147 591.731 333.451 591.159 335.739 590.842C337.137 590.651 338.726 590.524 340.061 590.905C341.586 591.35 342.539 592.685 344.001 593.129C346.098 593.765 347.687 592.303 348.005 590.27C348.577 586.965 345.717 583.279 343.493 581.118C340.379 578.131 336.375 576.479 332.435 574.89C331.418 574.509 330.973 576.352 332.053 576.797Z" fill="#161616"/>
<path opacity="0.13" d="M319.216 379.659C311.907 380.104 307.522 398.788 305.107 409.147C302.375 420.777 299.896 436.792 300.405 460.115C300.849 480.96 303.519 496.848 304.408 502.377C308.412 526.146 314.704 546.101 320.868 561.735C322.902 567.455 324.872 573.174 326.906 578.83C325.762 583.533 324.618 588.363 323.537 593.384C322.139 599.993 320.868 606.475 319.851 612.703C321.059 612.831 322.711 612.767 323.855 611.623C325.317 610.161 325.126 607.81 325.19 605.776C325.253 603.87 325.444 594.655 329.575 591.223C332.117 589.126 336.184 589.126 338.981 590.143C341.84 591.223 343.111 593.32 345.018 592.685C346.48 592.24 347.496 590.46 347.687 589.062C348.323 584.423 339.425 579.657 337.964 578.894C335.104 577.369 333.769 577.178 331.926 575.271C329.638 572.856 328.876 569.997 328.558 568.726C323.283 548.643 320.678 549.914 317.119 526.845C314.449 509.432 316.165 510.449 313.433 496.594C311.526 486.807 309.937 482.803 309.429 474.351C308.857 465.073 309.937 457.828 311.081 451.409C315.848 425.162 324.999 393.386 327.223 385.823C325.19 382.646 322.393 379.468 319.216 379.659Z" fill="#3F3F3F"/>
<path d="M448.925 118.397C446.955 118.334 445.43 121.892 445.049 122.846C444.477 124.244 443.587 126.977 444.222 130.853C444.222 130.853 444.604 133.522 445.875 149.665C446.193 153.287 446.256 158.562 445.303 165.171C442.761 172.162 440.346 177.627 438.693 181.186C433.101 193.134 429.351 197.901 421.534 213.026C418.611 218.682 418.357 219.572 414.925 226.562C406.346 243.912 400.054 254.779 393.635 266.409C387.979 276.578 380.035 291.512 370.693 310.705C370.248 312.357 368.024 321.191 373.171 328.944C378.637 337.143 390.076 340.829 401.134 337.27C402.85 334.855 405.265 331.105 407.489 326.212C409.65 321.445 410.667 317.759 411.366 315.408C412.065 313.057 414.861 305.113 420.518 289.097C422.297 284.14 424.458 278.23 428.843 266.664C435.516 248.933 438.821 240.099 441.045 234.57C446.065 221.987 449.879 213.28 457.378 196.375C461.318 187.478 466.148 176.738 471.74 164.536C474.982 162.693 479.43 159.833 484.197 155.702C491.06 149.792 494.492 144.771 501.101 135.238C505.359 129.01 508.6 123.545 507.711 118.079C507.584 117.317 507.266 115.092 506.058 114.775C504.533 114.33 502.627 117.38 500.529 120.049C498.369 122.782 495.127 126.341 490.298 130.027C491.95 125.451 493.602 121.892 494.746 119.541C497.352 114.203 499.513 110.771 500.847 104.861C502.309 98.5689 500.974 97.425 500.593 97.1073C498.877 95.8362 495.954 98.2512 494.238 96.853C492.712 95.5185 494.047 92.5951 492.84 91.896C491.632 91.1969 488.963 93.2941 487.056 95.5185C483.752 99.3316 482.989 103.018 481.782 106.576C480.638 110.072 478.54 114.838 474.6 120.113C473.647 120.24 472.376 120.304 471.804 119.541C471.168 118.651 472.058 117.19 472.884 114.838C473.075 114.266 472.948 114.584 474.282 108.737C474.791 106.513 475.744 102.382 476.507 99.0774C477.587 94.311 478.096 92.3409 477.079 90.2437C476.888 89.7988 476.062 88.0829 474.854 88.0193C473.456 87.9558 472.376 90.1801 471.55 91.896C468.181 98.8232 466.466 102.319 466.021 103.526C463.796 109.563 460.809 118.778 460.365 121.956C460.301 122.337 460.174 123.672 459.538 125.388C459.221 126.214 459.03 126.532 458.839 127.04C457.251 130.599 458.585 132.951 456.933 134.222C456.742 134.349 455.789 135.048 455.026 134.794C454.2 134.539 453.819 133.459 453.374 129.836C452.738 124.879 453.12 123.418 451.976 121.257C451.213 120.304 450.26 118.461 448.925 118.397Z" fill="white"/>
<path d="M445.875 147.822C446.32 143.182 445.621 138.67 445.366 134.031C445.239 131.807 445.239 129.519 445.557 127.294C445.748 126.023 446.002 124.752 446.383 123.545C447.019 121.702 447.082 120.177 449.116 120.113C451.023 120.049 450.895 121.193 451.213 122.782C451.531 124.18 451.594 125.642 451.658 127.04C451.785 129.01 451.849 131.044 452.294 132.95C452.738 134.921 453.946 136.573 456.17 135.874C457.314 135.493 456.869 133.65 455.662 134.031C453.437 134.666 453.628 127.167 453.501 125.896C453.31 123.863 453.12 121.765 452.357 119.859C451.277 117.19 448.798 115.855 446.701 118.334C443.968 121.511 443.396 127.231 443.396 131.171C443.396 136.764 444.477 142.229 443.968 147.822C443.905 149.029 445.811 149.029 445.875 147.822Z" fill="#161616"/>
<path d="M456.933 135.111C460.11 128.947 461.064 121.956 462.907 115.347C464.877 108.229 467.355 101.238 471.041 94.8829C471.867 93.4847 472.694 91.5146 473.901 90.4343C476.253 88.2735 476.253 92.4044 476.062 94.1838C475.681 98.124 474.664 102.128 473.774 106.004C472.948 109.563 471.804 112.995 470.978 116.554C470.533 118.524 470.533 120.24 471.931 121.765C472.757 122.655 474.092 121.32 473.266 120.431C471.677 118.715 473.329 115.283 473.838 113.44C474.41 111.343 474.982 109.246 475.426 107.148C476.316 103.272 477.206 99.3315 477.778 95.3277C478.096 93.2305 478.54 89.5445 476.697 87.9557C475.109 86.6211 473.52 87.8922 472.439 89.1632C467.8 94.9464 464.94 102.573 462.652 109.563C460.047 117.634 459.221 126.659 455.28 134.221C454.708 135.238 456.361 136.192 456.933 135.111Z" fill="#161616"/>
<path d="M472.376 121.956C474.283 122.147 474.982 120.748 475.871 119.223C477.269 116.808 478.541 114.266 479.748 111.788C482.099 106.958 483.752 101.683 486.612 97.1708C487.247 96.1539 488.01 94.8829 489.027 94.1203C489.853 93.167 490.933 92.8492 492.331 93.2941C492.522 94.1838 492.649 95.0735 492.649 95.9633C492.713 99.0773 491.696 102.191 490.615 105.115C488.455 110.898 486.04 116.618 483.688 122.401C483.243 123.545 485.086 124.053 485.531 122.909C486.866 119.605 500.593 90.6249 491.632 90.4343C489.853 90.3707 487.819 92.595 486.802 93.8025C485.023 95.8997 483.752 98.3147 482.608 100.793C481.273 103.78 480.066 106.767 478.668 109.69C477.841 111.47 476.888 113.313 475.998 115.029C475.426 116.173 474.028 120.113 472.44 119.986C471.168 119.922 471.168 121.829 472.376 121.956Z" fill="#161616"/>
<path d="M494.873 98.5689C495.572 94.8829 499.576 97.425 500.085 99.7764C500.529 101.747 499.767 103.717 499.131 105.56C498.178 108.356 497.098 111.089 495.954 113.758C493.729 118.969 491.124 123.926 488.2 128.82C487.565 129.9 489.217 130.853 489.853 129.773C492.585 125.261 495 120.558 497.161 115.791C499.004 111.661 501.228 107.085 501.928 102.573C502.372 99.7129 501.546 96.0269 498.369 95.01C496.017 94.2474 493.475 95.7091 493.03 98.1241C492.84 99.268 494.683 99.7764 494.873 98.5689Z" fill="#161616"/>
<path d="M491.187 130.536C493.602 127.803 495.954 125.07 498.369 122.337C499.64 120.876 500.784 119.287 502.182 118.016C502.627 117.635 503.072 117.317 503.453 116.935C504.533 117.317 505.614 117.698 506.758 118.079C507.075 118.651 506.313 120.304 506.122 120.812C504.152 126.85 501.292 132.569 497.924 137.908C491.124 148.648 481.782 157.672 470.851 164.218C469.77 164.854 470.787 166.506 471.804 165.87C485.404 157.736 496.589 145.788 503.643 131.616C505.359 128.184 507.012 124.562 508.092 120.876C508.728 118.715 509.109 115.792 506.63 114.648C504.215 113.504 501.673 115.728 500.148 117.317C496.526 121.066 493.221 125.261 489.789 129.201C489.027 130.091 490.361 131.425 491.187 130.536Z" fill="#161616"/>
<path d="M444.222 145.852C444.667 151.698 445.112 157.672 444.159 163.519C443.206 169.302 440.791 174.641 438.121 179.852C432.72 190.401 427.063 200.824 421.534 211.31C410.476 232.282 399.418 253.191 388.36 274.163C382.005 286.174 375.65 298.249 369.295 310.26C368.723 311.341 370.375 312.294 370.947 311.214C393.762 267.935 417.022 224.847 439.456 181.313C442.125 176.166 444.604 170.891 445.684 165.235C446.955 158.816 446.51 152.334 446.002 145.852C446.065 144.644 444.159 144.644 444.222 145.852Z" fill="#161616"/>
<path d="M470.724 163.773C450.387 206.734 432.656 250.712 417.022 295.58C412.447 308.608 407.871 321.636 402.342 334.283C401.833 335.427 403.486 336.38 403.994 335.236C413.463 313.692 420.391 291.131 428.525 269.142C436.85 246.518 445.875 224.084 455.471 201.968C460.937 189.448 466.529 177.056 472.376 164.726C472.884 163.646 471.232 162.693 470.724 163.773Z" fill="#161616"/>
<path opacity="0.1" d="M499.449 97.8063C496.843 97.425 493.348 108.102 491.314 113.44C485.15 129.836 479.939 131.743 466.72 153.986C461.826 162.184 455.09 174.513 448.29 190.592C427.953 233.426 407.68 276.324 387.344 319.157C392.301 325.195 397.194 331.296 402.151 337.333C404.63 330.279 408.252 319.92 412.764 307.4C420.963 284.839 431.576 255.796 446.574 220.461C452.548 206.48 460.81 187.605 471.423 165.426C474.346 163.583 478.413 160.723 482.862 156.782C488.836 151.571 496.716 144.517 502.118 133.014C503.834 129.455 505.995 123.99 507.139 116.808C506.313 116.427 505.105 115.982 503.771 116.236C501.483 116.681 500.275 118.906 499.322 120.431C495.636 126.087 490.234 129.836 489.535 129.392C489.154 129.074 490.234 127.231 493.157 121.257C499.131 108.991 496.653 112.233 499.004 108.102C500.339 105.75 501.673 103.717 501.229 101.111C501.229 99.9671 500.529 97.997 499.449 97.8063Z" fill="#3F3F3F"/>
<path opacity="0.13" d="M495.572 141.149C492.395 143.182 487.883 146.169 482.735 150.109C476.825 154.558 470.469 159.388 465.131 165.489C457.886 173.751 454.708 181.949 452.802 186.715C435.325 231.329 414.544 279.755 408.633 293.228C405.392 300.6 400.308 311.722 393.572 325.068C396.622 329.072 399.736 333.075 402.787 337.079C411.557 310.324 421.662 282.297 433.228 253.254C445.684 222.05 458.585 192.88 471.55 165.743C475.045 163.392 478.985 160.405 482.989 156.528C488.645 151.126 492.713 145.661 495.572 141.149Z" fill="#3F3F3F"/>
<path d="M326.588 325.131C324.236 326.72 318.962 330.406 313.56 336.38C307.967 342.545 304.726 348.328 302.057 353.221C299.96 356.971 298.434 360.276 297.354 362.69C299.006 365.868 301.676 370.762 305.362 376.608C311.907 386.967 316.992 392.56 325.762 403.809C329.448 408.511 334.786 415.566 341.141 424.463C342.158 429.229 343.048 434.25 343.81 439.525C345.336 450.328 345.908 460.37 345.908 469.394C348.259 471.936 352.326 475.622 358.3 478.228C368.214 482.613 377.239 481.342 381.942 480.579C392.364 478.99 399.482 474.351 404.375 471.11C413.273 465.263 419.31 458.272 423.314 452.489C422.488 442.575 421.407 432.343 420.073 421.73C418.929 412.706 417.658 403.936 416.26 395.42C416.132 388.747 415.497 379.659 413.336 369.109C411.557 360.276 409.396 349.98 402.977 337.778C394.97 322.589 384.992 313.374 381.115 310.006C377.684 307.019 374.57 304.795 372.282 303.206C363.003 309.116 354.996 312.802 349.53 315.027C339.362 319.221 334.595 319.857 326.588 325.131Z" fill="white"/>
<path d="M298.371 362.945C300.341 355.446 305.806 348.455 310.509 342.354C315.466 335.999 321.059 330.215 327.732 325.576C328.749 324.877 327.795 323.225 326.779 323.924C319.915 328.69 314.132 334.601 309.048 341.146C304.154 347.438 298.625 354.556 296.591 362.373C296.274 363.644 298.117 364.089 298.371 362.945Z" fill="#161616"/>
<path d="M296.973 363.58C310.064 386.459 325.571 407.939 343.175 427.577C344.001 428.467 345.336 427.132 344.51 426.242C327.033 406.732 311.653 385.378 298.625 362.627C297.99 361.547 296.337 362.5 296.973 363.58Z" fill="#161616"/>
<path d="M350.738 315.916C357.855 310.896 365.672 307.146 373.998 304.731C375.205 304.413 374.697 302.57 373.489 302.888C364.973 305.367 357.029 309.18 349.784 314.264C348.767 314.963 349.721 316.615 350.738 315.916Z" fill="#161616"/>
<path d="M372.409 305.24C402.787 326.402 415.815 363.517 414.353 399.423C414.289 400.631 416.196 400.631 416.26 399.423C417.785 362.754 404.312 325.131 373.362 303.587C372.409 302.888 371.455 304.541 372.409 305.24Z" fill="#161616"/>
<path d="M339.044 423.827C342.349 430.627 342.73 439.08 343.429 446.452C344.192 453.951 344.446 461.514 344.446 469.076C344.446 470.284 346.352 470.284 346.352 469.076C346.416 460.687 346.035 452.299 345.081 443.973C344.319 436.919 343.81 429.293 340.696 422.811C340.124 421.73 338.536 422.683 339.044 423.827Z" fill="#161616"/>
<path d="M345.653 469.458C355.186 481.151 371.455 484.456 385.628 480.833C393.508 478.8 400.816 474.923 407.362 470.093C413.908 465.263 420.136 459.671 423.822 452.299C424.394 451.218 422.742 450.265 422.17 451.345C418.611 458.4 412.637 463.802 406.345 468.441C400.244 472.953 393.444 476.639 386.072 478.736C372.218 482.613 356.267 479.626 346.924 468.123C346.225 467.17 344.891 468.504 345.653 469.458Z" fill="#161616"/>
<path d="M415.052 396.564C418.166 415.184 421.217 433.805 422.297 452.616C422.361 453.824 424.267 453.824 424.204 452.616C423.06 433.614 420.009 414.803 416.895 396.055C416.704 394.848 414.861 395.356 415.052 396.564Z" fill="#161616"/>
<path opacity="0.13" d="M353.153 313.374C360.207 321.7 369.867 334.664 377.938 352.204C389.758 377.879 392.11 400.059 393.889 418.934C395.287 433.297 396.05 453.315 393.254 477.211C398.656 474.86 406.282 470.792 413.654 463.738C417.721 459.798 420.772 455.857 423.06 452.426C420.962 434.695 418.865 416.9 416.768 399.169C417.149 384.552 414.861 372.732 412.701 364.724C406.028 339.939 393.19 323.987 388.869 318.967C382.958 312.04 377.175 306.955 372.917 303.587C366.308 306.892 359.762 310.133 353.153 313.374Z" fill="#3F3F3F"/>
<path opacity="0.14" d="M400.499 335.617C399.355 335.935 402.024 346.294 404.566 361.61C404.566 361.61 408.443 384.87 409.269 407.367C409.841 422.239 409.078 443.973 402.405 470.983C405.456 469.458 409.205 467.233 413.082 464.119C417.785 460.306 421.153 456.302 423.441 453.125C422.615 427.513 420.454 414.231 418.42 406.732C418.039 405.27 417.022 401.838 416.196 397.009C414.671 387.984 415.433 384.107 414.607 376.608C413.972 370.634 412.764 366.694 410.54 359.386C407.172 348.391 401.77 335.236 400.499 335.617Z" fill="#3F3F3F"/>
<path d="M325.698 220.588C321.504 222.94 316.165 226.499 311.018 231.901C300.341 243.277 296.909 255.987 295.702 262.279C294.748 262.151 292.143 261.961 290.046 263.613C286.932 266.028 286.868 270.794 288.075 273.591C288.52 274.608 289.156 275.434 290.49 277.086C292.079 279.056 293.096 280.264 294.748 280.963C295.448 281.281 297.036 281.725 299.324 281.217C300.023 283.314 301.167 286.238 302.883 289.606C305.107 293.927 308.476 300.346 315.212 305.939C317.182 307.591 320.233 309.752 324.364 311.722C325.889 313.692 328.685 317.823 329.003 323.415C329.638 333.266 322.457 341.464 315.657 345.087C303.836 351.378 290.999 345.087 286.296 342.735C283.754 341.464 270.98 334.855 265.642 320.365C259.159 302.888 267.612 285.411 272.632 274.989C277.717 264.503 280.068 265.202 283.945 254.97C289.092 241.434 286.36 236.667 292.27 226.308C294.558 222.241 299.197 214.106 308.921 210.293C317.246 207.052 324.936 208.704 328.24 209.658C330.973 208.005 335.803 205.654 341.904 205.654C356.394 205.654 365.672 219.381 367.897 222.686C374.506 232.409 371.011 235.396 376.921 249.06C384.357 266.282 391.601 265.265 398.274 281.408C401.516 289.288 406.917 302.316 400.944 314.772C394.779 327.61 380.734 331.359 378.955 331.804C375.714 332.63 367.007 334.791 358.3 330.152C357.474 329.707 346.543 323.733 345.653 313.501C345.336 309.752 346.416 306.256 346.67 305.494C348.005 301.363 350.293 298.694 350.992 297.804C353.725 294.436 357.029 288.208 359.317 275.815C360.398 275.752 362.177 275.497 363.956 274.48C367.706 272.32 369.485 267.935 369.295 264.122C369.231 263.232 368.977 258.148 365.291 256.432C363.766 255.733 362.177 255.923 361.287 256.114C349.467 244.166 337.582 232.409 325.698 220.588Z" fill="#5222D0"/>
<path d="M325.698 220.525C318.644 224.656 313.75 229.232 310.636 232.6C300.277 243.848 296.973 255.606 296.274 258.338C295.829 260.054 295.511 261.452 295.384 262.469C294.685 262.215 293.096 261.77 291.507 262.469C289.092 263.55 288.584 266.473 288.33 267.935C287.694 271.303 288.965 273.972 289.474 274.989C290.173 276.451 291.317 278.802 294.049 280.01C296.274 281.026 298.371 280.645 299.261 280.454C300.15 282.742 301.421 285.92 303.391 289.542C306.378 295.262 309.175 300.537 314.577 305.24C316.674 307.083 320.106 309.625 325.063 311.595C326.079 313.184 327.478 315.662 328.24 318.903C328.876 321.445 329.003 323.606 328.939 325.258C330.592 326.085 333.706 327.356 337.582 327.292C345.018 327.165 349.911 322.526 351.055 321.382C349.848 317.759 348.768 313.311 348.323 308.163C348.132 305.812 348.068 303.587 348.068 301.554C350.039 299.456 352.454 296.469 354.424 292.466C357.919 285.539 358.491 279.12 358.554 275.37C359.444 275.497 361.224 275.688 363.13 274.925C365.799 273.845 367.007 271.494 367.706 270.159C367.897 269.841 370.566 264.376 368.151 258.974C367.579 257.766 366.626 255.542 364.719 255.351C363.321 255.224 362.177 256.305 361.732 256.75C359.126 253.635 354.233 247.852 347.369 239.908C341.459 232.981 337.709 228.66 331.418 224.211C329.13 222.559 327.096 221.351 325.698 220.525Z" fill="white"/>
<path d="M316.928 287.953C316.293 289.415 319.279 292.021 320.678 293.101C323.601 295.262 326.715 295.58 327.859 295.643C329.194 295.77 333.579 296.088 337.582 293.228C338.536 292.529 341.205 290.686 342.222 287.254C342.921 284.776 342.73 281.344 341.396 280.772C340.379 280.391 339.425 281.662 337.265 283.187C333.452 285.793 329.511 286.428 326.143 286.937C320.423 287.826 317.564 286.682 316.928 287.953Z" fill="black"/>
<path d="M296.782 273.273C299.07 282.806 302.756 292.148 308.857 299.901C314.259 306.828 322.266 313.501 331.609 312.612C340.252 311.785 347.306 305.049 351.882 298.185C357.284 290.178 359.889 280.581 359.635 270.922C359.571 269.714 357.665 269.714 357.728 270.922C357.983 279.755 355.695 288.398 351.055 295.897C346.67 302.952 339.425 310.387 330.592 310.769C321.25 311.15 313.56 303.524 308.603 296.406C303.646 289.288 300.595 281.09 298.562 272.701C298.307 271.557 296.464 272.066 296.782 273.273Z" fill="#161616"/>
<path d="M323.792 311.722C326.461 315.789 327.795 320.238 327.795 325.131C327.795 326.339 329.702 326.339 329.702 325.131C329.702 319.984 328.24 315.09 325.444 310.769C324.808 309.688 323.156 310.641 323.792 311.722Z" fill="#161616"/>
<path d="M328.685 325.894C336.438 330.343 346.48 328.182 351.754 321.064C352.517 320.111 350.865 319.157 350.102 320.111C345.399 326.402 336.375 328.182 329.638 324.242C328.558 323.67 327.605 325.322 328.685 325.894Z" fill="#161616"/>
<path d="M346.988 303.206C347.052 308.989 347.941 314.709 349.784 320.238C350.166 321.382 352.009 320.873 351.627 319.729C349.911 314.327 348.958 308.862 348.895 303.206C348.895 301.935 346.988 301.935 346.988 303.206Z" fill="#161616"/>
<path d="M298.689 279.31C297.862 280.2 295.829 279.882 294.876 279.374C294.113 278.993 293.414 278.421 292.842 277.849C291.571 276.641 290.554 275.18 289.919 273.591C288.647 270.604 288.076 262.024 293.732 263.55C294.939 263.867 295.448 262.024 294.24 261.707C287.249 259.864 286.169 269.142 287.948 273.781C289.347 277.531 295.765 285.284 300.087 280.645C300.849 279.755 299.515 278.421 298.689 279.31Z" fill="#161616"/>
<path d="M362.558 257.067C363.321 254.525 366.626 259.419 367.007 260.308C367.77 262.342 368.024 264.566 367.706 266.727C367.198 271.049 363.766 275.18 358.999 273.972C357.792 273.654 357.283 275.497 358.491 275.815C366.181 277.785 370.312 269.778 369.613 263.232C369.295 260.372 368.151 256.686 365.418 255.161C363.639 254.207 361.351 254.462 360.715 256.495C360.334 257.766 362.177 258.211 362.558 257.067Z" fill="#161616"/>
<path d="M305.489 243.594C307.586 239.591 311.272 236.985 315.721 236.349C316.928 236.159 316.42 234.316 315.212 234.506C310.319 235.205 306.124 238.256 303.836 242.641C303.264 243.721 304.917 244.675 305.489 243.594Z" fill="#161616"/>
<path d="M334.85 233.807C340.188 232.536 345.526 235.205 347.941 240.035C348.513 241.116 350.102 240.162 349.594 239.082C346.797 233.426 340.442 230.503 334.341 231.964C333.134 232.282 333.642 234.125 334.85 233.807Z" fill="#161616"/>
<path d="M320.995 241.624C322.203 248.361 322.521 255.288 321.822 262.151C321.567 264.249 320.551 267.236 321.504 269.333C322.521 271.621 325.253 273.591 326.969 275.37C327.795 276.26 329.194 274.925 328.304 274.036C327.16 272.828 326.016 271.684 324.872 270.477C323.093 268.634 322.902 268.062 323.283 265.393C323.601 262.978 323.919 260.499 324.046 258.021C324.3 252.364 323.855 246.708 322.838 241.179C322.648 239.908 320.805 240.417 320.995 241.624Z" fill="#161616"/>
<path d="M312.988 257.957C312.035 256.432 311.59 254.779 311.717 253C311.717 252.619 311.971 250.966 312.289 250.903C312.479 250.903 312.797 253.127 312.861 253.381C312.988 254.207 313.051 255.097 313.051 255.923C313.051 256.178 312.988 258.275 312.988 257.004C312.924 255.161 313.051 253.318 313.115 251.475C312.479 251.538 311.844 251.665 311.272 251.729C311.59 253.699 311.78 255.669 311.78 257.703C312.416 257.703 313.051 257.703 313.687 257.703C313.687 257.449 313.687 257.194 313.687 256.94C313.687 255.733 311.78 255.733 311.78 256.94C311.78 257.194 311.78 257.449 311.78 257.703C311.78 258.91 313.687 258.91 313.687 257.703C313.687 255.542 313.496 253.381 313.115 251.22C312.924 250.14 311.272 250.458 311.272 251.475C311.208 253.508 310.954 255.733 311.208 257.766C311.335 258.72 311.78 259.609 312.861 259.8C316.038 260.435 315.085 254.207 314.831 252.682C314.64 251.475 314.45 249.632 313.306 248.933C312.352 248.361 311.335 248.933 310.764 249.822C309.175 252.492 310.064 256.432 311.526 258.847C311.971 259.927 313.623 258.974 312.988 257.957Z" fill="#161616"/>
<path d="M342.349 254.589C341.395 253.063 340.951 251.411 341.078 249.632C341.078 249.25 341.332 247.598 341.65 247.534C341.84 247.534 342.158 249.759 342.222 250.013C342.349 250.839 342.412 251.729 342.412 252.555C342.412 252.809 342.349 254.906 342.349 253.635C342.285 251.792 342.412 249.949 342.476 248.106C341.84 248.17 341.205 248.297 340.633 248.361C340.951 250.331 341.141 252.301 341.141 254.334C341.777 254.334 342.412 254.334 343.048 254.334C343.048 254.08 343.048 253.826 343.048 253.572C343.048 252.364 341.141 252.364 341.141 253.572C341.141 253.826 341.141 254.08 341.141 254.334C341.141 255.542 343.048 255.542 343.048 254.334C343.048 252.174 342.857 250.013 342.476 247.852C342.285 246.772 340.633 247.09 340.633 248.106C340.569 250.14 340.315 252.364 340.569 254.398C340.696 255.351 341.141 256.241 342.222 256.432C345.399 257.067 344.446 250.839 344.192 249.314C344.001 248.106 343.81 246.263 342.666 245.564C341.713 244.992 340.696 245.564 340.124 246.454C338.536 249.123 339.425 253.063 340.887 255.478C341.332 256.622 342.984 255.669 342.349 254.589Z" fill="#161616"/>
<path d="M303.582 263.804C304.79 263.804 304.79 261.897 303.582 261.897C302.375 261.897 302.375 263.804 303.582 263.804Z" fill="#161616"/>
<path d="M311.081 265.202C311.145 265.202 311.208 265.202 311.335 265.202C311.844 265.202 312.289 264.757 312.289 264.249C312.289 263.74 311.844 263.295 311.335 263.295C311.272 263.295 311.208 263.295 311.081 263.295C310.573 263.295 310.128 263.74 310.128 264.249C310.128 264.757 310.509 265.202 311.081 265.202Z" fill="#161616"/>
<path d="M306.633 271.049C307.84 271.049 307.84 269.142 306.633 269.142C305.425 269.142 305.362 271.049 306.633 271.049Z" fill="#161616"/>
<path d="M342.73 262.85C342.794 262.85 342.857 262.85 342.984 262.85C343.493 262.85 343.938 262.406 343.938 261.897C343.938 261.389 343.493 260.944 342.984 260.944C342.921 260.944 342.857 260.944 342.73 260.944C342.222 260.944 341.777 261.389 341.777 261.897C341.777 262.406 342.158 262.85 342.73 262.85Z" fill="#161616"/>
<path d="M349.721 258.148C350.928 258.148 350.928 256.241 349.721 256.241C348.513 256.241 348.513 258.148 349.721 258.148Z" fill="#161616"/>
<path d="M348.767 263.295C348.831 263.295 348.895 263.295 349.022 263.295C349.53 263.295 349.975 262.85 349.975 262.342C349.975 261.834 349.53 261.389 349.022 261.389C348.958 261.389 348.895 261.389 348.767 261.389C348.259 261.389 347.814 261.834 347.814 262.342C347.878 262.85 348.259 263.295 348.767 263.295Z" fill="#161616"/>
<path d="M318.517 289.415C317.5 287.953 315.848 285.856 316.547 283.95C317.373 281.789 319.979 282.107 321.694 282.361C323.792 282.679 325.508 283.06 327.541 282.424C329.194 281.916 330.655 280.836 332.181 280.009C335.803 277.976 340.061 277.785 341.205 282.552C344.446 295.58 321.44 299.266 317.881 287.826C317.5 286.682 315.657 287.127 316.038 288.335C320.423 302.38 347.624 297.168 342.857 281.598C342.031 278.993 340.061 276.768 337.265 276.451C332.689 276.006 329.702 280.581 325.317 280.899C322.076 281.153 318.136 278.675 315.53 281.725C313.178 284.458 315.085 287.953 316.801 290.368C317.564 291.385 319.216 290.432 318.517 289.415Z" fill="#161616"/>
<path d="M314.831 285.793C316.229 289.669 323.22 288.462 326.27 288.017C332.117 287.127 337.455 284.585 341.967 280.836C342.921 280.073 341.586 278.675 340.633 279.501C337.328 282.297 333.515 284.331 329.321 285.475C327.478 285.983 317.754 288.144 316.737 285.348C316.229 284.14 314.386 284.649 314.831 285.793Z" fill="#161616"/>
<path d="M326.143 313.692C333.579 315.599 343.493 310.896 347.687 304.731C348.386 303.714 346.734 302.761 346.035 303.778C342.349 309.18 333.134 313.501 326.651 311.849C325.444 311.531 324.936 313.374 326.143 313.692Z" fill="#161616"/>
<path d="M326.842 314.264C333.452 318.395 344.319 312.548 347.496 306.256C348.068 305.176 346.416 304.223 345.844 305.303C343.175 310.641 333.452 316.171 327.795 312.675C326.715 311.976 325.762 313.628 326.842 314.264Z" fill="#161616"/>
<path opacity="0.2" d="M353.216 246.899C353.661 249.187 354.233 252.809 354.614 257.194C355.504 268.888 357.029 288.462 345.209 301.49C342.667 304.286 337.265 309.243 327.287 312.04C330.465 311.913 334.341 311.531 338.536 310.451C340.633 309.942 342.539 309.307 344.255 308.608C344.51 314.264 344.7 319.92 344.954 325.576C347.115 324.178 349.212 322.843 351.373 321.445C348.45 314.963 348.45 309.942 348.831 306.765C349.403 302.316 351.055 298.694 352.708 295.071C354.169 291.894 355.695 289.352 356.902 287.572C357.029 288.907 357.347 290.305 358.237 291.64C362.113 297.423 374.252 297.995 381.878 293.038C388.932 288.462 392.364 279.183 390.585 269.651C391.792 270.667 393.063 271.875 394.271 273.337C395.224 274.48 397.702 277.785 401.134 289.415C402.215 293.038 402.723 294.881 403.041 296.724C403.422 299.266 404.121 304.096 402.787 309.561C400.499 318.967 393.699 324.369 391.665 325.894C390.203 326.974 385.755 330.215 379.082 331.741C375.904 332.44 366.371 334.728 357.411 329.516C354.042 327.546 352.199 326.085 351.182 324.305C350.102 322.335 349.975 320.492 349.848 319.094C349.276 310.387 349.022 306.002 349.594 303.015C351.31 294.372 355.186 293.483 357.347 283.632C358.11 280.073 358.3 277.086 358.364 275.18C359.19 275.307 360.461 275.434 361.986 275.052C365.164 274.226 366.753 271.621 367.325 270.667C369.613 267.045 370.629 260.563 367.07 257.576C366.562 257.131 364.783 255.796 361.351 256.05C358.745 253 356.012 249.949 353.216 246.899Z" fill="#3F3F3F"/>
<path opacity="0.13" d="M323.093 267.49C326.334 268.443 329.638 269.46 332.88 270.413C332.053 271.176 331.227 271.875 330.337 272.637C329.511 273.337 328.749 273.908 327.922 274.544C326.906 273.781 325.444 272.447 324.3 270.413C323.664 269.333 323.283 268.316 323.093 267.49Z" fill="#3F3F3F"/>
<path opacity="0.16" d="M272.124 275.434C265.197 299.901 270.345 319.666 280.703 323.987C288.838 327.356 303.519 322.589 306.251 314.264C306.633 313.184 307.014 311.277 305.552 305.43C304.281 300.283 301.676 292.529 295.829 283.696C294.812 283.06 293.477 282.043 292.206 280.518C289.982 277.785 289.347 274.862 289.156 273.464C290.999 275.37 293.668 277.785 295.384 277.023C297.036 276.26 298.053 273.972 297.481 271.684C298.053 274.608 298.943 278.611 300.595 283.251C302.756 289.415 304.917 295.389 309.937 301.045C312.225 303.651 316.737 307.909 324.364 310.959C325.635 312.548 327.986 315.98 328.749 321C328.876 321.763 329.321 325.258 328.177 329.644C327.922 330.66 326.397 336.189 321.377 340.956C315.53 346.548 308.539 347.565 306.251 347.883C289.029 350.171 275.683 335.109 273.331 332.503C270.98 329.834 267.103 325.386 264.879 318.522C261.32 307.591 264.053 297.74 266.023 290.559C267.866 283.823 270.345 278.738 272.124 275.434Z" fill="#3F3F3F"/>
</svg>
