<svg width="728" height="551" viewBox="0 0 728 551" fill="none" xmlns="http://www.w3.org/2000/svg">
<path d="M23.1691 151.106C33.3812 142.787 47.2078 141.583 59.8296 143.877C73.312 146.287 85.5896 152.77 98.0393 158.22C110.891 163.9 123.971 167.974 138.085 168.662C152.141 169.408 166.197 167.4 179.851 163.958C208.365 156.786 234.527 143.017 261.893 132.633C275.605 127.412 289.776 122.879 304.348 120.814C312.266 119.667 320.24 119.38 328.215 120.24C335.788 121.043 343.189 122.822 350.59 124.658C366.941 128.731 383.235 132.288 399.987 134.296C417.256 136.362 434.697 137.05 452.081 136.477C453.171 136.419 453.171 134.698 452.081 134.755C420.526 135.903 388.972 132.518 358.335 124.887C343.705 121.216 329.19 117.429 313.987 118.175C299.242 118.921 284.67 122.822 270.786 127.584C242.96 137.165 216.799 151.221 188.572 159.769C174.229 164.072 159.37 167.056 144.338 167.113C129.077 167.17 114.734 163.613 100.793 157.532C87.0239 151.565 73.5415 144.164 58.5675 141.869C45.8309 139.919 32.2338 141.468 21.9642 149.844C21.1037 150.59 22.3085 151.852 23.1691 151.106Z" fill="#E8E8E8"/>
<path d="M332.174 98.6682C371.932 115.822 417.084 112.954 457.761 100.504C479.791 93.7342 501.707 84.6695 525.172 84.7269C548.81 84.7842 571.242 93.0458 594.363 96.7176C615.361 100.045 638.482 99.6435 656.497 87.0217C657.414 86.3906 656.554 84.899 655.636 85.5301C638.998 97.1765 617.885 98.2092 598.379 95.5701C576.291 92.5868 555.063 84.899 532.745 83.2926C510.428 81.6862 489.372 88.3987 468.432 95.2833C447.548 102.111 426.436 107.446 404.462 108.708C380.136 110.143 355.524 106.872 333.092 97.1765C332.059 96.7176 331.198 98.2092 332.174 98.6682Z" fill="#E8E8E8"/>
<path d="M1.25302 241.696C13.8174 232.746 28.6767 227.238 44.0524 225.747C51.7402 225.001 59.4854 225.288 67.0585 226.607C74.9184 227.984 82.4915 230.623 90.0072 233.262C103.949 238.082 117.775 241.753 132.462 238.369C145.142 235.443 156.616 228.845 167.861 222.591C181.114 215.19 194.883 207.617 210.259 206.24C211.349 206.126 211.349 204.404 210.259 204.519C182.835 206.986 162.238 227.583 136.65 235.443C130.167 237.451 123.398 238.483 116.628 238.082C108.309 237.565 100.219 234.984 92.4168 232.287C84.5569 229.591 76.697 226.665 68.4354 225.116C61.3213 223.796 54.0351 223.394 46.8636 223.853C30.2258 224.886 13.9896 230.566 0.392443 240.262C-0.525506 240.836 0.335071 242.327 1.25302 241.696Z" fill="#E8E8E8"/>
<path d="M153.346 263.727C175.663 240.147 208.48 230.509 240.207 230.222C258.623 230.05 276.982 232.689 294.939 236.533C312.036 240.147 328.617 244.852 346.287 242.499C364.761 240.032 382.03 232.115 398.553 223.796C399.528 223.28 398.668 221.788 397.692 222.305C381.972 230.222 365.621 237.738 348.123 240.491C339.173 241.868 330.166 241.754 321.216 240.319C312.151 238.885 303.316 236.475 294.308 234.582C261.492 227.698 226.552 224.772 194.309 235.959C178.417 241.467 163.73 250.245 152.141 262.465C151.395 263.325 152.6 264.53 153.346 263.727Z" fill="#E8E8E8"/>
<path d="M419.264 280.881C428.616 284.152 438.197 281.111 446.745 277.037C456.326 272.448 465.334 266.768 475.144 262.694C484.955 258.621 495.511 255.867 506.182 257.187C515.936 258.392 524.943 262.752 533.491 267.399C541.581 271.817 549.555 276.636 558.161 280.021C567.742 283.75 578.069 285.528 588.339 285.299C609.394 284.84 627.294 274.341 646.514 267.227C664.471 260.572 688.395 257.588 702.796 273.193C703.541 273.997 704.746 272.792 704 271.989C692.698 259.768 674.683 258.392 659.193 261.662C638.998 265.907 621.557 278.242 601.247 282.201C590.404 284.324 579.045 284.037 568.316 281.455C558.333 279.045 549.383 274.341 540.433 269.35C532.344 264.817 524.14 260.113 515.247 257.416C506.01 254.605 496.372 254.548 487.02 256.843C475.603 259.654 465.104 265.219 454.835 270.841C444.221 276.578 431.943 283.578 419.608 279.275C418.69 278.873 418.231 280.537 419.264 280.881Z" fill="#E8E8E8"/>
<path d="M570.324 308.534C594.076 309.969 613.64 293.847 636.072 288.971C642.039 287.651 648.35 287.077 654.431 288.11C659.881 289.028 664.815 291.265 669.52 294.134C677.609 299.068 685.469 305.436 695.337 306.125C707.328 306.928 717.942 299.47 726.892 292.47C727.752 291.782 726.548 290.577 725.687 291.265C716.966 298.035 706.525 305.436 694.821 304.346C684.666 303.428 676.634 296.085 668.086 291.323C648.407 280.307 627.352 288.971 608.476 297.289C596.371 302.568 583.806 307.674 570.381 306.871C569.234 306.756 569.234 308.477 570.324 308.534Z" fill="#E8E8E8"/>
<path d="M28.7915 418.229C37.1104 410.312 49.4454 407.214 60.5181 410.255C72.1072 413.41 79.5656 423.393 88.8598 430.277C107.391 443.989 132.634 441.809 153.001 433.72C177.04 424.196 197.063 406.984 221.044 397.289C232.748 392.527 245.427 389.486 258.164 390.347C270.556 391.207 281.113 396.543 290.923 403.772C300.677 410.943 309.856 419.434 321.273 423.966C333.493 428.786 347.262 427.753 358.737 421.385C359.712 420.868 358.852 419.377 357.876 419.893C346.172 426.376 332.174 426.95 319.953 421.557C309.741 417.025 301.365 409.451 292.472 402.796C283.35 395.969 273.654 390.633 262.18 389.027C250.361 387.421 238.313 389.429 227.126 393.158C202.628 401.362 182.433 418.287 159.198 429.13C137.741 439.17 110.145 443.875 89.7777 428.786C79.6229 421.27 71.6482 410.541 58.5675 408.017C47.4947 405.894 35.7335 409.222 27.5867 417.024C26.7835 417.77 27.9883 419.033 28.7915 418.229Z" fill="#E8E8E8"/>
<path d="M249.214 450.243C258.68 444.104 269.925 441.178 281.227 442.096C291.554 442.957 301.308 446.8 310.774 450.644C319.953 454.374 329.248 458.275 339.116 459.881C349.443 461.545 359.884 460.283 369.81 457.242C381.686 453.57 392.701 447.718 403.544 441.809C404.52 441.293 403.659 439.801 402.684 440.317C382.833 451.046 361.032 462.348 337.739 457.873C318.29 454.144 301.193 442.096 281.17 440.375C269.581 439.399 257.992 442.44 248.296 448.751C247.435 449.382 248.296 450.874 249.214 450.243Z" fill="#E8E8E8"/>
<path d="M465.793 489.141C478.3 477.437 493.675 469.003 510.256 464.701C518.689 462.52 527.353 461.43 536.073 461.488C545.769 461.602 555.407 463.151 565.046 464.069C583.749 465.848 601.706 462.693 619.205 455.865C635.9 449.382 651.62 438.137 669.577 435.384C690.575 432.171 706.812 446.112 720.179 460.398C720.925 461.201 722.13 459.996 721.384 459.193C710.369 447.432 697.403 435.269 680.65 433.376C662.291 431.31 645.596 442.096 629.647 449.497C611.288 458.045 591.494 463.897 571.127 462.75C560.972 462.176 550.932 460.34 540.72 459.824C532.057 459.365 523.337 459.996 514.846 461.775C496.085 465.618 478.587 474.683 464.588 487.821C463.785 488.682 464.989 489.887 465.793 489.141Z" fill="#E8E8E8"/>
<path d="M129.881 126.608C145.945 139.058 166.885 133.55 184.384 127.813C206.07 120.642 228.044 116.109 250.993 115.65C252.083 115.65 252.083 113.929 250.993 113.929C229.88 114.331 209.054 117.945 188.974 124.486C170.787 130.395 148.182 138.714 131.085 125.404C130.225 124.715 129.02 125.92 129.881 126.608Z" fill="#161616"/>
<path d="M284.555 22.3064C303.947 20.8722 322.65 15.4792 341.411 10.9468C360.917 6.18497 380.481 3.02952 400.618 5.20965C420.928 7.38978 440.606 13.5286 460.514 17.8888C479.677 22.1343 499.126 24.085 518.747 23.1097C540.835 22.0196 562.636 17.3725 583.233 9.45516C584.265 9.05356 583.806 7.38978 582.774 7.79138C545.31 22.1917 504.404 25.2324 465.162 17.0856C445.598 13.0122 426.436 7.04555 406.642 4.17696C387.537 1.42311 368.892 2.97215 350.074 7.10292C328.272 11.8648 306.873 18.8641 284.555 20.5279C283.465 20.7 283.465 22.4212 284.555 22.3064Z" fill="#161616"/>
<path d="M595.051 166.08C611.804 159.884 629.188 168.719 645.94 170.326C654.947 171.186 663.897 170.326 672.675 168.26C681.281 166.195 689.657 163.154 698.435 161.835C707.844 160.4 717.884 160.974 726.031 166.31C726.949 166.941 727.81 165.449 726.892 164.818C712.434 155.409 694.764 160.458 679.503 164.703C669.922 167.4 660.34 169.35 650.358 168.949C640.834 168.605 631.712 165.965 622.418 164.015C613.181 162.122 603.657 161.089 594.65 164.416C593.56 164.761 594.019 166.424 595.051 166.08Z" fill="#161616"/>
<path d="M10.2604 340.146C24.8328 327.18 45.3719 338.655 61.5508 341.122C80.254 343.99 98.9572 338.827 116.8 333.835C117.89 333.548 117.431 331.885 116.341 332.172C96.605 337.679 76.1806 343.13 55.6989 338.253C40.7248 334.696 22.4232 327.123 8.99821 338.941C8.195 339.63 9.39981 340.835 10.2604 340.146Z" fill="#161616"/>
<path d="M193.735 501.246C198.383 495.739 205.554 492.755 212.783 493.673C216.914 494.19 220.7 496.083 224.487 497.747C227.642 499.124 230.855 500.271 234.125 501.189C248.181 505.09 263.27 504.517 276.982 499.697C278.015 499.353 277.556 497.689 276.523 498.034C261.147 503.369 244.165 503.369 228.847 497.632C222.192 495.165 215.996 491.206 208.595 491.78C202.341 492.239 196.547 495.222 192.473 499.984C191.785 500.902 193.047 502.107 193.735 501.246Z" fill="#161616"/>
<path d="M291.382 496.542C301.824 493.501 312.552 492.01 323.453 492.067C324.543 492.067 324.543 490.346 323.453 490.346C312.438 490.288 301.537 491.837 290.923 494.878C289.891 495.222 290.292 496.886 291.382 496.542Z" fill="#161616"/>
<path d="M305.037 50.5908C315.192 58.3934 324.887 66.7697 334.182 75.6623C334.985 76.4082 336.19 75.2034 335.386 74.4575C326.035 65.5075 316.167 57.0739 305.897 49.1566C305.037 48.4107 304.176 49.9024 305.037 50.5908Z" fill="#161616"/>
<path d="M205.554 80.8256C206.529 75.4326 207.562 70.0397 208.537 64.5893C208.767 63.4993 207.103 63.0403 206.874 64.1304C205.898 69.5233 204.866 74.9163 203.89 80.3666C203.718 81.4567 205.382 81.9156 205.554 80.8256Z" fill="#161616"/>
<circle cx="536.36" cy="111.692" r="3.32757" fill="#EC615B"/>
<circle cx="101.596" cy="385.872" r="3.95866" fill="#EC615B"/>
<circle cx="82.4341" cy="22.1343" r="9.06475" fill="#EC615B"/>
<circle cx="100.621" cy="36.9362" r="3.04071" fill="#EC615B"/>
<circle cx="274.343" cy="543.529" r="6.76987" fill="#EC615B"/>
<circle cx="588.97" cy="37.0511" r="5.96667" fill="#EC615B"/>
<circle cx="596.6" cy="26.2077" r="3.6718" fill="#EC615B"/>
<circle cx="91.5562" cy="12.6106" r="9.06475" fill="#5222D0"/>
<circle cx="87.0239" cy="390.633" r="4.53237" fill="#5222D0"/>
<circle cx="246.345" cy="533.145" r="4.01603" fill="#5222D0"/>
<circle cx="566.939" cy="13.0122" r="9.52372" fill="#5222D0"/>
<circle cx="410.142" cy="164.703" r="2.06539" fill="#5222D0"/>
<path d="M388.972 43.8209C387.767 46.6321 386.62 49.5007 385.415 52.3119C385.013 53.3446 386.677 53.8036 387.078 52.7709C388.283 49.9597 389.431 47.0911 390.636 44.2798C391.037 43.2472 389.373 42.7882 388.972 43.8209Z" fill="#5222D0"/>
<path d="M388.685 45.198C390.808 47.4355 392.471 49.9598 393.562 52.8284C393.963 53.8611 395.627 53.4021 395.225 52.3694C393.963 49.214 392.185 46.4601 389.89 43.9932C389.144 43.1899 387.882 44.3948 388.685 45.198Z" fill="#5222D0"/>
<path d="M385.874 53.8035C387.537 56.9016 389.431 59.8276 391.553 62.5814C392.242 63.442 393.734 62.5814 393.045 61.7208C390.922 58.9096 389.029 55.9837 387.365 52.943C386.792 51.9676 385.357 52.8282 385.874 53.8035Z" fill="#5222D0"/>
<path d="M393.676 52.9432C392.988 56.156 392.357 59.3688 391.668 62.5817C391.439 63.6717 393.103 64.1307 393.332 63.0406C394.02 59.8278 394.652 56.615 395.34 53.4022C395.57 52.3695 393.906 51.9105 393.676 52.9432Z" fill="#5222D0"/>
<path d="M550.588 289.43C549.211 291.954 548.293 294.651 547.892 297.519C547.72 298.609 549.383 299.068 549.555 297.978C549.957 295.282 550.76 292.757 552.08 290.348C552.596 289.315 551.105 288.454 550.588 289.43Z" fill="#5222D0"/>
<path d="M550.473 289.946C551.621 292.987 552.94 295.913 554.432 298.724C554.948 299.699 556.44 298.838 555.924 297.863C554.489 295.167 553.227 292.355 552.137 289.487C551.736 288.454 550.072 288.913 550.473 289.946Z" fill="#5222D0"/>
<path d="M547.547 298.724C549.039 300.846 550.473 302.969 551.965 305.092C552.596 306.01 554.088 305.149 553.457 304.231C551.965 302.109 550.531 299.986 549.039 297.863C548.408 296.945 546.916 297.806 547.547 298.724Z" fill="#5222D0"/>
<path d="M553.801 298.437C552.596 300.101 552.022 301.994 552.022 304.002C552.022 305.092 553.744 305.092 553.744 304.002C553.744 302.281 554.26 300.674 555.293 299.297C555.924 298.38 554.432 297.519 553.801 298.437Z" fill="#5222D0"/>
<path d="M70.6729 451.849C69.1239 455.234 67.5748 458.562 66.0258 461.947C65.5668 462.922 67.0585 463.84 67.5175 462.807C69.0665 459.422 70.6155 456.095 72.1646 452.71C72.6236 451.734 71.1893 450.874 70.6729 451.849Z" fill="#5222D0"/>
<path d="M70.9598 452.308C72.4514 455.865 73.9431 459.422 75.4348 462.979C75.8364 464.012 77.5002 463.553 77.0986 462.52C75.6069 458.963 74.1152 455.406 72.6236 451.849C72.222 450.817 70.5582 451.275 70.9598 452.308Z" fill="#5222D0"/>
<path d="M65.6242 463.496C67.1732 466.536 68.6649 469.634 70.2139 472.675C70.5008 473.192 71.1893 473.192 71.5909 472.847C72.7957 471.872 73.3694 470.208 74.0005 468.889C74.9184 467.053 75.8364 465.217 76.7543 463.381C77.2707 462.406 75.779 461.545 75.2627 462.52C74.4595 464.127 73.5989 465.733 72.7957 467.34C72.1072 468.717 71.4761 470.61 70.2713 471.585C70.7303 471.642 71.1893 471.7 71.6482 471.757C70.0992 468.717 68.6075 465.618 67.0585 462.578C66.5995 461.66 65.1078 462.52 65.6242 463.496Z" fill="#5222D0"/>
<path d="M648.12 185.185C646.342 188.57 645.252 192.127 644.735 195.913C644.563 197.003 646.284 197.003 646.456 195.913C646.915 192.414 647.948 189.144 649.555 186.045C650.128 185.07 648.637 184.21 648.12 185.185Z" fill="#5222D0"/>
<path d="M647.891 187.193C649.669 190.635 651.39 194.078 653.169 197.52C653.685 198.495 655.177 197.635 654.661 196.659C652.882 193.217 651.161 189.775 649.382 186.332C648.866 185.357 647.374 186.218 647.891 187.193Z" fill="#5222D0"/>
<path d="M644.85 196.143C646.284 199.585 648.005 202.798 650.071 205.839C650.702 206.757 652.194 205.896 651.562 204.978C649.554 202.052 647.833 198.954 646.514 195.684C646.112 194.709 644.448 195.168 644.85 196.143Z" fill="#5222D0"/>
<path d="M652.653 196.889C651.62 200.102 650.759 203.372 650.186 206.757C650.013 207.847 651.677 208.306 651.849 207.216C652.423 203.888 653.226 200.618 654.316 197.348C654.661 196.315 652.997 195.856 652.653 196.889Z" fill="#5222D0"/>
<path d="M641.465 463.725C640.777 466.02 640.145 468.257 639.457 470.552C639.17 471.642 640.777 472.044 641.121 471.011C641.809 468.716 642.44 466.479 643.129 464.184C643.473 463.094 641.809 462.635 641.465 463.725Z" fill="#5222D0"/>
<path d="M641.35 464.987C642.383 467.282 643.473 469.577 644.506 471.815C644.965 472.847 646.456 471.929 645.997 470.954C644.965 468.659 643.875 466.364 642.842 464.127C642.383 463.094 640.891 463.955 641.35 464.987Z" fill="#5222D0"/>
<path d="M639.916 471.643C640.432 474.339 641.695 476.749 643.473 478.814C644.219 479.675 645.424 478.412 644.678 477.609C643.071 475.773 642.039 473.593 641.58 471.241C641.35 470.094 639.687 470.553 639.916 471.643Z" fill="#5222D0"/>
<path d="M644.448 471.413C643.703 473.823 643.358 476.29 643.416 478.757C643.473 479.847 645.194 479.847 645.137 478.757C645.08 476.405 645.366 474.11 646.112 471.872C646.456 470.839 644.793 470.38 644.448 471.413Z" fill="#5222D0"/>
<path d="M49.0437 161.031C47.7816 163.785 46.5767 166.539 45.3146 169.293C44.8556 170.268 46.3473 171.186 46.8062 170.153C48.0684 167.4 49.2732 164.646 50.5354 161.892C50.9944 160.917 49.5027 159.999 49.0437 161.031Z" fill="#5222D0"/>
<path d="M45.5441 170.727C46.8636 174.112 48.1258 177.44 49.4453 180.825C49.8469 181.857 51.5107 181.399 51.1091 180.366C49.7896 176.981 48.5274 173.653 47.2078 170.268C46.8062 169.236 45.1425 169.695 45.5441 170.727Z" fill="#5222D0"/>
<path d="M49.0437 161.146C50.8223 164.244 52.6008 167.4 54.3793 170.498C54.953 171.473 56.3873 170.613 55.871 169.637C54.0925 166.539 52.3139 163.384 50.5354 160.286C49.9617 159.31 48.47 160.171 49.0437 161.146Z" fill="#5222D0"/>
<path d="M54.7809 169.752C52.945 173.194 51.3386 176.751 49.9617 180.366C49.5601 181.399 51.2239 181.857 51.6255 180.825C52.945 177.325 54.4941 173.883 56.2726 170.613C56.7889 169.637 55.2973 168.777 54.7809 169.752Z" fill="#5222D0"/>
<path d="M481.512 213.928C482.66 211.748 484.84 210.257 487.364 210.371C489.43 210.429 490.979 211.863 492.815 212.551C496.028 213.699 497.003 211.634 499.412 210.084C502.683 207.904 505.838 212.781 509.338 212.724C511.346 212.666 513.01 211.691 513.067 209.568C512.608 209.798 512.206 210.084 511.747 210.314C513.526 211.232 515.304 212.15 517.026 213.125C518.001 213.642 518.862 212.15 517.886 211.634C516.108 210.716 514.329 209.798 512.608 208.822C512.034 208.535 511.346 208.88 511.288 209.568C511.116 213.642 503.199 207.847 501.707 207.675C498.322 207.216 497.003 211.404 494.077 210.945C490.979 210.429 489.028 208.191 485.701 208.765C483.176 209.224 481.111 210.773 479.963 213.068C479.562 214.043 480.996 214.904 481.512 213.928Z" fill="#5222D0"/>
<path d="M503.486 202.282C506.068 199.413 510.141 203.028 513.067 203.372C516.452 203.773 519.091 200.159 522.361 201.995C525.058 203.544 529.992 207.216 531.942 202.511C532.344 201.479 530.68 201.02 530.279 202.052C528.902 205.38 523.968 200.733 522.304 200.044C520.066 199.069 518.575 199.872 516.567 200.848C514.157 201.995 512.436 201.593 510.141 200.561C509.108 200.102 508.076 199.7 506.928 199.528C505.15 199.298 503.543 199.643 502.281 201.02C501.535 201.88 502.74 203.085 503.486 202.282Z" fill="#5222D0"/>
<path d="M456.9 66.9416C457.703 65.45 458.621 65.0484 459.654 65.7368C460.113 65.9089 460.572 66.1384 461.031 66.4253C461.547 66.6548 462.063 66.999 462.58 67.1711C463.498 67.458 464.416 67.5727 465.334 67.3432C467.801 66.6548 469.063 63.5567 471.702 63.6141C474.169 63.6714 475.947 66.0237 478.529 64.8189C479.619 64.3025 480.365 63.3846 481.398 62.8109C483.693 61.5487 486.504 62.0077 488.454 63.6141C489.315 64.3025 490.52 63.0977 489.659 62.4093C487.078 60.2865 483.52 59.6554 480.537 61.3192C479.218 62.065 478.128 63.6714 476.406 63.442C475.431 63.3272 474.57 62.6387 473.653 62.2945C472.276 61.7782 471.013 61.6061 469.637 62.2371C467.915 63.0404 466.768 65.2779 464.875 65.6795C462.465 66.1958 460.859 63.7288 458.621 63.6714C456.498 63.6141 454.031 65.6795 455.466 67.8022C456.039 68.7202 457.531 67.8596 456.9 66.9416Z" fill="#EC615B"/>
<path d="M475.947 56.7869C476.636 53.0577 483.119 56.6722 485.414 56.2706C486.905 56.0411 487.996 55.0084 489.372 54.492C491.553 53.6315 493.675 53.9757 495.683 55.1805C496.659 55.7542 497.519 54.2626 496.544 53.6888C494.823 52.6561 492.987 52.1398 491.036 52.3119C490.176 52.3693 489.372 52.5988 488.627 52.8856C486.332 53.861 485.414 54.951 482.545 54.2626C479.791 53.5741 475.087 52.1972 474.341 56.3279C474.054 57.418 475.718 57.877 475.947 56.7869Z" fill="#EC615B"/>
<path d="M41.5854 264.129C42.3312 260.514 47.3226 265.448 48.2979 266.079C49.388 266.825 50.5928 267.342 51.9123 267.055C53.6335 266.768 54.953 265.334 56.7316 264.932C59.6002 264.301 62.4687 265.219 64.5341 267.284C65.3373 268.087 66.5421 266.825 65.7389 266.079C63.9604 264.301 61.7803 263.211 59.2559 263.039C57.9937 262.924 56.7316 263.096 55.5268 263.498C53.6335 264.129 52.1418 265.965 49.8469 265.047C47.4373 264.071 46.5194 261.604 43.7655 261.318C41.987 261.145 40.3232 261.834 39.979 263.67C39.6921 264.76 41.3559 265.219 41.5854 264.129Z" fill="#EC615B"/>
<path d="M60.6902 259.998C61.9524 258.277 67.747 261.719 69.4107 262.121C72.1072 262.752 74.8611 262.752 77.6149 262.408C78.705 262.235 78.246 260.572 77.1559 260.744C72.3941 261.375 68.7223 260.113 64.4194 258.392C62.4688 257.646 60.5181 257.359 59.1986 259.137C58.5675 259.998 60.0591 260.859 60.6902 259.998Z" fill="#EC615B"/>
<path d="M200.563 380.249C201.481 378.815 202.915 377.897 204.693 377.897C206.185 377.897 207.103 378.815 208.423 379.216C209.742 379.675 210.832 379.389 211.98 378.643C214.217 377.151 215.307 375.315 218.348 375.43C221.102 375.487 223.741 376.807 226.151 378.012C227.126 378.528 227.986 377.036 227.011 376.52C222.479 374.225 216.971 372.045 212.611 375.774C211.635 376.577 211.521 376.807 210.029 377.094C208.365 377.438 208.537 377.208 207.275 376.692C206.185 376.233 205.152 376.061 203.948 376.176C201.825 376.405 200.161 377.61 199.071 379.331C198.497 380.306 199.989 381.167 200.563 380.249Z" fill="#EC615B"/>
<path d="M219.668 383.577C222.364 381.225 227.47 386.159 230.798 385.7C232.806 385.413 233.724 383.921 235.043 382.544C237.568 379.848 241.354 379.446 244.452 381.454C245.37 382.028 246.231 380.594 245.313 379.963C243.075 378.528 240.436 378.069 237.854 378.815C236.707 379.159 235.674 379.676 234.756 380.421C233.379 381.569 232.519 383.634 230.568 383.979C226.38 384.724 222.421 378.872 218.463 382.372C217.659 383.118 218.864 384.323 219.668 383.577Z" fill="#EC615B"/>
<path d="M141.412 15.5939C141.871 13.7006 142.961 12.2089 144.797 11.4057C146.404 10.7173 147.723 11.1763 149.387 11.1189C151.223 11.0041 152.6 10.0862 153.69 8.70927C155.354 6.64388 156.444 4.52113 158.796 3.1442C161.492 1.59516 164.591 1.3083 167.574 2.22625C168.664 2.57048 169.066 0.906701 168.033 0.56247C162.525 -1.10131 157.075 1.02144 153.747 5.66856C152.428 7.50446 151.452 9.34036 148.928 9.39773C147.379 9.4551 146.059 9.11087 144.568 9.62722C142.043 10.4878 140.322 12.6106 139.749 15.1349C139.462 16.225 141.125 16.684 141.412 15.5939Z" fill="#EC615B"/>
<path d="M149.502 22.1917C147.035 15.6513 158.853 15.9955 162.41 14.7333C166.828 13.1843 170.615 10.4305 174.344 7.67662C175.204 7.04553 174.344 5.55386 173.483 6.18495C170.959 8.07822 168.377 9.91412 165.623 11.4058C162.181 13.2417 158.911 13.8154 155.182 14.3891C151.223 15.0202 146.059 17.7741 147.895 22.5933C148.24 23.626 149.903 23.2244 149.502 22.1917Z" fill="#EC615B"/>
<path d="M378.301 351.104C382.661 339.687 390.062 332.229 397.692 324.484C407.732 314.329 426.378 295.453 445.368 298.437C461.547 300.961 459.769 316.509 481.971 327.811C502.912 338.54 510.944 327.926 531.828 339.458C534.926 341.179 556.784 353.628 561.776 377.151C563.841 386.904 563.325 400.272 559.022 401.534C554.145 402.968 552.481 374.856 532.975 363.841C518.058 355.407 497.519 359.48 495.855 365.504C494.077 371.873 514.673 376.061 526.32 398.206C531.426 407.845 532.516 416.623 534.065 428.671C535.499 440.03 537.106 463.323 531.828 464.7C527.467 465.848 525.115 450.3 509.108 437.563C500.675 430.851 491.667 428.097 473.653 422.589C457.416 417.655 449.212 415.246 444.795 419.262C438.254 425.228 443.303 440.375 444.221 443.071C450.646 462.348 467.055 470.38 465.85 472.445C464.244 475.027 434.295 467.569 409.855 443.645C388.972 423.163 365.621 384.208 378.301 351.104Z" fill="#EC615B"/>
<path d="M565.62 417.598C565.39 419.204 564.185 428.154 569.463 433.892C575.315 440.202 582.429 435.383 589.601 441.637C596.199 447.374 595.338 455.98 597.346 455.808C599.641 455.636 603.141 443.989 598.207 436.932C596.658 434.695 592.871 432.687 585.355 428.785C577.668 424.769 576.635 424.942 574.627 422.761C569.636 417.369 570.381 410.312 568.603 410.312C567.226 410.312 566.021 414.557 565.62 417.598Z" fill="#EC615B"/>
<path d="M516.28 484.953C513.067 489.772 513.411 494.935 513.698 500.386C514.042 505.951 514.272 510.483 517.542 514.557C521.271 519.204 527.467 521.154 528.27 520.122C528.902 519.318 526.09 517.138 523.566 512.376C523.279 511.803 519.55 504.746 519.722 496.484C519.894 486.158 525.976 480.019 524.427 478.929C523.279 478.068 518.862 481.051 516.28 484.953Z" fill="#EC615B"/>
<path d="M539.286 389.83C548.924 396.198 543.646 410.943 549.957 419.549C550.588 420.409 552.08 419.549 551.449 418.688C544.908 409.738 550.473 395.166 540.146 388.339C539.229 387.707 538.368 389.199 539.286 389.83Z" fill="#EC615B"/>
<path d="M535.844 348.293C546.171 356.21 553.342 367.512 556.211 380.191C556.44 381.282 558.104 380.823 557.874 379.733C554.891 366.594 547.433 355.005 536.762 346.858C535.786 346.113 534.926 347.604 535.844 348.293Z" fill="#5222D0"/>
<path d="M502.568 380.077C510.829 386.847 517.312 395.51 521.328 405.435C521.73 406.468 523.394 406.009 522.992 404.976C518.804 394.764 512.321 385.871 503.773 378.872C502.97 378.184 501.707 379.388 502.568 380.077Z" fill="#5222D0"/>
<path d="M525.345 414.901C526.894 419.032 527.926 423.22 528.328 427.581C528.443 428.671 530.164 428.671 530.049 427.581C529.59 423.048 528.557 418.688 526.951 414.442C526.664 413.41 525 413.869 525.345 414.901Z" fill="#5222D0"/>
<path d="M437.049 424.425C435.615 433.088 437.279 441.752 441.983 449.21C442.557 450.128 444.049 449.267 443.475 448.349C439.057 441.35 437.336 433.088 438.713 424.884C438.885 423.794 437.221 423.335 437.049 424.425Z" fill="#5222D0"/>
<path d="M444.278 453.914C446.344 457.701 448.983 461.086 452.138 464.012C452.941 464.758 454.146 463.553 453.343 462.807C450.302 459.938 447.778 456.668 445.77 453.054C445.253 452.078 443.762 452.939 444.278 453.914Z" fill="#5222D0"/>
<path d="M378.415 366.48C377.956 371.93 378.473 377.323 380.022 382.601C380.309 383.691 381.972 383.232 381.686 382.142C380.194 376.979 379.678 371.815 380.136 366.48C380.251 365.39 378.53 365.39 378.415 366.48Z" fill="#5222D0"/>
<path d="M381.743 388.453C382.661 392.928 384.325 397.059 386.734 400.96C387.308 401.878 388.8 401.018 388.226 400.1C385.931 396.313 384.325 392.354 383.407 387.994C383.177 386.962 381.513 387.42 381.743 388.453Z" fill="#5222D0"/>
<path d="M231.945 29.822C230.339 34.1823 228.388 40.1489 226.495 47.3778C224.544 54.8935 219.954 74.6868 220.413 100.734C220.872 125.862 225.806 144.336 230.339 160.802C237.395 186.504 246.001 204.978 251.107 215.707C251.107 215.707 267.343 250.072 294.251 286.905C299.013 293.388 305.094 301.592 305.094 301.592C309.512 307.502 313.298 312.436 315.937 315.993C318.06 318.402 320.757 321.099 324.256 323.68C330.797 328.557 337.28 331.024 341.812 332.286C349.27 325.918 356.729 319.492 364.187 313.124C367.572 316.337 371.014 319.492 374.399 322.705C379.104 317.886 383.292 314.042 386.562 311.231C400.79 298.896 412.552 292.585 415.305 291.093C417.658 289.831 419.666 288.856 421.043 288.225C418.92 283.979 416.797 279.734 414.674 275.431C418.117 272.447 422.075 269.292 426.493 266.194C432.46 262.006 438.197 258.621 443.418 255.982C443.36 251.162 442.729 243.876 439.574 235.844C437.221 229.82 434.41 225.747 433.205 224.026C419.952 204.921 459.023 257.588 407.962 184.726C388.169 156.499 378.301 142.328 373.768 136.476C359.597 117.945 348.467 105.266 340.55 96.2586C325.404 78.9897 318.577 72.564 313.069 67.8595C305.553 61.3191 297.234 54.2624 284.67 47.722C276.752 43.6486 270.212 41.4111 260.688 38.1409C248.927 34.1249 239.002 31.4858 231.945 29.822Z" fill="white"/>
<path d="M230.167 30.8546C217.717 69.2363 217.717 110.659 226.667 149.786C228.904 159.597 231.716 169.293 235.043 178.759C236.707 183.578 238.715 188.283 240.493 193.045C241.125 194.708 241.239 196.372 241.985 198.036C243.075 200.618 244.223 203.2 245.37 205.781C247.493 210.6 249.73 215.362 252.083 220.124C254.435 224.829 257.303 229.304 259.426 234.066C260.229 235.844 260.918 237.737 261.836 239.459C263.041 241.639 264.819 243.302 266.081 245.425C268.72 249.843 271.245 254.375 273.999 258.735C286.563 278.988 300.849 298.093 315.478 316.853C316.167 317.714 317.372 316.509 316.683 315.648C303.775 299.068 291.153 282.258 279.793 264.645C276.982 260.284 274.285 255.924 271.646 251.449C270.384 249.326 269.122 247.146 267.917 244.966C266.712 242.843 265.106 241.352 263.844 239.286C262.811 237.565 262.065 235.729 261.319 233.893C260.287 231.426 258.91 229.189 257.648 226.837C255.238 222.419 253.001 217.944 250.878 213.412C248.64 208.65 246.518 203.831 244.395 199.011C243.477 196.889 243.133 194.651 242.272 192.471C241.354 190.119 240.379 187.767 239.461 185.357C235.961 176.12 232.92 166.711 230.396 157.13C225.347 137.738 222.421 117.83 222.135 97.7501C221.848 75.203 224.946 52.6559 231.945 31.1415C232.117 30.2809 230.453 29.8219 230.167 30.8546Z" fill="black"/>
<path d="M230.97 30.8547C240.551 31.6005 250.304 34.9281 259.311 38.0835C268.204 41.239 276.982 44.6813 285.129 49.3858C301.365 58.7948 315.708 71.1297 328.789 84.5547C342.271 98.3813 354.549 113.585 366.425 128.788C378.243 143.935 389.545 159.597 400.446 175.432C412.494 193.045 424.083 211.002 435.443 229.132C436.017 230.05 437.508 229.189 436.935 228.271C416.109 195.168 394.594 162.466 370.67 131.485C347.549 101.479 322.765 70.8428 290.292 50.4759C281.457 44.9108 271.991 40.8948 262.237 37.2803C252.369 33.6659 241.584 29.9367 231.027 29.0762C229.88 29.0762 229.88 30.7973 230.97 30.8547Z" fill="black"/>
<path d="M317.945 316.337C344.681 289.085 374.744 265.161 407.273 245.196C416.453 239.573 425.747 234.295 435.271 229.361C436.246 228.845 435.386 227.353 434.41 227.87C400.618 245.54 368.949 267.284 340.435 292.585C332.288 299.814 324.371 307.329 316.741 315.132C315.937 315.935 317.142 317.14 317.945 316.337Z" fill="black"/>
<path d="M316.282 317.656C323.109 325.287 332.002 330.68 341.927 333.089C343.017 333.376 343.476 331.712 342.386 331.426C332.69 329.016 324.142 323.853 317.486 316.394C316.741 315.591 315.536 316.853 316.282 317.656Z" fill="black"/>
<path d="M434.984 229.82C439.459 237.68 442.041 246.343 442.614 255.351C442.672 256.441 444.393 256.441 444.336 255.351C443.762 245.999 441.065 237.106 436.476 228.96C435.959 227.984 434.468 228.845 434.984 229.82Z" fill="black"/>
<path d="M342.96 332.63C373.998 304.289 407.618 278.93 443.475 256.957C444.393 256.383 443.532 254.892 442.614 255.465C406.7 277.496 372.908 302.969 341.755 331.425C340.952 332.171 342.156 333.376 342.96 332.63Z" fill="black"/>
<path d="M364.589 314.157C367.744 317.255 370.9 320.353 374.055 323.508C374.399 323.852 374.973 323.852 375.26 323.508C384.554 313.64 394.996 304.92 406.413 297.633C409.167 295.855 411.978 294.191 414.846 292.585C416.682 291.552 420.182 290.577 421.272 288.626C422.42 286.675 420.698 284.036 419.78 282.373C418.174 279.447 416.281 276.75 414.215 274.226C413.527 273.365 412.322 274.57 413.011 275.431C415.019 277.898 416.797 280.479 418.289 283.233C418.633 283.807 419.379 284.782 419.436 285.471C419.207 286.503 418.977 287.479 418.748 288.511C418.461 288.683 418.174 288.798 417.887 288.97C416.74 289.831 415.248 290.347 413.986 291.093C408.995 293.904 404.118 296.945 399.413 300.215C390.234 306.698 381.743 314.099 374.055 322.246C374.457 322.246 374.858 322.246 375.26 322.246C372.104 319.148 368.949 316.05 365.794 312.894C364.99 312.149 363.786 313.353 364.589 314.157Z" fill="black"/>
<path d="M234.24 172.735C248.353 156.097 264.876 141.697 281.801 127.985C298.783 114.273 316.569 101.422 336.477 92.2998C337.509 91.8408 336.591 90.3491 335.616 90.8081C315.88 99.8155 298.267 112.552 281.4 126.092C264.188 139.976 247.378 154.606 233.035 171.473C232.289 172.391 233.494 173.596 234.24 172.735Z" fill="black"/>
<path d="M336.821 100.332C334.927 100.447 334.124 97.2913 336.247 97.1192C336.993 97.0618 337.853 97.4061 338.14 98.1519C338.542 99.242 337.509 100.389 336.419 100.389C335.616 100.389 335.559 101.709 336.419 101.709C338.198 101.709 339.747 100.045 339.46 98.2667C339.23 96.775 337.681 95.857 336.247 95.9144C334.698 96.0292 333.493 97.2913 333.665 98.8404C333.837 100.389 335.214 101.824 336.821 101.709C337.681 101.594 337.681 100.275 336.821 100.332Z" fill="black"/>
<path d="M424.428 227.238C424.485 227.238 424.485 227.238 424.542 227.181C424.37 227.181 424.198 227.124 424.026 227.124C424.657 227.41 424.313 226.206 424.255 226.033C424.255 225.861 424.313 225.632 424.37 225.46C424.542 225.116 424.829 224.771 425.173 224.599C425.919 224.255 426.722 224.829 426.952 225.575C427.411 227.066 425.231 227.812 424.657 226.492C424.313 225.747 423.223 226.378 423.567 227.124C424.255 228.73 426.608 228.845 427.755 227.64C429.075 226.206 428.099 223.796 426.321 223.28C424.428 222.763 422.592 224.771 423.051 226.607C423.223 227.353 424.198 228.271 424.944 227.525C425.518 226.951 424.944 225.689 424.083 226.033C423.337 226.32 423.682 227.525 424.428 227.238Z" fill="black"/>
<path opacity="0.15" d="M231.945 30.166C241.01 36.0179 253.287 44.6237 266.712 56.1554C275.031 63.3269 296.603 82.5465 323.568 119.838C352.827 160.285 367.457 180.48 370.383 203.027C371.875 214.788 373.94 248.294 344.394 289.487C356.614 280.192 368.892 270.841 381.112 261.547C386.447 270.324 391.726 279.102 397.061 287.88C391.324 292.126 385.587 296.314 379.85 300.559C382.661 303.944 385.472 307.272 388.283 310.657C391.726 307.329 395.856 303.772 400.618 300.272C407.962 294.88 415.019 291.036 421.1 288.224C418.805 283.807 416.568 279.332 414.273 274.914C424.141 268.431 434.009 261.891 443.877 255.408C443.36 250.531 442.155 243.474 439 235.557C435.328 226.263 430.681 220.067 428.903 217.657C416.051 200.273 422.305 204.462 395.397 166.654C376.063 139.459 365.392 124.256 348.295 104.577C337.337 91.9555 330.051 83.6365 318.404 73.367C306.012 62.409 290.981 49.3856 268.032 39.8619C253.402 33.8952 240.551 31.3708 231.945 30.166Z" fill="#494949"/>
<path opacity="0.11" d="M416.166 196.831C415.65 200.503 414.617 206.126 412.035 212.494C406.069 227.238 396.889 233.664 377.727 253.056C368.662 262.235 355.18 275.832 356.442 277.324C357.647 278.758 372.391 267.399 398.151 250.417C413.24 240.434 425.919 232.689 434.238 227.64C428.214 217.37 422.19 207.101 416.166 196.831Z" fill="#494949"/>
<path opacity="0.08" d="M435.443 229.361C434.64 229.533 436.59 235.787 434.238 243.589C432.517 249.327 429.591 252.08 422.419 260.744C419.321 264.473 414.789 270.095 409.396 277.324C420.641 269.636 431.886 261.948 443.131 254.261C438.025 233.951 436.131 229.246 435.443 229.361Z" fill="#494949"/>
<path d="M338.542 417.139C338.714 418.803 339.345 420.122 340.32 421.729C344.451 428.384 351.278 432.457 356.212 434.809C354.262 440.948 351.91 449.783 350.188 460.569C348.582 470.954 346.689 483.059 349.156 483.862C350.016 484.149 352.541 483.346 376.006 436.875C379.276 430.392 381.972 424.999 383.751 421.327C371.244 415.705 358.794 410.025 346.287 404.402C345.082 405.32 337.911 410.541 338.542 417.139Z" fill="#161616" stroke="#161616" stroke-width="2"/>
<path d="M312.38 290.233C301.824 297.576 294.997 304.69 288.915 311.116C286.448 313.698 274.63 326.262 262.18 345.998C256.672 354.718 252.599 362.406 249.788 368.201C250.132 370.553 250.935 373.938 253.058 377.323C255.41 381.11 258.049 382.773 262.18 386.445C267.229 390.92 269.065 393.559 271.991 396.543C277.67 402.394 285.645 406.812 301.365 415.475C321.101 426.319 331.715 430.277 334.985 431.482C339.001 432.916 342.386 434.006 344.795 434.752C345.943 429.417 347.32 423.737 349.041 417.77C350.59 412.435 352.254 407.443 353.918 402.796C341.697 393.846 329.133 383.806 316.396 372.446C311.979 368.545 307.733 364.586 303.66 360.685C307.791 355.694 313.585 349.153 320.929 342.097C323.052 340.031 327.527 335.786 332.977 331.311C339.861 325.746 350.246 318.287 364.589 311.403C367.056 294.937 364.13 279.561 355.122 274.57C343.877 268.374 326.781 280.25 312.38 290.233Z" fill="white"/>
<path d="M300.791 298.781C280.482 315.993 263.672 337.277 251.738 361.087C250.534 363.554 248.812 366.308 248.583 369.061C248.353 371.987 250.132 374.225 251.738 376.462C255.582 381.683 259.943 386.56 264.59 391.092C274.458 400.559 285.817 408.361 297.751 414.959C312.438 423.106 327.985 429.589 343.476 436.014C344.509 436.416 344.968 434.752 343.935 434.351C318.577 423.794 292.702 413.008 271.532 395.051C266.77 390.977 262.237 386.617 258.164 381.855C256.041 379.331 253.918 376.749 252.083 374.053C250.935 372.389 250.075 370.84 250.361 368.717C250.648 366.652 251.853 364.701 252.771 362.808C258.279 351.62 264.876 341.007 272.45 331.081C281.113 319.664 291.038 309.28 301.996 300.043C302.857 299.297 301.652 298.093 300.791 298.781Z" fill="black"/>
<path d="M349.443 318.574C329.764 331.311 312.552 347.432 298.611 366.25C297.98 367.168 299.472 368.029 300.103 367.111C313.872 348.522 330.911 332.573 350.303 320.008C351.221 319.492 350.361 318 349.443 318.574Z" fill="black"/>
<path d="M302.685 361.546C318.806 376.118 335.386 390.117 352.483 403.484C353.344 404.173 354.549 402.968 353.688 402.28C336.591 388.912 319.953 374.913 303.889 360.341C303.086 359.595 301.881 360.8 302.685 361.546Z" fill="black"/>
<path d="M352.541 403.255C348.926 413.467 346.115 423.909 344.05 434.523C343.82 435.613 345.484 436.072 345.713 434.982C347.779 424.368 350.647 413.926 354.204 403.714C354.549 402.681 352.885 402.222 352.541 403.255Z" fill="black"/>
<path opacity="0.11" d="M334.583 312.148C326.666 312.837 320.699 318.631 302.283 344.219C295.226 354.03 289.317 362.578 284.785 369.348C291.325 373.938 296.488 377.724 299.759 380.191C318.06 393.903 325.748 401.591 341.296 409.967C344.681 411.803 347.492 413.123 349.156 413.869C350.475 410.254 351.795 406.64 353.057 403.025C348.697 399.239 344.336 395.51 339.919 391.723C327.756 381.396 315.708 371.414 303.717 361.718C308.709 354.718 313.413 349.44 316.855 345.826C327.01 335.212 337.108 328.04 344.968 322.533C347.664 320.639 349.959 319.148 351.451 318.172C344.05 312.493 338.255 311.804 334.583 312.148Z" fill="#494949"/>
<path opacity="0.08" d="M336.878 327.123C331.944 328.27 325.346 330.507 318.634 334.982C302.226 345.941 296.718 362.693 295.111 368.43C303.947 375.315 313.069 382.257 322.535 389.199C331.715 395.969 340.837 402.394 349.729 408.591C351.049 406.697 352.369 404.747 353.631 402.853C341.41 393.961 328.731 383.691 316.052 371.93C312.036 368.258 308.192 364.529 304.52 360.857C306.528 358.218 308.709 355.522 311.003 352.768C319.609 342.556 328.444 334.122 336.878 327.123Z" fill="#494949"/>
<path d="M445.483 398.379C451.564 404.116 457.703 409.911 463.785 415.648C462.178 452.251 465.219 460.857 468.432 461.488C473.423 462.463 481.971 445.194 485.701 431.597C488.512 421.27 488.799 412.205 488.512 406.067C478.988 397.576 469.464 389.085 459.941 380.536C455.121 386.503 450.302 392.469 445.483 398.379Z" fill="#161616" stroke="#161616" stroke-width="2"/>
<path d="M326.092 295.167C326.609 304.69 333.264 310.485 333.264 310.485C337.394 314.099 342.042 315.075 344.336 315.362C346.172 316.107 348.008 316.911 349.902 317.656C352.77 321.787 357.016 327.639 362.638 334.294C370.096 343.244 380.136 353.915 404.692 374.11C416.797 384.036 432.402 396.256 451.278 409.681C453.974 408.361 457.187 406.411 460.4 403.542C467.456 397.289 470.727 390.002 472.218 385.872C468.891 382.659 463.957 377.84 458.22 371.873C432.746 345.539 415.764 322.992 402.798 305.666C394.25 294.249 383.292 279.045 371.186 260.686C343.476 268.259 325.404 282.947 326.092 295.167Z" fill="white"/>
<path d="M334.985 312.665C339.575 314.272 344.107 315.821 348.697 317.427C349.729 317.771 350.188 316.108 349.156 315.763C344.566 314.157 340.034 312.608 335.444 311.001C334.411 310.657 333.952 312.321 334.985 312.665Z" fill="black"/>
<path d="M346.803 315.706C368.375 345.367 396.315 369.348 425.288 391.551C433.607 397.92 442.041 404.231 450.474 410.484C451.392 411.173 452.195 409.623 451.335 408.992C422.305 387.478 393.103 365.677 368.433 339.171C361.261 331.483 354.549 323.336 348.352 314.845C347.664 313.985 346.172 314.845 346.803 315.706Z" fill="black"/>
<path d="M380.653 275.718C400.962 306.871 423.854 336.245 449.097 363.554C456.384 371.471 463.899 379.159 471.53 386.675C472.333 387.478 473.538 386.216 472.735 385.47C446.171 359.423 421.846 331.139 400.044 301.019C393.848 292.47 387.882 283.75 382.087 274.857C381.513 273.939 380.022 274.8 380.653 275.718Z" fill="black"/>
<path d="M470.554 385.585C467.227 395.453 460.801 404.632 451.105 408.992C450.073 409.451 450.991 410.943 451.966 410.484C462.063 405.952 468.719 396.313 472.161 386.044C472.562 385.011 470.899 384.552 470.554 385.585Z" fill="black"/>
<path opacity="0.09" d="M380.71 274.8C377.44 270.382 374.686 266.768 372.85 264.416C371.014 267.8 368.49 273.48 368.261 280.537C367.744 296.486 379.448 303.314 413.011 340.491C427.64 356.669 435.386 366.423 454.261 385.7C458.678 390.175 462.408 393.904 465.104 396.543C467.17 392.928 469.235 389.314 471.358 385.7C453.171 367.455 438.77 350.99 427.985 337.966C417.6 325.402 408.306 314.157 398.725 300.158C396.258 296.658 390.004 287.307 380.71 274.8Z" fill="#494949"/>
<path opacity="0.09" d="M390.865 290.921C391.668 294.88 393.332 301.592 396.602 309.395C406.069 331.655 420.067 341.064 445.253 368.889C450.073 374.225 457.531 382.659 466.252 393.559C468.26 390.691 470.268 387.88 472.276 385.011C470.44 383.29 467.514 380.593 463.957 377.151C457.416 370.84 439.688 353.227 405.839 310.255C402.167 305.666 397.004 299.011 390.865 290.921Z" fill="#494949"/>
<path d="M204.636 240.205C203.489 240.664 201.768 241.639 196.661 249.843C191.154 258.678 187.425 264.702 184.671 274.226C182.261 282.717 181.687 290.462 181.859 296.773C182.261 298.609 182.548 301.306 181.63 304.289C180.425 308.076 178.245 308.993 174.114 314.157C172.451 316.222 169.697 319.722 167.517 324.484C165.107 329.819 166.312 330.508 164.017 335.729C161.263 341.982 157.19 346.285 156.501 346.974C152.715 350.932 150.879 351.047 149.215 354.489C147.322 358.391 147.895 362.062 148.067 363.152C148.182 363.956 149.387 370.955 153.46 371.816C154.551 372.045 156.272 371.93 156.96 370.898C158.05 369.291 155.526 367.054 155.067 363.152C154.665 359.595 156.214 356.727 157.19 354.948C160.116 349.498 163.501 350.301 166.599 345.769C169.582 341.294 166.771 339.917 169.639 331.483C171.246 326.779 172.852 322.074 177.155 318.575C179.106 316.968 180.999 316.108 182.777 313.411C184.326 311.059 184.9 308.707 185.13 307.1C188.285 312.149 191.613 315.419 194.022 317.427C197.235 320.066 200.907 323.164 204.005 322.017C205.669 321.386 207.16 319.493 206.874 318.173C206.701 317.427 206.013 317.198 204.235 315.591C204.235 315.591 203.546 314.96 201.997 313.296C200.964 312.206 199.473 310.198 198.153 306.412C198.669 305.838 199.989 304.576 201.768 304.461C203.718 304.404 205.21 305.781 206.701 307.272C209.513 310.026 209.398 311.69 211.176 313.354C212.553 314.673 215.078 316.05 220.069 315.706C219.84 315.075 219.438 314.042 218.922 312.895C217.143 309.051 216.225 308.649 216.11 307.043C216.053 305.781 216.569 305.436 218.922 301.42C220.93 297.978 221.905 296.257 221.962 295.339C222.249 291.954 219.323 290.807 218.692 286.905C218.118 283.635 219.553 280.996 220.585 278.931C226.552 266.825 230.339 259.137 229.249 253.343C227.585 244.278 213.127 236.648 204.636 240.205Z" fill="#161616"/>
<path d="M201.997 242.27C193.678 250.761 188.343 261.547 184.785 272.792C181.343 283.75 178.761 296.257 184.212 306.985C184.728 307.961 186.22 307.1 185.703 306.125C180.31 295.568 183.236 283.061 186.736 272.333C190.178 261.662 195.285 251.564 203.202 243.475C203.948 242.672 202.743 241.467 201.997 242.27Z" fill="#161616"/>
<path d="M193.391 291.839C194.08 291.495 194.768 291.208 195.457 290.864C195.973 291.151 196.489 291.495 197.006 291.782C197.637 292.356 198.21 293.101 198.612 293.847C199.415 295.224 199.817 296.888 199.702 298.494C199.473 301.593 197.235 304.002 196.661 306.985C196.317 308.821 197.522 310.141 198.555 311.518C200.333 313.87 202.399 316.05 204.636 318.001C205.439 318.747 206.701 317.542 205.841 316.796C204.407 315.476 202.972 314.157 201.71 312.665C199.645 310.313 197.809 308.305 199.243 305.035C200.505 302.166 201.825 299.47 201.251 296.2C200.792 293.675 199.358 291.093 197.12 289.717C195.227 288.569 192.932 288.799 191.9 290.921C191.383 291.954 192.875 292.815 193.391 291.839Z" fill="#161616"/>
<path d="M184.326 307.215C187.654 312.55 192.244 316.968 197.809 319.894C199.473 320.755 202.628 322.763 204.636 321.902C206.529 321.099 206.185 318.804 205.669 317.255C205.325 316.222 203.661 316.681 204.005 317.714C205.325 321.902 199.759 318.976 198.669 318.402C196.891 317.484 195.227 316.394 193.621 315.132C190.465 312.665 187.884 309.682 185.761 306.297C185.244 305.436 183.753 306.297 184.326 307.215Z" fill="#161616"/>
<path d="M223.856 254.548C220.471 265.907 218.348 277.611 217.373 289.43C217.315 289.774 217.66 290.175 218.004 290.233C221.618 291.208 221.102 295.683 219.782 298.208C218.463 300.617 216.397 302.625 215.365 305.207C213.529 309.854 218.979 311.346 218.864 315.419C219.151 315.132 219.438 314.845 219.725 314.558C214.561 314.272 210.201 311.518 207.619 307.043C205.784 303.83 203.661 303.142 199.989 303.371C198.899 303.428 198.899 305.15 199.989 305.092C201.366 305.035 203.03 304.863 204.292 305.551C205.382 306.182 205.726 307.272 206.3 308.248C207.275 309.911 208.537 311.403 210.029 312.608C212.84 314.903 216.11 316.05 219.668 316.28C220.126 316.28 220.528 315.878 220.528 315.419C220.585 313.009 218.979 311.575 217.66 309.739C214.906 305.895 219.438 302.338 221.217 299.068C223.167 295.511 223.11 289.774 218.405 288.569C218.635 288.856 218.807 289.143 219.036 289.372C219.954 277.668 222.135 266.194 225.462 254.949C225.806 253.974 224.143 253.515 223.856 254.548Z" fill="#161616"/>
<path d="M181.286 297.289C181.687 300.732 181.228 304.117 179.565 307.215C178.016 310.141 175.491 312.264 173.024 314.501C168.664 318.574 166.656 323.049 165.279 328.787C163.787 334.868 162.009 339.745 157.591 344.334C154.264 347.719 150.362 350.875 148.297 355.292C146.289 359.595 146.576 364.587 149.158 368.603C150.649 370.955 155.755 375.659 157.706 371.184C158.509 369.348 157.591 367.054 156.96 365.275C156.386 363.726 155.641 362.177 155.641 360.456C155.641 358.046 157.017 355.981 158.624 354.317C162.525 350.244 167.517 347.949 169.238 342.154C170.213 338.884 169.525 335.614 169.754 332.286C170.041 328.156 171.992 324.656 174.975 321.845C179.507 317.542 185.531 313.985 185.531 306.985C185.531 305.895 183.81 305.895 183.81 306.985C183.753 313.698 177.212 317.025 173.082 321.271C169.869 324.541 168.033 328.672 167.976 333.262C167.918 336.302 168.434 339.171 167.402 342.097C166.254 345.424 163.845 347.662 161.206 349.842C157.821 352.539 153.919 355.694 153.919 360.456C153.919 362.751 155.067 364.816 155.755 366.996C155.927 367.57 156.559 369.119 156.272 369.578C155.698 369.635 155.067 369.75 154.493 369.807C153.46 370.439 152.657 370.324 152.084 369.463C150.821 368.66 149.731 366.25 149.272 364.873C147.436 359.481 149.961 354.661 153.575 350.76C156.616 347.432 160.173 344.621 162.697 340.835C165.394 336.819 166.197 332.057 167.344 327.467C168.205 324.139 169.352 320.927 171.647 318.288C173.655 315.935 176.18 314.157 178.245 311.862C181.917 307.846 183.581 302.625 182.95 297.289C182.892 296.199 181.171 296.199 181.286 297.289Z" fill="#161616"/>
<path d="M144.051 227.411C142.847 228.099 140.609 229.304 140.15 231.828C139.576 234.639 141.584 236.934 141.871 237.221C141.527 237.623 140.494 238.828 140.38 240.663C140.265 243.704 142.961 245.483 143.076 245.597C142.961 245.712 141.298 247.433 141.871 249.786C142.33 251.794 144.109 252.654 144.338 252.712C144.224 253.056 143.822 254.547 144.568 255.924C145.715 257.99 148.469 257.875 148.756 257.875C150.707 257.76 152.543 256.441 153.403 254.433C154.493 255.064 157.362 256.555 161.263 256.154C163.902 255.867 165.853 254.834 166.885 254.203C168.951 257.818 172.164 262.694 176.926 267.686C181.114 272.046 188.916 280.25 200.505 283.635C214.963 287.88 227.757 282.373 235.101 279.217C254.836 270.726 264.647 255.121 268.261 249.269C274.343 239.287 276.466 230.738 278.302 222.993C281.285 210.715 280.252 205.896 279.277 203.085C278.703 201.364 275.318 191.496 267.516 190.348C261.147 189.373 255.869 194.823 255.238 195.512C253.058 197.807 251.91 200.847 249.616 206.814C248.468 209.855 247.722 212.15 247.378 213.182C243.649 225.288 241.756 231.312 241.239 232.574C239.862 236.016 236.592 243.876 228.732 250.015C221.217 255.867 213.357 257.129 209.857 257.646C204.579 258.391 198.096 259.309 191.211 255.924C183.523 252.138 180.081 245.253 179.163 243.417C176.409 237.738 175.893 231.427 175.491 226.952C174.975 221.214 175.376 216.739 172.049 213.182C171.418 212.551 169.926 210.945 168.377 211.232C166.14 211.691 164.877 215.994 163.73 220.067C162.755 223.509 163.042 223.911 162.238 224.714C160.575 226.378 158.452 225.517 151.166 225.919C146.92 226.206 145.428 226.665 144.051 227.411Z" fill="white"/>
<path d="M155.927 224.944C149.731 223.796 138.831 225.403 139.691 233.894C140.437 241.524 149.502 242.844 154.952 239.516C155.87 238.942 155.009 237.451 154.092 238.024C149.559 240.778 141.355 240.032 141.355 233.148C141.355 226.493 150.707 225.747 155.468 226.607C156.559 226.837 157.017 225.173 155.927 224.944Z" fill="black"/>
<path d="M141.183 236.705C134.987 244.278 149.903 253.802 154.321 244.278C154.78 243.303 153.288 242.385 152.829 243.417C149.387 250.761 137.913 243.417 142.445 237.91C143.134 237.106 141.929 235.844 141.183 236.705Z" fill="black"/>
<path d="M141.527 244.393C140.208 247.376 141.126 251.163 144.166 252.712C147.15 254.261 150.879 252.826 152.428 249.958C152.944 248.982 151.452 248.122 150.936 249.097C149.789 251.105 147.207 252.253 145.027 251.22C142.847 250.187 142.043 247.376 143.019 245.253C143.478 244.278 141.986 243.417 141.527 244.393Z" fill="black"/>
<path d="M142.904 252.08C142.675 255.121 144.453 257.875 147.551 258.506C150.42 259.08 153.059 257.187 154.034 254.605C154.436 253.572 152.772 253.113 152.37 254.146C151.625 256.097 149.559 257.359 147.494 256.728C145.371 256.097 144.51 254.146 144.625 252.08C144.683 250.99 142.961 250.99 142.904 252.08Z" fill="black"/>
<path d="M148.354 233.32C149.846 233.148 151.395 233.205 152.657 234.066C153.862 234.869 154.551 236.475 153.862 237.795C153.346 238.77 154.837 239.631 155.354 238.655C156.272 236.877 155.87 234.812 154.493 233.377C152.944 231.713 150.477 231.369 148.297 231.599C147.264 231.771 147.264 233.492 148.354 233.32Z" fill="black"/>
<path d="M153.69 255.752C156.673 254.662 159.542 257.129 162.64 256.785C164.992 256.498 167.058 255.236 169.008 254.088C169.926 253.515 169.066 252.023 168.148 252.597C165.222 254.375 162.697 255.638 159.198 254.605C157.075 253.974 155.411 253.285 153.231 254.088C152.198 254.49 152.6 256.154 153.69 255.752Z" fill="black"/>
<path d="M155.468 226.435C158.452 227.468 162.468 227.64 164.132 224.37C165.05 222.534 164.476 220.297 164.877 218.346C165.336 215.707 166.828 213.527 168.893 211.863C169.754 211.175 168.549 209.97 167.689 210.658C165.451 212.494 163.845 215.018 163.271 217.887C162.984 219.493 163.386 221.387 162.927 222.936C161.894 226.034 158.452 225.632 156.042 224.772C154.895 224.427 154.436 226.091 155.468 226.435Z" fill="black"/>
<path d="M167.631 211.978C172.508 212.609 173.139 220.813 173.942 224.542C174.918 229.419 175.434 234.353 176.352 239.229C177.843 247.032 182.376 253.228 189.605 256.728C197.178 260.342 205.784 260.17 213.701 257.99C221.848 255.695 230.281 251.564 235.56 244.737C236.248 243.876 235.043 242.672 234.355 243.532C228.847 250.646 219.897 254.835 211.291 256.843C202.628 258.851 193.162 258.105 185.933 252.482C178.13 246.458 177.958 237.393 176.409 228.386C175.663 224.141 175.032 219.551 173.483 215.535C172.508 213.01 170.959 210.716 168.148 210.314C167 210.142 166.541 211.806 167.631 211.978Z" fill="black"/>
<path d="M166.369 255.236C173.311 263.727 180.024 273.423 189.203 279.676C198.21 285.758 209.341 286.389 219.782 284.668C241.01 281.111 259.025 266.71 269.352 248.122C275.261 237.565 278.76 225.861 280.31 213.871C280.424 212.781 278.703 212.781 278.588 213.871C275.949 234.353 266.999 254.433 251.05 267.972C243.19 274.628 233.838 279.619 223.798 282.028C213.414 284.553 201.423 284.897 191.957 279.332C181.859 273.423 174.803 262.866 167.574 253.974C166.885 253.17 165.681 254.375 166.369 255.236Z" fill="black"/>
<path d="M268.319 190.119C263.557 188.226 258.508 190.693 255.181 194.192C251.279 198.208 249.329 203.544 247.894 208.822C246.231 214.961 244.739 221.042 242.387 226.952C239.862 233.32 236.65 239.344 232.978 245.081C232.347 245.999 233.838 246.86 234.469 245.942C240.379 236.82 244.911 226.894 247.722 216.395C249.214 210.887 250.189 205.15 252.943 200.159C255.697 195.11 261.549 189.258 267.86 191.783C268.893 192.184 269.352 190.52 268.319 190.119Z" fill="black"/>
<path d="M150.936 251.162C152.542 251.277 152.198 253.974 151.911 254.949C151.567 255.982 153.231 256.441 153.575 255.408C154.321 253.228 153.805 249.671 150.936 249.441C149.846 249.384 149.846 251.105 150.936 251.162Z" fill="black"/>
<path d="M151.911 245.884C152.256 247.261 151.739 248.695 150.649 249.499C149.731 250.13 150.592 251.621 151.51 250.99C153.288 249.728 154.149 247.548 153.575 245.425C153.346 244.335 151.682 244.794 151.911 245.884Z" fill="black"/>
<path d="M152.887 239.918C154.436 240.664 153.403 243.131 152.657 244.106C151.969 244.966 153.46 245.827 154.149 244.966C155.468 243.245 156.157 239.573 153.747 238.426C152.772 237.967 151.911 239.459 152.887 239.918Z" fill="black"/>
<path opacity="0.11" d="M141.068 240.147C141.986 239.631 143.478 242.844 147.322 244.45C148.756 245.024 150.534 245.425 158.681 244.45C161.32 244.106 164.763 243.647 168.893 242.901C169.697 246.171 171.36 251.105 174.745 256.211C176.18 258.334 181.974 266.596 193.162 271.472C205.152 276.75 215.996 274.972 220.184 274.226C223.741 273.595 233.666 271.702 242.501 264.014C248.411 258.908 252.197 252.712 257.762 236.59C261.549 225.632 266.139 210.429 269.524 191.553C271.818 193.905 275.376 198.151 277.384 204.462C278.359 207.503 279.277 211.978 278.531 218.977C276.982 234.066 269.409 246.63 264.819 253.056C260.057 259.768 251.566 271.357 235.846 278.529C233.724 279.504 221.733 284.725 206.472 284.037C202.972 283.864 199.759 283.692 195.801 282.258C191.498 280.709 187.195 276.693 178.647 268.776C175.09 265.505 171.59 262.063 168.033 257.072C167.344 256.097 166.771 255.236 166.369 254.662C165.164 255.465 163.386 256.383 161.378 256.154C158.681 255.924 157.763 253.974 155.526 254.318C153.575 254.605 153.575 256.211 151.223 257.072C149.387 257.703 146.805 257.646 145.084 256.326C143.822 255.351 143.65 254.261 142.216 248.064C140.839 241.983 140.437 240.491 141.068 240.147Z" fill="#494949"/>
<path d="M206.644 225.23C205.554 225.46 205.152 227.64 204.464 231.025C204.062 233.09 203.89 234.869 203.833 236.131C201.538 238.828 201.309 241.295 201.251 242.27C201.194 244.278 201.882 245.827 203.202 248.696C204.12 250.761 205.095 252.367 205.784 253.457C203.317 254.031 201.595 255.637 201.481 257.359C201.366 259.022 202.858 260.342 203.431 260.801C206.013 263.038 207.906 261.375 211.176 263.153C213.816 264.588 213.586 266.194 217.43 268.317C219.84 269.636 220.585 269.349 220.872 269.177C221.848 268.546 221.503 266.481 221.331 265.104C221.102 263.44 220.413 260.916 218.52 257.99C220.758 257.187 222.995 256.383 225.175 255.637C223.569 255.81 223.225 255.867 223.225 255.867C223.225 255.81 227.183 254.203 230.568 255.637C233.379 256.842 233.609 259.367 235.961 259.539C237.281 259.654 238.772 258.908 239.403 257.818C240.723 255.58 238.256 252.31 237.682 251.564C235.33 248.466 231.888 247.548 230.339 247.261C230.855 246.114 231.429 244.278 231.543 241.983C231.658 238.082 230.052 235.213 229.306 234.008C228.273 230.623 227.298 227.238 226.265 223.796C224.659 227.525 222.88 228.673 221.503 228.96C219.954 229.304 219.094 228.558 216.569 228.96C214.16 229.361 214.045 230.107 212.668 230.05C209.455 229.705 208.365 224.886 206.644 225.23Z" fill="#161616"/>
<path d="M208.078 243.36C209.054 244.507 210.603 245.253 212.152 244.852C213.529 244.507 214.447 243.36 214.619 241.983C214.676 241.409 213.816 241.409 213.758 241.983C213.643 243.188 212.611 244.048 211.406 244.106C210.316 244.163 209.398 243.532 208.709 242.729C208.308 242.327 207.734 242.958 208.078 243.36Z" fill="white"/>
<path d="M220.356 241.467C221.79 243.532 226.437 243.704 226.265 240.434C226.208 239.86 225.347 239.86 225.405 240.434C225.577 242.786 222.077 242.442 221.102 241.008C220.758 240.549 220.012 241.008 220.356 241.467Z" fill="white"/>
<path d="M218.118 247.835C218.118 247.892 218.176 247.95 218.176 248.007C218.348 248.064 218.577 248.122 218.75 248.179C218.635 247.95 218.463 247.835 218.176 247.835C218.405 247.777 218.577 247.663 218.807 247.605C218.75 247.548 218.692 247.433 218.635 247.376C218.348 247.491 218.118 247.605 217.832 247.72C218.233 248.351 218.061 249.499 217.832 250.13C217.545 250.99 216.34 252.138 215.594 250.99C215.307 250.531 214.561 250.933 214.848 251.449C215.594 252.597 217.143 252.539 218.004 251.564C218.864 250.589 219.323 248.466 218.577 247.318C218.348 246.917 217.659 247.146 217.774 247.663C217.889 248.007 218.061 248.236 218.348 248.409C218.577 248.581 218.922 248.409 218.979 248.179C219.094 247.663 218.922 246.458 218.118 246.802C217.373 247.089 217.659 248.236 218.004 248.695C218.118 248.867 218.405 248.982 218.577 248.867C219.209 248.409 219.209 247.548 218.52 247.204C218.061 246.859 217.659 247.605 218.118 247.835Z" fill="white"/>
<path d="M218.176 248.007C218.405 249.327 218.864 250.933 220.413 251.163C221.962 251.392 222.421 249.9 222.421 248.696C222.421 248.122 221.561 248.122 221.561 248.696C221.561 249.556 221.274 250.761 220.126 250.187C219.266 249.786 219.151 248.638 219.036 247.778C218.922 247.261 218.061 247.491 218.176 248.007Z" fill="white"/>
<path d="M202.341 243.647C203.431 237.68 207.734 232.574 213.586 230.853C219.438 229.132 226.208 231.484 228.904 237.106C229.363 238.082 230.855 237.221 230.396 236.246C227.47 230.222 220.299 227.525 213.93 229.017C207.16 230.623 201.94 236.418 200.677 243.188C200.505 244.278 202.169 244.737 202.341 243.647Z" fill="#161616"/>
<path d="M205.382 234.984C205.325 232.115 205.841 229.247 207.046 226.665C207.16 226.435 207.275 226.263 207.333 226.034C207.734 225.345 207.792 225.231 207.447 225.689C207.103 225.976 207.16 226.206 207.677 226.55C207.792 226.722 207.964 226.952 208.078 227.124C208.939 228.501 209.685 229.935 210.316 231.427C210.718 232.459 212.381 232 211.98 230.968C211.406 229.591 208.767 222.591 206.529 224.14C205.439 224.886 204.751 227.411 204.407 228.615C203.776 230.681 203.546 232.861 203.603 235.041C203.718 236.074 205.439 236.074 205.382 234.984Z" fill="#161616"/>
<path d="M222.88 230.337C223.454 229.361 224.028 228.386 224.659 227.411C224.946 227.009 225.347 226.607 225.519 226.148C225.921 225.919 225.978 225.69 225.749 225.403C225.519 225.001 225.577 225.116 225.864 225.747C226.839 228.214 227.527 230.623 227.814 233.32C227.929 234.41 229.65 234.41 229.535 233.32C229.363 231.427 229.019 229.591 228.503 227.755C228.159 226.722 227.642 224.37 226.667 223.739C225.921 223.28 225.29 223.624 224.774 224.255C223.454 225.804 222.421 227.698 221.389 229.476C220.815 230.394 222.307 231.255 222.88 230.337Z" fill="#161616"/>
<path d="M200.792 242.729C200.391 252.367 209.111 260.629 218.807 258.621C223.282 257.703 227.413 254.777 229.535 250.703C231.773 246.401 233.035 239.573 230.109 235.328C229.478 234.41 227.986 235.27 228.618 236.188C231.199 240.032 229.937 246.343 227.872 250.187C225.978 253.687 222.249 256.154 218.348 256.957C209.685 258.678 202.169 251.22 202.513 242.729C202.513 241.581 200.792 241.581 200.792 242.729Z" fill="#161616"/>
<path d="M201.997 257.875C203.374 252.769 210.259 253.056 213.873 255.293C217.717 257.588 219.668 262.063 220.069 266.366C220.184 267.571 220.643 268.776 218.635 268.03C217.889 267.743 216.914 266.653 216.34 266.079C215.307 265.047 214.389 263.957 213.242 263.096C211.98 262.121 210.66 261.547 209.111 261.26C206.701 260.801 202.341 261.088 202.112 257.646C202.054 256.556 200.333 256.556 200.391 257.646C200.563 259.883 201.997 261.375 204.062 262.121C205.669 262.694 207.447 262.58 209.111 262.981C211.176 263.498 212.553 264.588 213.988 266.079C215.422 267.514 217.889 270.726 220.356 270.267C222.421 269.866 221.962 267.514 221.79 265.965C221.159 260.457 218.233 255.007 212.84 252.884C208.308 251.105 201.768 252.138 200.391 257.474C200.046 258.506 201.71 258.965 201.997 257.875Z" fill="#161616"/>
<path d="M224.888 250.417C227.241 247.261 232.576 248.523 235.043 250.646C236.477 251.851 237.453 253.515 237.912 255.351C238.026 255.924 238.313 257.129 238.141 257.76C237.568 259.424 236.363 258.908 235.33 258.104C233.896 257.014 232.806 255.465 231.027 254.777C230.167 254.433 229.306 254.375 228.388 254.433C227.527 254.433 226.724 254.662 225.864 254.547C224.257 254.318 222.02 252.826 224.716 250.761C225.577 250.072 224.372 248.868 223.511 249.556C222.192 250.589 221.503 252.138 222.077 253.802C222.88 255.982 224.946 256.441 227.068 256.326C229.191 256.211 230.568 256.269 232.289 257.703C233.093 258.391 233.781 259.194 234.699 259.826C235.904 260.686 237.682 261.489 239.002 260.285C242.043 257.473 238.543 251.22 236.133 249.269C232.691 246.458 226.38 245.655 223.511 249.613C222.766 250.417 224.257 251.277 224.888 250.417Z" fill="#161616"/>
<path d="M205.325 253.113C209.054 251.908 214.734 254.261 217.028 257.301C217.201 257.531 217.545 257.301 217.373 257.072C214.963 253.802 209.226 251.392 205.21 252.711C204.923 252.769 205.038 253.17 205.325 253.113Z" fill="white"/>
<path d="M225.29 250.646C226.954 248.695 229.363 247.835 231.888 248.351C232.175 248.409 232.289 248.007 232.002 247.95C229.363 247.433 226.724 248.294 225.003 250.359C224.831 250.589 225.118 250.876 225.29 250.646Z" fill="white"/>
<path d="M207.447 226.206C208.021 227.698 208.423 229.189 208.595 230.738C208.709 230.681 208.824 230.624 208.939 230.566C208.652 230.279 208.365 230.107 208.021 229.935C207.849 229.878 207.677 229.935 207.677 230.107C207.677 230.624 207.619 231.083 207.619 231.599C207.734 231.541 207.849 231.484 207.964 231.427C207.16 230.509 206.529 232.574 206.3 232.976C206.185 233.205 206.529 233.435 206.644 233.205C206.701 233.091 207.447 231.484 207.619 231.714C207.734 231.886 207.964 231.714 207.964 231.541C207.964 231.025 208.021 230.566 208.021 230.05C207.906 230.107 207.792 230.165 207.677 230.222C208.021 230.337 208.251 230.509 208.48 230.796C208.595 230.91 208.882 230.853 208.824 230.624C208.595 229.017 208.251 227.468 207.619 225.976C207.734 225.862 207.333 225.976 207.447 226.206Z" fill="white"/>
<path d="M225.175 225.46C224.544 226.665 224.2 227.87 224.085 229.246C224.085 229.361 224.257 229.476 224.372 229.476C225.175 229.246 225.29 229.878 225.347 230.566C225.347 230.738 225.577 230.853 225.692 230.738C225.978 231.197 226.208 231.599 226.495 232.058C226.437 232.345 226.896 232.459 226.896 232.172C227.011 231.369 226.495 229.304 225.405 230.451C225.519 230.509 225.634 230.566 225.749 230.623C225.692 230.107 225.577 229.648 225.462 229.132C225.462 229.017 225.347 228.96 225.233 228.96C224.831 228.96 224.544 229.017 224.2 229.132C224.315 229.189 224.372 229.246 224.487 229.361C224.544 228.099 224.888 226.952 225.519 225.804C225.692 225.403 225.29 225.173 225.175 225.46Z" fill="white"/>
<path d="M261.147 191.438C261.951 196.946 263.5 205.667 266.712 215.994C273.482 237.565 281.457 246.802 292.013 271.816C294.652 278.07 298.382 287.479 302.053 299.355C308.881 301.592 321.56 304.633 337.05 301.937C362.523 297.519 377.497 280.652 381.686 275.546C372.965 259.481 364.187 242.098 355.639 223.452C347.148 204.978 339.747 187.193 333.321 170.268C327.928 168.26 313.815 163.785 296.488 168.031C275.777 173.022 264.36 187.193 261.147 191.438Z" fill="#EC615B"/>
<path opacity="0.13" d="M311.52 166.08C313.7 170.67 316.454 176.923 319.38 184.496C328.559 208.593 331.887 228.386 333.092 235.443C335.673 250.015 337.911 272.62 334.239 301.65C342.214 301.42 348.123 299.584 351.852 298.15C362.523 293.904 370.269 286.504 377.727 279.332C379.448 277.726 380.768 276.291 381.628 275.431C379.161 271.185 375.432 264.53 371.072 256.211C358.45 232.23 350.188 212.322 343.246 195.454C340.779 189.545 337.394 181.054 333.436 170.785C330.28 169.465 326.322 168.145 321.675 167.285C317.888 166.539 314.446 166.195 311.52 166.08Z" fill="#494949"/>
<path opacity="0.1" d="M349.5 211.576C350.475 221.845 351.278 230.451 351.852 236.647C354.032 260.916 354.434 267.628 354.606 271.931C355.065 282.086 355.065 290.405 355.008 295.855C358.565 294.593 363.154 292.528 367.916 289.2C373.883 285.012 377.899 280.422 380.481 277.037C370.154 255.179 359.827 233.377 349.5 211.576Z" fill="#494949"/>
<path d="M308.766 155.983C306.012 156.786 304.52 160.745 303.602 164.818C301.767 173.137 302.742 180.251 303.086 182.718C304.75 193.676 307.733 201.88 308.709 204.577C311.233 211.232 314.675 220.124 322.191 229.591C326.494 234.984 330.166 239.631 336.936 243.073C340.894 245.139 349.098 249.327 357.532 245.999C357.934 245.827 366.195 242.442 368.318 235.213C368.777 233.607 368.892 232 369.064 228.845C369.178 226.952 369.236 223.624 368.834 219.493C368.261 214.043 367.056 209.798 366.138 206.757C362.064 193.274 360.056 186.562 355.811 180.71C352.311 175.891 348.353 170.383 341.812 169.637C341.238 169.58 334.641 168.949 330.739 173.539C328.043 176.751 328.215 180.71 328.272 183.349C328.444 188.398 330.395 192.012 333.436 197.577C336.477 203.085 337.681 203.774 341.296 210.314C346.23 219.264 345.713 220.124 345.484 220.354C344.509 221.215 340.607 218.518 339.747 217.887C338.944 217.313 337.796 216.51 336.362 214.961C331.887 209.97 329.248 202.454 329.248 202.454C326.895 197.807 323.797 191.209 320.642 182.833C321.617 179.104 323.109 176.465 324.314 174.743C326.264 171.99 328.444 170.096 328.961 166.654C329.19 165.334 329.076 164.187 328.961 163.441C329.936 162.523 330.223 161.146 329.707 159.999C329.076 158.679 327.527 158.048 326.035 158.507C326.035 158.335 325.863 156.843 324.543 156.04C323.453 155.352 321.961 155.466 320.871 156.27C319.15 154.95 317.716 154.606 316.683 154.548C315.478 154.491 314.905 154.778 312.036 155.294C309.627 155.925 309.454 155.811 308.766 155.983Z" fill="white"/>
<path d="M323.166 180.194C324.715 176.35 326.666 172.85 328.789 169.293C329.879 167.457 331.141 165.162 329.649 163.154C326.264 158.794 321.675 164.359 320.24 167.228C319.724 168.203 321.216 169.064 321.732 168.088C322.593 166.367 323.568 164.244 325.576 163.671C326.15 163.384 326.723 163.384 327.354 163.556C327.527 164.875 327.699 166.195 327.928 167.514C327.756 168.26 326.723 169.465 326.322 170.154C324.486 173.194 322.994 176.407 321.617 179.677C321.101 180.767 322.765 181.169 323.166 180.194Z" fill="black"/>
<path d="M304.406 187.595C303.545 181.456 303.43 175.202 304.119 169.064C304.75 163.441 305.955 154.893 313.757 156.499C314.847 156.729 315.306 155.065 314.216 154.835C308.077 153.573 304.234 157.933 303.201 163.499C301.652 171.588 301.594 179.85 302.742 188.054C302.914 189.144 304.578 188.685 304.406 187.595Z" fill="black"/>
<path d="M311.577 161.146C312.208 159.654 312.897 158.105 314.102 156.958C316.167 154.95 318.806 156.04 321.044 157.13C322.019 157.646 322.879 156.155 321.904 155.638C319.552 154.434 316.913 153.286 314.388 154.606C312.208 155.753 311.061 158.105 310.143 160.228C309.684 161.318 311.176 162.179 311.577 161.146Z" fill="black"/>
<path d="M316.683 161.663C318.806 158.909 321.617 156.04 325.289 158.22C326.264 158.794 327.125 157.302 326.15 156.729C321.789 154.147 318.118 156.958 315.478 160.4C314.79 161.318 315.995 162.523 316.683 161.663Z" fill="black"/>
<path d="M320.527 162.925C321.617 161.777 322.765 160.573 324.256 159.999C326.035 159.253 329.305 159.712 328.617 162.408C328.387 163.498 329.994 163.957 330.28 162.867C330.854 160.515 329.305 158.335 326.953 157.933C323.797 157.36 321.33 159.655 319.322 161.72C318.577 162.523 319.781 163.728 320.527 162.925Z" fill="black"/>
<path d="M321.216 179.333C319.208 183.636 321.675 187.996 323.396 191.955C325.805 197.52 328.33 203.085 331.428 208.249C335.444 215.018 344.164 227.181 353.286 220.239C354.147 219.551 353.286 218.059 352.426 218.748C343.648 225.46 335.501 211.92 331.944 205.667C329.879 201.995 328.043 198.208 326.322 194.365C324.601 190.521 320.757 184.497 322.765 180.194C323.166 179.218 321.675 178.3 321.216 179.333Z" fill="black"/>
<path d="M328.617 174.973C323.568 192.127 339.058 205.437 344.738 220.125C345.14 221.157 346.803 220.698 346.402 219.666C340.894 205.437 325.404 192.012 330.28 175.432C330.567 174.342 328.903 173.883 328.617 174.973Z" fill="black"/>
<path d="M302.685 187.136C305.611 203.2 312.438 218.403 322.478 231.312C327.354 237.508 332.919 243.532 340.607 246.057C347.148 248.179 356.155 249.269 362.236 245.311C368.892 241.065 369.752 232.402 370.039 225.231C370.096 224.141 368.375 224.141 368.318 225.231C367.974 234.467 365.908 244.68 354.95 245.999C344.853 247.204 335.444 243.188 328.617 235.902C315.937 222.419 307.619 204.806 304.291 186.677C304.176 185.587 302.512 186.046 302.685 187.136Z" fill="black"/>
<path d="M329.764 177.268C331.6 169.924 340.435 169.408 345.943 172.621C351.565 175.891 355.409 181.8 358.22 187.48C361.146 193.447 363.269 199.872 365.335 206.183C367.687 213.412 369.465 220.985 368.261 228.616C368.088 229.706 369.752 230.165 369.924 229.075C371.301 220.354 369.121 211.92 366.31 203.659C363.728 196.143 361.204 188.398 356.901 181.628C353.286 175.891 347.894 169.924 340.779 168.949C335.272 168.203 329.42 171.186 328.043 176.809C327.813 177.899 329.477 178.358 329.764 177.268Z" fill="black"/>
<path opacity="0.1" d="M310.889 155.237C315.478 153.401 319.953 155.409 321.044 155.926C317.831 160.171 311.003 170.441 310.43 184.956C309.569 205.61 321.904 219.321 326.264 224.198C331.887 230.452 339.23 238.598 348.697 237.451C354.032 236.82 359.081 233.263 361.663 228.73C364.244 224.198 364.072 219.264 360.974 206.527C356.212 187.251 350.992 175.948 351.737 175.604C352.483 175.26 358.679 184.956 363.327 197.118C363.786 198.381 367.629 208.593 369.006 222.649C369.867 231.312 369.121 234.869 367.343 238.025C364.589 242.901 360.114 245.081 358.393 245.827C351.451 248.753 344.795 246.688 341.64 245.598C330.338 241.811 324.314 232.632 318.232 223.395C308.881 209.109 306.299 196.889 303.832 185.128C302.111 176.981 300.963 167.515 305.266 160.573C306.012 159.138 307.676 156.557 310.889 155.237Z" fill="#494949"/>
<path d="M228.044 127.297C227.872 129.993 228.847 133.034 230.912 139.115C233.207 145.943 235.674 153.229 241.87 160.4C245.829 164.99 250.648 170.612 258.852 172.219C265.335 173.481 270.786 171.645 273.54 170.498C274.171 172.219 275.031 174.055 276.121 175.948C278.99 180.997 282.547 184.554 285.358 186.906C287.481 186.677 291.612 185.816 295.169 182.603C297.923 180.079 299.242 177.095 300.045 175.145C301.021 172.85 301.537 170.842 301.767 169.408C300.045 168.375 298.152 166.998 296.316 165.105C290.579 159.253 289.03 152.311 288.571 148.983C289.317 142.386 290.12 135.73 290.866 129.133C291.727 129.247 293.562 129.362 295.169 128.272C296.947 127.067 297.292 125.059 297.751 122.822C298.21 120.584 298.726 117.716 297.464 114.445C296.89 113.011 295.054 108.421 291.153 108.135C288.514 107.905 285.817 109.684 284.268 112.437C280.941 109.225 273.826 103.545 263.844 102.627C246.575 101.02 229.019 114.503 228.044 127.297Z" fill="white"/>
<path d="M253.517 153.516C253.058 154.721 254.377 156.442 255.353 157.302C258.049 159.655 262.811 159.54 266.253 157.933C271.073 155.696 272.622 150.877 273.31 148.697C274.113 146.287 275.146 143.131 273.482 140.32C272.048 137.853 269.524 136.993 268.548 136.706C267.573 138.714 266.827 140.205 266.253 141.181C265.565 142.386 265.335 142.787 264.934 143.705C264.36 144.91 264.303 145.369 263.5 146.459C260.229 150.705 255.754 152.254 255.754 152.254C254.722 152.483 253.804 152.713 253.517 153.516Z" fill="black"/>
<path d="M228.962 134.181C233.494 148.352 239.174 164.875 253.804 171.531C259.77 174.227 266.885 174.743 272.966 172.104C279.793 169.178 283.809 162.408 286.563 155.868C290.177 147.32 291.727 138.025 291.153 128.788C291.095 127.698 289.374 127.698 289.432 128.788C290.005 138.427 288.284 148.123 284.211 156.901C280.252 165.449 273.999 172.276 263.959 172.162C243.764 171.932 235.56 149.672 230.511 133.78C230.281 132.632 228.675 133.091 228.962 134.181Z" fill="black"/>
<path d="M284.899 114.044C284.957 110.602 288.514 108.536 291.669 109.512C294.595 110.487 296.431 113.356 297.062 116.224C297.636 118.978 297.406 122.191 296.546 124.83C295.857 127.01 294.997 128.158 292.358 128.158C291.44 128.158 290.522 127.813 289.546 127.813C288.456 127.813 288.456 129.534 289.546 129.534C291.497 129.534 293.39 130.452 295.284 129.477C296.66 128.789 297.464 127.412 298.037 125.977C299.529 122.076 299.701 116.798 297.808 112.954C296.259 109.799 292.931 107.102 289.26 107.504C285.875 107.848 283.235 110.602 283.178 113.987C283.178 115.134 284.899 115.134 284.899 114.044Z" fill="black"/>
<path d="M288.284 145.484C288.112 154.95 292.3 164.015 299.759 169.924C300.619 170.612 301.824 169.408 300.963 168.719C293.849 163.097 289.833 154.606 290.005 145.484C290.005 144.393 288.284 144.393 288.284 145.484Z" fill="black"/>
<path d="M273.482 171.186C275.662 177.21 279.219 182.489 283.981 186.734C284.785 187.48 286.047 186.275 285.186 185.529C280.596 181.456 277.211 176.465 275.089 170.727C274.744 169.695 273.081 170.154 273.482 171.186Z" fill="black"/>
<path d="M284.383 187.308C289.317 189.086 294.251 184.898 297.292 181.398C300.504 177.727 303.316 172.965 301.939 167.973C301.652 166.883 299.988 167.342 300.275 168.432C301.422 172.793 298.841 177.038 296.029 180.194C293.39 183.177 289.087 187.193 284.785 185.644C283.809 185.242 283.35 186.906 284.383 187.308Z" fill="black"/>
<path d="M235.387 128.157C234.642 126.035 236.363 123.74 237.625 122.248C239.518 119.896 242.444 119.265 244.624 121.674C247.149 124.428 247.837 129.362 248.181 132.919C248.411 135.386 247.55 138.542 248.985 140.722C250.534 143.074 253.402 144.451 256.099 144.967C257.189 145.197 257.648 143.533 256.558 143.304C255.123 143.017 253.861 142.558 252.599 141.755C250.534 140.378 250.075 138.886 250.017 136.419C249.96 134.296 249.902 132.231 249.558 130.108C248.985 126.608 248.009 122.133 245.141 119.781C242.731 117.773 239.748 117.83 237.395 119.838C235.158 121.789 232.576 125.518 233.666 128.559C234.125 129.649 235.789 129.19 235.387 128.157Z" fill="black"/>
<path d="M251.279 115.765C251.681 108.823 260.344 106.299 264.36 111.979C264.991 112.897 266.483 112.036 265.852 111.118C260.86 104.004 250.075 107.045 249.558 115.765C249.501 116.855 251.222 116.855 251.279 115.765Z" fill="black"/>
<path d="M243.477 132.747C242.674 131.657 242.215 130.452 242.157 129.133C241.698 129.362 241.297 129.649 240.838 129.879C242.157 130.739 242.846 132.116 242.788 133.665C243.133 133.378 243.534 133.091 243.878 132.862C242.444 132.346 241.526 130.739 241.813 129.248C241.411 129.42 240.952 129.592 240.551 129.764C241.239 130.165 241.813 130.739 242.215 131.485C242.387 131.829 242.501 132.173 242.559 132.575C242.559 132.862 242.559 132.518 242.501 132.403C242.387 132.173 242.272 132.001 242.157 131.772C241.698 130.739 240.207 131.657 240.666 132.632C241.01 133.436 241.584 134.296 242.616 134.354C243.477 134.411 244.223 133.837 244.337 132.977C244.51 131.083 243.018 129.19 241.469 128.33C241.01 128.043 240.321 128.272 240.207 128.846C239.748 131.313 241.125 133.723 243.477 134.583C244.051 134.755 244.567 134.296 244.567 133.78C244.624 131.6 243.592 129.649 241.756 128.502C241.239 128.157 240.436 128.616 240.436 129.248C240.493 130.854 241.01 132.403 241.985 133.723C242.674 134.526 244.165 133.665 243.477 132.747Z" fill="black"/>
<path d="M259.541 121.674C259.254 121.33 259.025 120.929 258.91 120.47C258.91 120.355 258.795 119.666 258.91 119.609C259.025 119.552 259.311 120.47 259.369 120.527C259.484 120.986 259.426 121.502 259.197 121.904C259.598 121.789 260 121.674 260.402 121.617C258.967 120.814 258.279 119.322 258.508 117.716C258.049 117.945 257.648 118.232 257.189 118.462C258.795 119.15 259.713 120.814 259.311 122.535C259.656 122.363 260 122.133 260.344 121.961C259.484 121.674 258.795 120.929 258.623 120.011C258.623 119.953 258.623 119.437 258.566 119.437C258.451 119.494 258.336 119.552 258.164 119.609C258.221 119.724 258.336 119.896 258.393 120.011C258.623 120.642 258.623 121.273 258.566 121.961C259.082 121.732 259.541 121.56 260.057 121.33C259.541 120.929 259.139 120.47 258.852 119.838C258.336 118.863 256.844 119.724 257.361 120.699C257.705 121.387 258.221 122.019 258.852 122.535C259.484 123.051 260.229 122.707 260.344 121.904C260.459 120.756 260.344 119.207 259.484 118.347C258.795 117.658 257.533 117.601 257.074 118.634C256.156 120.642 258.107 122.994 259.885 123.625C260.344 123.797 260.86 123.453 260.918 123.051C261.549 120.642 260.344 118.003 257.992 117.027C257.361 116.74 256.787 117.085 256.672 117.773C256.385 119.953 257.533 122.076 259.426 123.166C259.77 123.396 260.402 123.281 260.631 122.879C261.09 121.789 261.205 120.699 260.803 119.609C260.459 118.748 259.713 117.83 258.738 117.945C256.213 118.232 257.303 121.846 258.336 122.994C259.082 123.74 260.287 122.478 259.541 121.674Z" fill="black"/>
<path d="M274.515 171.014C274.515 171.072 274.515 171.072 274.458 171.129C274.802 170.957 275.146 170.727 275.49 170.555C275.433 170.555 275.376 170.498 275.318 170.498C275.49 170.899 275.662 171.358 275.835 171.76C275.949 171.531 277.498 170.785 277.957 170.383C278.99 169.523 279.851 168.375 280.654 167.285C282.432 164.933 283.752 162.351 284.842 159.655C284.268 159.482 283.752 159.368 283.178 159.196C281.457 164.13 280.252 171.014 275.433 173.94C275.835 174.342 276.236 174.743 276.638 175.145C277.785 173.424 278.933 171.645 280.08 169.924C280.596 169.121 279.392 168.146 278.703 168.891C277.785 169.867 276.81 170.899 275.892 171.875C276.293 172.276 276.695 172.678 277.097 173.08C277.957 172.047 278.76 170.957 279.506 169.867C280.08 169.064 278.818 168.088 278.129 168.834C277.326 169.695 276.523 170.326 275.49 170.842C275.949 171.072 276.351 171.358 276.81 171.588C276.81 171.416 276.752 171.244 276.752 171.072C276.638 169.982 274.917 169.982 275.031 171.072C275.031 171.244 275.089 171.416 275.089 171.588C275.146 172.219 275.777 172.678 276.408 172.334C277.556 171.703 278.474 171.014 279.392 170.039C278.933 169.695 278.474 169.35 278.015 169.006C277.326 169.982 276.638 170.957 275.892 171.875C275.203 172.735 276.351 173.94 277.097 173.08C278.015 172.104 278.99 171.072 279.908 170.096C279.449 169.752 278.99 169.408 278.531 169.064C277.384 170.785 276.236 172.563 275.089 174.284C274.63 175.03 275.548 175.891 276.293 175.489C281.572 172.276 282.949 165.162 284.842 159.712C285.186 158.622 283.58 158.278 283.178 159.253C281.973 162.179 280.424 165.048 278.359 167.457C277.384 168.605 275.835 169.236 274.917 170.268C274.687 170.498 274.458 170.555 274.343 170.842C274.056 171.358 274.285 171.875 274.859 172.104C274.917 172.104 274.974 172.162 275.031 172.162C275.49 172.334 275.949 171.99 276.064 171.588C276.064 171.531 276.064 171.531 276.121 171.473C276.58 170.441 274.917 169.982 274.515 171.014Z" fill="black"/>
<path d="M280.883 169.293C281.4 168.719 281.744 168.146 281.916 167.457C282.203 166.424 280.883 166.08 280.367 166.769C279.162 168.375 277.957 169.981 276.752 171.588C276.064 172.448 277.556 173.309 278.244 172.448C279.449 170.842 280.654 169.236 281.859 167.629C281.342 167.4 280.826 167.17 280.31 166.941C280.195 167.342 280.023 167.687 279.736 168.031C278.933 168.949 280.195 170.154 280.883 169.293Z" fill="black"/>
<path d="M254.377 155.065C252.771 151.852 254.492 150.647 257.705 149.786C258.107 149.672 258.508 149.614 258.852 149.442C260.229 148.811 261.033 147.434 261.606 146.115C262.524 144.164 263.041 142.041 264.245 140.263C266.77 136.419 271.245 136.591 272.679 141.181C274.113 145.77 272.335 150.877 269.294 154.376C267.802 156.097 265.967 157.704 263.786 158.45C261.893 159.138 260.229 158.909 258.393 158.105C257.074 157.532 254.664 156.384 254.32 154.893C254.091 153.802 252.427 154.261 252.656 155.352C253.287 158.335 257.762 160.171 260.459 160.572C263.385 161.031 266.139 159.597 268.376 157.761C273.368 153.63 276.466 146.344 274.056 140.033C271.474 133.206 264.475 135.73 261.893 141.123C261.09 142.787 260.688 145.598 259.369 146.803C257.705 148.352 255.582 147.778 253.861 148.983C251.451 150.704 251.681 153.745 252.886 156.097C253.402 156.958 254.894 156.097 254.377 155.065Z" fill="black"/>
<path d="M253.23 153.286C262.123 153.057 266.426 144.795 268.376 137.222C268.663 136.132 266.999 135.673 266.712 136.763C264.991 143.533 261.262 151.336 253.23 151.565C252.14 151.622 252.14 153.344 253.23 153.286Z" fill="black"/>
<path d="M229.65 133.264C228.618 133.837 222.364 127.01 219.725 117.888C217.774 111.233 218.348 105.323 219.036 101.594C220.012 98.6109 221.389 95.3981 223.282 92.1279C231.429 78.1292 244.28 71.5314 250.935 68.7202C249.558 70.0398 247.952 71.7609 246.46 73.9411C244.395 76.8096 243.075 79.5061 242.215 81.7436C244.165 80.0798 246.403 78.4161 248.812 76.8096C254.205 73.1952 259.426 70.6135 263.959 68.7776C263.27 71.7035 262.524 74.6295 261.836 77.4981C263.442 76.5802 265.68 75.2606 268.434 73.9411C271.474 72.5068 277.728 69.5234 278.703 70.843C278.99 71.2446 278.646 71.7035 278.129 73.3673C277.441 75.5475 277.211 77.3834 277.097 78.5882C278.875 78.3013 280.883 78.0718 283.063 78.0144C285.473 77.8997 287.653 78.0144 289.604 78.1866C288.915 80.8257 288.227 83.4074 287.538 86.0465C288.915 86.5628 290.866 87.5382 292.874 89.1446C298.267 93.5622 299.816 99.5289 300.218 101.881C301.078 107.504 299.701 112.208 298.669 114.79C295.915 108.938 290.464 106.643 287.366 108.077C285.473 108.938 283.293 111.692 283.522 114.503C283.58 115.134 283.752 115.708 283.924 116.109C281.916 114.273 278.875 111.806 274.917 109.512C270.958 107.217 266.54 104.635 260.688 103.889C249.673 102.455 241.067 108.479 238.772 110.143C235.215 112.667 229.421 116.74 228.388 123.223C227.355 128.674 230.453 132.862 229.65 133.264Z" fill="#5222D0"/>
<path opacity="0.11" d="M273.31 108.077C275.089 112.093 277.498 118.347 278.818 126.207C280.195 134.009 281.916 144.049 277.728 155.179C276.293 158.966 272.909 166.252 264.877 173.08C266.77 173.022 270.04 172.678 273.482 170.842C279.105 167.916 281.572 163.039 282.318 161.318C285.014 163.957 288.628 168.088 291.382 173.94C292.931 177.21 293.907 180.251 294.48 182.775C296.029 181.398 298.898 178.415 300.218 173.711C300.734 171.875 300.906 170.211 300.906 168.834C297.578 166.998 295.456 164.761 294.251 163.326C293.735 162.695 288.628 156.27 288.915 147.377C289.03 144.164 289.718 144.107 290.235 139.173C290.694 134.755 290.464 131.026 290.235 128.559C293.161 129.764 294.652 129.19 295.341 128.788C296.66 127.985 297.005 126.551 298.21 119.265C298.841 115.363 299.185 113.413 299.3 112.38C299.988 106.815 300.332 104.004 299.988 101.766C299.013 95.3981 294.939 91.1526 293.562 89.833C291.268 87.5955 288.915 86.3333 287.366 85.6449C288.055 83.2352 288.686 80.7683 289.374 78.3586C286.104 82.2026 283.063 84.8417 280.998 86.5628C275.835 90.6936 272.851 91.6689 269.294 95.6276C266.483 98.7256 264.877 101.881 263.959 104.004C267.114 105.438 270.212 106.758 273.31 108.077Z" fill="#494949"/>
<path opacity="0.17" d="M249.673 69.3513C247.722 70.2119 243.133 72.6215 239.92 77.7276C239.117 78.9898 237.338 82.1452 236.822 86.5629C236.248 91.4395 237.453 95.2834 238.141 97.1766C238.371 92.4148 239.518 84.727 244.108 76.8097C245.886 73.8263 247.837 71.3593 249.673 69.3513Z" fill="#494949"/>
<path opacity="0.08" d="M290.235 128.846C290.063 128.789 289.718 129.42 288.456 133.78C286.735 139.689 285.817 144.049 285.301 146.23C284.555 149.385 283.293 153.86 280.941 159.253C285.014 160.056 289.087 160.859 293.161 161.605C291.669 158.335 289.891 153.631 289.202 147.779C288.112 137.739 290.809 128.961 290.235 128.846Z" fill="#494949"/>
</svg>
